<svg>
	<g><path fill-rule="evenodd" fill="#66cc99" stroke="#555555" stroke-width="2.0" opacity="0.6" d="M 79.91903776517482,4.945788846219655 L 79.96826837285823,5.298488332515812 L 80.12316261145978,5.272827533231473 L 80.26626776260056,5.175250854549656 L 80.356102895243,4.96455308493504 L 80.30874849535087,4.915815606297078 L 79.91903776517482,4.945788846219655 z" /><path fill-rule="evenodd" fill="#66cc99" stroke="#555555" stroke-width="2.0" opacity="0.6" d="M 28.422626752919484,46.575770986679274 L 28.502286646331914,46.54211041472201 L 28.407107345471527,46.54947688569917 L 28.422626752919484,46.575770986679274 z" /><path fill-rule="evenodd" fill="#66cc99" stroke="#555555" stroke-width="2.0" opacity="0.6" d="M 28.78842562078455,-59.71104629966868 L 29.18021018791989,-59.653282447830044 L 29.180993544457962,-59.667785785157 L 28.87181087879157,-59.80986783948625 L 28.78842562078455,-59.71104629966868 z" /><path fill-rule="evenodd" fill="#66cc99" stroke="#555555" stroke-width="2.0" opacity="0.6" d="M 77.52536617919513,0.7200988537320954 L 78.0736184378003,0.5646987481489527 L 77.91090144126498,0.058942785838430156 L 77.76212716319866,-0.04287002853788538 L 77.55627286521332,0.18381289600125889 L 77.52536617919513,0.7200988537320954 z" /><path fill-rule="evenodd" fill="#66cc99" stroke="#555555" stroke-width="2.0" opacity="0.6" d="M -16.275683347927185,-86.29126418430093 L -16.544504783343015,-86.26415353954485 L -16.413902566247916,-85.15578760631767 L -16.355571520852298,-85.04515548462935 L -15.932478166406687,-85.38324214729447 L -16.275683347927185,-86.29126418430093 z" /><path fill-rule="evenodd" fill="#66cc99" stroke="#555555" stroke-width="2.0" opacity="0.6" d="M -43.51284837161529,-49.14072242592221 L -43.132738737131156,-48.899283363782914 L -42.884420441915495,-49.210735933652856 L -42.777759301744204,-49.45617933034395 L -42.60348030708442,-49.97602433738158 L -42.7681968118572,-49.97886635194634 L -43.246321592663584,-49.88724789626277 L -43.51284837161529,-49.14072242592221 z" /><path fill-rule="evenodd" fill="#66cc99" stroke="#555555" stroke-width="2.0" opacity="0.6" d="M 63.637029942186665,39.14940490913644 L 64.56198477774684,40.048625409950105 L 64.58239473051356,39.2019287095406 L 63.66286274574976,39.00817041475723 L 63.637029942186665,39.14940490913644 z" /><path fill-rule="evenodd" fill="#66cc99" stroke="#555555" stroke-width="2.0" opacity="0.6" d="M 54.64611453422116,18.21562413692416 L 54.89997004432969,18.1098866927997 L 54.7294190687438,17.23466958980834 L 54.48747459807217,16.770930364097396 L 54.4494160680416,16.80712207177121 L 54.38161727205774,17.470270711334496 L 54.64611453422116,18.21562413692416 z" /><path fill-rule="evenodd" fill="#66cc99" stroke="#555555" stroke-width="2.0" opacity="0.6" d="M -2.7956725272815026,-78.46286869227444 L -2.812780864586924,-77.93733266670313 L -1.8793142429691196,-77.82044839732986 L -2.7956725272815026,-78.46286869227444 z" /><path fill-rule="evenodd" fill="#66cc99" stroke="#555555" stroke-width="2.0" opacity="0.6" d="M 66.25003428435552,-28.674214256541802 L 66.95274354533782,-29.476772439443952 L 67.3907515467607,-30.073273922847086 L 67.33499220582925,-30.138538438029645 L 67.0996309089887,-30.31857940524017 L 66.2093297248202,-29.488287239042364 L 65.92803868463605,-29.130046752573666 L 66.25003428435552,-28.674214256541802 z" /><path fill-rule="evenodd" fill="#66cc99" stroke="#555555" stroke-width="2.0" opacity="0.6" d="M 71.52369222831842,0.17162347838983746 L 72.34898278718741,0.29867262544512463 L 73.14869842943072,-0.07845584532408992 L 73.08605547963057,-0.9152672346901566 L 72.54872843597337,-1.0020431709385649 L 72.0985350103909,-0.8517728436023634 L 71.52369222831842,0.17162347838983746 z" /><path fill-rule="evenodd" fill="#66cc99" stroke="#555555" stroke-width="2.0" opacity="0.6" d="M 38.84431657606687,76.67516348820747 L 39.0889191159398,76.98278904658633 L 39.26567266557042,76.94019519878694 L 40.59913511390024,76.51969226013613 L 40.23848917567514,75.77862809161324 L 39.11539923233896,76.45213191058765 L 38.84431657606687,76.67516348820747 z" /><path fill-rule="evenodd" fill="#66cc99" stroke="#555555" stroke-width="2.0" opacity="0.6" d="M -42.78553325003694,-42.38253474990328 L -42.674075801190355,-42.35265578455696 L -42.260429322063054,-42.788922253409346 L -41.36623806065466,-43.76096276866386 L -41.09006128185179,-44.1830654307372 L -41.357617210117496,-44.44051410181672 L -42.174307741956966,-44.06469950762214 L -42.78553325003694,-42.38253474990328 z" /><path fill-rule="evenodd" fill="#66cc99" stroke="#555555" stroke-width="2.0" opacity="0.6" d="M 5.997444279688526,-32.95318337647434 L 5.589312271145571,-33.1696335328738 L 5.390646690670851,-32.78632647681244 L 4.981065321707676,-31.632522603255495 L 6.177582597386711,-31.085805305263186 L 6.258499505473035,-31.207642662958584 L 5.997444279688526,-32.95318337647434 z" /><path fill-rule="evenodd" fill="#66cc99" stroke="#555555" stroke-width="2.0" opacity="0.6" d="M 43.60719810022047,86.51947529534992 L 43.929852572024,87.06440232009108 L 44.35478226957586,87.7204059770858 L 44.41044241897911,87.72051027370951 L 44.59639404726867,87.52049636050528 L 45.27203943593715,86.78984199603762 L 45.36855008543953,86.67411198820938 L 45.39805217510496,86.36506365520226 L 45.15659668122224,85.75013660817554 L 43.60719810022047,86.51947529534992 z" /><path fill-rule="evenodd" fill="#66cc99" stroke="#555555" stroke-width="2.0" opacity="0.6" d="M 10.819419401609087,-19.539997441519866 L 10.87180476972357,-19.41159315601442 L 11.638085824630913,-18.328429663939733 L 12.473986993503427,-18.8188905834752 L 11.518165926873726,-20.45772303216906 L 10.819419401609087,-19.539997441519866 z" /><path fill-rule="evenodd" fill="#66cc99" stroke="#555555" stroke-width="2.0" opacity="0.6" d="M -8.809537608582026,-78.14899251745402 L -7.408586992588791,-77.65534404654383 L -7.207334706748419,-79.03455383421847 L -7.500953287513122,-79.0689343311849 L -7.812962151536475,-79.01196904117391 L -8.809537608582026,-78.14899251745402 z" /><path fill-rule="evenodd" fill="#66cc99" stroke="#555555" stroke-width="2.0" opacity="0.6" d="M 69.0396438916693,39.81717285538634 L 69.04991124210639,39.85799725165335 L 69.11485016711292,39.91296450642802 L 69.52442381476176,40.178508750110055 L 70.84413357123569,38.44360983604914 L 71.06485745850716,38.11600607216943 L 70.56017214749619,37.55908659787398 L 70.3849066064734,37.54798047597553 L 69.87383653765242,37.53220288388252 L 69.83906630645271,37.5541865763022 L 69.70649522148842,37.719938557658885 L 69.0396438916693,39.81717285538634 z" /><path fill-rule="evenodd" fill="#66cc99" stroke="#555555" stroke-width="2.0" opacity="0.6" d="M 54.378397544802574,-43.24593730946327 L 55.934744918163055,-43.136031925529885 L 56.358357954525125,-43.29112684355357 L 56.62760869484783,-43.42674144520266 L 56.75289316557379,-43.895367870441966 L 55.97880858646802,-44.894608908078915 L 55.87319218541259,-44.984871358087716 L 55.60900497911568,-44.82174945652397 L 55.48021486497604,-44.73756336557933 L 54.378397544802574,-43.24593730946327 z" /><path fill-rule="evenodd" fill="#66cc99" stroke="#555555" stroke-width="2.0" opacity="0.6" d="M -39.09777839275878,-39.42832115895879 L -38.34475512850354,-38.783399942436006 L -37.43311862478898,-38.463492764790175 L -37.04755509965827,-38.79453446028864 L -37.06113398073648,-38.83841258089924 L -37.96428028827637,-40.701482696549235 L -38.77759617435807,-39.88019638355762 L -39.09777839275878,-39.42832115895879 z" /><path fill-rule="evenodd" fill="#66cc99" stroke="#555555" stroke-width="2.0" opacity="0.6" d="M 19.70621070315771,-38.41598194155237 L 19.63563503994403,-38.06632074862943 L 21.742709698155622,-36.91048903027158 L 22.031532538955283,-38.14511573179341 L 21.835858198383512,-38.617719619231856 L 21.629930741976413,-39.04826507281535 L 19.70621070315771,-38.41598194155237 z" /><path fill-rule="evenodd" fill="#66cc99" stroke="#555555" stroke-width="2.0" opacity="0.6" d="M 5.163908544173493,-22.662198572514587 L 5.174458866604387,-22.32294427124992 L 5.391905257455239,-21.698292648312528 L 6.577558633419345,-21.39291436186097 L 7.408591739354976,-22.492316833229637 L 7.559918317392305,-22.81646582359344 L 7.518843621245507,-22.86056089813523 L 6.561478343986391,-23.812131322062925 L 5.163908544173493,-22.662198572514587 z" /><path fill-rule="evenodd" fill="#66cc99" stroke="#555555" stroke-width="2.0" opacity="0.6" d="M 41.575801655084554,17.074247033821013 L 41.50010495599163,17.929258224381265 L 42.98268419825019,20.04374589810495 L 43.06914210768332,20.042542668997793 L 43.30320985020382,19.347998974957314 L 41.575801655084554,17.074247033821013 z" /><path fill-rule="evenodd" fill="#66cc99" stroke="#555555" stroke-width="2.0" opacity="0.6" d="M -11.674652847190801,-89.50894139423187 L -12.197581490441179,-88.79521016725732 L -12.190279574578595,-88.26118659519705 L -11.991837206087954,-87.40828409453877 L -11.445491585892636,-87.16829121555404 L -10.189871345415519,-87.04742710414074 L -10.049340353738643,-87.2038647392847 L -11.674652847190801,-89.50894139423187 z" /><path fill-rule="evenodd" fill="#66cc99" stroke="#555555" stroke-width="2.0" opacity="0.6" d="M 40.640067139669505,81.20138235278783 L 40.64059363469452,81.27264934177046 L 40.70715157437789,82.63754541889266 L 42.54000792898996,82.03545392845808 L 43.40567805435491,81.47142129361684 L 42.910604258336306,80.43308560436084 L 40.94924079759586,81.09379017788713 L 40.640067139669505,81.20138235278783 z" /><path fill-rule="evenodd" fill="#66cc99" stroke="#555555" stroke-width="2.0" opacity="0.6" d="M 31.731046541643668,40.18430713103085 L 31.914012165693435,40.51827248473003 L 33.22473445119139,40.809358129094626 L 34.52184516717291,40.89741145338052 L 34.54778037333194,40.80460271317625 L 34.389549432067845,39.10732213618156 L 31.932373378395717,40.06892715537623 L 31.731046541643668,40.18430713103085 z" /><path fill-rule="evenodd" fill="#66cc99" stroke="#555555" stroke-width="2.0" opacity="0.6" d="M 16.57572464230319,-32.74544482001303 L 18.168666948449108,-31.605813314081747 L 19.55050430486373,-33.02028372181246 L 19.59366023384724,-33.235732103742635 L 17.853849208190255,-34.04976289881754 L 16.57572464230319,-32.74544482001303 z" /><path fill-rule="evenodd" fill="#66cc99" stroke="#555555" stroke-width="2.0" opacity="0.6" d="M -8.046866486350142,-91.6782788332744 L -7.024604053179812,-89.77584667619432 L -6.785539436433145,-89.64839609633663 L -5.712091754578252,-89.84366598182127 L -5.717726434772199,-91.25505189176226 L -5.728904285799349,-91.88366426082361 L -6.334693007188641,-91.95868760285005 L -8.046866486350142,-91.6782788332744 z" /><path fill-rule="evenodd" fill="#66cc99" stroke="#555555" stroke-width="2.0" opacity="0.6" d="M 82.27890162561874,-0.9395215847995022 L 82.31343574195736,-0.6543968735644445 L 82.33287513312786,-0.5929484417803097 L 82.93146234041423,0.3753355216654059 L 83.36390173329309,0.7540104487611166 L 85.46773381517893,-0.8759898104191673 L 85.5294025364107,-1.268487632649033 L 83.89129522500694,-1.3129768152288757 L 83.1738678991332,-1.303288663582354 L 82.84728064646339,-1.2497027828534186 L 82.27890162561874,-0.9395215847995022 z" /><path fill-rule="evenodd" fill="#66cc99" stroke="#555555" stroke-width="2.0" opacity="0.6" d="M 69.36579988276628,-35.47645433135806 L 69.50668057844125,-34.59907425008109 L 69.74913644078994,-33.950019861701726 L 70.55141372285608,-33.32805230593167 L 71.11966658738449,-33.497333470905765 L 71.24210877513343,-33.56645034295292 L 72.3420220667529,-34.66258130687916 L 72.40795411246768,-34.86264549503929 L 72.07178765622321,-35.91215836399978 L 71.54402792919024,-36.156375937785306 L 69.36579988276628,-35.47645433135806 z" /><path fill-rule="evenodd" fill="#66cc99" stroke="#555555" stroke-width="2.0" opacity="0.6" d="M 9.522675952620853,-28.263101414528172 L 9.497315903380926,-28.14013748367641 L 9.503159983911177,-27.637382775701834 L 9.609538319289653,-27.056340720154967 L 10.267961980129044,-26.31586565419463 L 11.479274494461686,-25.62551306220391 L 11.678763668449683,-25.618257858877445 L 12.472624617682559,-27.501309539528425 L 12.541954014088683,-27.668002767687252 L 11.742107391875319,-27.84852331874732 L 9.522675952620853,-28.263101414528172 z" /><path fill-rule="evenodd" fill="#66cc99" stroke="#555555" stroke-width="2.0" opacity="0.6" d="M -40.34858144198822,-56.09444098066253 L -39.724218618888905,-54.433953461722965 L -39.7192284226423,-54.427912510482656 L -37.14974913860354,-55.19793300136878 L -37.106462856883404,-55.385699374281245 L -37.93956900510486,-56.74052184285233 L -38.49636159858628,-57.141082314675856 L -38.73078710604843,-57.29945744338655 L -39.676479805539834,-56.61441820092472 L -40.34858144198822,-56.09444098066253 z" /><path fill-rule="evenodd" fill="#66cc99" stroke="#555555" stroke-width="2.0" opacity="0.6" d="M 33.112256568804014,80.54425588758588 L 33.22857077088143,80.72935203354419 L 34.34123892238199,82.21690616066091 L 34.81538088926928,82.2716253791313 L 35.776935452375234,82.333709820826 L 35.888370630568616,82.26944399406729 L 35.83930662304514,80.46613191822604 L 35.57048223885972,79.7130539032984 L 35.45359111553138,79.56042588256932 L 35.0172202687329,79.21505992494805 L 33.112256568804014,80.54425588758588 z" /><path fill-rule="evenodd" fill="#66cc99" stroke="#555555" stroke-width="2.0" opacity="0.6" d="M 12.841216985518653,-39.17392734356043 L 12.902563027296276,-37.4719443847273 L 13.044798454822377,-35.72667576348059 L 13.352254464005666,-35.66356449077777 L 14.653313442694792,-37.06745496245326 L 15.103228072172596,-38.336436717507 L 14.753902844058489,-38.59156828032772 L 12.841216985518653,-39.17392734356043 z" /><path fill-rule="evenodd" fill="#66cc99" stroke="#555555" stroke-width="2.0" opacity="0.6" d="M 47.24255372348423,9.089113638414023 L 47.45134941643682,9.652360848521646 L 48.63759540700435,10.215627431873981 L 50.888866648537245,9.978133382411077 L 50.06813330823436,9.07658471508013 L 48.344994548098086,7.707015333112552 L 47.24255372348423,9.089113638414023 z" /><path fill-rule="evenodd" fill="#66cc99" stroke="#555555" stroke-width="2.0" opacity="0.6" d="M 65.18536938804831,6.139134502600788 L 66.68601688645002,5.556050112009526 L 67.11024972344991,5.368296946808452 L 67.20691961850905,5.111960327856797 L 67.48342647039202,3.518624397322709 L 67.51222089497436,3.334416525682218 L 67.45242235117722,3.2059775947700806 L 65.5492778444998,2.6599308114864066 L 65.2664478998029,4.9830399922323 L 65.19086205168908,5.925552237735139 L 65.18536938804831,6.139134502600788 z" /><path fill-rule="evenodd" fill="#66cc99" stroke="#555555" stroke-width="2.0" opacity="0.6" d="M 38.377577571624414,8.363667181250118 L 38.73599773114773,9.002319876991898 L 39.18667648543279,9.55112846876571 L 40.861884072272574,10.960092536525027 L 42.09979412964799,8.30793018342406 L 38.377577571624414,8.363667181250118 z" /><path fill-rule="evenodd" fill="#66cc99" stroke="#555555" stroke-width="2.0" opacity="0.6" d="M -11.544454642837307,-74.16927441913654 L -11.807817571333384,-73.36717274129226 L -11.975481992249751,-71.70777581543877 L -11.653631365034139,-71.00468461493169 L -10.246889427754606,-70.52116537339673 L -8.945344249386789,-72.50937312755015 L -8.450637405500906,-73.28225688924145 L -8.559976604223642,-73.50301168125746 L -8.735815656599625,-73.62490656955367 L -11.544454642837307,-74.16927441913654 z" /><path fill-rule="evenodd" fill="#66cc99" stroke="#555555" stroke-width="2.0" opacity="0.6" d="M 40.27343365172681,68.57204629239912 L 40.30491204793992,68.66305334182883 L 41.098891616166924,70.38247013774848 L 43.99030891127191,68.37094616468401 L 43.53726243127415,66.50016864914427 L 43.24419777259815,66.63662049665807 L 40.27343365172681,68.57204629239912 z" /><path fill-rule="evenodd" fill="#66cc99" stroke="#555555" stroke-width="2.0" opacity="0.6" d="M 4.743796402630322,-16.018174542083216 L 4.814340282527987,-15.845526444289897 L 8.468010878300865,-12.740501191058465 L 8.618245223360523,-13.21379234962451 L 8.954812016746414,-14.397572612741751 L 8.378657722315838,-15.109321176268416 L 5.401657051392652,-17.053186780368865 L 5.3841976378868965,-17.032045114902818 L 4.743796402630322,-16.018174542083216 z" /><path fill-rule="evenodd" fill="#66cc99" stroke="#555555" stroke-width="2.0" opacity="0.6" d="M 57.27751945121836,-38.61903611115996 L 57.86224157281198,-35.21563116103726 L 59.11888463583996,-36.153157927635945 L 59.51968064143185,-36.64884246615158 L 60.723416962549,-38.90604162353624 L 60.791025158565084,-39.11222281192079 L 59.994871748544895,-39.98919280345576 L 59.79724279826877,-39.9890102610106 L 57.27751945121836,-38.61903611115996 z" /><path fill-rule="evenodd" fill="#66cc99" stroke="#555555" stroke-width="2.0" opacity="0.6" d="M -45.488825847694216,-61.0629771904414 L -45.22927926206154,-60.522654875621846 L -44.409039974718205,-59.69522715209624 L -44.40721473830771,-59.69445178208042 L -44.10131133932598,-59.77165766755226 L -42.92069749729456,-60.11197018187697 L -40.92735296634204,-61.32617326969256 L -40.98211173379065,-61.45104811706513 L -42.29400249321722,-63.73733858779164 L -44.06997187857384,-62.3523702889166 L -45.488825847694216,-61.0629771904414 z" /><path fill-rule="evenodd" fill="#66cc99" stroke="#555555" stroke-width="2.0" opacity="0.6" d="M 27.376711759936082,82.8706636766102 L 27.110520784025923,85.20915343831665 L 28.2831367778691,86.7101304047754 L 28.385374493214506,86.81410801491924 L 31.302656655655568,86.2167707199231 L 31.46564360327806,85.7509336566502 L 29.636061476089807,83.36245657909687 L 29.071039640970923,82.79503611540123 L 28.871234472033336,82.63625302308782 L 28.10437608761563,82.74251784374728 L 27.376711759936082,82.8706636766102 z" /><path fill-rule="evenodd" fill="#66cc99" stroke="#555555" stroke-width="2.0" opacity="0.6" d="M 65.13767344789271,12.24011758927435 L 65.57636870782571,12.627547660728863 L 69.77448472704455,13.30223415515191 L 69.71244154575537,10.080980363779513 L 68.77050458806649,9.606723760127409 L 67.15876937490515,10.197403048889475 L 66.01902945544353,11.187235436111067 L 65.30504923485924,12.015814768588378 L 65.13767344789271,12.24011758927435 z" /><path fill-rule="evenodd" fill="#66cc99" stroke="#555555" stroke-width="2.0" opacity="0.6" d="M 43.47811061883552,74.36290535615885 L 43.8773494108854,75.29432305489881 L 44.822619964728915,76.94644478834884 L 44.849810980157116,76.95935405631566 L 46.007439860670495,76.62362477400046 L 48.39599886032786,73.09052463128846 L 48.40376705756815,72.93843412969163 L 47.15735838682358,72.01144414665077 L 46.69005910675895,71.99774438391722 L 44.155261469054956,73.75231182125762 L 43.47811061883552,74.36290535615885 z" /><path fill-rule="evenodd" fill="#66cc99" stroke="#555555" stroke-width="2.0" opacity="0.6" d="M -38.34594681612151,-48.43607276292993 L -37.97249714201912,-47.771358283394704 L -37.5081315127769,-47.277972681402375 L -36.99071665517964,-46.744744682426614 L -35.919788599415384,-46.45762916121314 L -35.759784513713655,-46.572798474157125 L -34.36284800278788,-48.064529003352945 L -33.951961004418244,-48.56361996274418 L -33.74450653580757,-49.02996905704401 L -34.12173911801087,-50.18735907682568 L -34.8154997885987,-51.27520647310143 L -36.45085321888555,-50.79225967775209 L -36.673948053523624,-50.699770335921855 L -37.64367521277154,-50.25745075561266 L -38.28250242249195,-49.216835696349435 L -38.33864148341184,-48.95009744160882 L -38.34594681612151,-48.43607276292993 z" /><path fill-rule="evenodd" fill="#66cc99" stroke="#555555" stroke-width="2.0" opacity="0.6" d="M 81.22520297243776,-7.477309883831256 L 81.49598545426271,-6.137556183896232 L 81.69021940649498,-5.783907049113613 L 85.85688930207007,-5.719136343172265 L 86.05700931142475,-5.728248257368002 L 86.20577458273335,-8.847827035010903 L 81.7834803218856,-7.922234157866334 L 81.22520297243776,-7.477309883831256 z" /><path fill-rule="evenodd" fill="#66cc99" stroke="#555555" stroke-width="2.0" opacity="0.6" d="M 36.49302909562675,61.19602886099049 L 36.81247933016601,62.02998440583053 L 37.88506993525515,64.27866283277014 L 38.016259165719184,64.50507001726864 L 39.68629545909508,63.57867461965985 L 41.68230520161029,62.3701953036248 L 39.625009984268964,60.378567579627024 L 38.7238015800329,59.907128645682405 L 36.49302909562675,61.19602886099049 z" /><path fill-rule="evenodd" fill="#66cc99" stroke="#555555" stroke-width="2.0" opacity="0.6" d="M 35.537087405675216,87.89672328854466 L 37.19198892145074,91.53079683922248 L 40.33884400524393,90.18335903924965 L 39.89866248903873,89.35296043156991 L 37.99101552320649,86.31226136011028 L 37.43527220097868,86.6701030836351 L 35.537087405675216,87.89672328854466 z" /><path fill-rule="evenodd" fill="#66cc99" stroke="#555555" stroke-width="2.0" opacity="0.6" d="M -11.700036468752598,-98.22264214049127 L -11.241337532416408,-96.58459264277887 L -11.150231993504875,-96.26041910298672 L -10.866304763168447,-95.7299777975677 L -7.547244597318445,-96.15674998098746 L -6.055913832055944,-96.73050839240115 L -5.910690623578083,-97.54459237854279 L -5.8410055792152145,-98.28656565598644 L -5.8266501997370925,-98.48023359875681 L -11.700036468752598,-98.22264214049127 z" /><path fill-rule="evenodd" fill="#66cc99" stroke="#555555" stroke-width="2.0" opacity="0.6" d="M 36.302060982280224,-36.202949638637584 L 36.351190966177114,-36.00493694229304 L 38.43940189124006,-32.38562707328505 L 39.11050902855285,-31.45176787236977 L 41.33608222417734,-33.8352465215462 L 37.1364814671733,-37.24038273968649 L 36.302060982280224,-36.202949638637584 z" /><path fill-rule="evenodd" fill="#66cc99" stroke="#555555" stroke-width="2.0" opacity="0.6" d="M 53.085656217219245,28.93139656844397 L 55.18954897531192,29.166945175283047 L 58.423763762358796,28.381667739688467 L 58.76482226253844,27.298879428179077 L 54.43868013628617,25.166248189710505 L 53.2611657248615,25.632497340871648 L 53.01789711943438,25.784643689128234 L 53.085656217219245,28.93139656844397 z" /><path fill-rule="evenodd" fill="#66cc99" stroke="#555555" stroke-width="2.0" opacity="0.6" d="M 48.997005380184895,-37.435134369066674 L 48.93308232658487,-37.112302776156994 L 53.067832593163324,-32.79393890518441 L 53.5804879674671,-33.18593023196935 L 53.08644094999646,-37.19352683679403 L 52.7276783473577,-38.34301714542573 L 52.665401896187014,-38.48534908127239 L 50.9781074962227,-39.13426571284386 L 49.82578204799098,-38.323739371842315 L 48.997005380184895,-37.435134369066674 z" /><path fill-rule="evenodd" fill="#66cc99" stroke="#555555" stroke-width="2.0" opacity="0.6" d="M -12.00021206112836,-11.42018729334989 L -6.716229640824638,-14.285459687450974 L -9.008958823090076,-17.48269544052975 L -10.845352395345522,-14.34054103025396 L -12.16855619124683,-11.61546254812607 L -12.00021206112836,-11.42018729334989 z" /><path fill-rule="evenodd" fill="#66cc99" stroke="#555555" stroke-width="2.0" opacity="0.6" d="M 27.72103016770683,-54.81138792231928 L 27.48854595591191,-52.50956150628188 L 27.423645653991056,-51.388392600306204 L 28.327453129656863,-51.295730309254175 L 33.60719449090744,-51.03030625070772 L 33.62571302196379,-51.04323472800523 L 33.322561612669446,-53.14170810840108 L 27.72103016770683,-54.81138792231928 z" /><path fill-rule="evenodd" fill="#66cc99" stroke="#555555" stroke-width="2.0" opacity="0.6" d="M -19.627445954223674,-76.151857387476 L -19.72865802106579,-75.5986602549405 L -18.61778503008775,-71.77486494807438 L -17.96142262510659,-71.84474647019387 L -16.700988036569797,-72.37967244891023 L -16.68174268284595,-72.42745544136106 L -16.534825595477873,-72.93358892268255 L -15.385246980502133,-77.75450634124597 L -17.51369475020509,-78.56510048624577 L -19.627445954223674,-76.151857387476 z" /><path fill-rule="evenodd" fill="#66cc99" stroke="#555555" stroke-width="2.0" opacity="0.6" d="M 40.056177191889915,-42.84661051789054 L 39.54291016178425,-42.18804024689976 L 39.226259437948855,-41.42139439638839 L 39.18282719534144,-41.28132331140263 L 40.113023463692365,-40.17094717778468 L 41.045901356258554,-39.17704400196069 L 42.767123778814344,-37.989406780394305 L 43.50598526305043,-37.56979593266434 L 44.27107762948476,-37.18201066105554 L 44.60611307755304,-37.10416957125795 L 46.422186524928705,-38.955225624756395 L 46.36978770733446,-38.994529337113235 L 40.056177191889915,-42.84661051789054 z" /><path fill-rule="evenodd" fill="#66cc99" stroke="#555555" stroke-width="2.0" opacity="0.6" d="M -54.995399748762715,-55.350244493352605 L -53.12019015104788,-52.611496509887004 L -48.158201575798806,-56.03003411342222 L -48.17444412189024,-56.56844856233331 L -48.67043899991951,-57.3444466222664 L -49.56161109285799,-58.60214165048386 L -54.995399748762715,-55.350244493352605 z" /><path fill-rule="evenodd" fill="#66cc99" stroke="#555555" stroke-width="2.0" opacity="0.6" d="M 42.037806332404436,56.007418456987416 L 44.59956729827478,59.75779218492862 L 44.61800086195648,59.77481735697575 L 45.02376613377021,59.77301541406358 L 45.16694993597355,59.7418206209752 L 47.40566008751,58.328105354968685 L 45.21079121380992,52.74378459603004 L 43.912743787072635,52.220128447186326 L 43.212097152404006,53.178926816810076 L 42.66026701462725,54.25708256067996 L 42.27784796716175,55.30121668671838 L 42.037806332404436,56.007418456987416 z" /><path fill-rule="evenodd" fill="#66cc99" stroke="#555555" stroke-width="2.0" opacity="0.6" d="M -19.406583696828363,-17.680145995916682 L -17.008061888680807,-15.58633991038849 L -15.75845927677488,-14.789535862944923 L -13.341943506992784,-19.027996752880135 L -12.282217302549585,-20.983069081877318 L -14.731299802088477,-21.59637444318014 L -14.837249196023848,-21.60073768908476 L -14.838831442441098,-21.59939238910787 L -19.406583696828363,-17.680145995916682 z" /><path fill-rule="evenodd" fill="#66cc99" stroke="#555555" stroke-width="2.0" opacity="0.6" d="M 63.64949154895682,22.17235683678633 L 70.8794268142077,20.021154442618194 L 70.46762049639986,18.82758674885011 L 69.76515456353268,17.784643073673443 L 66.81381571893414,17.24966914924645 L 64.0836403385628,17.69342315337633 L 63.64949154895682,22.17235683678633 z" /><path fill-rule="evenodd" fill="#66cc99" stroke="#555555" stroke-width="2.0" opacity="0.6" d="M 2.6628991942946647,98.54848107814787 L 6.953942442486779,98.37408685676118 L 8.22050008819395,98.24053343454462 L 7.799229561270213,94.43452396465706 L 7.593826548615146,94.30319576527467 L 6.914646519520548,93.91750045168129 L 3.894342208270072,92.51909685608202 L 2.6628991942946647,98.54848107814787 z" /><path fill-rule="evenodd" fill="#66cc99" stroke="#555555" stroke-width="2.0" opacity="0.6" d="M 46.684554508854745,-18.233120012392003 L 48.287851447354456,-17.190693981818935 L 51.80297551673667,-15.068556891759446 L 54.05643898782435,-19.179354497721242 L 52.315092362336,-20.7718703924988 L 51.13444772365877,-21.840693032244126 L 46.684554508854745,-18.233120012392003 z" /><path fill-rule="evenodd" fill="#66cc99" stroke="#555555" stroke-width="2.0" opacity="0.6" d="M 56.729544936905434,5.715258881473158 L 56.59545285184832,5.771560879321038 L 56.3770614226356,7.0221789355782125 L 56.384739936582925,9.17757071293672 L 57.1801965681957,11.081206130302586 L 59.03545885580978,11.117975062357697 L 61.27480674547317,9.935264847129492 L 61.78344763370927,5.001138957462347 L 59.057843696780566,5.377327772090508 L 56.729544936905434,5.715258881473158 z" /><path fill-rule="evenodd" fill="#66cc99" stroke="#555555" stroke-width="2.0" opacity="0.6" d="M -25.810363332593358,-22.689162877810507 L -22.807933600172195,-20.59414923486145 L -22.291181927259846,-20.99228968132834 L -18.0918273878783,-24.777154103728172 L -17.95584124024836,-24.963040837599078 L -19.271361719304856,-26.737944021089195 L -19.86153135165437,-27.468703809665513 L -20.279677270046037,-27.95458865474918 L -21.218595135138933,-27.29729500510549 L -25.810363332593358,-22.689162877810507 z" /><path fill-rule="evenodd" fill="#66cc99" stroke="#555555" stroke-width="2.0" opacity="0.6" d="M 14.398697717933278,-48.41353887448154 L 13.626369754722534,-45.22158884937264 L 13.263652338199542,-43.66944995802684 L 13.269866701012447,-43.66016992171012 L 13.404727111272175,-43.47381538956545 L 16.017056124703345,-43.021073950890894 L 17.927572668816033,-42.7492082608058 L 18.410501061681263,-42.82796416559134 L 19.369252331053165,-43.09456190834542 L 20.765057110895626,-44.233471028826216 L 21.067376002823945,-45.648104783444694 L 14.398697717933278,-48.41353887448154 z" /><path fill-rule="evenodd" fill="#66cc99" stroke="#555555" stroke-width="2.0" opacity="0.6" d="M 74.34274953742172,16.435500923276216 L 74.45905682974157,16.774563773375355 L 74.68109519838357,17.22165236166683 L 76.14892917030616,17.883512673974767 L 80.26464996055931,12.81750705945129 L 79.57906638036467,11.041382723495046 L 78.96617522810128,10.519280003575744 L 75.1724464269323,9.815487581322776 L 75.10908623065727,9.835328401032102 L 74.81702098182913,10.339118285390436 L 74.47015821841417,11.211227731103943 L 74.34274953742172,16.435500923276216 z" /><path fill-rule="evenodd" fill="#66cc99" stroke="#555555" stroke-width="2.0" opacity="0.6" d="M -33.620582544649515,-92.86368819380017 L -30.20009901709302,-88.56123512787045 L -26.291501168154003,-90.7612704631507 L -26.086339232274774,-91.05705358439454 L -26.57522093903751,-95.45346807969304 L -28.12353617744675,-95.06189839843947 L -33.36772566770647,-93.00053000147287 L -33.620582544649515,-92.86368819380017 z" /><path fill-rule="evenodd" fill="#66cc99" stroke="#555555" stroke-width="2.0" opacity="0.6" d="M 4.91076907544653,88.11262701754697 L 5.67349460522941,88.55984732864196 L 9.230709359210588,89.88911533484135 L 12.058679012875466,87.16491167502791 L 9.86503524991905,82.30625645629459 L 5.741642682812524,84.00003515190306 L 5.517182977636868,84.62713517932883 L 4.91076907544653,88.11262701754697 z" /><path fill-rule="evenodd" fill="#66cc99" stroke="#555555" stroke-width="2.0" opacity="0.6" d="M 47.54668444050391,65.87292986725573 L 48.88930346824051,67.52925694213133 L 49.86254236017181,68.37226501127492 L 51.768037572728964,69.51580224537297 L 54.37166876645128,69.03508923632482 L 54.98809228901762,68.55647073922869 L 53.89349407332475,64.5388391391645 L 53.68050820172313,64.34294664921089 L 51.969966801923256,62.838067424431884 L 50.356722826964436,61.9175328123308 L 48.65237074436711,62.74362224653895 L 47.5758421630618,65.42194798727704 L 47.54668444050391,65.87292986725573 z" /><path fill-rule="evenodd" fill="#66cc99" stroke="#555555" stroke-width="2.0" opacity="0.6" d="M 55.6599384482467,-12.828254454204657 L 56.623509972671265,-12.229452861122207 L 60.69093402356895,-9.899029185533742 L 61.654370550985085,-13.02607256158451 L 62.712816574327704,-17.512801846765335 L 62.72021213497208,-17.86083188288276 L 58.20678216208349,-17.321901304494936 L 58.04404890376855,-17.079285409188888 L 55.6599384482467,-12.828254454204657 z" /><path fill-rule="evenodd" fill="#66cc99" stroke="#555555" stroke-width="2.0" opacity="0.6" d="M -70.65932336214591,-55.14956564524664 L -68.70443517222216,-51.44737564425047 L -61.88418714452215,-56.11861945189981 L -66.86284327858154,-59.14865211574629 L -67.5742726783489,-58.409064865555905 L -70.65932336214591,-55.14956564524664 z" /><path fill-rule="evenodd" fill="#66cc99" stroke="#555555" stroke-width="2.0" opacity="0.6" d="M 12.533993419913683,97.81831008006935 L 12.542435562051269,97.82776743077073 L 14.059216429746243,97.86434462811987 L 15.566863594583452,97.67569949818014 L 18.38721672570736,97.22587227752332 L 18.778071581754062,97.15254753951947 L 19.21497844169783,96.9756234182439 L 18.91297551722324,95.5956702067431 L 18.626162754148737,94.58051688077369 L 17.56342177007805,91.53494470682102 L 15.072095103460878,90.4997869154734 L 14.513940087615097,90.99026063976473 L 12.425859301211759,92.8956668480798 L 12.350118517701064,93.0030812941972 L 12.266934765343684,93.83614795520087 L 12.223811612097334,95.04132990989082 L 12.533993419913683,97.81831008006935 z" /><path fill-rule="evenodd" fill="#66cc99" stroke="#555555" stroke-width="2.0" opacity="0.6" d="M -22.340985824147072,-96.24372729073497 L -21.826259215164217,-93.1081530892274 L -21.53768745221907,-91.93257564194995 L -18.894480269182438,-90.17914113205173 L -16.98588249128689,-90.9213387233052 L -14.957363614484045,-91.9718712312998 L -15.109543301524338,-93.7908860508238 L -15.472524314985932,-95.17717746982458 L -16.232080164136367,-97.65462365637018 L -19.538312228856736,-97.09182635453298 L -20.49304665733675,-96.85080190006336 L -21.74234807287834,-96.46472364299984 L -22.340985824147072,-96.24372729073497 z" /><path fill-rule="evenodd" fill="#66cc99" stroke="#555555" stroke-width="2.0" opacity="0.6" d="M -54.47990075438325,80.58325906475946 L -54.228175842311174,80.85708431301825 L -49.157035785144245,80.39180330723028 L -48.51366131384964,79.86519699176706 L -47.59619697114006,78.50638968197394 L -46.230188757027875,76.23806448932459 L -48.92267959313214,72.04536981202142 L -54.47990075438325,80.58325906475946 z" /><path fill-rule="evenodd" fill="#66cc99" stroke="#555555" stroke-width="2.0" opacity="0.6" d="M -6.505387257399404,-22.033326577493586 L -6.154897094355918,-21.302175907522287 L -3.061705251024512,-16.987840396515193 L -2.128616463330347,-16.49656830157734 L -0.1897566910993988,-16.418736861000458 L -0.13355168338553777,-16.437766749874225 L 1.0934157037047536,-18.648811454314973 L 1.3726035883871806,-19.577295909629903 L 0.07543056130603942,-23.747966979353848 L -3.7135317090328663,-24.768436888899906 L -3.986876367252714,-24.534964404352085 L -6.505387257399404,-22.033326577493586 z" /><path fill-rule="evenodd" fill="#66cc99" stroke="#555555" stroke-width="2.0" opacity="0.6" d="M 83.58438348904964,8.774677244145918 L 84.61280321181981,11.361052250089555 L 84.76682187376532,11.636251751850525 L 88.55434154501579,11.753701382092975 L 90.94646806933376,5.2154222577543115 L 90.62542707247727,4.7972920068559635 L 88.01011398854807,2.7214518769346263 L 86.61659528173057,3.6411624442638733 L 85.73114901410518,4.2545934901639 L 83.71915374225317,8.211140094484954 L 83.58438348904964,8.774677244145918 z" /><path fill-rule="evenodd" fill="#66cc99" stroke="#555555" stroke-width="2.0" opacity="0.6" d="M 65.57637929266959,-8.115955811832187 L 71.56811054555668,-8.641221864094172 L 71.68765433100174,-9.749801418178036 L 71.37296538049384,-11.932361404301002 L 70.9190053108224,-14.656730350306175 L 70.17541185334008,-16.30480168300425 L 67.2443347318807,-17.41117300350164 L 65.96287934115206,-11.964965586496996 L 65.57637929266959,-8.115955811832187 z" /><path fill-rule="evenodd" fill="#66cc99" stroke="#555555" stroke-width="2.0" opacity="0.6" d="M 40.07119804701171,29.625128943502602 L 41.803618245507195,32.48455259699601 L 46.522850027375746,30.23732296115831 L 47.298421999948964,29.504088645128284 L 48.25528947401591,26.93294972721044 L 48.36105471427481,26.421411093398806 L 47.21696268068829,23.23430553407441 L 41.969779319286104,26.414630232321866 L 40.46996635401259,28.560231713784752 L 40.07119804701171,29.625128943502602 z" /><path fill-rule="evenodd" fill="#66cc99" stroke="#555555" stroke-width="2.0" opacity="0.6" d="M -28.925583187556143,-80.97042114242375 L -28.770172173553675,-80.91460569898656 L -24.609368422695482,-79.55223615443245 L -23.7575155201591,-79.49138007048845 L -23.14235367184709,-79.64109324611344 L -22.993177413483924,-79.69743832663943 L -21.61546683100082,-80.95114537059895 L -20.436823506782286,-82.43179675227593 L -21.0750705719144,-85.76645762456828 L -21.171077418468368,-86.20629490297124 L -22.856197398092068,-87.48104379535917 L -27.2609927025816,-85.24553041626828 L -28.3051549163576,-84.49471677589068 L -28.925583187556143,-80.97042114242375 z" /><path fill-rule="evenodd" fill="#66cc99" stroke="#555555" stroke-width="2.0" opacity="0.6" d="M 92.70800191131664,13.468207722309215 L 93.49685625815717,14.649108894896438 L 93.71557688020151,14.826155230554388 L 97.0628209529621,17.138201183204142 L 97.06804066894586,17.125063438524645 L 97.66069890375404,14.116608708150176 L 98.49472838825575,7.045997513228444 L 98.45591574068575,6.241188728725025 L 98.4298382804731,6.186520952457778 L 95.60549731994257,6.543328267563889 L 95.19143461002089,6.621802401477004 L 93.3403338995303,10.570587111079734 L 92.8246519371913,11.70300179056207 L 92.7970834169724,12.110490071296475 L 92.70800191131664,13.468207722309215 z" /><path fill-rule="evenodd" fill="#66cc99" stroke="#555555" stroke-width="2.0" opacity="0.6" d="M -79.3165562277903,-58.6967256655802 L -76.27677069517931,-58.30183444784282 L -74.75669913825449,-58.1484167694731 L -73.87358125516691,-58.08348710672528 L -73.47190374745523,-58.401066482902976 L -70.4712797847247,-61.99924286259967 L -69.60639595393543,-63.226447852397776 L -72.64307534810857,-66.709124416683 L -73.31354949795583,-66.12691762680764 L -75.8238675701473,-63.33371630441012 L -78.53472128186645,-59.88473109144442 L -79.3165562277903,-58.6967256655802 z" /><path fill-rule="evenodd" fill="#66cc99" stroke="#555555" stroke-width="2.0" opacity="0.6" d="M 15.553827129751467,-52.77024855584536 L 22.453781284762847,-49.88554477143604 L 22.917131321998543,-51.94263180232472 L 23.22726882914822,-54.06314176351262 L 23.39167361774071,-56.92452937140999 L 23.017409136692304,-57.27708412928178 L 16.688222584043956,-58.08676716761938 L 15.553827129751467,-52.77024855584536 z" /><path fill-rule="evenodd" fill="#66cc99" stroke="#555555" stroke-width="2.0" opacity="0.6" d="M 30.685163785234415,50.545448547373134 L 33.32816399817941,56.005891968817394 L 33.59615399880727,56.38098769996099 L 34.22320560496062,57.14488954669806 L 36.20769707103103,56.25267666116478 L 37.46602895558606,54.901546463607346 L 38.7651895426511,52.05719068786287 L 39.388302180870305,50.18663529526361 L 38.92810052029252,49.85312002629323 L 36.2095139570038,47.94669805027603 L 30.685163785234415,50.545448547373134 z" /><path fill-rule="evenodd" fill="#66cc99" stroke="#555555" stroke-width="2.0" opacity="0.6" d="M 13.860729115192902,80.20539718161655 L 15.120057244426345,83.62455843119552 L 16.37722895041793,85.97446029654351 L 17.239805292737344,86.8477753729827 L 19.184063547666096,87.2017171082728 L 20.860440343035524,86.55149484498155 L 21.153956782372845,86.33239710138697 L 21.845686959722222,85.66244456025018 L 22.587360854957197,84.4339283028273 L 22.713880432498428,83.84128948494465 L 22.852817662798632,82.59437966853164 L 22.940754064962004,81.56874715466789 L 16.046396403503156,78.77016254106674 L 16.025901452990272,78.77608374634339 L 13.919573500213076,80.15689354672463 L 13.860729115192902,80.20539718161655 z" /><path fill-rule="evenodd" fill="#66cc99" stroke="#555555" stroke-width="2.0" opacity="0.6" d="M 15.636387433416255,-23.12835595490924 L 15.964341976642688,-22.13043447080034 L 16.43841027589887,-21.42633082491075 L 16.905799104835847,-21.089176240669286 L 17.293718260451335,-21.25866262334334 L 24.23210021118799,-24.44190534589921 L 24.384560556362295,-24.597051982060513 L 24.338775930719425,-24.774056655377997 L 23.879398513498842,-25.776514180403282 L 22.840156457350346,-27.577660391295773 L 21.605580756487726,-29.5401117342582 L 19.884261659015845,-31.135833959103696 L 19.357462955156873,-31.378094820634782 L 19.203345811255584,-31.413954090750522 L 18.063124611318912,-29.37213887955711 L 15.658433109701981,-23.678209406431083 L 15.636387433416255,-23.12835595490924 z" /><path fill-rule="evenodd" fill="#66cc99" stroke="#555555" stroke-width="2.0" opacity="0.6" d="M 17.72909003618606,-62.40044890284072 L 18.426678611583963,-62.22416506618138 L 23.49759093249111,-61.6178443188468 L 24.838189239198943,-61.61670064009628 L 25.20890323713605,-62.469582819243065 L 25.919032596344575,-65.32983699780597 L 25.865968035956186,-66.88151639001987 L 19.476989354248587,-70.43481147151549 L 18.233403913270664,-64.97002055530257 L 17.72909003618606,-62.40044890284072 z" /><path fill-rule="evenodd" fill="#66cc99" stroke="#555555" stroke-width="2.0" opacity="0.6" d="M 54.261268994260746,-25.129410720892874 L 58.13698755327974,-21.66387237953654 L 60.729981667912554,-21.993887750937727 L 61.900015564725116,-22.161559015432573 L 63.32909182007443,-22.54429072329004 L 63.69943583240504,-23.350181725172597 L 63.269864370805124,-25.095702659935107 L 62.91809070879578,-25.686783655875622 L 62.3303906723304,-26.58119764828956 L 58.88140722629296,-30.557277580203568 L 54.44738793827781,-28.20646417682686 L 54.261268994260746,-25.129410720892874 z" /><path fill-rule="evenodd" fill="#66cc99" stroke="#555555" stroke-width="2.0" opacity="0.6" d="M -45.94280186906188,84.07629546703328 L -45.78617595068306,84.67410768894865 L -44.53877977585098,86.25704695414241 L -40.145459786888985,86.3318051715579 L -39.80656966928115,86.33577700224842 L -39.47212658195889,85.90076582118293 L -38.95201968031762,85.19160191013994 L -35.22140335442572,79.7374973312133 L -36.4814554770831,79.03695451583934 L -40.16301598510204,78.54602521800649 L -41.879068020588555,78.5706947058729 L -45.94280186906188,84.07629546703328 z" /><path fill-rule="evenodd" fill="#66cc99" stroke="#555555" stroke-width="2.0" opacity="0.6" d="M 68.24103593134292,-24.193575552580196 L 68.24312655593586,-23.784505755990903 L 68.2850190582341,-23.33068599471678 L 68.48513781924868,-22.200230405423294 L 69.21028406968462,-21.069693022423728 L 71.42334195748238,-20.529305497062165 L 73.08733458699348,-20.724867659072274 L 76.16368588682826,-21.894965278866106 L 77.5705648131281,-22.467438884178197 L 77.54895916232219,-24.183166980588563 L 77.44932477985628,-25.802768819155087 L 76.69882425023208,-28.675507026215307 L 75.3083149673674,-30.893289387087943 L 75.2353005243959,-30.9942078503382 L 74.61316500462692,-30.455292786250872 L 72.82726517691525,-28.902926125172375 L 70.1556700412078,-26.314192398901874 L 69.39594957607366,-25.535017427311754 L 68.41713418323867,-24.432452584450715 L 68.24103593134292,-24.193575552580196 z" /><path fill-rule="evenodd" fill="#66cc99" stroke="#555555" stroke-width="2.0" opacity="0.6" d="M -16.799071447378893,-30.940754743251407 L -16.05716245470892,-29.8787663365268 L -12.4632991121422,-25.12230278414817 L -9.671803297227617,-25.207415798684064 L -8.92861211538659,-25.74680986311811 L -7.733905654157154,-27.017067706913895 L -7.074296724347196,-27.777331402183215 L -7.238213598073473,-32.34518674424759 L -7.366695373561188,-33.03917021366316 L -8.013004320587852,-34.740243095668205 L -9.089374294736336,-34.818562526145904 L -10.237705818607958,-34.53381188154044 L -11.188107085848346,-34.29405748701387 L -11.9224089749383,-34.033482124859 L -14.559255230649393,-32.87015690557174 L -16.171477127675107,-31.49761185847866 L -16.799071447378893,-30.940754743251407 z" /><path fill-rule="evenodd" fill="#66cc99" stroke="#555555" stroke-width="2.0" opacity="0.6" d="M -43.1646292378378,-88.85057882111117 L -43.00191765904146,-88.39164801167233 L -42.37670816381904,-87.51528912842733 L -35.963281925881354,-79.46890827895334 L -33.523803584025856,-80.84476035065704 L -32.87430293501068,-84.32015304276 L -34.36763233799979,-86.87096094571058 L -35.19610342598323,-87.9694350461403 L -36.604719967928474,-89.80053759995073 L -36.75585189727899,-89.96527444947486 L -37.53761479828258,-90.8171974671017 L -37.70497919581566,-90.91269069302056 L -37.92013418449109,-90.90346898158128 L -38.658933589156206,-90.6422187807437 L -39.537748520654034,-90.32339073629606 L -42.59005431092571,-89.13269573749115 L -43.1646292378378,-88.85057882111117 z" /><path fill-rule="evenodd" fill="#66cc99" stroke="#555555" stroke-width="2.0" opacity="0.6" d="M 25.182165330946,-42.950713477774414 L 26.475424592852566,-38.94469454703302 L 28.002276390635053,-38.85290456911849 L 32.097982127809736,-38.63975198075298 L 33.141872922755006,-39.42519341061975 L 34.762825751631894,-42.673280383578614 L 35.8643053264531,-45.09226084538379 L 35.75916873813677,-45.198621583066156 L 34.568635073483435,-45.891922077802796 L 33.173232212789785,-46.47414421369754 L 31.162232181274778,-46.71544938983464 L 29.33846303324045,-46.92277079446874 L 27.333439436115146,-46.79571955009209 L 27.289845373650405,-46.79140951080547 L 26.292182806688324,-46.650721618026836 L 26.204583441583043,-46.57486173596489 L 25.775512646403662,-46.045827934246766 L 25.62474913937121,-45.50254158635454 L 25.182165330946,-42.950713477774414 z" /><path fill-rule="evenodd" fill="#66cc99" stroke="#555555" stroke-width="2.0" opacity="0.6" d="M 50.157351462468974,34.22657902448538 L 54.01527287919363,41.850226891868374 L 54.092506112166284,41.86956424038619 L 57.11655797616252,42.12886805029443 L 60.33323595130094,34.84055036651787 L 60.67789054664889,33.40404411282267 L 60.854215722101806,32.41931113503933 L 60.83534897437846,32.40209155983771 L 59.325445160749624,31.837943545672996 L 50.157351462468974,34.22657902448538 z" /><path fill-rule="evenodd" fill="#66cc99" stroke="#555555" stroke-width="2.0" opacity="0.6" d="M 90.78410777373774,-9.293701353084737 L 90.36651996876063,-2.2115703285922175 L 90.7798000300224,-0.44793319262659903 L 92.61923639337517,0.6905729819735282 L 93.76139329476315,1.3718976686184767 L 95.70134771954037,1.7800629983049576 L 97.23387123001875,2.0241595509113917 L 97.95588988020134,1.664311541720782 L 98.33939298844791,0.20897194705070843 L 98.63676167457675,-3.755955344282493 L 98.64448667588026,-4.9967115150304355 L 98.38194255622787,-6.847629149222908 L 98.02091443649637,-7.354810880577558 L 94.86959233603224,-8.330334488943375 L 90.78410777373774,-9.293701353084737 z" /><path fill-rule="evenodd" fill="#66cc99" stroke="#555555" stroke-width="2.0" opacity="0.6" d="M -44.37072653734891,69.03839680694507 L -41.815943019957594,72.93281028412558 L -40.198047535518896,73.88337662205659 L -36.931832752128855,74.65375620530658 L -34.72626160636004,74.35381961441176 L -33.832620294555795,73.96669831365922 L -34.747315696031265,69.08684771751975 L -35.61491918237891,66.3813981021765 L -38.56903479556891,63.00681000735047 L -40.32119944541636,63.81335397010585 L -44.37072653734891,69.03839680694507 z" /><path fill-rule="evenodd" fill="#66cc99" stroke="#555555" stroke-width="2.0" opacity="0.6" d="M -2.9376953839075752,44.221367206605976 L -2.142712077805535,44.70489057448365 L 7.5967621880255285,46.806337583332294 L 8.296571016390754,36.66761028822911 L 3.5838131052859854,38.01619745731748 L 2.950240367630394,38.305711106084615 L -0.8903493963774396,40.06285762260906 L -1.689838033796408,40.449034746213826 L -1.9348219863544085,40.761139829274384 L -2.7070973869590866,42.953143031597456 L -2.9376953839075752,44.221367206605976 z" /><path fill-rule="evenodd" fill="#66cc99" stroke="#555555" stroke-width="2.0" opacity="0.6" d="M 48.03834385243402,81.69301332678002 L 48.24120078544751,82.03492979026952 L 48.89146680128748,83.04593511043548 L 50.38845380987304,84.20842150627799 L 50.85198762859918,84.1523473920185 L 53.432891580827366,82.92167411297675 L 55.43498187829169,81.66824458905312 L 59.03444727530709,79.37065200916739 L 60.80781799118378,77.86946463512312 L 61.30671516713739,77.44266773280452 L 57.37369252728652,72.97069706124014 L 57.07158694258776,72.96616695172476 L 56.63414431121804,72.98973249741415 L 54.71530524907114,73.63605979655408 L 53.02532111729371,74.35952815068467 L 51.70664626511858,75.93267680526706 L 48.03834385243402,81.69301332678002 z" /><path fill-rule="evenodd" fill="#66cc99" stroke="#555555" stroke-width="2.0" opacity="0.6" d="M -50.94208412735459,-82.92377386129584 L -50.57085369912432,-82.0864397631292 L -45.2016166395158,-72.89589626641987 L -44.49521243759274,-72.08661229904807 L -40.611700377393205,-75.83239073389444 L -39.76148093325355,-76.95914700474776 L -39.63165233610516,-77.71797480513393 L -39.69718432813611,-77.99848196757533 L -41.104910762042834,-79.59475778849993 L -47.7009678552466,-86.46532027298875 L -47.94306706165133,-86.40424549078016 L -49.79182886612174,-85.29930081510484 L -50.94208412735459,-82.92377386129584 z" /><path fill-rule="evenodd" fill="#66cc99" stroke="#555555" stroke-width="2.0" opacity="0.6" d="M 38.66095536612406,-22.838108532642384 L 41.41053218309947,-21.10048950661032 L 42.495709079174475,-20.700750341882276 L 49.55020201888924,-26.2467738409654 L 49.785039034335995,-30.097752191835966 L 48.81053936185081,-31.428276906952153 L 45.67128974913152,-33.9286135217283 L 42.63859461756293,-30.48491155275162 L 39.92310970335965,-27.126367116068 L 39.02652122649775,-25.859991461766718 L 38.66095536612406,-22.838108532642384 z" /><path fill-rule="evenodd" fill="#66cc99" stroke="#555555" stroke-width="2.0" opacity="0.6" d="M 38.690746720691926,38.08961350862964 L 38.823610190764356,39.37599630243762 L 39.77089510364765,45.137833162922085 L 43.666586557538444,47.18770045121503 L 46.088776822117566,48.08086888262429 L 47.763892720211174,46.21950090460849 L 49.31481700966518,43.67556085905876 L 49.2436002408129,43.46015821347952 L 46.893816285213106,37.333965614884086 L 46.0136658575633,35.59466012317388 L 39.657556814620726,37.11268586779368 L 39.63626072689116,37.13143831987643 L 38.690746720691926,38.08961350862964 z" /><path fill-rule="evenodd" fill="#66cc99" stroke="#555555" stroke-width="2.0" opacity="0.6" d="M -55.09371952718286,-12.681659457934236 L -52.944297718723305,-11.960056279853184 L -47.84764386861635,-10.678446697926654 L -46.2055866050758,-10.28198692385112 L -43.86426854460747,-9.806697698101104 L -46.67096660043874,-21.317030166507315 L -51.75582723851006,-21.61933022601429 L -55.09371952718286,-12.681659457934236 z" /><path fill-rule="evenodd" fill="#66cc99" stroke="#555555" stroke-width="2.0" opacity="0.6" d="M 22.24653589050675,-28.530742145249317 L 26.949105905806938,-25.048603603728047 L 30.08169734999587,-23.255346934088518 L 31.618601745718543,-24.39932319737934 L 35.75494451412618,-28.248145093850734 L 32.50407910118496,-33.17967392975701 L 31.94038380143918,-33.904562175098896 L 27.496927869840558,-34.37778715655853 L 26.152133679381453,-34.48416105175892 L 23.385983578134663,-30.494703015903873 L 22.24653589050675,-28.530742145249317 z" /><path fill-rule="evenodd" fill="#66cc99" stroke="#555555" stroke-width="2.0" opacity="0.6" d="M -16.901091835461653,30.157416335587875 L -16.901023715372386,30.17416562020354 L -16.323498623358752,30.94641819929502 L -12.330306190850756,33.71469780691249 L -11.50270752693691,34.24939722774925 L -10.14707085842993,35.02285311674944 L -8.320203386117008,35.91254196536943 L -3.525672393904128,36.21498656313746 L -3.4127022934808577,35.185055899339936 L -3.2569105769910447,32.63384911231103 L -3.398728721941976,31.519483691792523 L -3.51199116875461,30.882475464243907 L -3.664764440079181,30.638346848027428 L -5.729254932994813,28.783650586848097 L -10.891779067855216,25.256889708860527 L -12.07964287545854,24.452582368033465 L -12.64591780805398,24.568224684083997 L -15.402290441687855,27.93624120180118 L -16.901091835461653,30.157416335587875 z" /><path fill-rule="evenodd" fill="#66cc99" stroke="#555555" stroke-width="2.0" opacity="0.6" d="M -85.35500678874492,-48.34905762003623 L -73.3546100368951,-42.340790501167895 L -72.44194296485082,-45.13926678903424 L -71.94410418267763,-46.706875293945075 L -71.80532348163611,-47.19719698283305 L -72.33895636485207,-48.9339264042362 L -74.11193677571346,-51.8331751952867 L -76.25023951411148,-53.61739120893801 L -79.84405874006677,-54.35642136500353 L -81.59071421716196,-54.51029206226076 L -82.60893601968816,-53.34532521515386 L -84.09606800390728,-50.815249346587734 L -85.35500678874492,-48.34905762003623 z" /><path fill-rule="evenodd" fill="#66cc99" stroke="#555555" stroke-width="2.0" opacity="0.6" d="M 79.88365718717317,39.407582105623234 L 83.85699243226378,41.55148146557177 L 85.46064974704628,42.15270141876954 L 86.66377388550713,42.55420123466157 L 88.5279683940843,42.86383661501483 L 89.31322589325377,42.64661626190426 L 91.44331584090013,37.376918424218516 L 93.27902571312873,32.33603783044466 L 86.81031352000795,32.137860466245534 L 85.51030196418405,32.13764123855286 L 82.74134628410167,32.414306445401444 L 80.25168588703436,37.5318624819084 L 79.76917071585578,38.64797204744724 L 79.88365718717317,39.407582105623234 z" /><path fill-rule="evenodd" fill="#66cc99" stroke="#555555" stroke-width="2.0" opacity="0.6" d="M 22.543757120283175,32.6963479076065 L 22.861405098966745,33.71774867791177 L 24.54665316108049,35.51607983284684 L 25.98391576608321,35.6558927452112 L 28.36419916613207,35.745950313227645 L 33.48036832360683,35.13681825602264 L 36.17457950765409,34.42877388797428 L 35.54188053516648,31.709749782218335 L 32.19524540873501,22.90435060900311 L 22.543757120283175,32.6963479076065 z" /><path fill-rule="evenodd" fill="#66cc99" stroke="#555555" stroke-width="2.0" opacity="0.6" d="M -42.000145291242035,-21.91788775390388 L -41.913350244035925,-20.868033090966552 L -40.000380105845245,-12.189324693175687 L -38.830910851967865,-9.036544264932976 L -36.48869262858559,-12.036256695484946 L -36.034478755560805,-12.62982945030602 L -31.781071681084192,-18.266366373735895 L -30.664451244246838,-19.782689399461034 L -30.101709866129248,-20.804630754392495 L -38.22416425311907,-25.105714808546086 L -39.69914460770912,-23.970532052785646 L -42.000145291242035,-21.91788775390388 z" /><path fill-rule="evenodd" fill="#66cc99" stroke="#555555" stroke-width="2.0" opacity="0.6" d="M 20.797360207190547,-74.67712987097474 L 20.967389499464765,-74.5866939744376 L 27.97523703090094,-71.40507531710468 L 28.416073723222524,-71.24829399332292 L 30.446190344522066,-72.00803140866935 L 35.82722166801894,-74.17139950456772 L 35.33756931754215,-75.96987222036427 L 34.53353460141919,-77.53142464811067 L 30.26788840575723,-79.4880698605741 L 25.30078606353528,-81.51537629186903 L 22.355239954417453,-82.49187185787514 L 22.13924273142527,-82.08634226686503 L 20.963319054355964,-76.90633566549921 L 20.666577708784992,-75.4112196446126 L 20.797360207190547,-74.67712987097474 z" /><path fill-rule="evenodd" fill="#66cc99" stroke="#555555" stroke-width="2.0" opacity="0.6" d="M -10.074129271385228,20.456359848435905 L -9.40424840553964,20.907216576721083 L -1.8557898861588276,25.78913004206417 L 6.789914457357665,17.314482303621208 L 6.077955579899667,16.150581047198422 L 5.152837764225288,15.869014578545714 L -5.587825165814814,15.598930279715912 L -7.29359859997874,15.669027451419181 L -7.357653447561092,15.688712866844114 L -7.980042847555832,16.435383479475774 L -8.560309072518521,17.350622898688588 L -9.380704851275926,18.773772712976182 L -9.905965615840678,19.714008999509375 L -10.074129271385228,20.456359848435905 z" /><path fill-rule="evenodd" fill="#66cc99" stroke="#555555" stroke-width="2.0" opacity="0.6" d="M 12.624987668320086,48.60976984593318 L 24.142589304584213,44.968969194871285 L 23.590899205779213,43.77639647458059 L 22.64266156553479,41.735831192355135 L 18.03127484977972,35.754392202882244 L 17.306071935432236,35.14330806900497 L 14.036376761621433,35.23243112905074 L 13.676971178628174,35.31193794808483 L 12.981881120603191,35.537464976926564 L 12.318374483448777,38.57362309759258 L 12.17257791777475,39.905107815025396 L 12.198939972557755,46.403148881980655 L 12.242022894489835,48.20170183457989 L 12.352334020757,48.38787499751542 L 12.624987668320086,48.60976984593318 z" /><path fill-rule="evenodd" fill="#66cc99" stroke="#555555" stroke-width="2.0" opacity="0.6" d="M 63.603255703321445,27.054090445923485 L 63.59084494064741,27.097420802521107 L 63.5189032263957,28.074430406880907 L 64.45171679102987,30.115999366671407 L 69.41064428298813,33.56628617473355 L 73.77902865869788,35.92977322760227 L 75.57456480466563,36.86984266720087 L 77.29501576358106,33.37622325358427 L 77.65079976348504,32.54619051061054 L 77.8719052884751,30.99833163023779 L 77.87194317982825,29.407907865161825 L 76.47990408319575,26.166652187662308 L 74.87849777591325,24.006939457786427 L 69.84535289839025,25.145671080315243 L 65.29214394229678,26.190321008993624 L 63.603255703321445,27.054090445923485 z" /><path fill-rule="evenodd" fill="#66cc99" stroke="#555555" stroke-width="2.0" opacity="0.6" d="M -36.09170278078047,-29.801732581391832 L -34.101851035740275,-27.40277293909183 L -32.506288445811634,-26.551868853212557 L -28.04823368751755,-24.44820378195571 L -27.34600887451314,-24.229369032686584 L -26.3588722999759,-25.442952515454483 L -24.485685362207903,-27.954552028851896 L -24.25741259001988,-29.282398245575926 L -23.894336393741174,-32.80235914489813 L -24.096455697050988,-33.595557882072 L -25.15275156635281,-35.733143315004405 L -26.897106571052223,-38.666816190084255 L -26.94872624622668,-38.72476167078104 L -29.129664584208015,-38.24131528356538 L -34.28063573035609,-35.29693220788566 L -35.82715079345904,-33.78403772858085 L -36.09170278078047,-29.801732581391832 z" /><path fill-rule="evenodd" fill="#66cc99" stroke="#555555" stroke-width="2.0" opacity="0.6" d="M -5.700269614138615,59.03903380696591 L 8.856958801052064,57.39433701509094 L 9.64313386444479,52.183670996220044 L 9.539511677184324,52.02675768322945 L 5.180596426209919,50.76930393832939 L 3.0788950578090213,50.324504829930405 L -2.824462615577871,49.09291280744871 L -3.867226914063443,48.90084442076823 L -4.181300285472086,50.4484477000699 L -5.010865871492502,54.822393815211285 L -5.700269614138615,59.03903380696591 z" /><path fill-rule="evenodd" fill="#66cc99" stroke="#555555" stroke-width="2.0" opacity="0.6" d="M -35.27767595238211,-56.86191008284678 L -35.312646504967766,-56.74448237021294 L -29.175651428465525,-46.88682923610474 L -28.10082881090052,-45.508692270818784 L -26.48110068489078,-46.77270342159403 L -20.794034920153806,-51.59016330195773 L -24.44440328669317,-60.1677270061039 L -35.27767595238211,-56.86191008284678 z" /><path fill-rule="evenodd" fill="#66cc99" stroke="#555555" stroke-width="2.0" opacity="0.6" d="M 58.93500955930429,-48.32032389110231 L 58.97135463727087,-48.268414906387804 L 62.031246673188,-44.529784479121346 L 64.45126341185228,-41.6765682964148 L 66.22657021063672,-39.749993260295525 L 67.2819394127545,-39.82474904816982 L 69.80131982511851,-40.16993437973607 L 69.86195201351376,-40.21465987781052 L 73.55254724308892,-45.775328972175636 L 64.8551738957638,-54.948702052554154 L 63.755271437110075,-53.884234492569334 L 61.22566261150532,-51.10814105714287 L 58.93500955930429,-48.32032389110231 z" /><path fill-rule="evenodd" fill="#66cc99" stroke="#555555" stroke-width="2.0" opacity="0.6" d="M 1.3708754425856955,35.26162838088896 L 4.668981174470775,34.83853091634315 L 11.569151924550045,32.85791683076348 L 15.837962580619479,31.542930725358534 L 15.983405040588455,31.495328872101815 L 16.10127083049537,31.22466733438169 L 15.496018952687608,30.208342605252263 L 9.812676118451051,21.188865083136704 L 9.233661966129123,20.77647861784685 L 9.147183593008403,20.78072378426308 L 8.403241531415095,21.39404153085014 L 7.8553779176236995,21.932428810717102 L 3.6171466671562227,26.21342611553803 L 1.2984837260425208,28.700945659313494 L 0.957610819683832,29.30208239853927 L 1.361540043761954,35.17236794907738 L 1.3708754425856955,35.26162838088896 z" /><path fill-rule="evenodd" fill="#66cc99" stroke="#555555" stroke-width="2.0" opacity="0.6" d="M 67.83079157295299,-58.4173559707672 L 68.29477429405021,-57.8430598010118 L 68.40252216653938,-57.711723347492544 L 69.7072104428294,-56.22992119331555 L 73.60140127560422,-51.88588543104907 L 76.8747779693331,-48.492934591997184 L 77.02843618306129,-48.46172138989767 L 83.82011301312768,-52.58495356219568 L 83.7545272192223,-52.852481798866336 L 80.17474267758375,-57.801632799608846 L 74.4520206293041,-64.5004166779499 L 74.17980121167956,-64.54125437898144 L 72.93971328639398,-63.89091007992584 L 70.1109094600101,-60.89714541573687 L 67.83079157295299,-58.4173559707672 z" /><path fill-rule="evenodd" fill="#66cc99" stroke="#555555" stroke-width="2.0" opacity="0.6" d="M 49.472344598450505,51.34457625856063 L 49.46745991795777,52.76984538805702 L 49.726903086251276,54.498987239190456 L 50.67640512185228,55.69236562174104 L 52.3041768315362,57.27653180640556 L 53.58841485106671,58.265225822247835 L 54.4321685527776,58.89676958593503 L 56.109498091719985,60.14878474695086 L 64.87821481792984,53.89636472858939 L 65.22156554052026,53.075792063419726 L 64.93987280643995,52.21999583035705 L 63.80729848521369,50.77249366685162 L 63.588143861222235,50.49292895904374 L 60.89284273125508,48.610253124939554 L 58.373487487511944,47.051598450774996 L 56.8739167799861,46.59304615345732 L 54.27702303694912,46.88841153381253 L 52.52518183682168,47.4748725877356 L 49.472344598450505,51.34457625856063 z" /><path fill-rule="evenodd" fill="#66cc99" stroke="#555555" stroke-width="2.0" opacity="0.6" d="M 79.45855245836465,19.668655166165024 L 79.4385691169631,19.779900706424097 L 79.60643677429684,22.143126135542715 L 81.54139880849769,26.698028405402162 L 90.95589815956632,27.65708566551126 L 94.63265149799292,27.742889488832358 L 95.95743211479564,22.522860696849683 L 95.77590091195668,22.05862609721714 L 95.26470633188575,21.444533775060656 L 93.59195119688225,20.17917689629391 L 88.70163575685336,17.184274257309863 L 88.54725792702078,17.134025648569562 L 85.14515489813778,16.450597837510433 L 83.78263129164765,16.908533649820306 L 80.75053808916827,18.253526487770944 L 79.45855245836465,19.668655166165024 z" /><path fill-rule="evenodd" fill="#66cc99" stroke="#555555" stroke-width="2.0" opacity="0.6" d="M 23.672398422528055,-87.84624573254528 L 24.057877434255435,-86.88654944780461 L 29.931190281821166,-84.39609300270047 L 36.196879912776204,-82.05983157435303 L 36.58334817966768,-82.5953285456586 L 37.02255516033991,-83.31476415830889 L 39.70342461327069,-87.87815654469367 L 40.48167256121969,-89.95438634180861 L 40.23027842021964,-90.11962163234493 L 39.18935933141957,-90.64208737248312 L 36.72398246489306,-91.73305710994575 L 33.241510279632884,-92.96054801105707 L 31.13973304493852,-93.61794716268318 L 28.357509698751212,-94.44008100425893 L 27.108690411275,-94.78748406762442 L 25.3354828421864,-95.2047757657118 L 24.95708974942391,-93.98757751008375 L 23.672398422528055,-87.84624573254528 z" /><path fill-rule="evenodd" fill="#66cc99" stroke="#555555" stroke-width="2.0" opacity="0.6" d="M -58.71084235039766,56.41554928512599 L -58.692901136382986,56.46885650292421 L -51.19601711198659,65.46762254642017 L -49.088992259321955,65.02780104086438 L -41.62092387481101,58.999468262910504 L -49.05011829837542,49.0290932870034 L -49.26284921445935,49.14416348202146 L -55.33461855178099,53.79762303193517 L -58.71084235039766,56.41554928512599 z" /><path fill-rule="evenodd" fill="#66cc99" stroke="#555555" stroke-width="2.0" opacity="0.6" d="M -56.10305434794874,-31.32962411349501 L -54.354076749998974,-28.29973462584323 L -52.804289803897234,-26.272494327685603 L -52.384737310587475,-26.156622277093952 L -50.43488951011776,-25.90069361711298 L -46.37214581427835,-25.717345749870358 L -44.75011229767727,-25.79903819453231 L -42.79678723399335,-27.18890668340886 L -41.64219437918239,-28.086108884134315 L -40.63832580605168,-28.90448921030679 L -40.5357817121814,-29.992553740294387 L -40.449082343206314,-32.255405233857545 L -40.703878080480195,-34.30220135513943 L -40.898127643387866,-34.52843156239059 L -42.864858223602305,-36.587652823974594 L -47.50380664299885,-40.3524382926665 L -49.33132978520628,-41.51897991180338 L -56.10305434794874,-31.32962411349501 z" /><path fill-rule="evenodd" fill="#66cc99" stroke="#555555" stroke-width="2.0" opacity="0.6" d="M 58.11655705052977,64.94196003742128 L 59.76899918677319,68.96728260171415 L 64.8676945847949,74.79435099733465 L 69.26573529898039,70.51290776193817 L 73.00659654639018,66.72880912236123 L 75.66376966370592,63.480265327896575 L 74.22528598792125,62.06385918579698 L 67.9100198149441,57.413999001262674 L 67.41564745719477,57.73534310859074 L 58.47033566635649,63.87430179155776 L 58.40798812299937,63.92304877208752 L 58.11655705052977,64.94196003742128 z" /><path fill-rule="evenodd" fill="#66cc99" stroke="#555555" stroke-width="2.0" opacity="0.6" d="M -25.511493116733988,-41.39308439360335 L -25.39810862534478,-40.8120194897205 L -24.83174909467333,-39.79294166833428 L -22.735352408415434,-36.90459049242811 L -20.341987218262332,-33.67977487210365 L -19.86700720743673,-33.63959946782106 L -17.166056253637326,-33.91373543852788 L -14.139083741075614,-34.270206743406675 L -9.98087421063345,-35.204571922650025 L -9.795624266609874,-35.33270731545596 L -9.67703288729633,-36.922011792972185 L -9.926669831554088,-39.62786586788626 L -10.633740683482621,-46.695389406044654 L -10.86412445390935,-47.1295864785985 L -15.193190316824893,-47.81662955811577 L -18.27967276896169,-47.826648690320674 L -18.51951329813912,-47.6878444688627 L -23.494662245678853,-43.47696034571435 L -24.80915554003737,-42.206634818021065 L -25.511493116733988,-41.39308439360335 z" /><path fill-rule="evenodd" fill="#66cc99" stroke="#555555" stroke-width="2.0" opacity="0.6" d="M -70.66007436755942,66.70996698039185 L -70.21453921634337,67.91472317852033 L -69.39073960666065,69.26397065075244 L -67.55462144565614,71.1869882959724 L -59.265109466484844,77.56514826799653 L -58.94532734301076,77.74981861781255 L -58.524052030324285,77.51728997106741 L -53.920495842327504,72.01676831265216 L -53.733306096676415,71.78303983049763 L -53.679137739630924,70.76056056700843 L -55.265925855097684,67.13525319281385 L -57.6143339550254,64.51423155033669 L -60.71556286124751,62.117371021932236 L -63.67109549003046,60.16861473543475 L -70.25360345023746,64.81837543599367 L -70.61333496623227,65.48897830643735 L -70.66007436755942,66.70996698039185 z" /><path fill-rule="evenodd" fill="#66cc99" stroke="#555555" stroke-width="2.0" opacity="0.6" d="M 13.188546332754042,59.360516619576565 L 13.933679033042408,60.70678602243875 L 16.7286864624978,64.63203854406169 L 16.996495891545532,64.50510366895084 L 31.303113789870494,57.572008833274175 L 31.121869748222593,57.11895505116359 L 26.666353584816914,48.89361426033448 L 26.209596158588713,49.02475217675799 L 17.84982339279333,51.54345502011518 L 13.988951849535459,52.976791861668026 L 13.564722448267887,54.1968569141107 L 13.471420154402706,54.92394218738287 L 13.188546332754042,59.360516619576565 z" /><path fill-rule="evenodd" fill="#66cc99" stroke="#555555" stroke-width="2.0" opacity="0.6" d="M -20.474160783295954,-62.285212546832554 L -20.471853659446413,-61.13108883386239 L -18.080399441723287,-56.31714634691646 L -16.880778999106983,-53.91120457939334 L -16.204903600766205,-52.71360185276636 L -12.811921442160099,-51.85737712412852 L -12.0106417361962,-51.72324136090283 L -10.51736376110436,-51.590902463299905 L -2.8029363973661963,-59.88674149951964 L -3.96819027818385,-61.884934431817335 L -4.437551072435079,-62.51748623978407 L -15.373252469297249,-67.75373746796133 L -15.511386944905414,-67.77635700542348 L -18.7675367599947,-67.11183275664993 L -20.474160783295954,-62.285212546832554 z" /><path fill-rule="evenodd" fill="#66cc99" stroke="#555555" stroke-width="2.0" opacity="0.6" d="M -11.617808244632872,96.20455747676345 L -10.66350652472948,96.84668994345692 L -5.633740550494759,98.41811101444483 L -4.337281350850667,98.8052945635035 L -3.291339896994958,98.8317511455281 L -1.89550320758219,98.72152341210928 L -0.886143748622754,93.6847317739144 L 1.1058587665106752,82.89802798895798 L -9.020961860666327,78.69623649450791 L -9.513193581168656,81.52837324599159 L -11.756862126083918,95.1564028610572 L -11.738489709852459,95.31827783098042 L -11.617808244632872,96.20455747676345 z" /><path fill-rule="evenodd" fill="#66cc99" stroke="#555555" stroke-width="2.0" opacity="0.6" d="M 82.02012569639312,-23.973720575966947 L 81.93984961792174,-23.159237335320977 L 81.995538711532,-22.290947706437905 L 82.65834039383849,-20.035358161758452 L 84.63885528815858,-14.370991847103504 L 86.03676100134693,-11.267535117385851 L 87.414730334566,-11.587241698713605 L 96.44147658886968,-13.969138031923109 L 97.60149494177632,-14.380285430746182 L 97.61025203321907,-14.397120971112365 L 96.31350528975268,-20.873580150315142 L 94.60809379392379,-27.917593369354396 L 94.2314263808406,-29.20366199659005 L 82.7086311346015,-25.201432097043956 L 82.02012569639312,-23.973720575966947 z" /><path fill-rule="evenodd" fill="#66cc99" stroke="#555555" stroke-width="2.0" opacity="0.6" d="M 69.16879099329681,48.862130054969114 L 69.9142956807859,52.91519402741283 L 70.72182145887979,54.145948780411445 L 78.62056092430286,59.437339722628906 L 78.87423331503771,59.606821012108306 L 79.83507829482421,58.23247818162747 L 84.96206263967842,49.964151206528015 L 86.28882507442427,47.14598774890792 L 85.20303777290722,45.99848424734173 L 77.57916097707063,41.16545581821566 L 76.09372773961194,40.397361167156305 L 74.97725823046282,40.332069067555146 L 69.16879099329681,48.862130054969114 z" /><path fill-rule="evenodd" fill="#66cc99" stroke="#555555" stroke-width="2.0" opacity="0.6" d="M -68.90089999293382,-35.7887616956525 L -59.756799562090414,-34.51291826881216 L -59.26562392675802,-34.999628918856835 L -58.26441564179552,-36.260552364172085 L -56.56943298697377,-38.54668240142652 L -52.832347329949414,-43.599843455555344 L -53.40699024048327,-45.39620264026492 L -54.135347699888044,-46.426077836333704 L -58.48230981134,-52.07819616429886 L -59.04810534300482,-52.686676652572224 L -59.10048937204164,-52.74096321147575 L -59.94093741104157,-52.542327100665034 L -60.486497169006306,-52.28488207568459 L -62.55166626176814,-51.14424824966892 L -63.973538859709116,-50.252523018544586 L -65.56070636116229,-48.995361296979844 L -67.07618747658725,-46.79374991510308 L -69.31249454071309,-40.41714479628181 L -69.58849829860928,-39.10126000592083 L -69.61241577247411,-38.618365056053825 L -68.90089999293382,-35.7887616956525 z" /><path fill-rule="evenodd" fill="#66cc99" stroke="#555555" stroke-width="2.0" opacity="0.6" d="M -41.658750700624566,-68.60243658069392 L -41.566528338270494,-67.60153185673317 L -40.80006132937587,-66.10446037982253 L -39.25054604931884,-63.1902051035632 L -38.46717180355022,-61.76347914988269 L -37.773110634443185,-60.839211050512 L -33.609488736138665,-61.89873077767942 L -27.166314803165452,-63.78252640502798 L -25.048885650600596,-64.51410618682115 L -24.259508696314395,-64.99790101313297 L -23.192107781125475,-67.32529188193075 L -22.882589984247005,-68.89799300883685 L -22.970693723023754,-70.46976188954555 L -23.45702826213701,-73.04675175464408 L -23.590018301167238,-73.51763353501035 L -24.201874138622074,-74.84448956536684 L -24.4213968006215,-74.96156556959703 L -25.02448659994267,-75.10771975155367 L -32.27873655792182,-76.59702362411069 L -33.19810437975508,-76.19652174142395 L -35.56157396876928,-74.32725884179135 L -41.1281823633311,-69.57206372586347 L -41.658750700624566,-68.60243658069392 z" /><path fill-rule="evenodd" fill="#66cc99" stroke="#555555" stroke-width="2.0" opacity="0.6" d="M 74.82664548708915,-41.71635143329732 L 74.6992500948035,-41.247171689177414 L 74.8829629136732,-40.55542701439983 L 77.63436450808913,-35.55625973573141 L 81.4964943484362,-29.560963488652185 L 86.31259706540168,-30.96523425828954 L 92.74272639925152,-33.07788785047831 L 92.94098959162918,-33.6733074922847 L 92.58866258561324,-34.79410982104094 L 90.24412352589829,-40.70013658196445 L 86.0011984961429,-48.63631334646504 L 76.17193358099472,-42.61670443874437 L 74.82664548708915,-41.71635143329732 z" /><path fill-rule="evenodd" fill="#66cc99" stroke="#555555" stroke-width="2.0" opacity="0.6" d="M 15.637124721803147,1.282824264767315 L 15.735553834749986,3.704807199600864 L 16.496119137209355,4.578752890518289 L 29.87730026660904,10.623178666248771 L 32.34999226090546,11.668739673863932 L 32.422728005602394,11.534852516139935 L 34.49678657494554,5.764409748718547 L 35.908709595639394,1.3458767038214383 L 36.0124942738236,0.5245931672442928 L 35.08346884897014,-3.314620122689036 L 34.68156791551076,-4.779686694831833 L 34.64129963277372,-4.815468909949377 L 34.23399857370658,-5.177220155104673 L 16.216647509005647,0.9166651724589675 L 15.81725999435262,1.1279633610892035 L 15.637124721803147,1.282824264767315 z" /><path fill-rule="evenodd" fill="#66cc99" stroke="#555555" stroke-width="2.0" opacity="0.6" d="M 53.25016273015968,-65.42141553154158 L 61.6002999039397,-55.29455506262658 L 63.69026779945572,-57.172727488282106 L 69.51833665579345,-63.09335887090705 L 69.91261732068806,-63.6126566007204 L 71.33280517778476,-66.1091491069765 L 70.78614100039222,-67.98175943286368 L 70.57896192625702,-68.58428956516991 L 70.12158974340097,-69.42373035608773 L 62.76115595927001,-76.30796430681497 L 62.52621776007687,-76.48326439544267 L 62.034756057195835,-76.36662837574362 L 53.25016273015968,-65.42141553154158 z" /><path fill-rule="evenodd" fill="#66cc99" stroke="#555555" stroke-width="2.0" opacity="0.6" d="M 18.49194269560317,74.96177924229944 L 27.093179421641082,78.39748964230071 L 28.27617724119724,78.27287206239652 L 28.80696799935981,77.94678927878576 L 31.55976077131237,76.17100882911366 L 38.21991724100944,71.70478103321828 L 37.582219689238535,69.81324801645586 L 36.49577493583445,67.6601552625445 L 33.67809370159126,62.39037012306259 L 33.23124597044646,61.55738850053283 L 33.11119630571571,61.42369951241879 L 29.62127962720778,63.09315228001736 L 20.97185655946528,67.2672919910879 L 20.888534658984828,67.31002851422461 L 19.955880900183885,67.86080856328984 L 18.741131671276758,68.70309336656244 L 18.535743270146373,73.24479078065941 L 18.49194269560317,74.96177924229944 z" /><path fill-rule="evenodd" fill="#66cc99" stroke="#555555" stroke-width="2.0" opacity="0.6" d="M 12.215532487506461,-9.520825273413198 L 14.832477890303945,-3.326723988792458 L 16.09000082589293,-3.5501604058576515 L 25.70349418495905,-6.82957383524508 L 33.38580066507622,-9.594239425907983 L 33.13304811671828,-10.431822981865578 L 32.801842811265004,-11.175232744570664 L 29.069656390918247,-17.78480699563639 L 27.571669846436905,-20.253202602898522 L 27.165111420047502,-20.544706206045714 L 26.39670622632339,-20.48891934567321 L 24.23327962875464,-19.62024377398621 L 17.811081321666393,-16.584507753103484 L 15.33755316582041,-15.357316880457923 L 14.372972611375133,-14.79910957352496 L 13.197485988057785,-12.766728744565937 L 12.215532487506461,-9.520825273413198 z" /><path fill-rule="evenodd" fill="#66cc99" stroke="#555555" stroke-width="2.0" opacity="0.6" d="M -75.31729826326288,-17.889755100372696 L -74.86658646623236,-17.702176745684955 L -72.41833208741383,-17.025624567318008 L -59.57672193763451,-13.685444533042933 L -58.8529643112572,-14.334703164706294 L -58.33928659113348,-15.450323460937541 L -57.61215531329931,-17.50138895524286 L -56.84151813582133,-19.717262427916257 L -56.015713249527636,-22.488871310830536 L -56.15470997032426,-23.10789805510008 L -61.62020462156853,-30.986466559209063 L -62.597241593861334,-31.542320889947053 L -65.24888446989378,-31.869354224454945 L -65.78407471588328,-31.92629744371453 L -67.09330952973745,-31.88625185006125 L -68.83997669415194,-31.395777658239385 L -69.68869231725455,-30.599084329110447 L -69.73353751084635,-30.537456392347412 L -70.96618833794251,-27.89994592309081 L -72.70132575886673,-24.038765310844465 L -74.54529694891576,-19.88784971356257 L -75.31729826326288,-17.889755100372696 z" /><path fill-rule="evenodd" fill="#66cc99" stroke="#555555" stroke-width="2.0" opacity="0.6" d="M 39.4121372066309,-78.43236410981429 L 39.644823701539785,-76.84403147007318 L 41.1224757584484,-71.78778162878791 L 42.46386561666513,-68.0092416429277 L 43.70695841524794,-67.93596963532609 L 49.38665259612832,-67.73397512283579 L 50.5448185612174,-68.45330257200222 L 56.87117853569204,-76.62423844174076 L 58.814743010307346,-79.44231643542987 L 58.692765727815996,-79.54501612771638 L 51.7896318700831,-84.1041940830235 L 49.09088351819705,-85.80066715892255 L 44.96054032999582,-87.8504830056148 L 42.62469822502515,-84.02067470022904 L 41.63649780271423,-82.35225376284433 L 39.500350926119935,-78.72432144986485 L 39.4121372066309,-78.43236410981429 z" /><path fill-rule="evenodd" fill="#66cc99" stroke="#555555" stroke-width="2.0" opacity="0.6" d="M 9.891811526258545,12.784187635951174 L 12.045630765819869,16.300628188458493 L 16.877170812017354,24.07177142425049 L 20.135315289939903,29.29181576942299 L 20.916895508267405,29.61196071463849 L 26.01828438917359,26.90141794471012 L 26.6861490761356,26.541721894559355 L 27.497701047460875,24.618485090777437 L 29.936652720983297,18.280035087748708 L 30.492053313325176,16.788982582470837 L 30.687583896111402,16.252001902494246 L 30.042415855875937,15.725634100838741 L 26.457788979707423,13.928492107817315 L 20.2794834169776,11.10592653321851 L 16.509593533068376,9.429028604982655 L 14.078937430651946,8.441152319688069 L 11.494627923809956,10.95808917377489 L 9.891811526258545,12.784187635951174 z" /><path fill-rule="evenodd" fill="#66cc99" stroke="#555555" stroke-width="2.0" opacity="0.6" d="M -36.710020024344374,90.44663169776356 L -36.70463056105757,90.45555418271928 L -29.561522726060513,93.56474740429027 L -23.427065122718442,95.00627414596838 L -15.223394509307585,96.8505605477368 L -13.600221276661173,85.0944561988542 L -13.84165244892049,84.84860504955995 L -27.48328587556449,80.27292696860043 L -29.704888683416378,80.96191823670537 L -33.56977495489023,86.04209617518342 L -36.710020024344374,90.44663169776356 z" /><path fill-rule="evenodd" fill="#66cc99" stroke="#555555" stroke-width="2.0" opacity="0.6" d="M 0.06748938355145402,-65.0224728509213 L 0.1904136544485642,-64.59089921103063 L 0.8542823136501574,-62.418194709428406 L 1.6271923159804178,-61.29278778032755 L 2.710684316412722,-60.89251766712759 L 12.570289725864006,-57.79466690393926 L 13.905913529145616,-57.55460252868843 L 14.01040420062372,-57.746069212407754 L 14.342613456589959,-59.022880056905706 L 14.54548878621656,-59.84643499142237 L 16.266127402049957,-66.98226337332301 L 17.509715102021957,-72.14562479604271 L 18.126476699120225,-74.77082229932358 L 18.494254478319412,-76.77803488478014 L 4.028109426822519,-76.60008197162541 L 3.0957996817696602,-76.43129566261763 L 3.009980990873219,-76.40294457031666 L 2.4073315045231327,-74.82231826779129 L 0.29121657949307556,-68.02731503539876 L 0.19672374719103622,-67.56818387475062 L 0.06748938355145402,-65.0224728509213 z" /><path fill-rule="evenodd" fill="#66cc99" stroke="#555555" stroke-width="2.0" opacity="0.6" d="M -31.568877419416577,63.902117674594734 L -28.47608383365948,74.86513895105546 L -27.523622316210314,75.4720289307856 L -25.729642429226583,76.21119139914691 L -15.86693834017164,78.11017101262414 L -12.845323758361923,77.66113960243261 L -10.150289310945643,63.39179124089955 L -10.051614332104837,62.08335275377759 L -10.041093426533624,61.81858114306268 L -22.094994665593287,62.80905727852752 L -31.568877419416577,63.902117674594734 z" /><path fill-rule="evenodd" fill="#66cc99" stroke="#555555" stroke-width="2.0" opacity="0.6" d="M 38.11224500787997,-51.39727909882785 L 38.45231137941376,-49.507108342852874 L 39.31847822557865,-48.74986734104876 L 42.75707799470705,-46.54543014871821 L 46.263332984371644,-44.305876889770275 L 48.99885096390777,-42.6097548469357 L 51.084877412907105,-44.25341162150839 L 52.65438817417745,-45.55472479432615 L 53.74322298491683,-46.6132294907481 L 55.37560758822853,-48.265101852148604 L 58.49284764749083,-51.46404095129315 L 58.182766922649456,-52.53282322237099 L 57.97898318395629,-52.94387125922918 L 57.66669336942655,-53.342920541017506 L 50.40576057211409,-62.092010631779296 L 49.21012598744291,-63.28781876947674 L 44.00072812763728,-63.52086188317351 L 42.35294732726008,-63.186619977586346 L 41.49977060780633,-62.96787486739351 L 39.63579318801828,-60.99075031384547 L 38.5642328623286,-59.38708953182538 L 38.31199427029838,-58.16479409210511 L 38.11224500787997,-51.39727909882785 z" /><path fill-rule="evenodd" fill="#66cc99" stroke="#555555" stroke-width="2.0" opacity="0.6" d="M -8.223380138369457,74.10400309979295 L -7.8626604731968746,74.45454333366398 L -4.133245745806005,76.32040782389156 L 5.019351094763106,79.50300673854593 L 5.322972992345756,79.59532621940237 L 5.726907779205158,79.697770264967 L 9.948166175050224,77.24324520785363 L 10.675758137389401,76.77032035430187 L 13.042343834498562,75.22013518049033 L 13.753661196936172,73.79345019242997 L 14.025750371835011,72.57964290458486 L 14.202214811482108,69.09095151582886 L 13.267584724649662,67.65728049302454 L 9.943421860504113,62.768326402884064 L 9.37949069208536,62.00619033106567 L 9.1927999262803,61.81407490981425 L 8.826430908198116,61.549141034291004 L 6.953622713253598,61.69774386500719 L 4.706275462259034,61.94041828745344 L -4.0335312501254705,63.16489730403199 L -5.553680127863035,63.44937724385225 L -6.43014225846896,63.63172473976145 L -7.162874646164264,67.56288245683069 L -8.11080274042748,73.21980932331489 L -8.223380138369457,74.10400309979295 z" /><path fill-rule="evenodd" fill="#66cc99" stroke="#555555" stroke-width="2.0" opacity="0.6" d="M -35.74239325390096,-3.6201015656518334 L -35.432465917462146,0.3096389440502067 L -34.78011715966925,2.2951717635010054 L -34.28274762873906,2.351104277274072 L -17.475124879992723,-0.24705787217340092 L -17.27324555246406,-0.2986159219362782 L -14.652202641334721,-7.717254916872802 L -18.968015866757728,-11.45832318955781 L -27.515113161180413,-18.35640044236368 L -28.912976954435603,-19.469638515718508 L -28.959984778342367,-19.49593181528428 L -29.380491325106448,-19.164283036963656 L -31.637951705325424,-16.994678287881424 L -34.250739202930234,-14.37857458756818 L -34.2773806230662,-14.311997451148915 L -35.06346534903525,-12.316023891084146 L -35.323647085136095,-11.593685649810878 L -35.74239325390096,-3.6201015656518334 z" /><path fill-rule="evenodd" fill="#66cc99" stroke="#555555" stroke-width="2.0" opacity="0.6" d="M -6.753897052233535,-52.890694468476305 L -6.766344371372357,-52.6657328760799 L -6.035266153717974,-45.220355074851014 L -5.081196636555891,-35.73894732885243 L -4.856890129255376,-35.75098485819613 L 3.33929169009415,-36.8022559942853 L 8.90915493626236,-37.847105430753246 L 8.993688212697299,-38.05980449998137 L 10.02155727503246,-40.70620984475424 L 10.373698289453774,-42.149974825257615 L 12.582297674504947,-51.75283968732996 L 12.7158927927517,-52.699336176819536 L 11.359862176568393,-53.48879381923266 L 1.669139540048541,-56.58095821808559 L 0.4494692992522318,-56.9533266650482 L -1.4647995722504992,-56.036993562515924 L -6.58227309346026,-53.05474734134772 L -6.753897052233535,-52.890694468476305 z" /><path fill-rule="evenodd" fill="#66cc99" stroke="#555555" stroke-width="2.0" opacity="0.6" d="M -68.87421410330836,-69.9358199598968 L -63.02368354912475,-62.2746067811109 L -61.56518024839175,-60.37315269063607 L -59.46124111662772,-59.50359095267812 L -57.875412850589164,-58.91682463186537 L -57.472710470275686,-58.83991130057976 L -57.33938273045832,-58.83862462181224 L -56.23373553583025,-59.04554397356074 L -54.14405349801651,-60.42041261713505 L -45.88234342556111,-66.7526870182272 L -45.771077544042974,-66.85274628137131 L -44.789778101463355,-67.8702413247035 L -44.79246250779495,-67.87715748020257 L -52.91678030297685,-81.25315745799747 L -53.569727012197696,-82.13065280069459 L -54.501137278176394,-81.8780638962385 L -57.54841355328195,-79.91789546308135 L -62.03656287322767,-76.57906678409469 L -63.85804272373131,-75.1628649884521 L -66.39437353291953,-72.9970383062726 L -68.46978583667915,-71.17829610948337 L -68.64893019529832,-70.98593258680036 L -68.87421410330836,-69.9358199598968 z" /><path fill-rule="evenodd" fill="#66cc99" stroke="#555555" stroke-width="2.0" opacity="0.6" d="M -95.55559154296041,-25.58691918504356 L -91.61324478547387,-23.103583092319198 L -89.33537362885765,-21.853642639039958 L -86.28142957300757,-20.877484721616206 L -81.78830254853996,-19.484973249720895 L -80.65021894536473,-19.286410910148394 L -79.83262325064705,-19.209321284874644 L -73.615303697894,-32.795858417587276 L -73.10544711126782,-35.13971820586003 L -73.40294550066757,-36.03082414198214 L -73.92693158114095,-37.553493579023474 L -75.54121620397454,-38.65460693919257 L -80.57108486695851,-41.360282076627946 L -84.9293061343717,-43.419013058833485 L -87.6620242013866,-44.4794398675864 L -88.93884468869464,-42.32655814495146 L -92.16127059616258,-34.45876367353481 L -93.74264817716043,-30.370608472274725 L -95.55559154296041,-25.58691918504356 z" /><path fill-rule="evenodd" fill="#66cc99" stroke="#555555" stroke-width="2.0" opacity="0.6" d="M -34.7388334785875,6.989026127615391 L -34.898357853296744,7.199208243858853 L -34.70185567043552,10.508655743721343 L -34.45064612688524,13.86728452581959 L -33.930180654050346,16.166943354265534 L -33.07875809863164,18.70660665195032 L -33.005540887470765,18.92371851747868 L -32.1535128495649,20.090914870233576 L -31.994171752715687,20.219907927825233 L -28.177994265107856,22.88814462311654 L -24.74984014437473,25.191291956331526 L -20.99270202695552,27.693852282001266 L -13.758344398457762,17.146007250884185 L -12.435753835088143,15.057731339646832 L -11.132495556700315,12.91633776560963 L -11.128579261699175,12.837498086384823 L -16.45721588458863,4.151623697943226 L -17.27556175143719,4.153528690648081 L -18.73652118807621,4.301428516770305 L -25.396208052923576,5.221560229920687 L -28.167358641993516,5.7067762551148355 L -34.4769545911551,6.925740063626914 L -34.7388334785875,6.989026127615391 z" /><path fill-rule="evenodd" fill="#66cc99" stroke="#555555" stroke-width="2.0" opacity="0.6" d="M -1.3045858795834144,-98.36792438783739 L -0.8504651951280316,-82.07081174313966 L -0.7750499765326856,-81.8556782405365 L -0.1602386669735916,-81.21455012015554 L 5.010961290172723,-81.07246502841342 L 12.527101152426765,-81.01115114736885 L 19.490067253053574,-81.23049305816083 L 20.37616543873841,-84.5349535709582 L 21.10751701921734,-87.65617266685906 L 21.61428296308753,-89.90653324430863 L 21.64032654113026,-90.39423968487661 L 21.586660325660183,-95.68508740921928 L 21.52556759458664,-95.77507932489387 L 21.042941312625665,-96.30617145019548 L 11.791412692490354,-98.13840216865174 L 7.817905730203294,-98.69764862111649 L -0.35347926305296046,-98.55536118644315 L -1.3045858795834144,-98.36792438783739 z" /><path fill-rule="evenodd" fill="#66cc99" stroke="#555555" stroke-width="2.0" opacity="0.6" d="M -12.844922169667958,0.6157121965553469 L -12.507568888478207,1.8392522272664997 L -12.354758427403794,2.347699618172908 L -10.413983649213803,5.740609957351755 L -9.457589852051905,7.411207847750357 L -8.918713506438325,8.273985424975834 L -8.194668114358661,9.199094345612245 L -6.948072990842348,10.783200947634652 L -4.37163655877198,11.155718651110615 L 1.9918720912186343,11.98266002800047 L 3.9910514552799676,11.79563669227719 L 4.81397586669906,11.273593641824164 L 10.288008461612291,5.917462430367867 L 11.010848250746983,4.431149843876485 L 11.051529460260788,4.327242448733779 L 10.997636667302082,-0.7758942205532502 L 10.602160643560444,-4.893303620174074 L 10.561750689004626,-5.066713351002334 L 4.10316561931486,-10.645317984619618 L 2.527334413076979,-11.772316506356574 L 2.1368993886101357,-12.048264317584943 L 1.91639160121112,-12.184785104862572 L -4.297284173633478,-10.593194419598271 L -7.727650721319781,-9.706769219305603 L -7.920045332974169,-9.633765465180952 L -9.188315802742162,-9.074412905337578 L -9.77649910934254,-7.8940998466237025 L -11.671256567981594,-3.2580604887421356 L -12.686426320057487,-0.028370925350721863 L -12.844922169667958,0.6157121965553469 z" /><path fill-rule="evenodd" fill="#66cc99" stroke="#555555" stroke-width="2.0" opacity="0.6" d="M 32.68999364592677,-19.344854759425782 L 38.148074939354714,4.135311571941359 L 38.35306664983524,4.2563374553477304 L 53.98870875733999,1.375202656551994 L 62.058800694821336,-0.6759750864122949 L 62.682746712192305,-4.769255257962237 L 34.875930367568756,-21.179586993630274 L 34.68923322444116,-21.258354927688845 L 34.22528768207877,-21.42635720541658 L 32.68999364592677,-19.344854759425782 z" /><path fill-rule="evenodd" fill="#66cc99" stroke="#555555" stroke-width="2.0" opacity="0.6" d="M -96.11584014402537,11.985597516235696 L -96.38257035811418,16.014900864476797 L -96.29490662546766,16.87381682334947 L -93.48430077942444,28.6774634002893 L -91.53539437592609,34.13468208772237 L -90.47040131934932,37.08482953654337 L -90.17203596951262,37.7162853983568 L -89.63262727380102,38.09331174477253 L -86.69619063450094,36.22603918910626 L -76.26821248105975,29.441304767150573 L -67.1871991821391,23.41368540403597 L -72.05992132570361,10.851418566964535 L -72.68451883557802,9.993837488985836 L -92.90248014411796,11.203336691793362 L -96.11584014402537,11.985597516235696 z" /><path fill-rule="evenodd" fill="#66cc99" stroke="#555555" stroke-width="2.0" opacity="0.6" d="M -98.1798663523601,0.18343783998728158 L -97.9100612798282,4.299215963147867 L -97.39058240205607,6.181259064271804 L -97.05139417453852,6.489175596858921 L -93.91734814780754,6.761874733743282 L -79.63819814947682,6.090252126168831 L -72.99886660540216,4.66255970845792 L -71.54110935074988,1.7311838751744595 L -65.7002757663857,-10.377733793938202 L -65.84818835929568,-11.401604402956524 L -93.25296838945165,-19.14839633428502 L -95.87274673436018,-17.985416952649015 L -96.7646340159033,-15.62438064062679 L -97.55147297368485,-11.214790250886654 L -98.1798663523601,0.18343783998728158 z" /><path fill-rule="evenodd" fill="#66cc99" stroke="#555555" stroke-width="2.0" opacity="0.6" d="M -87.42922121690012,42.97518191370438 L -81.60897823956238,54.54449635543352 L -78.9025335558666,58.39848907079992 L -75.48647911282112,62.432671931214685 L -70.73888103823568,59.478118388723274 L -50.96800315684445,44.675652571925625 L -52.600121030774,33.87743088380258 L -52.87842220035179,33.11499434656872 L -53.47522342757525,32.76229268038236 L -58.38782374352091,30.04973324118578 L -62.78020482649108,27.945400473223437 L -67.10288426130207,29.362842436192974 L -70.01034879675817,30.724203290484578 L -81.66174446959089,38.08794811205112 L -87.42922121690012,42.97518191370438 z" /><path fill-rule="evenodd" fill="#66cc99" stroke="#555555" stroke-width="2.0" opacity="0.6" d="M -68.0786400436926,5.695327759127026 L -67.71465952217825,9.339077790812329 L -65.29953195383678,15.24393464161441 L -63.29417596162867,19.666017611599752 L -59.44763385087655,24.18551077220107 L -50.986633699693016,27.8032417000488 L -47.785270278626676,26.38434485198934 L -39.467482372516656,20.86411930409888 L -37.88501294089217,16.428611786020873 L -38.64311242011914,5.881056715101923 L -39.35163883368759,-2.6933499889195707 L -41.42025136662707,-5.0502137783869046 L -43.290869139799156,-5.878394701060804 L -58.82805502347371,-9.427683811357673 L -62.42684113562928,-7.148530212866157 L -63.90752305289363,-4.893733033829639 L -68.0786400436926,5.695327759127026 z" /><path fill-rule="evenodd" fill="#66cc99" stroke="#555555" stroke-width="2.0" opacity="0.6" d="M -50.23194127995464,38.13109732448073 L -49.876168150152566,40.353433740234316 L -48.29004428029013,43.192628605294786 L -44.53124889820215,47.989226023490225 L -42.13628513466817,46.27914310534342 L -41.859025662871986,45.95137934598819 L -41.44270399457342,44.32483963943792 L -40.83721358374509,38.095964900492326 L -40.903899851276094,35.61749367704653 L -43.47324114029857,33.6008524098076 L -47.608052074890615,32.40948167650795 L -48.3862442457966,32.63273371436712 L -48.89943756078255,33.635040528792366 L -50.23194127995464,38.13109732448073 z" /><path fill-rule="evenodd" fill="#66cc99" stroke="#555555" stroke-width="2.0" opacity="0.6" d="M -36.27173700443858,45.496598759948945 L -29.99694443668094,46.18421795313712 L -28.21018597245315,40.233771720271314 L -29.80219089090051,38.05982090410052 L -31.78532100449436,35.7966262330107 L -35.836325409315215,36.95672990973036 L -36.04656292239631,37.36289651961458 L -36.52518621032051,39.802319158752354 L -36.5872615111354,41.93036759355376 L -36.27173700443858,45.496598759948945 z" /><path fill-rule="evenodd" fill="#66cc99" stroke="#555555" stroke-width="2.0" opacity="0.6" d="M -28.135984951528858,59.36816073298043 L -25.333110325004903,59.36903181083169 L -21.864085891150097,59.120967108768056 L -20.628417050797115,58.9824375253829 L -19.54254602996419,58.731393456388794 L -20.00106296233145,53.23664478025642 L -22.50177136495722,52.07220345901604 L -25.53553157469919,50.688669790557526 L -27.152642795870758,50.80204000209765 L -27.563197313934616,50.953868562543164 L -28.250660097957347,54.39649708719835 L -28.301919906882944,58.818223806233135 L -28.135984951528858,59.36816073298043 z" /><path fill-rule="evenodd" fill="#66cc99" stroke="#555555" stroke-width="2.0" opacity="0.6" d="M -41.34337768906224,51.48269329365425 L -41.03088986941112,52.252487739437974 L -34.86813951705703,59.2810216700608 L -33.08191689277154,59.29190986973806 L -32.946039843938,59.18646386376081 L -32.614245926823,53.31826464776623 L -32.55780566826281,51.3481349554179 L -32.6592286038789,51.17241098552123 L -32.81943145860481,51.09440570291514 L -35.72738062266025,50.267886712091205 L -39.46049184533005,50.88223220172871 L -41.04430655346678,51.26647040682925 L -41.34337768906224,51.48269329365425 z" /><path fill-rule="evenodd" fill="#66cc99" stroke="#555555" stroke-width="2.0" opacity="0.6" d="M -25.03397906922153,45.88730186657186 L -18.156132090383277,48.94007598150639 L -17.33995332812671,48.15947072233872 L -16.620928440642928,46.57350239726944 L -16.20658630720768,45.19808177368 L -17.219764761483418,43.73280322647835 L -18.785972724718906,42.72735957834726 L -21.268048722050498,42.1909565074916 L -23.111559506806916,42.224964703210595 L -23.161563724736652,42.25887514070196 L -23.91529316685003,42.94342625719747 L -24.345944402914647,43.400195128591804 L -24.61921005193607,44.31420597331972 L -25.03397906922153,45.88730186657186 z" /><path fill-rule="evenodd" fill="#66cc99" stroke="#555555" stroke-width="2.0" opacity="0.6" d="M -14.997068052678593,54.193569079090196 L -14.55639119990902,58.630822891621094 L -11.776885231442217,58.22992467630857 L -10.841308569662967,57.87323420063562 L -8.949184701507614,56.55864581851672 L -8.586805450311775,54.84508641305165 L -13.5082421928721,53.32396553487896 L -14.997068052678593,54.193569079090196 z" /><path fill-rule="evenodd" fill="#66cc99" stroke="#555555" stroke-width="2.0" opacity="0.6" d="M -12.95490145470057,49.098405878350334 L -7.360456667555634,50.57104860439432 L -6.935734581844294,49.76451452691742 L -6.665086938307202,46.630986675928725 L -6.950396983544064,46.3837345453723 L -7.229376708603323,46.331649746128925 L -8.206596170303527,46.419058231027094 L -11.325604920369038,46.73156108838049 L -12.17877001530317,47.59244520928304 L -12.95490145470057,49.098405878350334 z" /><path fill-rule="evenodd" fill="#66cc99" stroke="#555555" stroke-width="2.0" opacity="0.6" d="M -26.245518704973247,32.63514064634992 L -25.881317958195307,32.51181513232562 L -23.62268504966592,31.408284149781288 L -22.060358137203362,30.237851940430296 L -24.73634265284905,28.53279942911871 L -25.96708591970985,30.10281577451678 L -26.433551279806164,32.378930328777855 L -26.377771418116588,32.50184061691871 L -26.245518704973247,32.63514064634992 z" /><path fill-rule="evenodd" fill="#66cc99" stroke="#555555" stroke-width="2.0" opacity="0.6" d="M -15.180186988408462,39.06296285055086 L -14.951807734096645,39.63682995219143 L -13.940171141529632,40.834122877629824 L -13.813632893096791,40.7753770028937 L -13.312915329306469,40.168932401556205 L -12.041185318128605,37.08766356245186 L -13.33266738938528,36.365812451506955 L -15.180186988408462,39.06296285055086 z" /><path fill-rule="evenodd" fill="#66cc99" stroke="#555555" stroke-width="2.0" opacity="0.6" d="M -35.41212032708927,31.86532339433709 L -31.289979543739832,31.545707243282813 L -31.298655691421967,31.50393198887478 L -34.32723548803808,29.90958710082167 L -34.815736426661054,30.18130583575049 L -35.41212032708927,31.86532339433709 z" /><path fill-rule="evenodd" fill="#66cc99" stroke="#555555" stroke-width="2.0" opacity="0.6" d="M -40.056395485355736,26.43273507792984 L -38.807217284592895,27.833929872771048 L -38.58377760832732,27.567567970279306 L -39.33456880438451,25.930056938110912 L -40.056395485355736,26.43273507792984 z" /><path fill-rule="evenodd" fill="#66cc99" stroke="#555555" stroke-width="2.0" opacity="0.6" d="M -8.412369215199638,40.28236023939777 L -7.434913945169425,40.48888816519376 L -6.9551724009644005,40.140573902024414 L -7.56022289195003,39.55051541753761 L -8.11730419049784,39.512770625601625 L -8.412369215199638,40.28236023939777 z" /></g></svg>
