<?xml version="1.0" encoding="utf-8" ?>
<svg xmlns="http://www.w3.org/2000/svg" xmlns:cc="http://creativecommons.org/ns#" xmlns:dc="http://purl.org/dc/elements/1.1/" xmlns:ev="http://www.w3.org/2001/xml-events" xmlns:inkscape="http://www.inkscape.org/namespaces/inkscape" xmlns:rdf="http://www.w3.org/1999/02/22-rdf-syntax-ns#" xmlns:sodipodi="http://sodipodi.sourceforge.net/DTD/sodipodi-0.dtd" xmlns:xlink="http://www.w3.org/1999/xlink" baseProfile="tiny" height="29.7cm" version="1.2" viewBox="0 0 793.7007874015749 1122.5196850393702" width="21.0cm">
  <metadata>
    <rdf:RDF>
      <cc:Work>
        <dc:format>image/svg+xml</dc:format>
        <dc:source/>
        <dc:date>2021-07-13T22:25:16.163861</dc:date>
      </cc:Work>
    </rdf:RDF>
  </metadata>
  <defs/>
  <g fill="none" id="layer1" inkscape:groupmode="layer" inkscape:label="1" stroke="#00f" style="display:inline">
    <line x1="684.0945" x2="109.6063" y1="115.2756" y2="115.2756"/>
    <line x1="109.6063" x2="684.0945" y1="130.3937" y2="130.3937"/>
    <line x1="684.0945" x2="407.2814" y1="122.8346" y2="122.8346"/>
    <line x1="414.3536" x2="358.9617" y1="116.5354" y2="116.5354"/>
    <line x1="355.8088" x2="417.5064" y1="118.4252" y2="118.4252"/>
    <line x1="420.0946" x2="342.9519" y1="120.315" y2="120.315"/>
    <line x1="339.4455" x2="195.3355" y1="122.8346" y2="122.8346"/>
    <line x1="192.9111" x2="341.8698" y1="137.9528" y2="137.9528"/>
    <line x1="331.6808" x2="222.5752" y1="144.252" y2="144.252"/>
    <line x1="220.9357" x2="333.3203" y1="148.0315" y2="148.0315"/>
    <line x1="334.6727" x2="219.5833" y1="151.811" y2="151.811"/>
    <line x1="218.582" x2="335.674" y1="155.5906" y2="155.5906"/>
    <line x1="336.4872" x2="217.7688" y1="159.3701" y2="159.3701"/>
    <line x1="217.2082" x2="337.0478" y1="163.1496" y2="163.1496"/>
    <line x1="337.3097" x2="216.9463" y1="166.9291" y2="166.9291"/>
    <line x1="216.8468" x2="336.4131" y1="170.7087" y2="170.7087"/>
    <line x1="337.3716" x2="197.4663" y1="168.189" y2="168.189"/>
    <line x1="194.0831" x2="109.6063" y1="169.4488" y2="169.4488"/>
    <line x1="109.6063" x2="194.3634" y1="171.3386" y2="171.3386"/>
    <line x1="194.6437" x2="109.6063" y1="173.2283" y2="173.2283"/>
    <line x1="109.6063" x2="194.771" y1="175.1181" y2="175.1181"/>
    <line x1="194.8639" x2="109.6063" y1="177.0079" y2="177.0079"/>
    <line x1="109.6063" x2="684.0945" y1="175.748" y2="175.748"/>
    <line x1="684.0945" x2="416.8943" y1="183.3071" y2="183.3071"/>
    <line x1="416.2465" x2="684.0945" y1="198.4252" y2="198.4252"/>
    <line x1="684.0945" x2="109.6063" y1="205.9843" y2="205.9843"/>
    <line x1="109.6063" x2="186.876" y1="205.3543" y2="205.3543"/>
    <line x1="188.0087" x2="109.6063" y1="203.4646" y2="203.4646"/>
    <line x1="109.6063" x2="189.1365" y1="201.5748" y2="201.5748"/>
    <line x1="190.0303" x2="109.6063" y1="199.685" y2="199.685"/>
    <line x1="109.6063" x2="190.9241" y1="197.7953" y2="197.7953"/>
    <line x1="191.6636" x2="109.6063" y1="195.9055" y2="195.9055"/>
    <line x1="109.6063" x2="192.3397" y1="194.0157" y2="194.0157"/>
    <line x1="192.9548" x2="109.6063" y1="192.126" y2="192.126"/>
    <line x1="109.6063" x2="684.0945" y1="190.8661" y2="190.8661"/>
    <line x1="664.8541" x2="579.1789" y1="185.8268" y2="185.8268"/>
    <line x1="578.6704" x2="665.3626" y1="182.0472" y2="182.0472"/>
    <line x1="665.5445" x2="578.4885" y1="178.2677" y2="178.2677"/>
    <line x1="578.6742" x2="665.3589" y1="174.4882" y2="174.4882"/>
    <line x1="664.8427" x2="579.1903" y1="170.7087" y2="170.7087"/>
    <line x1="580.0456" x2="663.9874" y1="166.9291" y2="166.9291"/>
    <line x1="662.7702" x2="581.2628" y1="163.1496" y2="163.1496"/>
    <line x1="582.8775" x2="661.1556" y1="159.3701" y2="159.3701"/>
    <line x1="659.0904" x2="584.9426" y1="155.5906" y2="155.5906"/>
    <line x1="587.5368" x2="656.4963" y1="151.811" y2="151.811"/>
    <line x1="653.2552" x2="590.7779" y1="148.0315" y2="148.0315"/>
    <line x1="594.9476" x2="649.0855" y1="144.252" y2="144.252"/>
    <line x1="643.4646" x2="600.5685" y1="140.4724" y2="140.4724"/>
    <line x1="609.262" x2="634.771" y1="136.6929" y2="136.6929"/>
    <line x1="684.0945" x2="410.7108" y1="137.9528" y2="137.9528"/>
    <line x1="411.9263" x2="684.0945" y1="153.0709" y2="153.0709"/>
    <line x1="684.0945" x2="109.6063" y1="145.5118" y2="145.5118"/>
    <line x1="109.6992" x2="181.6864" y1="144.8819" y2="144.8819"/>
    <line x1="183.3992" x2="109.6063" y1="146.7717" y2="146.7717"/>
    <line x1="109.6063" x2="184.8655" y1="148.6614" y2="148.6614"/>
    <line x1="186.267" x2="109.6063" y1="150.5512" y2="150.5512"/>
    <line x1="109.6063" x2="187.4701" y1="152.4409" y2="152.4409"/>
    <line x1="188.6028" x2="109.6063" y1="154.3307" y2="154.3307"/>
    <line x1="109.6063" x2="189.6053" y1="156.2205" y2="156.2205"/>
    <line x1="190.4991" x2="109.6063" y1="158.1102" y2="158.1102"/>
    <line x1="109.6063" x2="191.3421" y1="160.0" y2="160.0"/>
    <line x1="192.0183" x2="109.6063" y1="161.8898" y2="161.8898"/>
    <line x1="109.6063" x2="684.0945" y1="160.6299" y2="160.6299"/>
    <line x1="684.0945" x2="413.2834" y1="168.189" y2="168.189"/>
    <line x1="441.8885" x2="291.9043" y1="173.2283" y2="173.2283"/>
    <line x1="291.624" x2="441.6081" y1="175.1181" y2="175.1181"/>
    <line x1="441.2186" x2="291.3648" y1="177.0079" y2="177.0079"/>
    <line x1="291.272" x2="440.7452" y1="178.8976" y2="178.8976"/>
    <line x1="440.2718" x2="291.1791" y1="180.7874" y2="180.7874"/>
    <line x1="291.0863" x2="439.6464" y1="182.6772" y2="182.6772"/>
    <line x1="438.9702" x2="291.1416" y1="184.5669" y2="184.5669"/>
    <line x1="291.2345" x2="438.2905" y1="186.4567" y2="186.4567"/>
    <line x1="437.3967" x2="291.3273" y1="188.3465" y2="188.3465"/>
    <line x1="291.5108" x2="436.5029" y1="190.2362" y2="190.2362"/>
    <line x1="435.5154" x2="291.7911" y1="192.126" y2="192.126"/>
    <line x1="292.0714" x2="434.3827" y1="194.0157" y2="194.0157"/>
    <line x1="433.25" x2="292.3905" y1="195.9055" y2="195.9055"/>
    <line x1="292.8638" x2="431.8748" y1="197.7953" y2="197.7953"/>
    <line x1="430.4732" x2="293.3372" y1="199.685" y2="199.685"/>
    <line x1="293.8106" x2="428.8941" y1="201.5748" y2="201.5748"/>
    <line x1="427.1813" x2="294.483" y1="203.4646" y2="203.4646"/>
    <line x1="295.1592" x2="425.3124" y1="205.3543" y2="205.3543"/>
    <line x1="423.2274" x2="295.8353" y1="207.2441" y2="207.2441"/>
    <line x1="296.698" x2="420.9247" y1="209.1339" y2="209.1339"/>
    <line x1="418.3767" x2="297.5918" y1="211.0236" y2="211.0236"/>
    <line x1="298.4856" x2="415.3807" y1="212.9134" y2="212.9134"/>
    <line x1="416.0267" x2="684.0945" y1="213.5433" y2="213.5433"/>
    <line x1="684.0945" x2="109.6063" y1="221.1024" y2="221.1024"/>
    <line x1="114.7633" x2="176.6223" y1="216.6929" y2="216.6929"/>
    <line x1="178.7633" x2="112.6224" y1="214.8031" y2="214.8031"/>
    <line x1="110.5977" x2="180.788" y1="212.9134" y2="212.9134"/>
    <line x1="182.5008" x2="109.6063" y1="211.0236" y2="211.0236"/>
    <line x1="109.6063" x2="184.1303" y1="209.1339" y2="209.1339"/>
    <line x1="185.5319" x2="109.6063" y1="207.2441" y2="207.2441"/>
    <line x1="117.3114" x2="174.0743" y1="218.5827" y2="218.5827"/>
    <line x1="171.1648" x2="120.2208" y1="220.4724" y2="220.4724"/>
    <line x1="123.6122" x2="167.7735" y1="222.3622" y2="222.3622"/>
    <line x1="163.5339" x2="127.8518" y1="224.252" y2="224.252"/>
    <line x1="133.8762" x2="157.5095" y1="226.1417" y2="226.1417"/>
    <line x1="159.7747" x2="141.668" y1="228.6614" y2="228.6614"/>
    <line x1="122.2422" x2="179.2006" y1="243.7795" y2="243.7795"/>
    <line x1="183.6439" x2="117.7989" y1="258.8976" y2="258.8976"/>
    <line x1="109.6063" x2="684.0945" y1="266.4567" y2="266.4567"/>
    <line x1="684.0945" x2="422.2526" y1="258.8976" y2="258.8976"/>
    <line x1="421.157" x2="684.0945" y1="243.7795" y2="243.7795"/>
    <line x1="684.0945" x2="109.6063" y1="236.2205" y2="236.2205"/>
    <line x1="109.6063" x2="684.0945" y1="251.3386" y2="251.3386"/>
    <line x1="684.0945" x2="418.1972" y1="228.6614" y2="228.6614"/>
    <line x1="406.6926" x2="303.2538" y1="220.4724" y2="220.4724"/>
    <line x1="304.6553" x2="405.2911" y1="222.3622" y2="222.3622"/>
    <line x1="403.7822" x2="306.1642" y1="224.252" y2="224.252"/>
    <line x1="304.3181" x2="249.938" y1="223.622" y2="223.622"/>
    <line x1="243.4161" x2="310.8399" y1="219.8425" y2="219.8425"/>
    <line x1="315.8381" x2="239.5264" y1="216.063" y2="216.063"/>
    <line x1="241.8741" x2="316.0078" y1="212.2835" y2="212.2835"/>
    <line x1="318.6181" x2="235.6379" y1="213.5433" y2="213.5433"/>
    <line x1="233.1367" x2="307.9933" y1="208.5039" y2="208.5039"/>
    <line x1="308.1512" x2="227.9928" y1="204.7244" y2="204.7244"/>
    <line x1="225.5313" x2="313.3879" y1="200.9449" y2="200.9449"/>
    <line x1="317.8094" x2="223.4053" y1="197.1654" y2="197.1654"/>
    <line x1="221.6177" x2="321.6622" y1="193.3858" y2="193.3858"/>
    <line x1="325.0878" x2="220.2113" y1="189.6063" y2="189.6063"/>
    <line x1="219.0216" x2="327.8975" y1="185.8268" y2="185.8268"/>
    <line x1="330.4685" x2="218.0749" y1="182.0472" y2="182.0472"/>
    <line x1="217.4685" x2="332.7339" y1="178.2677" y2="178.2677"/>
    <line x1="334.6322" x2="217.0325" y1="174.4882" y2="174.4882"/>
    <line x1="205.0676" x2="335.8655" y1="183.3071" y2="183.3071"/>
    <line x1="330.235" x2="218.3615" y1="198.4252" y2="198.4252"/>
    <line x1="193.4281" x2="109.6063" y1="190.2362" y2="190.2362"/>
    <line x1="109.6063" x2="193.9015" y1="188.3465" y2="188.3465"/>
    <line x1="194.2164" x2="109.6063" y1="186.4567" y2="186.4567"/>
    <line x1="109.6063" x2="194.4967" y1="184.5669" y2="184.5669"/>
    <line x1="194.7223" x2="109.6063" y1="182.6772" y2="182.6772"/>
    <line x1="109.6063" x2="194.8152" y1="180.7874" y2="180.7874"/>
    <line x1="194.908" x2="109.6063" y1="178.8976" y2="178.8976"/>
    <line x1="109.6063" x2="193.6765" y1="167.5591" y2="167.5591"/>
    <line x1="193.2031" x2="109.6063" y1="165.6693" y2="165.6693"/>
    <line x1="109.6063" x2="192.6944" y1="163.7795" y2="163.7795"/>
    <line x1="193.5918" x2="341.1892" y1="153.0709" y2="153.0709"/>
    <line x1="329.7766" x2="224.4794" y1="140.4724" y2="140.4724"/>
    <line x1="226.7447" x2="327.5113" y1="136.6929" y2="136.6929"/>
    <line x1="324.7617" x2="229.4943" y1="132.9134" y2="132.9134"/>
    <line x1="232.6973" x2="321.5588" y1="129.1339" y2="129.1339"/>
    <line x1="322.8881" x2="428.3361" y1="127.874" y2="127.874"/>
    <line x1="430.0166" x2="319.7352" y1="129.7638" y2="129.7638"/>
    <line x1="317.1361" x2="431.4182" y1="131.6535" y2="131.6535"/>
    <line x1="432.8197" x2="314.588" y1="133.5433" y2="133.5433"/>
    <line x1="312.4746" x2="434.0137" y1="135.4331" y2="135.4331"/>
    <line x1="435.1464" x2="310.3896" y1="137.3228" y2="137.3228"/>
    <line x1="308.5689" x2="436.2117" y1="139.2126" y2="139.2126"/>
    <line x1="437.1055" x2="306.8561" y1="141.1024" y2="141.1024"/>
    <line x1="305.2215" x2="437.9993" y1="142.9921" y2="142.9921"/>
    <line x1="438.7499" x2="303.8199" y1="144.8819" y2="144.8819"/>
    <line x1="302.4184" x2="439.4261" y1="146.7717" y2="146.7717"/>
    <line x1="440.1023" x2="301.1743" y1="148.6614" y2="148.6614"/>
    <line x1="300.0416" x2="440.591" y1="150.5512" y2="150.5512"/>
    <line x1="441.0644" x2="298.9089" y1="152.4409" y2="152.4409"/>
    <line x1="297.9528" x2="441.5168" y1="154.3307" y2="154.3307"/>
    <line x1="441.7971" x2="297.059" y1="156.2205" y2="156.2205"/>
    <line x1="296.1652" x2="442.0775" y1="158.1102" y2="158.1102"/>
    <line x1="442.3134" x2="295.4323" y1="160.0" y2="160.0"/>
    <line x1="294.7561" x2="442.4062" y1="161.8898" y2="161.8898"/>
    <line x1="442.4991" x2="294.08" y1="163.7795" y2="163.7795"/>
    <line x1="293.5284" x2="442.5293" y1="165.6693" y2="165.6693"/>
    <line x1="442.4365" x2="293.0551" y1="167.5591" y2="167.5591"/>
    <line x1="292.5817" x2="442.3437" y1="169.4488" y2="169.4488"/>
    <line x1="442.1688" x2="292.1847" y1="171.3386" y2="171.3386"/>
    <line x1="299.5841" x2="412.0188" y1="214.8031" y2="214.8031"/>
    <line x1="409.2297" x2="300.7168" y1="216.6929" y2="216.6929"/>
    <line x1="301.8522" x2="408.0942" y1="218.5827" y2="218.5827"/>
    <line x1="402.0694" x2="307.877" y1="226.1417" y2="226.1417"/>
    <line x1="309.5898" x2="400.3566" y1="228.0315" y2="228.0315"/>
    <line x1="398.314" x2="311.6324" y1="229.9213" y2="229.9213"/>
    <line x1="313.7174" x2="396.229" y1="231.811" y2="231.811"/>
    <line x1="393.8396" x2="316.1068" y1="233.7008" y2="233.7008"/>
    <line x1="318.6548" x2="391.2916" y1="235.5906" y2="235.5906"/>
    <line x1="388.332" x2="321.6144" y1="237.4803" y2="237.4803"/>
    <line x1="324.7673" x2="385.1791" y1="239.3701" y2="239.3701"/>
    <line x1="381.2051" x2="328.7413" y1="241.2598" y2="241.2598"/>
    <line x1="333.4511" x2="376.4953" y1="243.1496" y2="243.1496"/>
    <line x1="370.224" x2="339.7224" y1="245.0394" y2="245.0394"/>
    <line x1="346.2449" x2="215.436" y1="243.7795" y2="243.7795"/>
    <line x1="217.5417" x2="312.1243" y1="246.2992" y2="246.2992"/>
    <line x1="314.9207" x2="214.7454" y1="250.0787" y2="250.0787"/>
    <line x1="212.48" x2="317.1861" y1="253.8583" y2="253.8583"/>
    <line x1="319.1306" x2="210.5355" y1="257.6378" y2="257.6378"/>
    <line x1="209.8961" x2="351.7849" y1="258.8976" y2="258.8976"/>
    <line x1="354.2532" x2="355.6932" y1="246.9291" y2="246.9291"/>
    <line x1="336.1936" x2="225.4873" y1="228.6614" y2="228.6614"/>
    <line x1="229.3082" x2="300.3578" y1="234.9606" y2="234.9606"/>
    <line x1="305.013" x2="224.6531" y1="238.7402" y2="238.7402"/>
    <line x1="220.8004" x2="308.8656" y1="242.5197" y2="242.5197"/>
    <line x1="294.5449" x2="235.1212" y1="231.1811" y2="231.1811"/>
    <line x1="243.0667" x2="295.0762" y1="227.4016" y2="227.4016"/>
    <line x1="320.8057" x2="209.2649" y1="261.4173" y2="261.4173"/>
    <line x1="208.6322" x2="322.158" y1="265.1969" y2="265.1969"/>
    <line x1="323.1913" x2="208.0716" y1="268.9764" y2="268.9764"/>
    <line x1="207.8614" x2="324.0337" y1="272.7559" y2="272.7559"/>
    <line x1="324.5943" x2="207.6895" y1="276.5354" y2="276.5354"/>
    <line x1="205.4455" x2="353.8815" y1="274.0157" y2="274.0157"/>
    <line x1="352.8201" x2="204.9048" y1="289.1339" y2="289.1339"/>
    <line x1="204.4512" x2="253.8428" y1="292.2835" y2="292.2835"/>
    <line x1="258.6248" x2="199.6692" y1="294.1732" y2="294.1732"/>
    <line x1="195.6736" x2="262.6204" y1="296.063" y2="296.063"/>
    <line x1="265.9686" x2="192.3254" y1="297.9528" y2="297.9528"/>
    <line x1="189.1725" x2="269.1215" y1="299.8425" y2="299.8425"/>
    <line x1="271.7784" x2="186.5155" y1="301.7323" y2="301.7323"/>
    <line x1="183.9675" x2="274.3265" y1="303.622" y2="303.622"/>
    <line x1="276.6141" x2="181.6799" y1="305.5118" y2="305.5118"/>
    <line x1="179.5949" x2="278.6991" y1="307.4016" y2="307.4016"/>
    <line x1="280.7776" x2="177.5164" y1="309.2913" y2="309.2913"/>
    <line x1="175.8036" x2="282.4904" y1="311.1811" y2="311.1811"/>
    <line x1="284.2031" x2="174.0908" y1="313.0709" y2="313.0709"/>
    <line x1="172.4434" x2="285.8506" y1="314.9606" y2="314.9606"/>
    <line x1="287.2522" x2="171.0418" y1="316.8504" y2="316.8504"/>
    <line x1="169.6403" x2="288.6537" y1="318.7402" y2="318.7402"/>
    <line x1="290.0106" x2="168.2834" y1="320.6299" y2="320.6299"/>
    <line x1="167.1507" x2="291.1433" y1="322.5197" y2="322.5197"/>
    <line x1="292.276" x2="166.018" y1="324.4094" y2="324.4094"/>
    <line x1="164.8853" x2="293.4087" y1="326.2992" y2="326.2992"/>
    <line x1="294.3226" x2="163.9714" y1="328.189" y2="328.189"/>
    <line x1="163.0776" x2="295.2164" y1="330.0787" y2="330.0787"/>
    <line x1="296.1102" x2="162.1838" y1="331.9685" y2="331.9685"/>
    <line x1="161.3966" x2="296.8974" y1="333.8583" y2="333.8583"/>
    <line x1="298.7017" x2="234.8094" y1="333.2283" y2="333.2283"/>
    <line x1="232.9667" x2="325.1728" y1="334.4882" y2="334.4882"/>
    <line x1="311.1779" x2="223.6094" y1="321.8898" y2="321.8898"/>
    <line x1="220.8063" x2="314.0164" y1="318.1102" y2="318.1102"/>
    <line x1="316.4499" x2="218.3885" y1="314.3307" y2="314.3307"/>
    <line x1="216.1649" x2="318.5496" y1="310.5512" y2="310.5512"/>
    <line x1="320.3372" x2="214.3773" y1="306.7717" y2="306.7717"/>
    <line x1="212.7508" x2="321.7185" y1="302.9921" y2="302.9921"/>
    <line x1="322.8836" x2="211.3985" y1="299.2126" y2="299.2126"/>
    <line x1="210.2821" x2="323.8303" y1="295.4331" y2="295.4331"/>
    <line x1="324.4121" x2="209.3354" y1="291.6535" y2="291.6535"/>
    <line x1="210.4906" x2="247.8033" y1="290.3937" y2="290.3937"/>
    <line x1="238.1073" x2="220.1867" y1="288.5039" y2="288.5039"/>
    <line x1="208.674" x2="324.8232" y1="287.874" y2="287.874"/>
    <line x1="325.0089" x2="208.1133" y1="284.0945" y2="284.0945"/>
    <line x1="207.8752" x2="324.8835" y1="280.315" y2="280.315"/>
    <line x1="348.4793" x2="208.3984" y1="304.252" y2="304.252"/>
    <line x1="216.584" x2="339.9403" y1="319.3701" y2="319.3701"/>
    <line x1="307.7524" x2="226.8841" y1="325.6693" y2="325.6693"/>
    <line x1="230.5703" x2="303.6578" y1="329.4488" y2="329.4488"/>
    <line x1="297.5735" x2="160.7205" y1="335.748" y2="335.748"/>
    <line x1="160.0443" x2="298.2497" y1="337.6378" y2="337.6378"/>
    <line x1="298.9259" x2="159.3681" y1="339.5276" y2="339.5276"/>
    <line x1="158.8789" x2="299.4151" y1="341.4173" y2="341.4173"/>
    <line x1="299.8884" x2="158.4056" y1="343.3071" y2="343.3071"/>
    <line x1="157.9322" x2="300.3618" y1="345.1969" y2="345.1969"/>
    <line x1="300.7877" x2="157.5063" y1="347.0866" y2="347.0866"/>
    <line x1="157.226" x2="301.068" y1="348.9764" y2="348.9764"/>
    <line x1="301.3483" x2="156.9457" y1="350.8661" y2="350.8661"/>
    <line x1="156.6654" x2="301.6286" y1="352.7559" y2="352.7559"/>
    <line x1="301.8157" x2="156.4783" y1="354.6457" y2="354.6457"/>
    <line x1="156.3855" x2="301.9085" y1="356.5354" y2="356.5354"/>
    <line x1="302.0014" x2="156.2926" y1="358.4252" y2="358.4252"/>
    <line x1="156.1998" x2="302.0942" y1="360.315" y2="360.315"/>
    <line x1="302.0547" x2="156.2392" y1="362.2047" y2="362.2047"/>
    <line x1="156.3321" x2="301.9619" y1="364.0945" y2="364.0945"/>
    <line x1="301.8691" x2="156.4249" y1="365.9843" y2="365.9843"/>
    <line x1="156.5177" x2="301.7762" y1="367.874" y2="367.874"/>
    <line x1="301.5095" x2="156.7845" y1="369.7638" y2="369.7638"/>
    <line x1="157.0648" x2="301.2292" y1="371.6535" y2="371.6535"/>
    <line x1="300.9489" x2="157.3451" y1="373.5433" y2="373.5433"/>
    <line x1="157.66" x2="300.634" y1="375.4331" y2="375.4331"/>
    <line x1="300.1606" x2="158.1334" y1="377.3228" y2="377.3228"/>
    <line x1="158.6067" x2="299.6873" y1="379.2126" y2="379.2126"/>
    <line x1="299.2139" x2="159.0801" y1="381.1024" y2="381.1024"/>
    <line x1="159.6555" x2="298.6385" y1="382.9921" y2="382.9921"/>
    <line x1="297.9624" x2="160.3316" y1="384.8819" y2="384.8819"/>
    <line x1="161.0078" x2="297.2862" y1="386.7717" y2="386.7717"/>
    <line x1="296.61" x2="161.684" y1="388.6614" y2="388.6614"/>
    <line x1="162.5636" x2="295.7304" y1="390.5512" y2="390.5512"/>
    <line x1="294.8366" x2="163.4574" y1="392.4409" y2="392.4409"/>
    <line x1="164.3512" x2="293.9428" y1="394.3307" y2="394.3307"/>
    <line x1="292.9273" x2="165.3667" y1="396.2205" y2="396.2205"/>
    <line x1="166.4993" x2="291.7946" y1="398.1102" y2="398.1102"/>
    <line x1="290.662" x2="167.632" y1="400.0" y2="400.0"/>
    <line x1="168.8343" x2="289.4597" y1="401.8898" y2="401.8898"/>
    <line x1="288.0581" x2="170.2359" y1="403.7795" y2="403.7795"/>
    <line x1="171.6374" x2="286.6566" y1="405.6693" y2="405.6693"/>
    <line x1="285.1881" x2="173.1059" y1="407.5591" y2="407.5591"/>
    <line x1="174.8187" x2="283.4753" y1="409.4488" y2="409.4488"/>
    <line x1="281.7625" x2="176.5315" y1="411.3386" y2="411.3386"/>
    <line x1="178.3959" x2="279.8981" y1="413.2283" y2="413.2283"/>
    <line x1="277.8131" x2="180.4809" y1="415.1181" y2="415.1181"/>
    <line x1="182.5659" x2="275.728" y1="417.0079" y2="417.0079"/>
    <line x1="273.2437" x2="185.0503" y1="418.8976" y2="418.8976"/>
    <line x1="187.5983" x2="270.6956" y1="420.7874" y2="420.7874"/>
    <line x1="267.7817" x2="190.5123" y1="422.6772" y2="422.6772"/>
    <line x1="193.6652" x2="264.6288" y1="424.5669" y2="424.5669"/>
    <line x1="260.9225" x2="197.3715" y1="426.4567" y2="426.4567"/>
    <line x1="201.4141" x2="256.8799" y1="428.3465" y2="428.3465"/>
    <line x1="251.5984" x2="206.6956" y1="430.2362" y2="430.2362"/>
    <line x1="213.6966" x2="244.5973" y1="432.126" y2="432.126"/>
    <line x1="236.176" x2="322.302" y1="425.1969" y2="425.1969"/>
    <line x1="325.7612" x2="232.7168" y1="440.315" y2="440.315"/>
    <line x1="234.2701" x2="324.2079" y1="455.4331" y2="455.4331"/>
    <line x1="316.9424" x2="241.5356" y1="470.5512" y2="470.5512"/>
    <line x1="248.9157" x2="292.3528" y1="476.8504" y2="476.8504"/>
    <line x1="294.1445" x2="251.5357" y1="480.6299" y2="480.6299"/>
    <line x1="257.4662" x2="295.2553" y1="484.4094" y2="484.4094"/>
    <line x1="298.3481" x2="245.8116" y1="485.6693" y2="485.6693"/>
    <line x1="251.5973" x2="289.6712" y1="473.0709" y2="473.0709"/>
    <line x1="285.5956" x2="255.6728" y1="469.2913" y2="469.2913"/>
    <line x1="263.0226" x2="278.2458" y1="465.5118" y2="465.5118"/>
    <line x1="267.2294" x2="291.2486" y1="488.189" y2="488.189"/>
    <line x1="293.0519" x2="248.2165" y1="500.7874" y2="500.7874"/>
    <line x1="199.0943" x2="118.276" y1="485.6693" y2="485.6693"/>
    <line x1="118.6374" x2="120.3549" y1="488.189" y2="488.189"/>
    <line x1="119.4261" x2="132.6897" y1="491.9685" y2="491.9685"/>
    <line x1="139.0314" x2="120.6034" y1="495.748" y2="495.748"/>
    <line x1="122.2063" x2="143.5858" y1="499.5276" y2="499.5276"/>
    <line x1="147.107" x2="124.2915" y1="503.3071" y2="503.3071"/>
    <line x1="126.9433" x2="149.8312" y1="507.0866" y2="507.0866"/>
    <line x1="151.9995" x2="130.3569" y1="510.8661" y2="510.8661"/>
    <line x1="123.7353" x2="153.6964" y1="514.6457" y2="514.6457"/>
    <line x1="154.9789" x2="112.5474" y1="518.4252" y2="518.4252"/>
    <line x1="109.6063" x2="180.683" y1="515.9055" y2="515.9055"/>
    <line x1="194.5681" x2="109.6063" y1="500.7874" y2="500.7874"/>
    <line x1="109.6063" x2="684.0945" y1="493.2283" y2="493.2283"/>
    <line x1="684.0945" x2="393.0977" y1="485.6693" y2="485.6693"/>
    <line x1="393.281" x2="684.0945" y1="470.5512" y2="470.5512"/>
    <line x1="684.0945" x2="109.6063" y1="462.9921" y2="462.9921"/>
    <line x1="119.7042" x2="197.6661" y1="470.5512" y2="470.5512"/>
    <line x1="189.5005" x2="127.8698" y1="455.4331" y2="455.4331"/>
    <line x1="109.6063" x2="684.0945" y1="447.874" y2="447.874"/>
    <line x1="684.0945" x2="483.0731" y1="446.6142" y2="446.6142"/>
    <line x1="481.2855" x2="684.0945" y1="442.8346" y2="442.8346"/>
    <line x1="684.0945" x2="402.9242" y1="440.315" y2="440.315"/>
    <line x1="396.9013" x2="684.0945" y1="455.4331" y2="455.4331"/>
    <line x1="681.262" x2="485.2036" y1="450.3937" y2="450.3937"/>
    <line x1="487.7102" x2="674.2671" y1="454.1732" y2="454.1732"/>
    <line x1="664.6371" x2="490.6753" y1="457.9528" y2="457.9528"/>
    <line x1="494.2229" x2="649.0063" y1="461.7323" y2="461.7323"/>
    <line x1="648.0596" x2="498.5506" y1="465.5118" y2="465.5118"/>
    <line x1="503.9962" x2="646.8072" y1="469.2913" y2="469.2913"/>
    <line x1="645.4316" x2="511.1922" y1="473.0709" y2="473.0709"/>
    <line x1="505.8321" x2="475.0814" y1="476.8504" y2="476.8504"/>
    <line x1="471.1028" x2="509.8107" y1="480.6299" y2="480.6299"/>
    <line x1="512.4328" x2="468.4807" y1="484.4094" y2="484.4094"/>
    <line x1="466.7287" x2="514.1848" y1="488.189" y2="488.189"/>
    <line x1="515.2807" x2="465.6328" y1="491.9685" y2="491.9685"/>
    <line x1="465.1994" x2="515.7141" y1="495.748" y2="495.748"/>
    <line x1="515.6325" x2="465.281" y1="499.5276" y2="499.5276"/>
    <line x1="465.9889" x2="514.9246" y1="503.3071" y2="503.3071"/>
    <line x1="513.6219" x2="467.2916" y1="507.0866" y2="507.0866"/>
    <line x1="469.3327" x2="511.5808" y1="510.8661" y2="510.8661"/>
    <line x1="508.5223" x2="472.3912" y1="514.6457" y2="514.6457"/>
    <line x1="477.1418" x2="503.7717" y1="518.4252" y2="518.4252"/>
    <line x1="491.2228" x2="489.6906" y1="522.2047" y2="522.2047"/>
    <line x1="528.964" x2="662.6206" y1="491.9685" y2="491.9685"/>
    <line x1="664.678" x2="532.4521" y1="495.748" y2="495.748"/>
    <line x1="536.6222" x2="666.1824" y1="499.5276" y2="499.5276"/>
    <line x1="667.1969" x2="541.5992" y1="503.3071" y2="503.3071"/>
    <line x1="547.6578" x2="667.7119" y1="507.0866" y2="507.0866"/>
    <line x1="667.7994" x2="555.6707" y1="510.8661" y2="510.8661"/>
    <line x1="568.9395" x2="593.6141" y1="514.6457" y2="514.6457"/>
    <line x1="601.3473" x2="667.4648" y1="514.6457" y2="514.6457"/>
    <line x1="666.6964" x2="602.1157" y1="518.4252" y2="518.4252"/>
    <line x1="603.3446" x2="665.4674" y1="522.2047" y2="522.2047"/>
    <line x1="663.6882" x2="605.1238" y1="525.9843" y2="525.9843"/>
    <line x1="607.5766" x2="661.2355" y1="529.7638" y2="529.7638"/>
    <line x1="658.0214" x2="610.7906" y1="533.5433" y2="533.5433"/>
    <line x1="610.2189" x2="594.4166" y1="537.3228" y2="537.3228"/>
    <line x1="579.3577" x2="646.2575" y1="541.1024" y2="541.1024"/>
    <line x1="653.4582" x2="615.3538" y1="537.3228" y2="537.3228"/>
    <line x1="633.3795" x2="571.256" y1="544.8819" y2="544.8819"/>
    <line x1="565.3092" x2="639.3263" y1="548.6614" y2="548.6614"/>
    <line x1="644.1366" x2="560.4988" y1="552.4409" y2="552.4409"/>
    <line x1="556.4736" x2="648.1619" y1="556.2205" y2="556.2205"/>
    <line x1="651.5875" x2="553.048" y1="560.0" y2="560.0"/>
    <line x1="550.2233" x2="654.4122" y1="563.7795" y2="563.7795"/>
    <line x1="656.875" x2="547.7605" y1="567.5591" y2="567.5591"/>
    <line x1="545.5954" x2="659.0401" y1="571.3386" y2="571.3386"/>
    <line x1="660.8276" x2="543.8078" y1="575.1181" y2="575.1181"/>
    <line x1="542.3294" x2="662.3061" y1="578.8976" y2="578.8976"/>
    <line x1="663.5983" x2="541.0372" y1="582.6772" y2="582.6772"/>
    <line x1="540.0905" x2="664.545" y1="586.4567" y2="586.4567"/>
    <line x1="665.2836" x2="539.3519" y1="590.2362" y2="590.2362"/>
    <line x1="538.7912" x2="665.8443" y1="594.0157" y2="594.0157"/>
    <line x1="666.0681" x2="520.7994" y1="597.7953" y2="597.7953"/>
    <line x1="509.3093" x2="666.1643" y1="601.5748" y2="601.5748"/>
    <line x1="665.9786" x2="502.0281" y1="605.3543" y2="605.3543"/>
    <line x1="496.3903" x2="665.5739" y1="609.1339" y2="609.1339"/>
    <line x1="665.0132" x2="491.7991" y1="612.9134" y2="612.9134"/>
    <line x1="487.9343" x2="664.0884" y1="616.6929" y2="616.6929"/>
    <line x1="663.0062" x2="484.6069" y1="620.4724" y2="620.4724"/>
    <line x1="481.8038" x2="661.6539" y1="624.252" y2="624.252"/>
    <line x1="659.9655" x2="479.4308" y1="628.0315" y2="628.0315"/>
    <line x1="477.3327" x2="658.0478" y1="631.811" y2="631.811"/>
    <line x1="655.7825" x2="475.5451" y1="635.5906" y2="635.5906"/>
    <line x1="474.1153" x2="653.0603" y1="639.3701" y2="639.3701"/>
    <line x1="649.9354" x2="472.8564" y1="643.1496" y2="643.1496"/>
    <line x1="471.9097" x2="646.2956" y1="646.9291" y2="646.9291"/>
    <line x1="641.9646" x2="471.191" y1="650.7087" y2="650.7087"/>
    <line x1="470.6304" x2="636.6442" y1="654.4882" y2="654.4882"/>
    <line x1="629.7778" x2="470.4142" y1="658.2677" y2="658.2677"/>
    <line x1="468.4319" x2="377.429" y1="658.2677" y2="658.2677"/>
    <line x1="375.6415" x2="619.8917" y1="662.0472" y2="662.0472"/>
    <line x1="600.2453" x2="374.2254" y1="665.8268" y2="665.8268"/>
    <line x1="373.1146" x2="599.8564" y1="669.6063" y2="669.6063"/>
    <line x1="599.2958" x2="432.2181" y1="673.3858" y2="673.3858"/>
    <line x1="431.125" x2="372.2833" y1="673.3858" y2="673.3858"/>
    <line x1="369.7783" x2="327.2351" y1="673.3858" y2="673.3858"/>
    <line x1="324.6543" x2="301.5271" y1="673.3858" y2="673.3858"/>
    <line x1="295.0439" x2="427.7986" y1="677.1654" y2="677.1654"/>
    <line x1="432.6587" x2="598.3993" y1="677.1654" y2="677.1654"/>
    <line x1="597.3591" x2="432.9866" y1="680.9449" y2="680.9449"/>
    <line x1="433.0875" x2="474.2796" y1="684.7244" y2="684.7244"/>
    <line x1="474.7383" x2="596.0068" y1="684.7244" y2="684.7244"/>
    <line x1="594.3764" x2="476.3687" y1="688.5039" y2="688.5039"/>
    <line x1="473.9785" x2="432.9472" y1="688.5039" y2="688.5039"/>
    <line x1="432.8035" x2="473.4179" y1="692.2835" y2="692.2835"/>
    <line x1="472.4767" x2="432.6298" y1="696.063" y2="696.063"/>
    <line x1="432.456" x2="471.2503" y1="699.8425" y2="699.8425"/>
    <line x1="469.7104" x2="432.4238" y1="703.622" y2="703.622"/>
    <line x1="432.4475" x2="467.8162" y1="707.4016" y2="707.4016"/>
    <line x1="465.5095" x2="432.496" y1="711.1811" y2="711.1811"/>
    <line x1="432.5945" x2="462.7043" y1="714.9606" y2="714.9606"/>
    <line x1="459.2689" x2="432.693" y1="718.7402" y2="718.7402"/>
    <line x1="432.6536" x2="454.9916" y1="722.5197" y2="722.5197"/>
    <line x1="449.5088" x2="432.6069" y1="726.2992" y2="726.2992"/>
    <line x1="432.4959" x2="441.9791" y1="730.0787" y2="730.0787"/>
    <line x1="431.7231" x2="684.0945" y1="742.6772" y2="742.6772"/>
    <line x1="684.0945" x2="109.6063" y1="750.2362" y2="750.2362"/>
    <line x1="109.6063" x2="142.0556" y1="742.6772" y2="742.6772"/>
    <line x1="150.0935" x2="159.7764" y1="730.0787" y2="730.0787"/>
    <line x1="163.202" x2="145.3489" y1="726.2992" y2="726.2992"/>
    <line x1="141.6276" x2="166.146" y1="722.5197" y2="722.5197"/>
    <line x1="168.7296" x2="138.6663" y1="718.7402" y2="718.7402"/>
    <line x1="136.3023" x2="170.9949" y1="714.9606" y2="714.9606"/>
    <line x1="172.8063" x2="134.4308" y1="711.1811" y2="711.1811"/>
    <line x1="132.9822" x2="174.4138" y1="707.4016" y2="707.4016"/>
    <line x1="175.7661" x2="131.9095" y1="703.622" y2="703.622"/>
    <line x1="131.1819" x2="176.7885" y1="699.8425" y2="699.8425"/>
    <line x1="177.6717" x2="130.78" y1="696.063" y2="696.063"/>
    <line x1="130.6938" x2="178.2324" y1="692.2835" y2="692.2835"/>
    <line x1="178.6118" x2="130.9217" y1="688.5039" y2="688.5039"/>
    <line x1="131.4823" x2="178.7975" y1="684.7244" y2="684.7244"/>
    <line x1="178.6915" x2="132.4168" y1="680.9449" y2="680.9449"/>
    <line x1="133.7068" x2="178.4729" y1="677.1654" y2="677.1654"/>
    <line x1="177.9123" x2="135.3887" y1="673.3858" y2="673.3858"/>
    <line x1="137.5162" x2="177.1947" y1="669.6063" y2="669.6063"/>
    <line x1="176.248" x2="140.1683" y1="665.8268" y2="665.8268"/>
    <line x1="143.4632" x2="174.994" y1="662.0472" y2="662.0472"/>
    <line x1="173.5733" x2="147.7281" y1="658.2677" y2="658.2677"/>
    <line x1="153.3893" x2="171.7857" y1="654.4882" y2="654.4882"/>
    <line x1="169.7016" x2="162.1374" y1="650.7087" y2="650.7087"/>
    <line x1="158.8101" x2="109.6063" y1="636.8504" y2="636.8504"/>
    <line x1="109.6063" x2="684.0945" y1="629.2913" y2="629.2913"/>
    <line x1="684.0945" x2="308.9084" y1="621.7323" y2="621.7323"/>
    <line x1="306.0612" x2="218.5305" y1="621.7323" y2="621.7323"/>
    <line x1="218.2088" x2="306.3828" y1="636.8504" y2="636.8504"/>
    <line x1="312.8114" x2="684.0945" y1="636.8504" y2="636.8504"/>
    <line x1="684.0945" x2="109.6063" y1="644.4094" y2="644.4094"/>
    <line x1="109.6063" x2="191.7726" y1="651.9685" y2="651.9685"/>
    <line x1="211.1551" x2="109.6063" y1="667.0866" y2="667.0866"/>
    <line x1="109.6063" x2="684.0945" y1="659.5276" y2="659.5276"/>
    <line x1="684.0945" x2="236.9923" y1="667.0866" y2="667.0866"/>
    <line x1="232.1444" x2="418.3472" y1="666.4567" y2="666.4567"/>
    <line x1="418.8205" x2="232.0515" y1="664.5669" y2="664.5669"/>
    <line x1="232.0752" x2="419.1487" y1="662.6772" y2="662.6772"/>
    <line x1="419.4291" x2="232.1681" y1="660.7874" y2="660.7874"/>
    <line x1="232.2609" x2="419.6893" y1="658.8976" y2="658.8976"/>
    <line x1="419.7822" x2="232.3538" y1="657.0079" y2="657.0079"/>
    <line x1="232.5994" x2="419.875" y1="655.1181" y2="655.1181"/>
    <line x1="419.8868" x2="232.8797" y1="653.2283" y2="653.2283"/>
    <line x1="233.1601" x2="419.794" y1="651.3386" y2="651.3386"/>
    <line x1="419.7011" x2="233.448" y1="649.4488" y2="649.4488"/>
    <line x1="233.9213" x2="419.4647" y1="647.5591" y2="647.5591"/>
    <line x1="419.1844" x2="234.3947" y1="645.6693" y2="645.6693"/>
    <line x1="234.8681" x2="418.8807" y1="643.7795" y2="643.7795"/>
    <line x1="418.4073" x2="235.4097" y1="641.8898" y2="641.8898"/>
    <line x1="236.0858" x2="417.934" y1="640.0" y2="640.0"/>
    <line x1="417.3537" x2="236.762" y1="638.1102" y2="638.1102"/>
    <line x1="237.4382" x2="416.6775" y1="636.2205" y2="636.2205"/>
    <line x1="415.9992" x2="238.2759" y1="634.3307" y2="634.3307"/>
    <line x1="239.1697" x2="415.1054" y1="632.4409" y2="632.4409"/>
    <line x1="414.2116" x2="240.0635" y1="630.5512" y2="630.5512"/>
    <line x1="241.027" x2="413.1762" y1="628.6614" y2="628.6614"/>
    <line x1="412.0436" x2="242.1596" y1="626.7717" y2="626.7717"/>
    <line x1="243.2923" x2="410.8304" y1="624.8819" y2="624.8819"/>
    <line x1="409.4288" x2="244.4297" y1="622.9921" y2="622.9921"/>
    <line x1="245.8313" x2="407.9801" y1="621.1024" y2="621.1024"/>
    <line x1="409.9354" x2="313.5808" y1="620.4724" y2="620.4724"/>
    <line x1="313.0202" x2="408.2629" y1="624.252" y2="624.252"/>
    <line x1="406.2578" x2="312.741" y1="628.0315" y2="628.0315"/>
    <line x1="314.4999" x2="403.8631" y1="631.811" y2="631.811"/>
    <line x1="401.4484" x2="445.6106" y1="635.5906" y2="635.5906"/>
    <line x1="445.7963" x2="412.93" y1="631.811" y2="631.811"/>
    <line x1="418.2812" x2="445.6191" y1="628.0315" y2="628.0315"/>
    <line x1="445.3399" x2="416.3525" y1="624.252" y2="624.252"/>
    <line x1="414.4237" x2="444.7793" y1="620.4724" y2="620.4724"/>
    <line x1="444.0108" x2="412.7961" y1="616.6929" y2="616.6929"/>
    <line x1="411.2877" x2="314.3493" y1="616.6929" y2="616.6929"/>
    <line x1="315.296" x2="443.0641" y1="612.9134" y2="612.9134"/>
    <line x1="441.7684" x2="316.5917" y1="609.1339" y2="609.1339"/>
    <line x1="318.0449" x2="440.3153" y1="605.3543" y2="605.3543"/>
    <line x1="438.5277" x2="319.8325" y1="601.5748" y2="601.5748"/>
    <line x1="321.9392" x2="436.421" y1="597.7953" y2="597.7953"/>
    <line x1="434.0565" x2="324.3036" y1="594.0157" y2="594.0157"/>
    <line x1="323.8034" x2="287.244" y1="592.7559" y2="592.7559"/>
    <line x1="284.1043" x2="240.4873" y1="591.4961" y2="591.4961"/>
    <line x1="224.5868" x2="300.0048" y1="606.6142" y2="606.6142"/>
    <line x1="304.995" x2="684.0945" y1="606.6142" y2="606.6142"/>
    <line x1="684.0945" x2="109.6063" y1="614.1732" y2="614.1732"/>
    <line x1="109.6063" x2="133.6721" y1="621.7323" y2="621.7323"/>
    <line x1="109.6063" x2="684.0945" y1="599.0551" y2="599.0551"/>
    <line x1="684.0945" x2="305.4523" y1="591.4961" y2="591.4961"/>
    <line x1="297.271" x2="313.7764" y1="590.8661" y2="590.8661"/>
    <line x1="327.1067" x2="431.2534" y1="590.2362" y2="590.2362"/>
    <line x1="427.9556" x2="330.4045" y1="586.4567" y2="586.4567"/>
    <line x1="334.2122" x2="424.148" y1="582.6772" y2="582.6772"/>
    <line x1="419.6524" x2="338.7077" y1="578.8976" y2="578.8976"/>
    <line x1="344.1922" x2="414.168" y1="575.1181" y2="575.1181"/>
    <line x1="407.1345" x2="351.2256" y1="571.3386" y2="571.3386"/>
    <line x1="361.4922" x2="402.511" y1="567.5591" y2="567.5591"/>
    <line x1="399.3436" x2="392.2211" y1="563.7795" y2="563.7795"/>
    <line x1="391.7207" x2="395.5192" y1="560.0" y2="560.0"/>
    <line x1="391.8167" x2="684.0945" y1="546.1417" y2="546.1417"/>
    <line x1="684.0945" x2="109.6063" y1="538.5827" y2="538.5827"/>
    <line x1="109.6063" x2="155.9778" y1="537.3228" y2="537.3228"/>
    <line x1="156.4703" x2="109.6063" y1="533.5433" y2="533.5433"/>
    <line x1="109.6063" x2="160.6424" y1="531.0236" y2="531.0236"/>
    <line x1="156.6253" x2="109.6063" y1="529.7638" y2="529.7638"/>
    <line x1="109.6063" x2="156.4396" y1="525.9843" y2="525.9843"/>
    <line x1="155.8852" x2="154.6168" y1="522.2047" y2="522.2047"/>
    <line x1="152.7576" x2="109.6063" y1="522.2047" y2="522.2047"/>
    <line x1="109.6063" x2="684.0945" y1="523.4646" y2="523.4646"/>
    <line x1="684.0945" x2="395.5241" y1="531.0236" y2="531.0236"/>
    <line x1="397.4" x2="684.0945" y1="515.9055" y2="515.9055"/>
    <line x1="684.0945" x2="109.6063" y1="508.3465" y2="508.3465"/>
    <line x1="109.6063" x2="684.0945" y1="478.1102" y2="478.1102"/>
    <line x1="684.0945" x2="396.9086" y1="500.7874" y2="500.7874"/>
    <line x1="406.7655" x2="425.0598" y1="469.9213" y2="469.9213"/>
    <line x1="434.3868" x2="397.4384" y1="468.0315" y2="468.0315"/>
    <line x1="391.6648" x2="440.1605" y1="466.1417" y2="466.1417"/>
    <line x1="444.7087" x2="387.1166" y1="464.252" y2="464.252"/>
    <line x1="383.1478" x2="448.6775" y1="462.3622" y2="462.3622"/>
    <line x1="451.8304" x2="379.9949" y1="460.4724" y2="460.4724"/>
    <line x1="376.952" x2="454.8733" y1="458.5827" y2="458.5827"/>
    <line x1="457.4214" x2="374.4039" y1="456.6929" y2="456.6929"/>
    <line x1="371.8735" x2="459.9517" y1="454.8031" y2="454.8031"/>
    <line x1="462.0367" x2="369.7885" y1="452.9134" y2="452.9134"/>
    <line x1="367.7035" x2="464.1218" y1="451.0236" y2="451.0236"/>
    <line x1="465.9754" x2="365.8499" y1="449.1339" y2="449.1339"/>
    <line x1="364.1371" x2="467.6882" y1="447.2441" y2="447.2441"/>
    <line x1="469.401" x2="362.4243" y1="445.3543" y2="445.3543"/>
    <line x1="361.0089" x2="470.8164" y1="443.4646" y2="443.4646"/>
    <line x1="472.2179" x2="359.6073" y1="441.5748" y2="441.5748"/>
    <line x1="358.2233" x2="473.602" y1="439.685" y2="439.685"/>
    <line x1="474.7347" x2="357.0906" y1="437.7953" y2="437.7953"/>
    <line x1="355.9579" x2="475.8673" y1="435.9055" y2="435.9055"/>
    <line x1="477.0" x2="354.8252" y1="434.0157" y2="434.0157"/>
    <line x1="353.9264" x2="477.8989" y1="432.126" y2="432.126"/>
    <line x1="477.8788" x2="684.0945" y1="431.4961" y2="431.4961"/>
    <line x1="684.0945" x2="109.6063" y1="432.7559" y2="432.7559"/>
    <line x1="109.6063" x2="684.0945" y1="417.6378" y2="417.6378"/>
    <line x1="684.0945" x2="477.0674" y1="416.378" y2="416.378"/>
    <line x1="476.8817" x2="684.0945" y1="420.1575" y2="420.1575"/>
    <line x1="684.0945" x2="477.0023" y1="423.937" y2="423.937"/>
    <line x1="477.3182" x2="684.0945" y1="427.7165" y2="427.7165"/>
    <line x1="684.0945" x2="409.8677" y1="425.1969" y2="425.1969"/>
    <line x1="414.6234" x2="684.0945" y1="410.0787" y2="410.0787"/>
    <line x1="684.0945" x2="478.1653" y1="408.8189" y2="408.8189"/>
    <line x1="477.5145" x2="684.0945" y1="412.5984" y2="412.5984"/>
    <line x1="684.0945" x2="479.1121" y1="405.0394" y2="405.0394"/>
    <line x1="480.3826" x2="684.0945" y1="401.2598" y2="401.2598"/>
    <line x1="684.0945" x2="109.6063" y1="402.5197" y2="402.5197"/>
    <line x1="109.6063" x2="684.0945" y1="387.4016" y2="387.4016"/>
    <line x1="684.0945" x2="488.6916" y1="386.1417" y2="386.1417"/>
    <line x1="485.9967" x2="684.0945" y1="389.9213" y2="389.9213"/>
    <line x1="684.0945" x2="483.7314" y1="393.7008" y2="393.7008"/>
    <line x1="484.8447" x2="346.9805" y1="394.3307" y2="394.3307"/>
    <line x1="346.869" x2="484.9562" y1="396.2205" y2="396.2205"/>
    <line x1="485.0491" x2="346.7762" y1="398.1102" y2="398.1102"/>
    <line x1="346.6834" x2="485.1419" y1="400.0" y2="400.0"/>
    <line x1="485.1778" x2="346.6474" y1="401.8898" y2="401.8898"/>
    <line x1="346.7403" x2="485.085" y1="403.7795" y2="403.7795"/>
    <line x1="484.9922" x2="346.8331" y1="405.6693" y2="405.6693"/>
    <line x1="346.9259" x2="484.8993" y1="407.5591" y2="407.5591"/>
    <line x1="484.6729" x2="347.1523" y1="409.4488" y2="409.4488"/>
    <line x1="347.4327" x2="484.3926" y1="411.3386" y2="411.3386"/>
    <line x1="484.1123" x2="347.713" y1="413.2283" y2="413.2283"/>
    <line x1="348.0228" x2="483.8024" y1="415.1181" y2="415.1181"/>
    <line x1="483.3291" x2="348.4962" y1="417.0079" y2="417.0079"/>
    <line x1="348.9695" x2="482.8557" y1="418.8976" y2="418.8976"/>
    <line x1="482.3824" x2="349.4429" y1="420.7874" y2="420.7874"/>
    <line x1="350.0506" x2="481.7747" y1="422.6772" y2="422.6772"/>
    <line x1="481.0985" x2="350.7267" y1="424.5669" y2="424.5669"/>
    <line x1="351.4029" x2="480.4223" y1="426.4567" y2="426.4567"/>
    <line x1="479.6865" x2="352.1388" y1="428.3465" y2="428.3465"/>
    <line x1="353.0326" x2="478.7927" y1="430.2362" y2="430.2362"/>
    <line x1="478.7806" x2="684.0945" y1="435.2756" y2="435.2756"/>
    <line x1="684.0945" x2="479.9092" y1="439.0551" y2="439.0551"/>
    <line x1="482.0767" x2="498.8368" y1="473.0709" y2="473.0709"/>
    <line x1="518.9097" x2="643.644" y1="476.8504" y2="476.8504"/>
    <line x1="650.5986" x2="520.8984" y1="480.6299" y2="480.6299"/>
    <line x1="523.1638" x2="656.0562" y1="484.4094" y2="484.4094"/>
    <line x1="659.8383" x2="525.8982" y1="488.189" y2="488.189"/>
    <line x1="481.9114" x2="684.0945" y1="397.4803" y2="397.4803"/>
    <line x1="684.0945" x2="418.5108" y1="394.9606" y2="394.9606"/>
    <line x1="418.5851" x2="684.0945" y1="379.8425" y2="379.8425"/>
    <line x1="684.0945" x2="495.6828" y1="378.5827" y2="378.5827"/>
    <line x1="491.8746" x2="684.0945" y1="382.3622" y2="382.3622"/>
    <line x1="684.0945" x2="567.9516" y1="374.8031" y2="374.8031"/>
    <line x1="567.3314" x2="500.3348" y1="374.8031" y2="374.8031"/>
    <line x1="506.2039" x2="684.0945" y1="371.0236" y2="371.0236"/>
    <line x1="684.0945" x2="109.6063" y1="372.2835" y2="372.2835"/>
    <line x1="109.6063" x2="684.0945" y1="357.1654" y2="357.1654"/>
    <line x1="684.0945" x2="542.8148" y1="355.9055" y2="355.9055"/>
    <line x1="544.0304" x2="650.8272" y1="354.6457" y2="354.6457"/>
    <line x1="649.9334" x2="544.9242" y1="356.5354" y2="356.5354"/>
    <line x1="545.9929" x2="648.8647" y1="358.4252" y2="358.4252"/>
    <line x1="647.7321" x2="547.1256" y1="360.315" y2="360.315"/>
    <line x1="545.5424" x2="684.0945" y1="359.685" y2="359.685"/>
    <line x1="684.0945" x2="548.9298" y1="363.4646" y2="363.4646"/>
    <line x1="549.6847" x2="645.173" y1="364.0945" y2="364.0945"/>
    <line x1="646.5745" x2="548.2832" y1="362.2047" y2="362.2047"/>
    <line x1="551.0863" x2="643.7714" y1="365.9843" y2="365.9843"/>
    <line x1="642.1767" x2="552.681" y1="367.874" y2="367.874"/>
    <line x1="553.0442" x2="514.6219" y1="367.2441" y2="367.2441"/>
    <line x1="540.6078" x2="684.0945" y1="352.126" y2="352.126"/>
    <line x1="684.0945" x2="412.432" y1="349.6063" y2="349.6063"/>
    <line x1="411.2862" x2="684.0945" y1="334.4882" y2="334.4882"/>
    <line x1="684.0945" x2="535.5362" y1="333.2283" y2="333.2283"/>
    <line x1="538.3994" x2="656.4583" y1="333.8583" y2="333.8583"/>
    <line x1="656.5511" x2="538.3066" y1="331.9685" y2="331.9685"/>
    <line x1="538.2137" x2="656.644" y1="330.0787" y2="330.0787"/>
    <line x1="656.6468" x2="538.2109" y1="328.189" y2="328.189"/>
    <line x1="538.3037" x2="656.5539" y1="326.2992" y2="326.2992"/>
    <line x1="656.4611" x2="538.3966" y1="324.4094" y2="324.4094"/>
    <line x1="538.5665" x2="656.2912" y1="322.5197" y2="322.5197"/>
    <line x1="656.0109" x2="538.8468" y1="320.6299" y2="320.6299"/>
    <line x1="539.1271" x2="655.7306" y1="318.7402" y2="318.7402"/>
    <line x1="655.3794" x2="527.4056" y1="316.8504" y2="316.8504"/>
    <line x1="518.4621" x2="654.9061" y1="314.9606" y2="314.9606"/>
    <line x1="654.4327" x2="513.0967" y1="313.0709" y2="313.0709"/>
    <line x1="508.9706" x2="653.882" y1="311.1811" y2="311.1811"/>
    <line x1="653.2058" x2="505.4365" y1="309.2913" y2="309.2913"/>
    <line x1="502.2836" x2="652.5297" y1="307.4016" y2="307.4016"/>
    <line x1="651.7482" x2="499.6891" y1="305.5118" y2="305.5118"/>
    <line x1="497.1601" x2="650.8544" y1="303.622" y2="303.622"/>
    <line x1="649.9606" x2="495.0751" y1="301.7323" y2="301.7323"/>
    <line x1="492.99" x2="648.8992" y1="299.8425" y2="299.8425"/>
    <line x1="647.7665" x2="491.2471" y1="297.9528" y2="297.9528"/>
    <line x1="489.5344" x2="646.6171" y1="296.063" y2="296.063"/>
    <line x1="645.2155" x2="488.0015" y1="294.1732" y2="294.1732"/>
    <line x1="486.5999" x2="643.814" y1="292.2835" y2="292.2835"/>
    <line x1="642.2287" x2="485.2092" y1="290.3937" y2="290.3937"/>
    <line x1="484.0765" x2="640.516" y1="288.5039" y2="288.5039"/>
    <line x1="641.5453" x2="566.2549" y1="287.874" y2="287.874"/>
    <line x1="558.0429" x2="640.5872" y1="291.6535" y2="291.6535"/>
    <line x1="639.0761" x2="552.5059" y1="295.4331" y2="295.4331"/>
    <line x1="548.3674" x2="636.9838" y1="299.2126" y2="299.2126"/>
    <line x1="634.0203" x2="545.0986" y1="302.9921" y2="302.9921"/>
    <line x1="542.4561" x2="629.9143" y1="306.7717" y2="306.7717"/>
    <line x1="623.5239" x2="540.3247" y1="310.5512" y2="310.5512"/>
    <line x1="538.6275" x2="623.6536" y1="314.3307" y2="314.3307"/>
    <line x1="624.9694" x2="537.3117" y1="318.1102" y2="318.1102"/>
    <line x1="536.365" x2="625.9162" y1="321.8898" y2="321.8898"/>
    <line x1="627.2016" x2="661.282" y1="321.8898" y2="321.8898"/>
    <line x1="672.4903" x2="535.7807" y1="325.6693" y2="325.6693"/>
    <line x1="535.5068" x2="679.8599" y1="329.4488" y2="329.4488"/>
    <line x1="684.0945" x2="109.6063" y1="326.9291" y2="326.9291"/>
    <line x1="109.6063" x2="684.0945" y1="342.0472" y2="342.0472"/>
    <line x1="684.0945" x2="536.5149" y1="340.7874" y2="340.7874"/>
    <line x1="539.1356" x2="655.722" y1="339.5276" y2="339.5276"/>
    <line x1="656.0024" x2="538.8553" y1="337.6378" y2="337.6378"/>
    <line x1="538.575" x2="656.2827" y1="335.748" y2="335.748"/>
    <line x1="655.3651" x2="539.4926" y1="341.4173" y2="341.4173"/>
    <line x1="539.966" x2="654.8917" y1="343.3071" y2="343.3071"/>
    <line x1="654.4183" x2="540.4393" y1="345.1969" y2="345.1969"/>
    <line x1="540.9962" x2="653.8614" y1="347.0866" y2="347.0866"/>
    <line x1="653.1853" x2="541.6724" y1="348.9764" y2="348.9764"/>
    <line x1="542.3486" x2="652.5091" y1="350.8661" y2="350.8661"/>
    <line x1="651.721" x2="543.1367" y1="352.7559" y2="352.7559"/>
    <line x1="538.8416" x2="684.0945" y1="348.3465" y2="348.3465"/>
    <line x1="684.0945" x2="537.4893" y1="344.5669" y2="344.5669"/>
    <line x1="535.8695" x2="684.0945" y1="337.0079" y2="337.0079"/>
    <line x1="684.0945" x2="413.4766" y1="319.3701" y2="319.3701"/>
    <line x1="415.2006" x2="436.2829" y1="324.4094" y2="324.4094"/>
    <line x1="440.5365" x2="410.947" y1="326.2992" y2="326.2992"/>
    <line x1="407.9406" x2="443.5429" y1="328.189" y2="328.189"/>
    <line x1="445.9588" x2="405.5247" y1="330.0787" y2="330.0787"/>
    <line x1="403.5167" x2="447.9668" y1="331.9685" y2="331.9685"/>
    <line x1="449.6744" x2="400.3587" y1="333.8583" y2="333.8583"/>
    <line x1="393.7092" x2="451.076" y1="335.748" y2="335.748"/>
    <line x1="452.2822" x2="388.6632" y1="337.6378" y2="337.6378"/>
    <line x1="384.6676" x2="453.3315" y1="339.5276" y2="339.5276"/>
    <line x1="454.2253" x2="381.2153" y1="341.4173" y2="341.4173"/>
    <line x1="378.0624" x2="454.9239" y1="343.3071" y2="343.3071"/>
    <line x1="456.4351" x2="375.3902" y1="345.1969" y2="345.1969"/>
    <line x1="372.8421" x2="458.9831" y1="347.0866" y2="347.0866"/>
    <line x1="461.2297" x2="370.5956" y1="348.9764" y2="348.9764"/>
    <line x1="368.5105" x2="463.3147" y1="350.8661" y2="350.8661"/>
    <line x1="465.3124" x2="366.5128" y1="352.7559" y2="352.7559"/>
    <line x1="364.8" x2="467.0252" y1="354.6457" y2="354.6457"/>
    <line x1="468.738" x2="363.0873" y1="356.5354" y2="356.5354"/>
    <line x1="361.5514" x2="470.2739" y1="358.4252" y2="358.4252"/>
    <line x1="471.6754" x2="360.1498" y1="360.315" y2="360.315"/>
    <line x1="358.7483" x2="473.077" y1="362.2047" y2="362.2047"/>
    <line x1="474.2962" x2="357.529" y1="364.0945" y2="364.0945"/>
    <line x1="356.3964" x2="475.4289" y1="365.9843" y2="365.9843"/>
    <line x1="476.5616" x2="355.2637" y1="367.874" y2="367.874"/>
    <line x1="354.2723" x2="477.5529" y1="369.7638" y2="369.7638"/>
    <line x1="478.4467" x2="353.3785" y1="371.6535" y2="371.6535"/>
    <line x1="352.4847" x2="479.3405" y1="373.5433" y2="373.5433"/>
    <line x1="480.1606" x2="351.6646" y1="375.4331" y2="375.4331"/>
    <line x1="350.9885" x2="480.8368" y1="377.3228" y2="377.3228"/>
    <line x1="481.5129" x2="350.3123" y1="379.2126" y2="379.2126"/>
    <line x1="349.6361" x2="482.1891" y1="381.1024" y2="381.1024"/>
    <line x1="482.6725" x2="349.1528" y1="382.9921" y2="382.9921"/>
    <line x1="348.6794" x2="483.1459" y1="384.8819" y2="384.8819"/>
    <line x1="483.6192" x2="348.206" y1="386.7717" y2="386.7717"/>
    <line x1="347.8215" x2="484.0038" y1="388.6614" y2="388.6614"/>
    <line x1="484.2841" x2="347.5412" y1="390.5512" y2="390.5512"/>
    <line x1="347.2608" x2="484.5644" y1="392.4409" y2="392.4409"/>
    <line x1="553.3128" x2="684.0945" y1="367.2441" y2="367.2441"/>
    <line x1="684.0945" x2="414.7127" y1="364.7244" y2="364.7244"/>
    <line x1="425.7418" x2="425.7418" y1="322.5197" y2="322.5197"/>
    <line x1="413.9939" x2="684.0945" y1="304.252" y2="304.252"/>
    <line x1="684.0945" x2="109.6063" y1="296.6929" y2="296.6929"/>
    <line x1="109.6063" x2="684.0945" y1="281.5748" y2="281.5748"/>
    <line x1="684.0945" x2="417.5048" y1="274.0157" y2="274.0157"/>
    <line x1="412.8668" x2="684.0945" y1="289.1339" y2="289.1339"/>
    <line x1="684.0945" x2="109.6063" y1="311.811" y2="311.811"/>
    <line x1="134.6146" x2="166.8282" y1="289.1339" y2="289.1339"/>
    <line x1="180.7209" x2="120.7219" y1="274.0157" y2="274.0157"/>
    <line x1="111.5287" x2="179.857" y1="142.9921" y2="142.9921"/>
    <line x1="177.772" x2="113.6137" y1="141.1024" y2="141.1024"/>
    <line x1="115.9748" x2="175.4109" y1="139.2126" y2="139.2126"/>
    <line x1="172.8186" x2="118.567" y1="137.3228" y2="137.3228"/>
    <line x1="121.7199" x2="169.6658" y1="135.4331" y2="135.4331"/>
    <line x1="165.8737" x2="125.5119" y1="133.5433" y2="133.5433"/>
    <line x1="130.3629" x2="161.0228" y1="131.6535" y2="131.6535"/>
    <line x1="152.9745" x2="138.4111" y1="129.7638" y2="129.7638"/>
    <line x1="236.4815" x2="317.7745" y1="125.3543" y2="125.3543"/>
    <line x1="313.2062" x2="241.0498" y1="121.5748" y2="121.5748"/>
    <line x1="246.7469" x2="307.5091" y1="117.7953" y2="117.7953"/>
    <line x1="326.3597" x2="426.6233" y1="125.9843" y2="125.9843"/>
    <line x1="424.6331" x2="330.3553" y1="124.0945" y2="124.0945"/>
    <line x1="335.5846" x2="422.5481" y1="122.2047" y2="122.2047"/>
    <line x1="438.3764" x2="540.4143" y1="121.5748" y2="121.5748"/>
    <line x1="540.7136" x2="438.0771" y1="125.3543" y2="125.3543"/>
    <line x1="438.0263" x2="540.7645" y1="129.1339" y2="129.1339"/>
    <line x1="540.5678" x2="438.2229" y1="132.9134" y2="132.9134"/>
    <line x1="438.7835" x2="540.0072" y1="136.6929" y2="136.6929"/>
    <line x1="539.1732" x2="439.6175" y1="140.4724" y2="140.4724"/>
    <line x1="440.7316" x2="538.0591" y1="144.252" y2="144.252"/>
    <line x1="536.6393" x2="442.1514" y1="148.0315" y2="148.0315"/>
    <line x1="443.939" x2="534.8517" y1="151.811" y2="151.811"/>
    <line x1="532.6113" x2="446.1794" y1="155.5906" y2="155.5906"/>
    <line x1="448.8761" x2="529.9146" y1="159.3701" y2="159.3701"/>
    <line x1="526.6574" x2="452.1333" y1="163.1496" y2="163.1496"/>
    <line x1="456.1098" x2="522.681" y1="166.9291" y2="166.9291"/>
    <line x1="517.6729" x2="461.1179" y1="170.7087" y2="170.7087"/>
    <line x1="468.0317" x2="510.759" y1="174.4882" y2="174.4882"/>
    <line x1="499.0388" x2="479.7519" y1="178.2677" y2="178.2677"/>
    <line x1="500.467" x2="571.2226" y1="207.2441" y2="207.2441"/>
    <line x1="573.7706" x2="497.9189" y1="209.1339" y2="209.1339"/>
    <line x1="495.7115" x2="575.978" y1="211.0236" y2="211.0236"/>
    <line x1="578.063" x2="493.6265" y1="212.9134" y2="212.9134"/>
    <line x1="491.77" x2="579.9195" y1="214.8031" y2="214.8031"/>
    <line x1="581.6323" x2="490.0572" y1="216.6929" y2="216.6929"/>
    <line x1="488.4293" x2="583.2602" y1="218.5827" y2="218.5827"/>
    <line x1="584.6617" x2="487.0278" y1="220.4724" y2="220.4724"/>
    <line x1="485.6262" x2="586.0633" y1="222.3622" y2="222.3622"/>
    <line x1="587.2672" x2="484.4223" y1="224.252" y2="224.252"/>
    <line x1="483.2896" x2="588.3999" y1="226.1417" y2="226.1417"/>
    <line x1="589.5267" x2="482.1628" y1="228.0315" y2="228.0315"/>
    <line x1="481.269" x2="590.4205" y1="229.9213" y2="229.9213"/>
    <line x1="591.3143" x2="480.3752" y1="231.811" y2="231.811"/>
    <line x1="479.5181" x2="592.1714" y1="233.7008" y2="233.7008"/>
    <line x1="592.8476" x2="478.842" y1="235.5906" y2="235.5906"/>
    <line x1="478.1658" x2="593.5237" y1="237.4803" y2="237.4803"/>
    <line x1="594.1606" x2="477.5289" y1="239.3701" y2="239.3701"/>
    <line x1="477.0555" x2="594.634" y1="241.2598" y2="241.2598"/>
    <line x1="595.1074" x2="476.5822" y1="243.1496" y2="243.1496"/>
    <line x1="476.1336" x2="595.5559" y1="245.0394" y2="245.0394"/>
    <line x1="595.8362" x2="475.8533" y1="246.9291" y2="246.9291"/>
    <line x1="475.573" x2="596.1165" y1="248.8189" y2="248.8189"/>
    <line x1="596.3962" x2="475.2933" y1="250.7087" y2="250.7087"/>
    <line x1="475.2004" x2="596.4891" y1="252.5984" y2="252.5984"/>
    <line x1="596.5819" x2="475.1076" y1="254.4882" y2="254.4882"/>
    <line x1="475.0147" x2="596.6748" y1="256.378" y2="256.378"/>
    <line x1="596.6103" x2="475.0792" y1="258.2677" y2="258.2677"/>
    <line x1="475.1721" x2="596.5174" y1="260.1575" y2="260.1575"/>
    <line x1="596.4246" x2="475.2649" y1="262.0472" y2="262.0472"/>
    <line x1="475.4874" x2="596.2021" y1="263.937" y2="263.937"/>
    <line x1="595.9218" x2="475.7677" y1="265.8268" y2="265.8268"/>
    <line x1="476.0481" x2="595.6415" y1="267.7165" y2="267.7165"/>
    <line x1="595.2519" x2="476.4377" y1="269.6063" y2="269.6063"/>
    <line x1="476.911" x2="611.047" y1="271.4961" y2="271.4961"/>
    <line x1="617.4038" x2="477.3844" y1="273.3858" y2="273.3858"/>
    <line x1="477.9594" x2="622.0577" y1="275.2756" y2="275.2756"/>
    <line x1="625.9082" x2="478.6355" y1="277.1654" y2="277.1654"/>
    <line x1="479.3117" x2="629.0611" y1="279.0551" y2="279.0551"/>
    <line x1="631.8571" x2="480.1024" y1="280.9449" y2="280.9449"/>
    <line x1="480.9962" x2="634.4051" y1="282.8346" y2="282.8346"/>
    <line x1="636.6028" x2="481.89" y1="284.7244" y2="284.7244"/>
    <line x1="482.9438" x2="638.6878" y1="286.6142" y2="286.6142"/>
    <line x1="641.9923" x2="580.2456" y1="284.0945" y2="284.0945"/>
    <line x1="580.2455" x2="641.9923" y1="280.315" y2="280.315"/>
    <line x1="641.5453" x2="580.6925" y1="276.5354" y2="276.5354"/>
    <line x1="581.6505" x2="640.5873" y1="272.7559" y2="272.7559"/>
    <line x1="639.0763" x2="583.1616" y1="268.9764" y2="268.9764"/>
    <line x1="585.2538" x2="636.984" y1="265.1969" y2="265.1969"/>
    <line x1="634.0207" x2="588.2171" y1="261.4173" y2="261.4173"/>
    <line x1="592.3229" x2="629.9149" y1="257.6378" y2="257.6378"/>
    <line x1="623.5249" x2="598.713" y1="253.8583" y2="253.8583"/>
    <line x1="609.0478" x2="634.9853" y1="219.8425" y2="219.8425"/>
    <line x1="643.5925" x2="600.4406" y1="216.063" y2="216.063"/>
    <line x1="594.8442" x2="649.1889" y1="212.2835" y2="212.2835"/>
    <line x1="653.3247" x2="590.7084" y1="208.5039" y2="208.5039"/>
    <line x1="587.4799" x2="656.5531" y1="204.7244" y2="204.7244"/>
    <line x1="659.1364" x2="584.8967" y1="200.9449" y2="200.9449"/>
    <line x1="582.8412" x2="661.1918" y1="197.1654" y2="197.1654"/>
    <line x1="662.7977" x2="581.2354" y1="193.3858" y2="193.3858"/>
    <line x1="580.0264" x2="664.0066" y1="189.6063" y2="189.6063"/>
    <line x1="568.4434" x2="503.2461" y1="205.3543" y2="205.3543"/>
    <line x1="506.399" x2="565.2905" y1="203.4646" y2="203.4646"/>
    <line x1="561.4992" x2="510.1903" y1="201.5748" y2="201.5748"/>
    <line x1="514.709" x2="556.9806" y1="199.685" y2="199.685"/>
    <line x1="550.9245" x2="520.7651" y1="197.7953" y2="197.7953"/>
    <line x1="534.1491" x2="537.5404" y1="195.9055" y2="195.9055"/>
    <line x1="539.8537" x2="438.937" y1="117.7953" y2="117.7953"/>
    <line x1="292.3036" x2="239.9055" y1="337.0079" y2="337.0079"/>
    <line x1="246.4996" x2="283.1665" y1="340.7874" y2="340.7874"/>
    <line x1="312.147" x2="246.331" y1="410.0787" y2="410.0787"/>
    <line x1="166.1008" x2="109.6063" y1="546.1417" y2="546.1417"/>
    <line x1="109.6063" x2="153.92" y1="544.8819" y2="544.8819"/>
    <line x1="155.1354" x2="109.6063" y1="541.1024" y2="541.1024"/>
    <line x1="109.6063" x2="152.295" y1="548.6614" y2="548.6614"/>
    <line x1="150.2056" x2="109.6063" y1="552.4409" y2="552.4409"/>
    <line x1="109.6063" x2="684.0945" y1="553.7008" y2="553.7008"/>
    <line x1="684.0945" x2="321.4538" y1="561.2598" y2="561.2598"/>
    <line x1="310.3666" x2="684.0945" y1="576.378" y2="576.378"/>
    <line x1="684.0945" x2="109.6063" y1="583.937" y2="583.937"/>
    <line x1="109.6063" x2="155.9049" y1="576.378" y2="576.378"/>
    <line x1="164.8675" x2="109.6063" y1="561.2598" y2="561.2598"/>
    <line x1="109.6063" x2="144.2667" y1="560.0" y2="560.0"/>
    <line x1="147.5703" x2="109.6063" y1="556.2205" y2="556.2205"/>
    <line x1="109.6063" x2="139.8737" y1="563.7795" y2="563.7795"/>
    <line x1="134.0105" x2="109.6063" y1="567.5591" y2="567.5591"/>
    <line x1="109.6063" x2="684.0945" y1="568.8189" y2="568.8189"/>
    <line x1="684.0945" x2="315.7521" y1="651.9685" y2="651.9685"/>
    <line x1="316.6537" x2="339.448" y1="654.4882" y2="654.4882"/>
    <line x1="337.7054" x2="380.6577" y1="650.7087" y2="650.7087"/>
    <line x1="382.3562" x2="463.5047" y1="650.7087" y2="650.7087"/>
    <line x1="466.196" x2="379.6649" y1="654.4882" y2="654.4882"/>
    <line x1="367.1874" x2="351.1756" y1="654.4882" y2="654.4882"/>
    <line x1="349.8942" x2="318.1268" y1="658.2677" y2="658.2677"/>
    <line x1="319.9144" x2="356.7774" y1="662.0472" y2="662.0472"/>
    <line x1="362.0433" x2="322.043" y1="665.8268" y2="665.8268"/>
    <line x1="324.432" x2="366.2732" y1="669.6063" y2="669.6063"/>
    <line x1="362.1836" x2="396.1766" y1="696.063" y2="696.063"/>
    <line x1="397.2753" x2="239.8351" y1="696.6929" y2="696.6929"/>
    <line x1="238.9413" x2="399.8233" y1="694.8031" y2="694.8031"/>
    <line x1="402.1409" x2="238.0475" y1="692.9134" y2="692.9134"/>
    <line x1="237.2654" x2="404.2259" y1="691.0236" y2="691.0236"/>
    <line x1="406.0495" x2="236.5892" y1="689.1339" y2="689.1339"/>
    <line x1="235.913" x2="407.7623" y1="687.2441" y2="687.2441"/>
    <line x1="409.2506" x2="235.2369" y1="685.3543" y2="685.3543"/>
    <line x1="234.7471" x2="410.6522" y1="683.4646" y2="683.4646"/>
    <line x1="411.8995" x2="234.2737" y1="681.5748" y2="681.5748"/>
    <line x1="233.8004" x2="413.0322" y1="679.685" y2="679.685"/>
    <line x1="414.098" x2="233.3688" y1="677.7953" y2="677.7953"/>
    <line x1="233.0884" x2="414.9918" y1="675.9055" y2="675.9055"/>
    <line x1="415.8856" x2="232.8081" y1="674.0157" y2="674.0157"/>
    <line x1="232.5278" x2="416.5915" y1="672.126" y2="672.126"/>
    <line x1="417.2677" x2="232.33" y1="670.2362" y2="670.2362"/>
    <line x1="232.2372" x2="417.8738" y1="668.3465" y2="668.3465"/>
    <line x1="423.9569" x2="290.9432" y1="680.9449" y2="680.9449"/>
    <line x1="288.0341" x2="338.1473" y1="684.7244" y2="684.7244"/>
    <line x1="338.9412" x2="419.4189" y1="684.7244" y2="684.7244"/>
    <line x1="413.879" x2="344.4811" y1="688.5039" y2="688.5039"/>
    <line x1="340.199" x2="285.9823" y1="688.5039" y2="688.5039"/>
    <line x1="284.5269" x2="341.6545" y1="692.2835" y2="692.2835"/>
    <line x1="342.4985" x2="283.6829" y1="696.063" y2="696.063"/>
    <line x1="283.3097" x2="342.8717" y1="699.8425" y2="699.8425"/>
    <line x1="342.7876" x2="283.3937" y1="703.622" y2="703.622"/>
    <line x1="284.0086" x2="342.1728" y1="707.4016" y2="707.4016"/>
    <line x1="341.0496" x2="285.1318" y1="711.1811" y2="711.1811"/>
    <line x1="286.7939" x2="339.3874" y1="714.9606" y2="714.9606"/>
    <line x1="336.9386" x2="289.2427" y1="718.7402" y2="718.7402"/>
    <line x1="292.6014" x2="333.58" y1="722.5197" y2="722.5197"/>
    <line x1="328.6335" x2="297.5479" y1="726.2992" y2="726.2992"/>
    <line x1="307.0435" x2="319.1379" y1="730.0787" y2="730.0787"/>
    <line x1="317.032" x2="294.0154" y1="736.378" y2="736.378"/>
    <line x1="285.3161" x2="325.7313" y1="734.4882" y2="734.4882"/>
    <line x1="331.3519" x2="279.6955" y1="732.5984" y2="732.5984"/>
    <line x1="275.1396" x2="335.9079" y1="730.7087" y2="730.7087"/>
    <line x1="339.9034" x2="271.144" y1="728.8189" y2="728.8189"/>
    <line x1="267.9339" x2="343.1135" y1="726.9291" y2="726.9291"/>
    <line x1="346.2664" x2="264.7811" y1="725.0394" y2="725.0394"/>
    <line x1="264.4079" x2="109.6063" y1="727.5591" y2="727.5591"/>
    <line x1="109.6063" x2="684.0945" y1="735.1181" y2="735.1181"/>
    <line x1="684.0945" x2="398.4541" y1="727.5591" y2="727.5591"/>
    <line x1="382.163" x2="266.76" y1="727.5591" y2="727.5591"/>
    <line x1="265.7074" x2="265.7074" y1="722.5197" y2="722.5197"/>
    <line x1="262.2147" x2="348.8327" y1="723.1496" y2="723.1496"/>
    <line x1="351.3808" x2="259.6666" y1="721.2598" y2="721.2598"/>
    <line x1="257.4407" x2="353.6067" y1="719.3701" y2="719.3701"/>
    <line x1="355.6917" x2="255.3557" y1="717.4803" y2="717.4803"/>
    <line x1="253.3199" x2="357.7275" y1="715.5906" y2="715.5906"/>
    <line x1="359.4403" x2="251.6072" y1="713.7008" y2="713.7008"/>
    <line x1="249.8944" x2="361.153" y1="711.811" y2="711.811"/>
    <line x1="362.7712" x2="248.2762" y1="709.9213" y2="709.9213"/>
    <line x1="246.8747" x2="364.1728" y1="708.0315" y2="708.0315"/>
    <line x1="365.5743" x2="245.4731" y1="706.1417" y2="706.1417"/>
    <line x1="244.1355" x2="379.6827" y1="704.252" y2="704.252"/>
    <line x1="378.0447" x2="383.9826" y1="707.4016" y2="707.4016"/>
    <line x1="384.1682" x2="380.3514" y1="711.1811" y2="711.1811"/>
    <line x1="383.1566" x2="384.0892" y1="714.9606" y2="714.9606"/>
    <line x1="383.5204" x2="376.1505" y1="703.622" y2="703.622"/>
    <line x1="374.6106" x2="382.8816" y1="699.8425" y2="699.8425"/>
    <line x1="386.0747" x2="243.0029" y1="702.3622" y2="702.3622"/>
    <line x1="241.8702" x2="390.5738" y1="700.4724" y2="700.4724"/>
    <line x1="394.1773" x2="240.7375" y1="698.5827" y2="698.5827"/>
    <line x1="260.0134" x2="109.6063" y1="697.3228" y2="697.3228"/>
    <line x1="109.6063" x2="684.0945" y1="704.8819" y2="704.8819"/>
    <line x1="684.0945" x2="266.6726" y1="697.3228" y2="697.3228"/>
    <line x1="264.9688" x2="264.9688" y1="707.4016" y2="707.4016"/>
    <line x1="264.7548" x2="265.8449" y1="711.1811" y2="711.1811"/>
    <line x1="266.2502" x2="264.8338" y1="714.9606" y2="714.9606"/>
    <line x1="265.0806" x2="266.2266" y1="718.7402" y2="718.7402"/>
    <line x1="273.1005" x2="375.8225" y1="742.6772" y2="742.6772"/>
    <line x1="363.1079" x2="285.8151" y1="757.7953" y2="757.7953"/>
    <line x1="279.7101" x2="168.3798" y1="772.9134" y2="772.9134"/>
    <line x1="171.1176" x2="159.1188" y1="759.0551" y2="759.0551"/>
    <line x1="149.8301" x2="180.4063" y1="760.9449" y2="760.9449"/>
    <line x1="180.4806" x2="267.6093" y1="757.7953" y2="757.7953"/>
    <line x1="253.377" x2="208.5365" y1="742.6772" y2="742.6772"/>
    <line x1="214.9937" x2="233.0961" y1="741.4173" y2="741.4173"/>
    <line x1="228.4771" x2="238.5902" y1="748.9764" y2="748.9764"/>
    <line x1="247.5457" x2="217.5091" y1="745.1969" y2="745.1969"/>
    <line x1="205.0401" x2="202.2087" y1="726.2992" y2="726.2992"/>
    <line x1="201.2938" x2="208.7613" y1="722.5197" y2="722.5197"/>
    <line x1="211.7227" x2="200.8407" y1="718.7402" y2="718.7402"/>
    <line x1="200.8171" x2="214.0867" y1="714.9606" y2="714.9606"/>
    <line x1="215.9582" x2="201.2225" y1="711.1811" y2="711.1811"/>
    <line x1="202.0701" x2="217.4068" y1="707.4016" y2="707.4016"/>
    <line x1="218.4794" x2="203.4393" y1="703.622" y2="703.622"/>
    <line x1="205.392" x2="219.2071" y1="699.8425" y2="699.8425"/>
    <line x1="219.609" x2="207.9883" y1="696.063" y2="696.063"/>
    <line x1="211.5947" x2="219.6952" y1="692.2835" y2="692.2835"/>
    <line x1="219.4673" x2="216.7068" y1="688.5039" y2="688.5039"/>
    <line x1="218.2877" x2="109.6063" y1="682.2047" y2="682.2047"/>
    <line x1="109.6063" x2="684.0945" y1="674.6457" y2="674.6457"/>
    <line x1="684.0945" x2="272.8912" y1="682.2047" y2="682.2047"/>
    <line x1="282.6498" x2="283.5184" y1="669.6063" y2="669.6063"/>
    <line x1="286.8797" x2="289.2981" y1="665.8268" y2="665.8268"/>
    <line x1="292.1456" x2="293.7044" y1="662.0472" y2="662.0472"/>
    <line x1="301.3046" x2="223.2871" y1="651.9685" y2="651.9685"/>
    <line x1="247.2328" x2="406.2673" y1="619.2126" y2="619.2126"/>
    <line x1="404.491" x2="248.6344" y1="617.3228" y2="617.3228"/>
    <line x1="250.3321" x2="402.406" y1="615.4331" y2="615.4331"/>
    <line x1="400.1473" x2="252.0448" y1="613.5433" y2="613.5433"/>
    <line x1="253.8035" x2="397.5993" y1="611.6535" y2="611.6535"/>
    <line x1="394.5782" x2="255.8885" y1="609.7638" y2="609.7638"/>
    <line x1="257.9736" x2="391.0818" y1="607.874" y2="607.874"/>
    <line x1="386.7463" x2="260.3178" y1="605.9843" y2="605.9843"/>
    <line x1="262.8658" x2="348.1816" y1="604.0945" y2="604.0945"/>
    <line x1="345.4607" x2="265.5867" y1="602.2047" y2="602.2047"/>
    <line x1="268.7396" x2="342.3078" y1="600.315" y2="600.315"/>
    <line x1="338.8824" x2="272.165" y1="598.4252" y2="598.4252"/>
    <line x1="276.1606" x2="334.8868" y1="596.5354" y2="596.5354"/>
    <line x1="330.0022" x2="281.0452" y1="594.6457" y2="594.6457"/>
    <line x1="317.367" x2="400.996" y1="635.5906" y2="635.5906"/>
    <line x1="380.642" x2="356.2355" y1="604.0945" y2="604.0945"/>
    <line x1="325.097" x2="456.2864" y1="643.1496" y2="643.1496"/>
    <line x1="460.2543" x2="330.5058" y1="646.9291" y2="646.9291"/>
    <line x1="320.8323" x2="451.3045" y1="639.3701" y2="639.3701"/>
    <line x1="478.2092" x2="592.536" y1="692.2835" y2="692.2835"/>
    <line x1="590.2706" x2="480.4745" y1="696.063" y2="696.063"/>
    <line x1="483.0952" x2="587.6499" y1="699.8425" y2="699.8425"/>
    <line x1="584.6581" x2="486.087" y1="703.622" y2="703.622"/>
    <line x1="489.5503" x2="581.1948" y1="707.4016" y2="707.4016"/>
    <line x1="577.0248" x2="493.7204" y1="711.1811" y2="711.1811"/>
    <line x1="498.7382" x2="572.0069" y1="714.9606" y2="714.9606"/>
    <line x1="565.7451" x2="505.0" y1="718.7402" y2="718.7402"/>
    <line x1="513.806" x2="556.9392" y1="722.5197" y2="722.5197"/>
    <line x1="569.167" x2="618.5884" y1="745.1969" y2="745.1969"/>
    <line x1="626.824" x2="560.9314" y1="748.9764" y2="748.9764"/>
    <line x1="554.8288" x2="632.9265" y1="752.7559" y2="752.7559"/>
    <line x1="637.9257" x2="549.8297" y1="756.5354" y2="756.5354"/>
    <line x1="545.6596" x2="642.0957" y1="760.315" y2="760.315"/>
    <line x1="645.5913" x2="542.164" y1="764.0945" y2="764.0945"/>
    <line x1="539.1016" x2="648.6537" y1="767.874" y2="767.874"/>
    <line x1="651.3763" x2="536.379" y1="771.6535" y2="771.6535"/>
    <line x1="534.1137" x2="653.6417" y1="775.4331" y2="775.4331"/>
    <line x1="655.6114" x2="532.1439" y1="779.2126" y2="779.2126"/>
    <line x1="522.3853" x2="506.7222" y1="779.2126" y2="779.2126"/>
    <line x1="494.4251" x2="657.3968" y1="782.9921" y2="782.9921"/>
    <line x1="658.7491" x2="487.6258" y1="786.7717" y2="786.7717"/>
    <line x1="482.8015" x2="659.9699" y1="790.5512" y2="790.5512"/>
    <line x1="660.9166" x2="478.9696" y1="794.3307" y2="794.3307"/>
    <line x1="475.873" x2="661.6343" y1="798.1102" y2="798.1102"/>
    <line x1="662.195" x2="473.3522" y1="801.8898" y2="801.8898"/>
    <line x1="471.3033" x2="662.4454" y1="805.6693" y2="805.6693"/>
    <line x1="662.6145" x2="469.6566" y1="809.4488" y2="809.4488"/>
    <line x1="468.3639" x2="662.4289" y1="813.2283" y2="813.2283"/>
    <line x1="662.145" x2="467.4172" y1="817.0079" y2="817.0079"/>
    <line x1="466.8315" x2="661.5844" y1="820.7874" y2="820.7874"/>
    <line x1="660.8322" x2="466.533" y1="824.5669" y2="824.5669"/>
    <line x1="466.5148" x2="659.8855" y1="828.3465" y2="828.3465"/>
    <line x1="658.6287" x2="466.7767" y1="832.126" y2="832.126"/>
    <line x1="463.4569" x2="657.2398" y1="835.9055" y2="835.9055"/>
    <line x1="655.4522" x2="458.3574" y1="839.685" y2="839.685"/>
    <line x1="454.1874" x2="653.4399" y1="843.4646" y2="843.4646"/>
    <line x1="651.1745" x2="450.7115" y1="847.2441" y2="847.2441"/>
    <line x1="447.7426" x2="648.404" y1="851.0236" y2="851.0236"/>
    <line x1="645.2861" x2="445.173" y1="854.8031" y2="854.8031"/>
    <line x1="442.9299" x2="641.7242" y1="858.5827" y2="858.5827"/>
    <line x1="637.5542" x2="441.1423" y1="862.3622" y2="862.3622"/>
    <line x1="439.6089" x2="632.4725" y1="866.1417" y2="866.1417"/>
    <line x1="626.2564" x2="561.4989" y1="869.9213" y2="869.9213"/>
    <line x1="557.6498" x2="438.2811" y1="869.9213" y2="869.9213"/>
    <line x1="437.3344" x2="558.5965" y1="873.7008" y2="873.7008"/>
    <line x1="559.3536" x2="436.5774" y1="877.4803" y2="877.4803"/>
    <line x1="436.0167" x2="559.9142" y1="881.2598" y2="881.2598"/>
    <line x1="560.9714" x2="621.6139" y1="881.8898" y2="881.8898"/>
    <line x1="625.6095" x2="556.9759" y1="883.7795" y2="883.7795"/>
    <line x1="560.1408" x2="435.7901" y1="885.0394" y2="885.0394"/>
    <line x1="435.7066" x2="560.2244" y1="888.8189" y2="888.8189"/>
    <line x1="560.0387" x2="435.8922" y1="892.5984" y2="892.5984"/>
    <line x1="433.939" x2="684.0945" y1="893.8583" y2="893.8583"/>
    <line x1="684.0945" x2="109.6063" y1="886.2992" y2="886.2992"/>
    <line x1="109.6063" x2="684.0945" y1="901.4173" y2="901.4173"/>
    <line x1="684.0945" x2="434.2553" y1="908.9764" y2="908.9764"/>
    <line x1="439.0002" x2="556.9307" y1="907.7165" y2="907.7165"/>
    <line x1="558.0759" x2="437.855" y1="903.937" y2="903.937"/>
    <line x1="436.9083" x2="559.0226" y1="900.1575" y2="900.1575"/>
    <line x1="559.6059" x2="436.325" y1="896.378" y2="896.378"/>
    <line x1="440.3525" x2="555.5784" y1="911.4961" y2="911.4961"/>
    <line x1="553.8056" x2="442.1253" y1="915.2756" y2="915.2756"/>
    <line x1="444.1534" x2="551.7775" y1="919.0551" y2="919.0551"/>
    <line x1="549.4499" x2="446.481" y1="922.8346" y2="922.8346"/>
    <line x1="449.2841" x2="546.6468" y1="926.6142" y2="926.6142"/>
    <line x1="543.3356" x2="452.5953" y1="930.3937" y2="930.3937"/>
    <line x1="456.4806" x2="539.4503" y1="934.1732" y2="934.1732"/>
    <line x1="534.7886" x2="461.1423" y1="937.9528" y2="937.9528"/>
    <line x1="466.9246" x2="529.0063" y1="941.7323" y2="941.7323"/>
    <line x1="521.3486" x2="474.5823" y1="945.5118" y2="945.5118"/>
    <line x1="488.499" x2="507.4319" y1="949.2913" y2="949.2913"/>
    <line x1="518.4565" x2="664.1289" y1="948.0315" y2="948.0315"/>
    <line x1="664.0368" x2="518.5486" y1="946.1417" y2="946.1417"/>
    <line x1="518.6414" x2="663.9439" y1="944.252" y2="944.252"/>
    <line x1="663.8511" x2="518.7343" y1="942.3622" y2="942.3622"/>
    <line x1="518.868" x2="663.7173" y1="940.4724" y2="940.4724"/>
    <line x1="663.437" x2="519.1483" y1="938.5827" y2="938.5827"/>
    <line x1="519.4287" x2="663.1567" y1="936.6929" y2="936.6929"/>
    <line x1="662.8764" x2="519.709" y1="934.8031" y2="934.8031"/>
    <line x1="520.0814" x2="662.504" y1="932.9134" y2="932.9134"/>
    <line x1="662.0306" x2="520.5547" y1="931.0236" y2="931.0236"/>
    <line x1="521.0281" x2="661.5573" y1="929.1339" y2="929.1339"/>
    <line x1="661.0839" x2="521.5014" y1="927.2441" y2="927.2441"/>
    <line x1="522.1386" x2="660.4467" y1="925.3543" y2="925.3543"/>
    <line x1="659.7705" x2="522.8148" y1="923.4646" y2="923.4646"/>
    <line x1="523.491" x2="659.0944" y1="921.5748" y2="921.5748"/>
    <line x1="658.3646" x2="524.2208" y1="919.685" y2="919.685"/>
    <line x1="525.1146" x2="657.4708" y1="917.7953" y2="917.7953"/>
    <line x1="656.577" x2="526.0084" y1="915.9055" y2="915.9055"/>
    <line x1="526.9021" x2="655.6832" y1="914.0157" y2="914.0157"/>
    <line x1="654.5918" x2="527.9936" y1="912.126" y2="912.126"/>
    <line x1="529.1262" x2="653.4591" y1="910.2362" y2="910.2362"/>
    <line x1="652.3264" x2="530.2589" y1="908.3465" y2="908.3465"/>
    <line x1="531.5483" x2="651.037" y1="906.4567" y2="906.4567"/>
    <line x1="649.6354" x2="532.9499" y1="904.5669" y2="904.5669"/>
    <line x1="534.3514" x2="648.2339" y1="902.6772" y2="902.6772"/>
    <line x1="646.6628" x2="535.9226" y1="900.7874" y2="900.7874"/>
    <line x1="537.6354" x2="644.95" y1="898.8976" y2="898.8976"/>
    <line x1="643.2372" x2="539.3481" y1="897.0079" y2="897.0079"/>
    <line x1="541.3373" x2="641.2481" y1="895.1181" y2="895.1181"/>
    <line x1="639.163" x2="543.4223" y1="893.2283" y2="893.2283"/>
    <line x1="545.601" x2="636.9844" y1="891.3386" y2="891.3386"/>
    <line x1="634.4363" x2="548.149" y1="889.4488" y2="889.4488"/>
    <line x1="550.6971" x2="631.8883" y1="887.5591" y2="887.5591"/>
    <line x1="628.7662" x2="553.8192" y1="885.6693" y2="885.6693"/>
    <line x1="565.4651" x2="617.1202" y1="880.0" y2="880.0"/>
    <line x1="611.5828" x2="571.0026" y1="878.1102" y2="878.1102"/>
    <line x1="570.108" x2="617.6473" y1="873.7008" y2="873.7008"/>
    <line x1="603.0303" x2="579.5551" y1="876.2205" y2="876.2205"/>
    <line x1="585.6951" x2="602.0603" y1="877.4803" y2="877.4803"/>
    <line x1="684.0945" x2="432.0941" y1="878.7402" y2="878.7402"/>
    <line x1="424.3096" x2="684.0945" y1="863.622" y2="863.622"/>
    <line x1="684.0945" x2="109.6063" y1="871.1811" y2="871.1811"/>
    <line x1="109.6063" x2="684.0945" y1="856.063" y2="856.063"/>
    <line x1="684.0945" x2="417.086" y1="848.5039" y2="848.5039"/>
    <line x1="415.409" x2="280.7444" y1="848.5039" y2="848.5039"/>
    <line x1="271.3801" x2="176.7098" y1="848.5039" y2="848.5039"/>
    <line x1="182.2555" x2="147.9808" y1="861.1024" y2="861.1024"/>
    <line x1="143.2496" x2="186.9867" y1="859.2126" y2="859.2126"/>
    <line x1="190.7646" x2="139.4718" y1="857.3228" y2="857.3228"/>
    <line x1="136.3189" x2="193.9174" y1="855.4331" y2="855.4331"/>
    <line x1="196.555" x2="133.6814" y1="853.5433" y2="853.5433"/>
    <line x1="131.2364" x2="199.0" y1="851.6535" y2="851.6535"/>
    <line x1="201.085" x2="129.1513" y1="849.7638" y2="849.7638"/>
    <line x1="127.2098" x2="203.0266" y1="847.874" y2="847.874"/>
    <line x1="204.7393" x2="125.497" y1="845.9843" y2="845.9843"/>
    <line x1="123.8958" x2="206.3405" y1="844.0945" y2="844.0945"/>
    <line x1="207.7421" x2="122.4943" y1="842.2047" y2="842.2047"/>
    <line x1="121.1361" x2="209.1002" y1="840.315" y2="840.315"/>
    <line x1="210.2329" x2="120.0035" y1="838.4252" y2="838.4252"/>
    <line x1="118.8708" x2="211.3656" y1="836.5354" y2="836.5354"/>
    <line x1="212.3035" x2="117.9328" y1="834.6457" y2="834.6457"/>
    <line x1="117.039" x2="213.1973" y1="832.7559" y2="832.7559"/>
    <line x1="214.0166" x2="116.2197" y1="830.8661" y2="830.8661"/>
    <line x1="115.5435" x2="214.6928" y1="828.9764" y2="828.9764"/>
    <line x1="215.369" x2="114.8674" y1="827.0866" y2="827.0866"/>
    <line x1="114.3467" x2="215.8897" y1="825.1969" y2="825.1969"/>
    <line x1="216.363" x2="113.8733" y1="823.3071" y2="823.3071"/>
    <line x1="113.4218" x2="216.8146" y1="821.4173" y2="821.4173"/>
    <line x1="217.0949" x2="113.1415" y1="819.5276" y2="819.5276"/>
    <line x1="112.8611" x2="217.3752" y1="817.6378" y2="817.6378"/>
    <line x1="217.5792" x2="112.6572" y1="815.748" y2="815.748"/>
    <line x1="112.5643" x2="217.672" y1="813.8583" y2="813.8583"/>
    <line x1="217.7649" x2="112.4715" y1="811.9685" y2="811.9685"/>
    <line x1="112.504" x2="217.7324" y1="810.0787" y2="810.0787"/>
    <line x1="217.6395" x2="112.5968" y1="808.189" y2="808.189"/>
    <line x1="112.6897" x2="217.5467" y1="806.2992" y2="806.2992"/>
    <line x1="217.2771" x2="112.9592" y1="804.4094" y2="804.4094"/>
    <line x1="113.2396" x2="216.9968" y1="802.5197" y2="802.5197"/>
    <line x1="216.6707" x2="113.5656" y1="800.6299" y2="800.6299"/>
    <line x1="114.039" x2="216.1974" y1="798.7402" y2="798.7402"/>
    <line x1="215.724" x2="114.5123" y1="796.8504" y2="796.8504"/>
    <line x1="115.104" x2="215.1323" y1="794.9606" y2="794.9606"/>
    <line x1="214.4562" x2="115.7802" y1="793.0709" y2="793.0709"/>
    <line x1="116.458" x2="213.7783" y1="791.1811" y2="791.1811"/>
    <line x1="212.8845" x2="117.3518" y1="789.2913" y2="789.2913"/>
    <line x1="118.2456" x2="211.9907" y1="787.4016" y2="787.4016"/>
    <line x1="210.9692" x2="119.2672" y1="785.5118" y2="785.5118"/>
    <line x1="120.3998" x2="209.8365" y1="783.622" y2="783.622"/>
    <line x1="208.6531" x2="121.5832" y1="781.7323" y2="781.7323"/>
    <line x1="122.9848" x2="207.2516" y1="779.8425" y2="779.8425"/>
    <line x1="205.85" x2="124.3863" y1="777.9528" y2="777.9528"/>
    <line x1="126.0964" x2="204.1399" y1="776.063" y2="776.063"/>
    <line x1="202.4272" x2="127.8092" y1="774.1732" y2="774.1732"/>
    <line x1="129.881" x2="200.3553" y1="772.2835" y2="772.2835"/>
    <line x1="198.2113" x2="132.025" y1="770.3937" y2="770.3937"/>
    <line x1="134.5731" x2="195.6632" y1="768.5039" y2="768.5039"/>
    <line x1="192.8141" x2="137.4223" y1="766.6142" y2="766.6142"/>
    <line x1="140.6523" x2="189.584" y1="764.7244" y2="764.7244"/>
    <line x1="185.5884" x2="144.6479" y1="762.8346" y2="762.8346"/>
    <line x1="162.0581" x2="286.0318" y1="788.0315" y2="788.0315"/>
    <line x1="288.2914" x2="159.7985" y1="803.1496" y2="803.1496"/>
    <line x1="161.1112" x2="286.9786" y1="818.2677" y2="818.2677"/>
    <line x1="288.5447" x2="684.0945" y1="818.2677" y2="818.2677"/>
    <line x1="684.0945" x2="109.6063" y1="825.8268" y2="825.8268"/>
    <line x1="109.6063" x2="684.0945" y1="840.9449" y2="840.9449"/>
    <line x1="684.0945" x2="281.9288" y1="833.3858" y2="833.3858"/>
    <line x1="281.7251" x2="166.3647" y1="833.3858" y2="833.3858"/>
    <line x1="175.5021" x2="154.7342" y1="862.9921" y2="862.9921"/>
    <line x1="197.6062" x2="250.4836" y1="863.622" y2="863.622"/>
    <line x1="284.6853" x2="404.5754" y1="863.622" y2="863.622"/>
    <line x1="416.7433" x2="417.508" y1="843.4646" y2="843.4646"/>
    <line x1="417.5183" x2="418.7142" y1="839.685" y2="839.685"/>
    <line x1="418.2939" x2="419.6499" y1="835.9055" y2="835.9055"/>
    <line x1="420.2105" x2="419.0836" y1="832.126" y2="832.126"/>
    <line x1="419.8732" x2="420.5199" y1="828.3465" y2="828.3465"/>
    <line x1="420.5948" x2="419.9151" y1="824.5669" y2="824.5669"/>
    <line x1="419.5658" x2="420.4091" y1="820.7874" y2="820.7874"/>
    <line x1="419.8759" x2="419.0275" y1="817.0079" y2="817.0079"/>
    <line x1="419.0957" x2="417.9856" y1="813.2283" y2="813.2283"/>
    <line x1="418.0531" x2="416.9437" y1="809.4488" y2="809.4488"/>
    <line x1="416.6246" x2="416.6246" y1="805.6693" y2="805.6693"/>
    <line x1="416.3389" x2="684.0945" y1="803.1496" y2="803.1496"/>
    <line x1="684.0945" x2="109.6063" y1="795.5906" y2="795.5906"/>
    <line x1="109.6063" x2="684.0945" y1="780.4724" y2="780.4724"/>
    <line x1="684.0945" x2="420.2666" y1="788.0315" y2="788.0315"/>
    <line x1="404.8662" x2="330.6581" y1="788.0315" y2="788.0315"/>
    <line x1="334.4772" x2="322.7095" y1="798.1102" y2="798.1102"/>
    <line x1="320.5864" x2="347.1079" y1="801.8898" y2="801.8898"/>
    <line x1="353.8664" x2="318.8235" y1="805.6693" y2="805.6693"/>
    <line x1="317.4711" x2="358.6522" y1="809.4488" y2="809.4488"/>
    <line x1="362.4375" x2="316.4285" y1="813.2283" y2="813.2283"/>
    <line x1="315.6484" x2="365.481" y1="817.0079" y2="817.0079"/>
    <line x1="367.9427" x2="315.1152" y1="820.7874" y2="820.7874"/>
    <line x1="314.9295" x2="369.9263" y1="824.5669" y2="824.5669"/>
    <line x1="371.5015" x2="315.0043" y1="828.3465" y2="828.3465"/>
    <line x1="315.3137" x2="372.7157" y1="832.126" y2="832.126"/>
    <line x1="373.6012" x2="315.8744" y1="835.9055" y2="835.9055"/>
    <line x1="316.8101" x2="374.1618" y1="839.685" y2="839.685"/>
    <line x1="374.3651" x2="318.0162" y1="843.4646" y2="843.4646"/>
    <line x1="319.5194" x2="374.2775" y1="847.2441" y2="847.2441"/>
    <line x1="373.8973" x2="321.3572" y1="851.0236" y2="851.0236"/>
    <line x1="323.6225" x2="373.2158" y1="854.8031" y2="854.8031"/>
    <line x1="372.2159" x2="326.3865" y1="858.5827" y2="858.5827"/>
    <line x1="329.7027" x2="370.8635" y1="862.3622" y2="862.3622"/>
    <line x1="369.083" x2="333.7289" y1="866.1417" y2="866.1417"/>
    <line x1="338.7986" x2="366.874" y1="869.9213" y2="869.9213"/>
    <line x1="364.1587" x2="345.712" y1="873.7008" y2="873.7008"/>
    <line x1="357.0988" x2="360.8215" y1="877.4803" y2="877.4803"/>
    <line x1="359.4649" x2="295.4951" y1="878.7402" y2="878.7402"/>
    <line x1="282.2827" x2="282.2827" y1="832.126" y2="832.126"/>
    <line x1="283.4586" x2="283.9572" y1="828.3465" y2="828.3465"/>
    <line x1="285.0337" x2="285.3095" y1="824.5669" y2="824.5669"/>
    <line x1="305.2237" x2="415.5337" y1="803.1496" y2="803.1496"/>
    <line x1="425.3803" x2="684.0945" y1="772.9134" y2="772.9134"/>
    <line x1="684.0945" x2="109.6063" y1="765.3543" y2="765.3543"/>
    <line x1="109.6063" x2="684.0945" y1="810.7087" y2="810.7087"/>
    <line x1="684.0945" x2="428.8495" y1="757.7953" y2="757.7953"/>
    <line x1="369.929" x2="365.5952" y1="772.9134" y2="772.9134"/>
    <line x1="351.5918" x2="406.7684" y1="692.2835" y2="692.2835"/>
    <line x1="361.0912" x2="357.2718" y1="546.1417" y2="546.1417"/>
    <line x1="123.7356" x2="109.6063" y1="571.3386" y2="571.3386"/>
    <line x1="109.6063" x2="684.0945" y1="689.7638" y2="689.7638"/>
    <line x1="684.0945" x2="109.6063" y1="712.4409" y2="712.4409"/>
    <line x1="109.6063" x2="684.0945" y1="720.0" y2="720.0"/>
    <line x1="604.3302" x2="583.4252" y1="741.4173" y2="741.4173"/>
    <line x1="684.0945" x2="109.6063" y1="916.5354" y2="916.5354"/>
    <line x1="109.6063" x2="684.0945" y1="931.6535" y2="931.6535"/>
    <line x1="684.0945" x2="429.7821" y1="939.2126" y2="939.2126"/>
    <line x1="433.6535" x2="684.0945" y1="924.0945" y2="924.0945"/>
    <line x1="684.0945" x2="109.6063" y1="946.7717" y2="946.7717"/>
    <line x1="109.6063" x2="684.0945" y1="961.8898" y2="961.8898"/>
    <line x1="684.0945" x2="424.8378" y1="954.3307" y2="954.3307"/>
    <line x1="418.8617" x2="684.0945" y1="969.4488" y2="969.4488"/>
    <line x1="684.0945" x2="109.6063" y1="977.0079" y2="977.0079"/>
    <line x1="117.8928" x2="288.4718" y1="984.5669" y2="984.5669"/>
    <line x1="287.5717" x2="121.5325" y1="969.4488" y2="969.4488"/>
    <line x1="131.6785" x2="282.6556" y1="954.3307" y2="954.3307"/>
    <line x1="272.621" x2="180.01" y1="939.2126" y2="939.2126"/>
    <line x1="174.9959" x2="187.5954" y1="945.5118" y2="945.5118"/>
    <line x1="193.7225" x2="172.632" y1="949.2913" y2="949.2913"/>
    <line x1="170.5713" x2="198.3286" y1="953.0709" y2="953.0709"/>
    <line x1="201.983" x2="168.7837" y1="956.8504" y2="956.8504"/>
    <line x1="167.4162" x2="204.9295" y1="960.6299" y2="960.6299"/>
    <line x1="207.319" x2="166.2427" y1="964.4094" y2="964.4094"/>
    <line x1="165.296" x2="209.2495" y1="968.189" y2="968.189"/>
    <line x1="210.7869" x2="164.6856" y1="971.9685" y2="971.9685"/>
    <line x1="164.2261" x2="211.9762" y1="975.748" y2="975.748"/>
    <line x1="212.8482" x2="164.0404" y1="979.5276" y2="979.5276"/>
    <line x1="164.0973" x2="213.4088" y1="983.3071" y2="983.3071"/>
    <line x1="213.6089" x2="164.2966" y1="987.0866" y2="987.0866"/>
    <line x1="164.8573" x2="213.5281" y1="990.8661" y2="990.8661"/>
    <line x1="213.1649" x2="165.586" y1="994.6457" y2="994.6457"/>
    <line x1="166.5327" x2="212.5111" y1="998.4252" y2="998.4252"/>
    <line x1="211.551" x2="167.8304" y1="1002.2047" y2="1002.2047"/>
    <line x1="169.3312" x2="210.1987" y1="1005.9843" y2="1005.9843"/>
    <line x1="285.7022" x2="119.1823" y1="999.685" y2="999.685"/>
    <line x1="109.6063" x2="684.0945" y1="992.126" y2="992.126"/>
    <line x1="684.0945" x2="412.1765" y1="984.5669" y2="984.5669"/>
    <line x1="408.4142" x2="684.0945" y1="999.685" y2="999.685"/>
    <line x1="684.0945" x2="109.6063" y1="1007.2441" y2="1007.2441"/>
    <line x1="200.6617" x2="251.9693" y1="924.0945" y2="924.0945"/>
    <line x1="461.436" x2="550.306" y1="990.8661" y2="990.8661"/>
    <line x1="551.5216" x2="460.2204" y1="994.6457" y2="994.6457"/>
    <line x1="459.3293" x2="552.4128" y1="998.4252" y2="998.4252"/>
    <line x1="552.9734" x2="458.7687" y1="1002.2047" y2="1002.2047"/>
    <line x1="458.5557" x2="553.1863" y1="1005.9843" y2="1005.9843"/>
    <line x1="548.1687" x2="634.4167" y1="1006.6142" y2="1006.6142"/>
    <line x1="636.9647" x2="545.6206" y1="1004.7244" y2="1004.7244"/>
    <line x1="543.4384" x2="639.147" y1="1002.8346" y2="1002.8346"/>
    <line x1="641.232" x2="541.3534" y1="1000.9449" y2="1000.9449"/>
    <line x1="539.3614" x2="643.224" y1="999.0551" y2="999.0551"/>
    <line x1="644.9368" x2="537.6486" y1="997.1654" y2="997.1654"/>
    <line x1="535.9358" x2="646.6495" y1="995.2756" y2="995.2756"/>
    <line x1="648.2231" x2="534.3622" y1="993.3858" y2="993.3858"/>
    <line x1="532.9607" x2="649.6246" y1="991.4961" y2="991.4961"/>
    <line x1="651.0262" x2="531.5592" y1="989.6063" y2="989.6063"/>
    <line x1="530.2677" x2="652.3177" y1="987.7165" y2="987.7165"/>
    <line x1="653.4504" x2="529.135" y1="985.8268" y2="985.8268"/>
    <line x1="528.0023" x2="654.583" y1="983.937" y2="983.937"/>
    <line x1="655.6763" x2="526.909" y1="982.0472" y2="982.0472"/>
    <line x1="526.0153" x2="656.5701" y1="980.1575" y2="980.1575"/>
    <line x1="657.4639" x2="525.1215" y1="978.2677" y2="978.2677"/>
    <line x1="524.2277" x2="658.3577" y1="976.378" y2="976.378"/>
    <line x1="659.0892" x2="523.4962" y1="974.4882" y2="974.4882"/>
    <line x1="522.82" x2="659.7653" y1="972.5984" y2="972.5984"/>
    <line x1="660.4415" x2="522.1438" y1="970.7087" y2="970.7087"/>
    <line x1="521.5051" x2="661.0802" y1="968.8189" y2="968.8189"/>
    <line x1="661.5536" x2="521.0317" y1="966.9291" y2="966.9291"/>
    <line x1="520.5584" x2="662.027" y1="965.0394" y2="965.0394"/>
    <line x1="662.5003" x2="520.085" y1="963.1496" y2="963.1496"/>
    <line x1="519.7111" x2="662.8742" y1="961.2598" y2="961.2598"/>
    <line x1="663.1545" x2="519.4308" y1="959.3701" y2="959.3701"/>
    <line x1="519.1505" x2="663.4348" y1="957.4803" y2="957.4803"/>
    <line x1="663.7151" x2="518.8702" y1="955.5906" y2="955.5906"/>
    <line x1="518.735" x2="663.8504" y1="953.7008" y2="953.7008"/>
    <line x1="663.9432" x2="518.6421" y1="951.811" y2="951.811"/>
    <line x1="518.5493" x2="664.036" y1="949.9213" y2="949.9213"/>
    <line x1="548.734" x2="463.0081" y1="987.0866" y2="987.0866"/>
    <line x1="464.9834" x2="546.7587" y1="983.3071" y2="983.3071"/>
    <line x1="544.3116" x2="467.4305" y1="979.5276" y2="979.5276"/>
    <line x1="470.4514" x2="541.2906" y1="975.748" y2="975.748"/>
    <line x1="537.5385" x2="474.2035" y1="971.9685" y2="971.9685"/>
    <line x1="478.9409" x2="532.8012" y1="968.189" y2="968.189"/>
    <line x1="526.2235" x2="485.5185" y1="964.4094" y2="964.4094"/>
    <line x1="496.8439" x2="514.8982" y1="960.6299" y2="960.6299"/>
    <line x1="584.0399" x2="610.8178" y1="386.7717" y2="386.7717"/>
    <line x1="617.2433" x2="577.6144" y1="384.8819" y2="384.8819"/>
    <line x1="572.9213" x2="621.9363" y1="382.9921" y2="382.9921"/>
    <line x1="625.8124" x2="569.0453" y1="381.1024" y2="381.1024"/>
    <line x1="565.8924" x2="628.9653" y1="379.2126" y2="379.2126"/>
    <line x1="631.7796" x2="563.078" y1="377.3228" y2="377.3228"/>
    <line x1="560.53" x2="634.3277" y1="375.4331" y2="375.4331"/>
    <line x1="636.5394" x2="558.3183" y1="373.5433" y2="373.5433"/>
    <line x1="556.2332" x2="638.6244" y1="371.6535" y2="371.6535"/>
    <line x1="640.4639" x2="554.3938" y1="369.7638" y2="369.7638"/>
  </g>
</svg>
