<?xml version="1.0" encoding="utf-8" ?>
<svg xmlns="http://www.w3.org/2000/svg" xmlns:cc="http://creativecommons.org/ns#" xmlns:dc="http://purl.org/dc/elements/1.1/" xmlns:ev="http://www.w3.org/2001/xml-events" xmlns:inkscape="http://www.inkscape.org/namespaces/inkscape" xmlns:rdf="http://www.w3.org/1999/02/22-rdf-syntax-ns#" xmlns:sodipodi="http://sodipodi.sourceforge.net/DTD/sodipodi-0.dtd" xmlns:xlink="http://www.w3.org/1999/xlink" baseProfile="tiny" height="29.7cm" version="1.2" viewBox="0 0 793.7007874015749 1122.5196850393702" width="21.0cm">
  <metadata>
    <rdf:RDF>
      <cc:Work>
        <dc:format>image/svg+xml</dc:format>
        <dc:source/>
        <dc:date>2021-07-13T22:26:32.688365</dc:date>
      </cc:Work>
    </rdf:RDF>
  </metadata>
  <defs/>
  <g fill="none" id="layer1" inkscape:groupmode="layer" inkscape:label="1" stroke="#00f" style="display:inline">
    <line x1="684.0945" x2="109.6063" y1="115.2756" y2="115.2756"/>
    <line x1="109.6063" x2="684.0945" y1="130.3937" y2="130.3937"/>
    <line x1="684.0945" x2="390.6093" y1="122.8346" y2="122.8346"/>
    <line x1="395.8047" x2="684.0945" y1="137.9528" y2="137.9528"/>
    <line x1="684.0945" x2="109.6063" y1="145.5118" y2="145.5118"/>
    <line x1="109.6063" x2="684.0945" y1="160.6299" y2="160.6299"/>
    <line x1="684.0945" x2="399.0918" y1="153.0709" y2="153.0709"/>
    <line x1="401.9832" x2="684.0945" y1="168.189" y2="168.189"/>
    <line x1="684.0945" x2="109.6063" y1="175.748" y2="175.748"/>
    <line x1="109.6063" x2="684.0945" y1="190.8661" y2="190.8661"/>
    <line x1="684.0945" x2="405.0861" y1="183.3071" y2="183.3071"/>
    <line x1="405.4046" x2="684.0945" y1="198.4252" y2="198.4252"/>
    <line x1="684.0945" x2="109.6063" y1="205.9843" y2="205.9843"/>
    <line x1="109.6063" x2="684.0945" y1="221.1024" y2="221.1024"/>
    <line x1="684.0945" x2="396.836" y1="228.6614" y2="228.6614"/>
    <line x1="407.4412" x2="449.6494" y1="227.4016" y2="227.4016"/>
    <line x1="458.3789" x2="407.7578" y1="231.1811" y2="231.1811"/>
    <line x1="408.1262" x2="464.8394" y1="234.9606" y2="234.9606"/>
    <line x1="470.0072" x2="408.5193" y1="238.7402" y2="238.7402"/>
    <line x1="409.0377" x2="474.3444" y1="242.5197" y2="242.5197"/>
    <line x1="478.1008" x2="409.8583" y1="246.2992" y2="246.2992"/>
    <line x1="410.679" x2="481.4261" y1="250.0787" y2="250.0787"/>
    <line x1="484.2291" x2="411.166" y1="253.8583" y2="253.8583"/>
    <line x1="411.6196" x2="486.683" y1="257.6378" y2="257.6378"/>
    <line x1="488.9315" x2="411.6142" y1="261.4173" y2="261.4173"/>
    <line x1="411.1937" x2="490.7191" y1="265.1969" y2="265.1969"/>
    <line x1="489.4775" x2="575.8774" y1="263.937" y2="263.937"/>
    <line x1="577.0101" x2="488.3448" y1="265.8268" y2="265.8268"/>
    <line x1="487.2121" x2="578.1427" y1="267.7165" y2="267.7165"/>
    <line x1="579.0525" x2="486.3024" y1="269.6063" y2="269.6063"/>
    <line x1="485.4086" x2="579.9463" y1="271.4961" y2="271.4961"/>
    <line x1="580.7293" x2="484.6255" y1="273.3858" y2="273.3858"/>
    <line x1="483.9494" x2="581.4055" y1="275.2756" y2="275.2756"/>
    <line x1="582.0816" x2="483.2732" y1="277.1654" y2="277.1654"/>
    <line x1="482.7966" x2="582.5582" y1="279.0551" y2="279.0551"/>
    <line x1="583.0316" x2="482.3233" y1="280.9449" y2="280.9449"/>
    <line x1="481.9239" x2="583.431" y1="282.8346" y2="282.8346"/>
    <line x1="583.7113" x2="481.6435" y1="284.7244" y2="284.7244"/>
    <line x1="481.3632" x2="583.9916" y1="286.6142" y2="286.6142"/>
    <line x1="584.135" x2="481.2198" y1="288.5039" y2="288.5039"/>
    <line x1="481.127" x2="584.2279" y1="290.3937" y2="290.3937"/>
    <line x1="584.311" x2="481.0438" y1="292.2835" y2="292.2835"/>
    <line x1="481.1367" x2="584.2182" y1="294.1732" y2="294.1732"/>
    <line x1="584.1254" x2="481.2295" y1="296.063" y2="296.063"/>
    <line x1="481.3924" x2="583.9625" y1="297.9528" y2="297.9528"/>
    <line x1="583.6821" x2="481.6727" y1="299.8425" y2="299.8425"/>
    <line x1="481.953" x2="583.4018" y1="301.7323" y2="301.7323"/>
    <line x1="582.9823" x2="482.3726" y1="303.622" y2="303.622"/>
    <line x1="482.8459" x2="582.5089" y1="305.5118" y2="305.5118"/>
    <line x1="582.0112" x2="483.3436" y1="307.4016" y2="307.4016"/>
    <line x1="484.0198" x2="581.3351" y1="309.2913" y2="309.2913"/>
    <line x1="580.6589" x2="484.696" y1="311.1811" y2="311.1811"/>
    <line x1="485.5016" x2="579.8532" y1="313.0709" y2="313.0709"/>
    <line x1="578.9594" x2="486.3954" y1="314.9606" y2="314.9606"/>
    <line x1="487.3301" x2="578.0248" y1="316.8504" y2="316.8504"/>
    <line x1="576.8921" x2="488.4628" y1="318.7402" y2="318.7402"/>
    <line x1="489.5954" x2="575.7594" y1="320.6299" y2="320.6299"/>
    <line x1="576.0366" x2="647.7769" y1="322.5197" y2="322.5197"/>
    <line x1="649.5176" x2="574.2959" y1="324.4094" y2="324.4094"/>
    <line x1="572.991" x2="492.3638" y1="324.4094" y2="324.4094"/>
    <line x1="490.9623" x2="574.3926" y1="322.5197" y2="322.5197"/>
    <line x1="578.1216" x2="645.6919" y1="320.6299" y2="320.6299"/>
    <line x1="643.4688" x2="580.3447" y1="318.7402" y2="318.7402"/>
    <line x1="582.8927" x2="640.9208" y1="316.8504" y2="316.8504"/>
    <line x1="637.936" x2="585.8775" y1="314.9606" y2="314.9606"/>
    <line x1="589.3353" x2="634.4782" y1="313.0709" y2="313.0709"/>
    <line x1="630.186" x2="593.6275" y1="311.1811" y2="311.1811"/>
    <line x1="599.6768" x2="624.1367" y1="309.2913" y2="309.2913"/>
    <line x1="624.842" x2="676.9548" y1="302.9921" y2="302.9921"/>
    <line x1="684.0945" x2="353.0606" y1="304.252" y2="304.252"/>
    <line x1="352.7706" x2="684.0945" y1="289.1339" y2="289.1339"/>
    <line x1="684.0945" x2="109.6063" y1="296.6929" y2="296.6929"/>
    <line x1="109.6063" x2="147.4382" y1="289.1339" y2="289.1339"/>
    <line x1="148.0268" x2="109.6063" y1="274.0157" y2="274.0157"/>
    <line x1="109.6063" x2="684.0945" y1="266.4567" y2="266.4567"/>
    <line x1="684.0945" x2="355.7231" y1="274.0157" y2="274.0157"/>
    <line x1="362.4494" x2="684.0945" y1="258.8976" y2="258.8976"/>
    <line x1="684.0945" x2="109.6063" y1="251.3386" y2="251.3386"/>
    <line x1="109.6063" x2="141.2541" y1="258.8976" y2="258.8976"/>
    <line x1="109.6063" x2="684.0945" y1="281.5748" y2="281.5748"/>
    <line x1="684.0945" x2="616.6683" y1="306.7717" y2="306.7717"/>
    <line x1="610.516" x2="684.0945" y1="310.5512" y2="310.5512"/>
    <line x1="684.0945" x2="109.6063" y1="311.811" y2="311.811"/>
    <line x1="109.6063" x2="139.0502" y1="304.252" y2="304.252"/>
    <line x1="109.6063" x2="684.0945" y1="326.9291" y2="326.9291"/>
    <line x1="684.0945" x2="402.0395" y1="325.6693" y2="325.6693"/>
    <line x1="402.1979" x2="684.0945" y1="329.4488" y2="329.4488"/>
    <line x1="684.0945" x2="402.1978" y1="333.2283" y2="333.2283"/>
    <line x1="402.0078" x2="684.0945" y1="337.0079" y2="337.0079"/>
    <line x1="684.0945" x2="363.9361" y1="334.4882" y2="334.4882"/>
    <line x1="363.3673" x2="351.4551" y1="326.2992" y2="326.2992"/>
    <line x1="344.6173" x2="370.205" y1="328.189" y2="328.189"/>
    <line x1="374.3108" x2="340.5116" y1="330.0787" y2="330.0787"/>
    <line x1="337.4406" x2="377.3817" y1="331.9685" y2="331.9685"/>
    <line x1="379.91" x2="334.9123" y1="333.8583" y2="333.8583"/>
    <line x1="332.8273" x2="381.995" y1="335.748" y2="335.748"/>
    <line x1="383.7783" x2="331.0441" y1="337.6378" y2="337.6378"/>
    <line x1="329.4719" x2="385.3505" y1="339.5276" y2="339.5276"/>
    <line x1="386.752" x2="328.0703" y1="341.4173" y2="341.4173"/>
    <line x1="326.9318" x2="387.8906" y1="343.3071" y2="343.3071"/>
    <line x1="388.9266" x2="325.8958" y1="345.1969" y2="345.1969"/>
    <line x1="325.002" x2="389.8204" y1="347.0866" y2="347.0866"/>
    <line x1="390.5517" x2="324.2706" y1="348.9764" y2="348.9764"/>
    <line x1="323.5984" x2="391.224" y1="350.8661" y2="350.8661"/>
    <line x1="391.6973" x2="323.125" y1="352.7559" y2="352.7559"/>
    <line x1="322.698" x2="392.1244" y1="354.6457" y2="354.6457"/>
    <line x1="392.4047" x2="322.4176" y1="356.5354" y2="356.5354"/>
    <line x1="322.217" x2="392.6053" y1="358.4252" y2="358.4252"/>
    <line x1="392.6981" x2="322.1242" y1="360.315" y2="360.315"/>
    <line x1="322.1415" x2="392.6809" y1="362.2047" y2="362.2047"/>
    <line x1="392.588" x2="322.2343" y1="364.0945" y2="364.0945"/>
    <line x1="322.4698" x2="392.3525" y1="365.9843" y2="365.9843"/>
    <line x1="392.0722" x2="322.7501" y1="367.874" y2="367.874"/>
    <line x1="323.2131" x2="391.6092" y1="369.7638" y2="369.7638"/>
    <line x1="391.102" x2="323.7203" y1="371.6535" y2="371.6535"/>
    <line x1="324.3965" x2="390.4258" y1="373.5433" y2="373.5433"/>
    <line x1="389.654" x2="325.1684" y1="375.4331" y2="375.4331"/>
    <line x1="326.0622" x2="388.7602" y1="377.3228" y2="377.3228"/>
    <line x1="387.6797" x2="327.1426" y1="379.2126" y2="379.2126"/>
    <line x1="328.3312" x2="386.4911" y1="381.1024" y2="381.1024"/>
    <line x1="385.0896" x2="329.7328" y1="382.9921" y2="382.9921"/>
    <line x1="331.3629" x2="383.4594" y1="384.8819" y2="384.8819"/>
    <line x1="381.6069" x2="333.2154" y1="386.7717" y2="386.7717"/>
    <line x1="335.3669" x2="379.4555" y1="388.6614" y2="388.6614"/>
    <line x1="376.8768" x2="337.9456" y1="390.5512" y2="390.5512"/>
    <line x1="341.1891" x2="373.6332" y1="392.4409" y2="392.4409"/>
    <line x1="369.2219" x2="345.6005" y1="394.3307" y2="394.3307"/>
    <line x1="347.5774" x2="398.8439" y1="394.9606" y2="394.9606"/>
    <line x1="403.6117" x2="684.0945" y1="394.9606" y2="394.9606"/>
    <line x1="684.0945" x2="496.2777" y1="393.7008" y2="393.7008"/>
    <line x1="493.6535" x2="684.0945" y1="389.9213" y2="389.9213"/>
    <line x1="684.0945" x2="109.6063" y1="387.4016" y2="387.4016"/>
    <line x1="109.6063" x2="143.5217" y1="394.9606" y2="394.9606"/>
    <line x1="159.5391" x2="109.6063" y1="410.0787" y2="410.0787"/>
    <line x1="109.6063" x2="684.0945" y1="417.6378" y2="417.6378"/>
    <line x1="684.0945" x2="596.9362" y1="416.378" y2="416.378"/>
    <line x1="593.8921" x2="684.0945" y1="412.5984" y2="412.5984"/>
    <line x1="684.0945" x2="320.0686" y1="410.0787" y2="410.0787"/>
    <line x1="329.0693" x2="362.0085" y1="416.378" y2="416.378"/>
    <line x1="364.6133" x2="327.6073" y1="420.1575" y2="420.1575"/>
    <line x1="326.4854" x2="366.56" y1="423.937" y2="423.937"/>
    <line x1="367.8801" x2="325.6748" y1="427.7165" y2="427.7165"/>
    <line x1="325.1565" x2="368.6864" y1="431.4961" y2="431.4961"/>
    <line x1="369.0392" x2="324.9708" y1="435.2756" y2="435.2756"/>
    <line x1="325.105" x2="368.951" y1="439.0551" y2="439.0551"/>
    <line x1="368.3773" x2="325.5192" y1="442.8346" y2="442.8346"/>
    <line x1="326.2226" x2="367.3017" y1="446.6142" y2="446.6142"/>
    <line x1="365.7111" x2="327.2318" y1="450.3937" y2="450.3937"/>
    <line x1="328.5842" x2="363.4804" y1="454.1732" y2="454.1732"/>
    <line x1="360.3978" x2="330.3605" y1="457.9528" y2="457.9528"/>
    <line x1="332.5501" x2="356.0726" y1="461.7323" y2="461.7323"/>
    <line x1="349.2584" x2="335.2275" y1="465.5118" y2="465.5118"/>
    <line x1="339.768" x2="684.0945" y1="470.5512" y2="470.5512"/>
    <line x1="684.0945" x2="109.6063" y1="462.9921" y2="462.9921"/>
    <line x1="109.6063" x2="164.7349" y1="470.5512" y2="470.5512"/>
    <line x1="169.781" x2="109.6063" y1="455.4331" y2="455.4331"/>
    <line x1="109.6063" x2="684.0945" y1="447.874" y2="447.874"/>
    <line x1="684.0945" x2="312.6177" y1="455.4331" y2="455.4331"/>
    <line x1="306.3699" x2="684.0945" y1="440.315" y2="440.315"/>
    <line x1="678.9973" x2="622.7995" y1="435.2756" y2="435.2756"/>
    <line x1="615.3091" x2="684.0945" y1="431.4961" y2="431.4961"/>
    <line x1="684.0945" x2="109.6063" y1="432.7559" y2="432.7559"/>
    <line x1="109.6063" x2="170.5975" y1="440.315" y2="440.315"/>
    <line x1="167.4401" x2="109.6063" y1="425.1969" y2="425.1969"/>
    <line x1="109.6063" x2="684.0945" y1="402.5197" y2="402.5197"/>
    <line x1="684.0945" x2="502.6386" y1="401.2598" y2="401.2598"/>
    <line x1="499.2131" x2="684.0945" y1="397.4803" y2="397.4803"/>
    <line x1="684.0945" x2="506.7124" y1="405.0394" y2="405.0394"/>
    <line x1="511.4885" x2="684.0945" y1="408.8189" y2="408.8189"/>
    <line x1="684.0945" x2="600.37" y1="420.1575" y2="420.1575"/>
    <line x1="604.54" x2="684.0945" y1="423.937" y2="423.937"/>
    <line x1="684.0945" x2="308.1215" y1="425.1969" y2="425.1969"/>
    <line x1="330.9137" x2="358.3248" y1="412.5984" y2="412.5984"/>
    <line x1="352.9956" x2="333.2027" y1="408.8189" y2="408.8189"/>
    <line x1="336.0291" x2="341.5175" y1="405.0394" y2="405.0394"/>
    <line x1="353.8265" x2="360.9958" y1="396.2205" y2="396.2205"/>
    <line x1="403.771" x2="406.8856" y1="401.2598" y2="401.2598"/>
    <line x1="403.5306" x2="410.3922" y1="405.0394" y2="405.0394"/>
    <line x1="413.2186" x2="402.7511" y1="408.8189" y2="408.8189"/>
    <line x1="401.9715" x2="415.5076" y1="412.5984" y2="412.5984"/>
    <line x1="417.352" x2="400.3336" y1="416.378" y2="416.378"/>
    <line x1="398.6957" x2="418.814" y1="420.1575" y2="420.1575"/>
    <line x1="419.9359" x2="397.0839" y1="423.937" y2="423.937"/>
    <line x1="395.4883" x2="420.7465" y1="427.7165" y2="427.7165"/>
    <line x1="421.2648" x2="394.0926" y1="431.4961" y2="431.4961"/>
    <line x1="393.3571" x2="421.4505" y1="435.2756" y2="435.2756"/>
    <line x1="421.3163" x2="392.6216" y1="439.0551" y2="439.0551"/>
    <line x1="392.3334" x2="420.9021" y1="442.8346" y2="442.8346"/>
    <line x1="420.1987" x2="392.1251" y1="446.6142" y2="446.6142"/>
    <line x1="391.7843" x2="419.1895" y1="450.3937" y2="450.3937"/>
    <line x1="417.8371" x2="391.2909" y1="454.1732" y2="454.1732"/>
    <line x1="390.7532" x2="416.0608" y1="457.9528" y2="457.9528"/>
    <line x1="413.8712" x2="389.7133" y1="461.7323" y2="461.7323"/>
    <line x1="388.6733" x2="411.1937" y1="465.5118" y2="465.5118"/>
    <line x1="407.9177" x2="387.4573" y1="469.2913" y2="469.2913"/>
    <line x1="386.1648" x2="403.8733" y1="473.0709" y2="473.0709"/>
    <line x1="398.4927" x2="384.8016" y1="476.8504" y2="476.8504"/>
    <line x1="383.2832" x2="391.0158" y1="480.6299" y2="480.6299"/>
    <line x1="381.1995" x2="684.0945" y1="485.6693" y2="485.6693"/>
    <line x1="684.0945" x2="109.6063" y1="493.2283" y2="493.2283"/>
    <line x1="109.6063" x2="129.7107" y1="500.7874" y2="500.7874"/>
    <line x1="109.6063" x2="684.0945" y1="508.3465" y2="508.3465"/>
    <line x1="684.0945" x2="374.9774" y1="515.9055" y2="515.9055"/>
    <line x1="384.6654" x2="448.4721" y1="525.9843" y2="525.9843"/>
    <line x1="455.4936" x2="377.874" y1="529.7638" y2="529.7638"/>
    <line x1="375.542" x2="684.0945" y1="531.0236" y2="531.0236"/>
    <line x1="684.0945" x2="109.6063" y1="523.4646" y2="523.4646"/>
    <line x1="109.6063" x2="684.0945" y1="538.5827" y2="538.5827"/>
    <line x1="684.0945" x2="667.969" y1="541.1024" y2="541.1024"/>
    <line x1="658.1745" x2="684.0945" y1="544.8819" y2="544.8819"/>
    <line x1="684.0945" x2="286.1762" y1="546.1417" y2="546.1417"/>
    <line x1="279.676" x2="684.0945" y1="561.2598" y2="561.2598"/>
    <line x1="684.0945" x2="640.4024" y1="560.0" y2="560.0"/>
    <line x1="639.5599" x2="500.7256" y1="560.0" y2="560.0"/>
    <line x1="500.165" x2="640.1205" y1="556.2205" y2="556.2205"/>
    <line x1="643.4816" x2="684.0945" y1="556.2205" y2="556.2205"/>
    <line x1="684.0945" x2="109.6063" y1="553.7008" y2="553.7008"/>
    <line x1="109.6063" x2="684.0945" y1="568.8189" y2="568.8189"/>
    <line x1="684.0945" x2="502.3143" y1="567.5591" y2="567.5591"/>
    <line x1="501.3676" x2="684.0945" y1="563.7795" y2="563.7795"/>
    <line x1="684.0945" x2="503.4392" y1="571.3386" y2="571.3386"/>
    <line x1="504.7915" x2="684.0945" y1="575.1181" y2="575.1181"/>
    <line x1="684.0945" x2="199.1171" y1="576.378" y2="576.378"/>
    <line x1="190.4841" x2="209.9858" y1="588.9764" y2="588.9764"/>
    <line x1="215.1073" x2="185.3626" y1="587.0866" y2="587.0866"/>
    <line x1="181.7753" x2="218.6946" y1="585.1969" y2="585.1969"/>
    <line x1="221.5295" x2="178.9404" y1="583.3071" y2="583.3071"/>
    <line x1="176.5843" x2="223.8857" y1="581.4173" y2="581.4173"/>
    <line x1="225.9104" x2="174.5595" y1="579.5276" y2="579.5276"/>
    <line x1="172.8467" x2="227.6232" y1="577.6378" y2="577.6378"/>
    <line x1="229.0933" x2="171.3766" y1="575.748" y2="575.748"/>
    <line x1="170.0508" x2="230.4191" y1="573.8583" y2="573.8583"/>
    <line x1="231.5518" x2="168.9181" y1="571.9685" y2="571.9685"/>
    <line x1="167.9483" x2="232.5216" y1="570.0787" y2="570.0787"/>
    <line x1="233.4154" x2="167.0545" y1="568.189" y2="568.189"/>
    <line x1="166.3774" x2="234.0925" y1="566.2992" y2="566.2992"/>
    <line x1="234.7201" x2="165.7498" y1="564.4094" y2="564.4094"/>
    <line x1="165.2764" x2="235.1935" y1="562.5197" y2="562.5197"/>
    <line x1="235.5838" x2="164.8861" y1="560.6299" y2="560.6299"/>
    <line x1="164.6058" x2="235.8642" y1="558.7402" y2="558.7402"/>
    <line x1="236.0348" x2="164.4351" y1="556.8504" y2="556.8504"/>
    <line x1="164.3423" x2="236.1276" y1="554.9606" y2="554.9606"/>
    <line x1="236.0864" x2="164.3835" y1="553.0709" y2="553.0709"/>
    <line x1="164.4763" x2="235.9936" y1="551.1811" y2="551.1811"/>
    <line x1="235.7397" x2="164.7302" y1="549.2913" y2="549.2913"/>
    <line x1="165.0132" x2="235.4567" y1="547.4016" y2="547.4016"/>
    <line x1="234.9833" x2="165.4866" y1="545.5118" y2="545.5118"/>
    <line x1="166.0014" x2="234.4685" y1="543.622" y2="543.622"/>
    <line x1="233.7923" x2="166.6776" y1="541.7323" y2="541.7323"/>
    <line x1="167.4514" x2="233.0186" y1="539.8425" y2="539.8425"/>
    <line x1="232.1248" x2="168.3451" y1="537.9528" y2="537.9528"/>
    <line x1="169.421" x2="231.0489" y1="536.063" y2="536.063"/>
    <line x1="229.8726" x2="170.5974" y1="534.1732" y2="534.1732"/>
    <line x1="171.9989" x2="228.471" y1="532.2835" y2="532.2835"/>
    <line x1="226.8628" x2="173.6072" y1="530.3937" y2="530.3937"/>
    <line x1="175.425" x2="225.045" y1="528.5039" y2="528.5039"/>
    <line x1="222.9463" x2="177.5236" y1="526.6142" y2="526.6142"/>
    <line x1="180.0717" x2="220.3982" y1="524.7244" y2="524.7244"/>
    <line x1="217.2947" x2="183.1752" y1="522.8346" y2="522.8346"/>
    <line x1="187.3448" x2="213.1251" y1="520.9449" y2="520.9449"/>
    <line x1="206.2189" x2="194.2511" y1="519.0551" y2="519.0551"/>
    <line x1="212.8667" x2="278.922" y1="561.2598" y2="561.2598"/>
    <line x1="279.1859" x2="282.0357" y1="563.7795" y2="563.7795"/>
    <line x1="278.7071" x2="285.9466" y1="567.5591" y2="567.5591"/>
    <line x1="289.1912" x2="278.5437" y1="571.3386" y2="571.3386"/>
    <line x1="278.7294" x2="291.9164" y1="575.1181" y2="575.1181"/>
    <line x1="294.1818" x2="279.2533" y1="578.8976" y2="578.8976"/>
    <line x1="280.1054" x2="296.0072" y1="582.6772" y2="582.6772"/>
    <line x1="297.5203" x2="281.3076" y1="586.4567" y2="586.4567"/>
    <line x1="282.8942" x2="298.7561" y1="590.2362" y2="590.2362"/>
    <line x1="299.7028" x2="284.9159" y1="594.0157" y2="594.0157"/>
    <line x1="287.4476" x2="300.3008" y1="597.7953" y2="597.7953"/>
    <line x1="300.6771" x2="290.6018" y1="601.5748" y2="601.5748"/>
    <line x1="294.552" x2="300.8381" y1="605.3543" y2="605.3543"/>
    <line x1="300.6524" x2="299.8642" y1="609.1339" y2="609.1339"/>
    <line x1="298.2421" x2="193.5466" y1="621.7323" y2="621.7323"/>
    <line x1="191.0125" x2="684.0945" y1="606.6142" y2="606.6142"/>
    <line x1="684.0945" x2="603.7458" y1="605.9843" y2="605.9843"/>
    <line x1="602.6131" x2="684.0945" y1="607.874" y2="607.874"/>
    <line x1="684.0945" x2="634.0498" y1="609.1339" y2="609.1339"/>
    <line x1="632.6975" x2="684.0945" y1="605.3543" y2="605.3543"/>
    <line x1="684.0945" x2="605.0478" y1="604.0945" y2="604.0945"/>
    <line x1="606.4493" x2="684.0945" y1="602.2047" y2="602.2047"/>
    <line x1="684.0945" x2="631.717" y1="601.5748" y2="601.5748"/>
    <line x1="631.0146" x2="684.0945" y1="597.7953" y2="597.7953"/>
    <line x1="684.0945" x2="609.7037" y1="598.4252" y2="598.4252"/>
    <line x1="607.991" x2="684.0945" y1="600.315" y2="600.315"/>
    <line x1="684.0945" x2="109.6063" y1="599.0551" y2="599.0551"/>
    <line x1="109.6063" x2="684.0945" y1="614.1732" y2="614.1732"/>
    <line x1="684.0945" x2="599.7029" y1="613.5433" y2="613.5433"/>
    <line x1="599.8529" x2="533.6161" y1="612.9134" y2="612.9134"/>
    <line x1="533.4011" x2="606.8844" y1="609.1339" y2="609.1339"/>
    <line x1="601.4905" x2="684.0945" y1="609.7638" y2="609.7638"/>
    <line x1="684.0945" x2="600.5967" y1="611.6535" y2="611.6535"/>
    <line x1="598.9373" x2="684.0945" y1="615.4331" y2="615.4331"/>
    <line x1="684.0945" x2="637.8597" y1="616.6929" y2="616.6929"/>
    <line x1="635.7663" x2="684.0945" y1="612.9134" y2="612.9134"/>
    <line x1="684.0945" x2="598.2612" y1="617.3228" y2="617.3228"/>
    <line x1="597.5919" x2="684.0945" y1="619.2126" y2="619.2126"/>
    <line x1="684.0945" x2="640.3964" y1="620.4724" y2="620.4724"/>
    <line x1="643.4742" x2="684.0945" y1="624.252" y2="624.252"/>
    <line x1="684.0945" x2="596.2492" y1="624.8819" y2="624.8819"/>
    <line x1="596.077" x2="531.1981" y1="624.252" y2="624.252"/>
    <line x1="531.2766" x2="595.9985" y1="628.0315" y2="628.0315"/>
    <line x1="595.6886" x2="684.0945" y1="628.6614" y2="628.6614"/>
    <line x1="684.0945" x2="109.6063" y1="629.2913" y2="629.2913"/>
    <line x1="109.6063" x2="684.0945" y1="644.4094" y2="644.4094"/>
    <line x1="684.0945" x2="596.2527" y1="643.7795" y2="643.7795"/>
    <line x1="595.9723" x2="684.0945" y1="641.8898" y2="641.8898"/>
    <line x1="684.0945" x2="595.692" y1="640.0" y2="640.0"/>
    <line x1="595.5438" x2="684.0945" y1="638.1102" y2="638.1102"/>
    <line x1="684.0945" x2="667.9365" y1="639.3701" y2="639.3701"/>
    <line x1="658.1573" x2="684.0945" y1="635.5906" y2="635.5906"/>
    <line x1="684.0945" x2="595.4509" y1="636.2205" y2="636.2205"/>
    <line x1="594.4397" x2="532.8354" y1="635.5906" y2="635.5906"/>
    <line x1="531.8012" x2="595.4739" y1="631.811" y2="631.811"/>
    <line x1="595.4498" x2="684.0945" y1="632.4409" y2="632.4409"/>
    <line x1="684.0945" x2="651.9418" y1="631.811" y2="631.811"/>
    <line x1="647.2426" x2="684.0945" y1="628.0315" y2="628.0315"/>
    <line x1="684.0945" x2="595.9689" y1="626.7717" y2="626.7717"/>
    <line x1="595.5426" x2="684.0945" y1="630.5512" y2="630.5512"/>
    <line x1="684.0945" x2="595.3581" y1="634.3307" y2="634.3307"/>
    <line x1="592.9039" x2="534.3712" y1="639.3701" y2="639.3701"/>
    <line x1="536.4735" x2="590.8016" y1="643.1496" y2="643.1496"/>
    <line x1="587.8732" x2="539.4019" y1="646.9291" y2="646.9291"/>
    <line x1="543.359" x2="583.9161" y1="650.7087" y2="650.7087"/>
    <line x1="577.9208" x2="549.3543" y1="654.4882" y2="654.4882"/>
    <line x1="565.6098" x2="646.3675" y1="680.9449" y2="680.9449"/>
    <line x1="651.2267" x2="560.7506" y1="684.7244" y2="684.7244"/>
    <line x1="556.6116" x2="655.3657" y1="688.5039" y2="688.5039"/>
    <line x1="658.6964" x2="636.5396" y1="685.3543" y2="685.3543"/>
    <line x1="630.0307" x2="665.2053" y1="683.4646" y2="683.4646"/>
    <line x1="669.7882" x2="625.4479" y1="681.5748" y2="681.5748"/>
    <line x1="621.7751" x2="673.461" y1="679.685" y2="679.685"/>
    <line x1="676.6139" x2="618.6222" y1="677.7953" y2="677.7953"/>
    <line x1="616.0668" x2="679.1693" y1="675.9055" y2="675.9055"/>
    <line x1="681.5455" x2="613.6905" y1="674.0157" y2="674.0157"/>
    <line x1="611.6055" x2="683.6306" y1="672.126" y2="672.126"/>
    <line x1="684.0945" x2="609.7247" y1="670.2362" y2="670.2362"/>
    <line x1="608.0119" x2="684.0945" y1="668.3465" y2="668.3465"/>
    <line x1="684.0945" x2="398.511" y1="667.0866" y2="667.0866"/>
    <line x1="398.013" x2="436.1156" y1="665.8268" y2="665.8268"/>
    <line x1="446.821" x2="396.5763" y1="662.0472" y2="662.0472"/>
    <line x1="395.1591" x2="454.1907" y1="658.2677" y2="658.2677"/>
    <line x1="460.0498" x2="393.9719" y1="654.4882" y2="654.4882"/>
    <line x1="393.1874" x2="464.9505" y1="650.7087" y2="650.7087"/>
    <line x1="469.1206" x2="392.4029" y1="646.9291" y2="646.9291"/>
    <line x1="392.2458" x2="472.6166" y1="643.1496" y2="643.1496"/>
    <line x1="475.7528" x2="392.1017" y1="639.3701" y2="639.3701"/>
    <line x1="391.6237" x2="478.5559" y1="635.5906" y2="635.5906"/>
    <line x1="480.8732" x2="390.9194" y1="631.811" y2="631.811"/>
    <line x1="390.0071" x2="483.026" y1="628.0315" y2="628.0315"/>
    <line x1="484.8136" x2="388.3222" y1="624.252" y2="624.252"/>
    <line x1="386.6373" x2="486.3931" y1="620.4724" y2="620.4724"/>
    <line x1="487.7454" x2="384.9012" y1="616.6929" y2="616.6929"/>
    <line x1="383.1544" x2="488.835" y1="612.9134" y2="612.9134"/>
    <line x1="489.7818" x2="381.9174" y1="609.1339" y2="609.1339"/>
    <line x1="381.3176" x2="490.4344" y1="605.3543" y2="605.3543"/>
    <line x1="490.9951" x2="380.7849" y1="601.5748" y2="601.5748"/>
    <line x1="381.2941" x2="491.2413" y1="597.7953" y2="597.7953"/>
    <line x1="491.427" x2="381.8033" y1="594.0157" y2="594.0157"/>
    <line x1="382.2832" x2="491.2796" y1="590.2362" y2="590.2362"/>
    <line x1="491.094" x2="382.7492" y1="586.4567" y2="586.4567"/>
    <line x1="382.979" x2="490.5503" y1="582.6772" y2="582.6772"/>
    <line x1="489.9774" x2="382.6389" y1="578.8976" y2="578.8976"/>
    <line x1="382.2987" x2="489.0307" y1="575.1181" y2="575.1181"/>
    <line x1="488.0248" x2="381.8859" y1="571.3386" y2="571.3386"/>
    <line x1="381.4659" x2="486.6725" y1="567.5591" y2="567.5591"/>
    <line x1="485.1829" x2="381.1393" y1="563.7795" y2="563.7795"/>
    <line x1="380.8973" x2="483.3954" y1="560.0" y2="560.0"/>
    <line x1="481.3413" x2="380.6558" y1="556.2205" y2="556.2205"/>
    <line x1="380.4177" x2="479.0759" y1="552.4409" y2="552.4409"/>
    <line x1="476.3319" x2="380.1796" y1="548.6614" y2="548.6614"/>
    <line x1="379.7737" x2="473.3244" y1="544.8819" y2="544.8819"/>
    <line x1="469.8988" x2="379.3141" y1="541.1024" y2="541.1024"/>
    <line x1="378.8448" x2="465.8121" y1="537.3228" y2="537.3228"/>
    <line x1="461.1028" x2="378.3594" y1="533.5433" y2="533.5433"/>
    <line x1="394.1828" x2="438.9547" y1="522.2047" y2="522.2047"/>
    <line x1="501.6694" x2="638.6161" y1="533.5433" y2="533.5433"/>
    <line x1="639.3811" x2="500.9044" y1="537.3228" y2="537.3228"/>
    <line x1="500.3438" x2="639.9417" y1="541.1024" y2="541.1024"/>
    <line x1="640.2533" x2="500.0322" y1="544.8819" y2="544.8819"/>
    <line x1="499.8466" x2="640.4389" y1="548.6614" y2="548.6614"/>
    <line x1="640.3125" x2="499.973" y1="552.4409" y2="552.4409"/>
    <line x1="502.6162" x2="637.6693" y1="529.7638" y2="529.7638"/>
    <line x1="636.4151" x2="503.8704" y1="525.9843" y2="525.9843"/>
    <line x1="505.2396" x2="635.0459" y1="522.2047" y2="522.2047"/>
    <line x1="633.2583" x2="507.0272" y1="518.4252" y2="518.4252"/>
    <line x1="509.0002" x2="631.2853" y1="514.6457" y2="514.6457"/>
    <line x1="629.0199" x2="511.2656" y1="510.8661" y2="510.8661"/>
    <line x1="513.9729" x2="626.3126" y1="507.0866" y2="507.0866"/>
    <line x1="623.2883" x2="516.9972" y1="503.3071" y2="503.3071"/>
    <line x1="520.4244" x2="619.8611" y1="499.5276" y2="499.5276"/>
    <line x1="615.691" x2="524.5945" y1="495.748" y2="495.748"/>
    <line x1="529.4832" x2="610.8023" y1="491.9685" y2="491.9685"/>
    <line x1="604.8737" x2="535.4118" y1="488.189" y2="488.189"/>
    <line x1="542.9808" x2="597.3047" y1="484.4094" y2="484.4094"/>
    <line x1="585.2216" x2="555.0639" y1="480.6299" y2="480.6299"/>
    <line x1="568.7228" x2="536.0799" y1="420.1575" y2="420.1575"/>
    <line x1="524.6731" x2="580.1296" y1="416.378" y2="416.378"/>
    <line x1="587.5218" x2="517.281" y1="412.5984" y2="412.5984"/>
    <line x1="491.3882" x2="684.0945" y1="386.1417" y2="386.1417"/>
    <line x1="684.0945" x2="489.4952" y1="382.3622" y2="382.3622"/>
    <line x1="487.7696" x2="684.0945" y1="378.5827" y2="378.5827"/>
    <line x1="684.0945" x2="402.0253" y1="379.8425" y2="379.8425"/>
    <line x1="400.984" x2="684.0945" y1="364.7244" y2="364.7244"/>
    <line x1="684.0945" x2="483.6115" y1="363.4646" y2="363.4646"/>
    <line x1="483.0508" x2="684.0945" y1="359.685" y2="359.685"/>
    <line x1="684.0945" x2="109.6063" y1="357.1654" y2="357.1654"/>
    <line x1="109.6063" x2="684.0945" y1="372.2835" y2="372.2835"/>
    <line x1="684.0945" x2="485.2422" y1="371.0236" y2="371.0236"/>
    <line x1="484.2955" x2="684.0945" y1="367.2441" y2="367.2441"/>
    <line x1="684.0945" x2="486.4173" y1="374.8031" y2="374.8031"/>
    <line x1="482.8235" x2="684.0945" y1="355.9055" y2="355.9055"/>
    <line x1="684.0945" x2="482.6676" y1="352.126" y2="352.126"/>
    <line x1="482.8533" x2="684.0945" y1="348.3465" y2="348.3465"/>
    <line x1="684.0945" x2="376.8898" y1="349.6063" y2="349.6063"/>
    <line x1="401.3434" x2="470.0603" y1="352.126" y2="352.126"/>
    <line x1="474.3878" x2="401.4996" y1="348.3465" y2="348.3465"/>
    <line x1="401.6597" x2="478.1365" y1="344.5669" y2="344.5669"/>
    <line x1="483.1407" x2="684.0945" y1="344.5669" y2="344.5669"/>
    <line x1="684.0945" x2="109.6063" y1="342.0472" y2="342.0472"/>
    <line x1="186.298" x2="253.5434" y1="294.1732" y2="294.1732"/>
    <line x1="254.6761" x2="185.1653" y1="292.2835" y2="292.2835"/>
    <line x1="184.2584" x2="255.583" y1="290.3937" y2="290.3937"/>
    <line x1="256.4568" x2="183.3846" y1="288.5039" y2="288.5039"/>
    <line x1="182.7085" x2="257.1329" y1="286.6142" y2="286.6142"/>
    <line x1="257.7763" x2="182.0651" y1="284.7244" y2="284.7244"/>
    <line x1="181.5917" x2="258.2497" y1="282.8346" y2="282.8346"/>
    <line x1="258.6897" x2="181.1517" y1="280.9449" y2="280.9449"/>
    <line x1="180.8714" x2="258.97" y1="279.0551" y2="279.0551"/>
    <line x1="259.2232" x2="180.6182" y1="277.1654" y2="277.1654"/>
    <line x1="180.5254" x2="259.316" y1="275.2756" y2="275.2756"/>
    <line x1="259.3908" x2="180.4506" y1="273.3858" y2="273.3858"/>
    <line x1="180.5435" x2="259.2979" y1="271.4961" y2="271.4961"/>
    <line x1="259.1958" x2="180.6456" y1="269.6063" y2="269.6063"/>
    <line x1="180.9259" x2="258.9155" y1="267.7165" y2="267.7165"/>
    <line x1="258.631" x2="181.2104" y1="265.8268" y2="265.8268"/>
    <line x1="181.6838" x2="258.1576" y1="263.937" y2="263.937"/>
    <line x1="257.6776" x2="182.1638" y1="262.0472" y2="262.0472"/>
    <line x1="182.84" x2="257.0014" y1="260.1575" y2="260.1575"/>
    <line x1="256.3029" x2="183.5385" y1="258.2677" y2="258.2677"/>
    <line x1="184.4322" x2="255.4091" y1="256.378" y2="256.378"/>
    <line x1="254.4558" x2="185.3856" y1="254.4882" y2="254.4882"/>
    <line x1="186.5183" x2="253.3231" y1="252.5984" y2="252.5984"/>
    <line x1="252.0585" x2="187.7829" y1="250.7087" y2="250.7087"/>
    <line x1="189.1845" x2="250.6569" y1="248.8189" y2="248.8189"/>
    <line x1="248.9927" x2="190.8487" y1="246.9291" y2="246.9291"/>
    <line x1="192.6825" x2="247.1589" y1="245.0394" y2="245.0394"/>
    <line x1="245.0738" x2="194.7675" y1="243.1496" y2="243.1496"/>
    <line x1="193.2977" x2="336.8762" y1="243.7795" y2="243.7795"/>
    <line x1="337.7813" x2="192.3926" y1="228.6614" y2="228.6614"/>
    <line x1="200.2794" x2="239.562" y1="239.3701" y2="239.3701"/>
    <line x1="242.5497" x2="197.2916" y1="241.2598" y2="241.2598"/>
    <line x1="203.9994" x2="235.842" y1="237.4803" y2="237.4803"/>
    <line x1="230.5828" x2="209.2586" y1="235.5906" y2="235.5906"/>
    <line x1="197.4853" x2="332.6886" y1="258.8976" y2="258.8976"/>
    <line x1="324.403" x2="205.7709" y1="274.0157" y2="274.0157"/>
    <line x1="220.1823" x2="309.9916" y1="289.1339" y2="289.1339"/>
    <line x1="272.867" x2="257.3069" y1="304.252" y2="304.252"/>
    <line x1="250.9295" x2="188.9119" y1="297.9528" y2="297.9528"/>
    <line x1="187.5103" x2="252.3311" y1="296.063" y2="296.063"/>
    <line x1="249.3258" x2="190.5156" y1="299.8425" y2="299.8425"/>
    <line x1="192.277" x2="247.5644" y1="301.7323" y2="301.7323"/>
    <line x1="245.4794" x2="194.362" y1="303.622" y2="303.622"/>
    <line x1="196.7961" x2="243.0453" y1="305.5118" y2="305.5118"/>
    <line x1="240.1752" x2="199.6662" y1="307.4016" y2="307.4016"/>
    <line x1="203.2223" x2="236.6191" y1="309.2913" y2="309.2913"/>
    <line x1="231.8494" x2="207.992" y1="311.1811" y2="311.1811"/>
    <line x1="194.6606" x2="335.5133" y1="213.5433" y2="213.5433"/>
    <line x1="348.2136" x2="378.6195" y1="213.5433" y2="213.5433"/>
    <line x1="387.3002" x2="339.5329" y1="198.4252" y2="198.4252"/>
    <line x1="339.8091" x2="355.6056" y1="193.3858" y2="193.3858"/>
    <line x1="362.3188" x2="339.786" y1="189.6063" y2="189.6063"/>
    <line x1="340.9344" x2="365.9871" y1="185.8268" y2="185.8268"/>
    <line x1="368.3745" x2="342.8423" y1="182.0472" y2="182.0472"/>
    <line x1="345.7204" x2="369.8933" y1="178.2677" y2="178.2677"/>
    <line x1="370.6689" x2="350.1792" y1="174.4882" y2="174.4882"/>
    <line x1="360.6497" x2="366.1834" y1="170.7087" y2="170.7087"/>
    <line x1="370.5777" x2="229.7593" y1="168.189" y2="168.189"/>
    <line x1="248.1194" x2="361.4903" y1="153.0709" y2="153.0709"/>
    <line x1="349.6015" x2="335.8087" y1="151.811" y2="151.811"/>
    <line x1="331.0423" x2="348.0877" y1="155.5906" y2="155.5906"/>
    <line x1="346.2535" x2="328.0986" y1="159.3701" y2="159.3701"/>
    <line x1="326.1813" x2="343.9881" y1="163.1496" y2="163.1496"/>
    <line x1="341.2444" x2="325.0442" y1="166.9291" y2="166.9291"/>
    <line x1="324.5955" x2="337.9693" y1="170.7087" y2="170.7087"/>
    <line x1="334.0116" x2="324.7459" y1="174.4882" y2="174.4882"/>
    <line x1="325.5215" x2="329.1296" y1="178.2677" y2="178.2677"/>
    <line x1="327.7303" x2="384.7459" y1="183.3071" y2="183.3071"/>
    <line x1="405.9592" x2="684.0945" y1="213.5433" y2="213.5433"/>
    <line x1="684.0945" x2="109.6063" y1="236.2205" y2="236.2205"/>
    <line x1="200.403" x2="329.7709" y1="198.4252" y2="198.4252"/>
    <line x1="319.8984" x2="210.8784" y1="183.3071" y2="183.3071"/>
    <line x1="253.282" x2="289.0762" y1="163.1496" y2="163.1496"/>
    <line x1="298.0144" x2="256.0257" y1="166.9291" y2="166.9291"/>
    <line x1="259.3008" x2="304.6184" y1="170.7087" y2="170.7087"/>
    <line x1="309.8953" x2="263.2584" y1="174.4882" y2="174.4882"/>
    <line x1="268.1405" x2="314.3212" y1="178.2677" y2="178.2677"/>
    <line x1="318.1536" x2="274.708" y1="182.0472" y2="182.0472"/>
    <line x1="284.8351" x2="312.4349" y1="185.8268" y2="185.8268"/>
    <line x1="272.3855" x2="257.7884" y1="159.3701" y2="159.3701"/>
    <line x1="244.6124" x2="352.6577" y1="137.9528" y2="137.9528"/>
    <line x1="351.8344" x2="245.4357" y1="122.8346" y2="122.8346"/>
    <line x1="374.1531" x2="684.0945" y1="243.7795" y2="243.7795"/>
    <line x1="663.6402" x2="638.1566" y1="299.2126" y2="299.2126"/>
    <line x1="651.2304" x2="572.5831" y1="326.2992" y2="326.2992"/>
    <line x1="571.3663" x2="493.9885" y1="326.2992" y2="326.2992"/>
    <line x1="495.7013" x2="569.6535" y1="328.189" y2="328.189"/>
    <line x1="571.1706" x2="652.6429" y1="328.189" y2="328.189"/>
    <line x1="654.0445" x2="569.769" y1="330.0787" y2="330.0787"/>
    <line x1="567.669" x2="497.6859" y1="330.0787" y2="330.0787"/>
    <line x1="499.7709" x2="565.5839" y1="331.9685" y2="331.9685"/>
    <line x1="567.4605" x2="656.353" y1="333.8583" y2="333.8583"/>
    <line x1="657.3495" x2="566.4641" y1="335.748" y2="335.748"/>
    <line x1="565.5703" x2="658.2432" y1="337.6378" y2="337.6378"/>
    <line x1="659.0982" x2="564.7153" y1="339.5276" y2="339.5276"/>
    <line x1="564.0391" x2="659.7744" y1="341.4173" y2="341.4173"/>
    <line x1="660.4505" x2="563.363" y1="343.3071" y2="343.3071"/>
    <line x1="562.8262" x2="660.9873" y1="345.1969" y2="345.1969"/>
    <line x1="661.4607" x2="562.3528" y1="347.0866" y2="347.0866"/>
    <line x1="561.9028" x2="661.9107" y1="348.9764" y2="348.9764"/>
    <line x1="662.191" x2="561.6225" y1="350.8661" y2="350.8661"/>
    <line x1="561.3421" x2="662.4714" y1="352.7559" y2="352.7559"/>
    <line x1="662.6573" x2="561.1563" y1="354.6457" y2="354.6457"/>
    <line x1="561.0634" x2="662.7501" y1="356.5354" y2="356.5354"/>
    <line x1="662.8429" x2="560.9706" y1="358.4252" y2="358.4252"/>
    <line x1="561.0376" x2="662.7759" y1="360.315" y2="360.315"/>
    <line x1="662.6831" x2="561.1305" y1="362.2047" y2="362.2047"/>
    <line x1="561.2643" x2="662.5493" y1="364.0945" y2="364.0945"/>
    <line x1="662.2689" x2="561.5446" y1="365.9843" y2="365.9843"/>
    <line x1="561.8249" x2="661.9886" y1="367.874" y2="367.874"/>
    <line x1="661.5922" x2="562.2213" y1="369.7638" y2="369.7638"/>
    <line x1="562.6947" x2="661.1189" y1="371.6535" y2="371.6535"/>
    <line x1="660.6384" x2="563.1751" y1="373.5433" y2="373.5433"/>
    <line x1="563.8513" x2="659.9623" y1="375.4331" y2="375.4331"/>
    <line x1="659.2861" x2="564.5274" y1="377.3228" y2="377.3228"/>
    <line x1="565.3219" x2="658.4916" y1="379.2126" y2="379.2126"/>
    <line x1="657.5978" x2="566.2157" y1="381.1024" y2="381.1024"/>
    <line x1="567.1458" x2="656.6677" y1="382.9921" y2="382.9921"/>
    <line x1="655.535" x2="568.2785" y1="384.8819" y2="384.8819"/>
    <line x1="569.4112" x2="654.4024" y1="386.7717" y2="386.7717"/>
    <line x1="653.0324" x2="570.7811" y1="388.6614" y2="388.6614"/>
    <line x1="572.1827" x2="651.6308" y1="390.5512" y2="390.5512"/>
    <line x1="649.9935" x2="573.82" y1="392.4409" y2="392.4409"/>
    <line x1="575.5328" x2="648.2808" y1="394.3307" y2="394.3307"/>
    <line x1="646.2713" x2="577.5423" y1="396.2205" y2="396.2205"/>
    <line x1="579.6367" x2="644.1768" y1="398.1102" y2="398.1102"/>
    <line x1="641.6288" x2="582.1847" y1="400.0" y2="400.0"/>
    <line x1="585.0014" x2="638.8121" y1="401.8898" y2="401.8898"/>
    <line x1="635.5884" x2="588.2251" y1="403.7795" y2="403.7795"/>
    <line x1="592.2207" x2="631.5929" y1="405.6693" y2="405.6693"/>
    <line x1="626.2331" x2="597.5804" y1="407.5591" y2="407.5591"/>
    <line x1="608.0799" x2="615.7337" y1="409.4488" y2="409.4488"/>
    <line x1="609.4175" x2="684.0945" y1="427.7165" y2="427.7165"/>
    <line x1="667.3868" x2="634.41" y1="439.0551" y2="439.0551"/>
    <line x1="684.0945" x2="109.6063" y1="478.1102" y2="478.1102"/>
    <line x1="109.6063" x2="154.1343" y1="485.6693" y2="485.6693"/>
    <line x1="109.6063" x2="684.0945" y1="583.937" y2="583.937"/>
    <line x1="684.0945" x2="508.2779" y1="582.6772" y2="582.6772"/>
    <line x1="506.4572" x2="684.0945" y1="578.8976" y2="578.8976"/>
    <line x1="684.0945" x2="630.5756" y1="586.4567" y2="586.4567"/>
    <line x1="629.7423" x2="510.5432" y1="586.4567" y2="586.4567"/>
    <line x1="513.0791" x2="627.2064" y1="590.2362" y2="590.2362"/>
    <line x1="630.3899" x2="684.0945" y1="590.2362" y2="590.2362"/>
    <line x1="684.0945" x2="192.7171" y1="591.4961" y2="591.4961"/>
    <line x1="201.1013" x2="290.6874" y1="636.8504" y2="636.8504"/>
    <line x1="297.7241" x2="684.0945" y1="636.8504" y2="636.8504"/>
    <line x1="684.0945" x2="596.6509" y1="645.6693" y2="645.6693"/>
    <line x1="597.1243" x2="684.0945" y1="647.5591" y2="647.5591"/>
    <line x1="684.0945" x2="597.5976" y1="649.4488" y2="649.4488"/>
    <line x1="598.2694" x2="684.0945" y1="651.3386" y2="651.3386"/>
    <line x1="684.0945" x2="277.8597" y1="651.9685" y2="651.9685"/>
    <line x1="274.4727" x2="217.3161" y1="651.9685" y2="651.9685"/>
    <line x1="270.3356" x2="387.4163" y1="667.0866" y2="667.0866"/>
    <line x1="387.4014" x2="386.3165" y1="662.0472" y2="662.0472"/>
    <line x1="386.945" x2="378.9468" y1="658.2677" y2="658.2677"/>
    <line x1="373.0876" x2="386.0961" y1="654.4882" y2="654.4882"/>
    <line x1="384.8289" x2="368.187" y1="650.7087" y2="650.7087"/>
    <line x1="364.0169" x2="383.1015" y1="646.9291" y2="646.9291"/>
    <line x1="380.7833" x2="360.5209" y1="643.1496" y2="643.1496"/>
    <line x1="357.3847" x2="377.7732" y1="639.3701" y2="639.3701"/>
    <line x1="373.8994" x2="354.5816" y1="635.5906" y2="635.5906"/>
    <line x1="352.2642" x2="368.4328" y1="631.811" y2="631.811"/>
    <line x1="359.1968" x2="350.1115" y1="628.0315" y2="628.0315"/>
    <line x1="347.1952" x2="684.0945" y1="621.7323" y2="621.7323"/>
    <line x1="684.0945" x2="597.1185" y1="621.1024" y2="621.1024"/>
    <line x1="595.7241" x2="531.551" y1="620.4724" y2="620.4724"/>
    <line x1="532.3477" x2="594.9274" y1="616.6929" y2="616.6929"/>
    <line x1="596.6451" x2="684.0945" y1="622.9921" y2="622.9921"/>
    <line x1="683.6561" x2="611.58" y1="596.5354" y2="596.5354"/>
    <line x1="613.665" x2="681.571" y1="594.6457" y2="594.6457"/>
    <line x1="684.0945" x2="630.5752" y1="594.0157" y2="594.0157"/>
    <line x1="624.3807" x2="515.9048" y1="594.0157" y2="594.0157"/>
    <line x1="519.3304" x2="620.9551" y1="597.7953" y2="597.7953"/>
    <line x1="617.0208" x2="523.2647" y1="601.5748" y2="601.5748"/>
    <line x1="527.8581" x2="612.4274" y1="605.3543" y2="605.3543"/>
    <line x1="616.0356" x2="679.2005" y1="592.7559" y2="592.7559"/>
    <line x1="676.6524" x2="618.5837" y1="590.8661" y2="590.8661"/>
    <line x1="621.7365" x2="673.4995" y1="588.9764" y2="588.9764"/>
    <line x1="669.837" x2="625.3991" y1="587.0866" y2="587.0866"/>
    <line x1="629.9662" x2="665.2699" y1="585.1969" y2="585.1969"/>
    <line x1="658.7887" x2="636.4474" y1="583.3071" y2="583.3071"/>
    <line x1="647.2515" x2="684.0945" y1="552.4409" y2="552.4409"/>
    <line x1="684.0945" x2="651.9528" y1="548.6614" y2="548.6614"/>
    <line x1="684.0945" x2="375.0507" y1="500.7874" y2="500.7874"/>
    <line x1="342.7629" x2="303.6223" y1="531.0236" y2="531.0236"/>
    <line x1="351.7962" x2="365.2402" y1="556.2205" y2="556.2205"/>
    <line x1="366.3937" x2="349.7421" y1="560.0" y2="560.0"/>
    <line x1="347.9545" x2="367.1993" y1="563.7795" y2="563.7795"/>
    <line x1="367.6781" x2="346.465" y1="567.5591" y2="567.5591"/>
    <line x1="345.1127" x2="367.8415" y1="571.3386" y2="571.3386"/>
    <line x1="367.6558" x2="344.1068" y1="575.1181" y2="575.1181"/>
    <line x1="343.1601" x2="367.1319" y1="578.8976" y2="578.8976"/>
    <line x1="366.2798" x2="342.5872" y1="582.6772" y2="582.6772"/>
    <line x1="342.0435" x2="365.0776" y1="586.4567" y2="586.4567"/>
    <line x1="363.491" x2="341.8578" y1="590.2362" y2="590.2362"/>
    <line x1="341.7105" x2="361.4693" y1="594.0157" y2="594.0157"/>
    <line x1="358.9376" x2="341.8962" y1="597.7953" y2="597.7953"/>
    <line x1="342.1424" x2="355.7834" y1="601.5748" y2="601.5748"/>
    <line x1="351.8332" x2="342.703" y1="605.3543" y2="605.3543"/>
    <line x1="343.3557" x2="346.5211" y1="609.1339" y2="609.1339"/>
    <line x1="336.687" x2="321.3402" y1="639.3701" y2="639.3701"/>
    <line x1="318.33" x2="342.4264" y1="643.1496" y2="643.1496"/>
    <line x1="346.8209" x2="316.0118" y1="646.9291" y2="646.9291"/>
    <line x1="314.2844" x2="350.2339" y1="650.7087" y2="650.7087"/>
    <line x1="352.9755" x2="313.0172" y1="654.4882" y2="654.4882"/>
    <line x1="312.1683" x2="355.1974" y1="658.2677" y2="658.2677"/>
    <line x1="356.9796" x2="311.7119" y1="662.0472" y2="662.0472"/>
    <line x1="311.6351" x2="358.3319" y1="665.8268" y2="665.8268"/>
    <line x1="359.3236" x2="311.9364" y1="669.6063" y2="669.6063"/>
    <line x1="312.6255" x2="359.9877" y1="673.3858" y2="673.3858"/>
    <line x1="360.3414" x2="313.7249" y1="677.1654" y2="677.1654"/>
    <line x1="315.2723" x2="360.3932" y1="680.9449" y2="680.9449"/>
    <line x1="360.1442" x2="317.3258" y1="684.7244" y2="684.7244"/>
    <line x1="319.9734" x2="359.5836" y1="688.5039" y2="688.5039"/>
    <line x1="358.6412" x2="323.4886" y1="692.2835" y2="692.2835"/>
    <line x1="328.1459" x2="357.3572" y1="696.063" y2="696.063"/>
    <line x1="355.6966" x2="335.1313" y1="699.8425" y2="699.8425"/>
    <line x1="333.4496" x2="347.2426" y1="715.5906" y2="715.5906"/>
    <line x1="346.5953" x2="282.4327" y1="712.4409" y2="712.4409"/>
    <line x1="272.1397" x2="368.9397" y1="697.3228" y2="697.3228"/>
    <line x1="383.2452" x2="268.6967" y1="682.2047" y2="682.2047"/>
    <line x1="302.8137" x2="377.8785" y1="726.9291" y2="726.9291"/>
    <line x1="380.4266" x2="300.2657" y1="728.8189" y2="728.8189"/>
    <line x1="297.8335" x2="382.8588" y1="730.7087" y2="730.7087"/>
    <line x1="384.9438" x2="295.7485" y1="732.5984" y2="732.5984"/>
    <line x1="293.6634" x2="387.0288" y1="734.4882" y2="734.4882"/>
    <line x1="388.7633" x2="291.929" y1="736.378" y2="736.378"/>
    <line x1="290.2162" x2="390.476" y1="738.2677" y2="738.2677"/>
    <line x1="392.0659" x2="288.6264" y1="740.1575" y2="740.1575"/>
    <line x1="287.2249" x2="393.4674" y1="742.0472" y2="742.0472"/>
    <line x1="394.869" x2="285.8233" y1="743.937" y2="743.937"/>
    <line x1="284.5923" x2="396.1" y1="745.8268" y2="745.8268"/>
    <line x1="397.2327" x2="283.4596" y1="747.7165" y2="747.7165"/>
    <line x1="282.3269" x2="398.3654" y1="749.6063" y2="749.6063"/>
    <line x1="399.3342" x2="281.3581" y1="751.4961" y2="751.4961"/>
    <line x1="280.4643" x2="400.228" y1="753.3858" y2="753.3858"/>
    <line x1="401.1218" x2="279.5705" y1="755.2756" y2="755.2756"/>
    <line x1="278.8027" x2="401.8896" y1="757.1654" y2="757.1654"/>
    <line x1="402.5658" x2="278.1265" y1="759.0551" y2="759.0551"/>
    <line x1="277.4503" x2="403.2419" y1="760.9449" y2="760.9449"/>
    <line x1="403.8487" x2="276.8436" y1="762.8346" y2="762.8346"/>
    <line x1="276.3702" x2="404.3221" y1="764.7244" y2="764.7244"/>
    <line x1="404.7954" x2="275.8969" y1="766.6142" y2="766.6142"/>
    <line x1="275.4251" x2="405.2672" y1="768.5039" y2="768.5039"/>
    <line x1="405.5475" x2="275.1448" y1="770.3937" y2="770.3937"/>
    <line x1="274.8644" x2="405.8279" y1="772.2835" y2="772.2835"/>
    <line x1="406.1082" x2="274.5841" y1="774.1732" y2="774.1732"/>
    <line x1="274.4178" x2="406.2745" y1="776.063" y2="776.063"/>
    <line x1="406.3673" x2="274.3249" y1="777.9528" y2="777.9528"/>
    <line x1="274.2321" x2="406.4602" y1="779.8425" y2="779.8425"/>
    <line x1="406.5206" x2="274.1717" y1="781.7323" y2="781.7323"/>
    <line x1="274.2646" x2="406.4277" y1="783.622" y2="783.622"/>
    <line x1="406.3349" x2="274.3574" y1="785.5118" y2="785.5118"/>
    <line x1="274.4502" x2="406.242" y1="787.4016" y2="787.4016"/>
    <line x1="405.0051" x2="684.0945" y1="788.0315" y2="788.0315"/>
    <line x1="684.0945" x2="109.6063" y1="780.4724" y2="780.4724"/>
    <line x1="109.6063" x2="176.5168" y1="788.0315" y2="788.0315"/>
    <line x1="178.4866" x2="109.6063" y1="772.9134" y2="772.9134"/>
    <line x1="109.6063" x2="684.0945" y1="765.3543" y2="765.3543"/>
    <line x1="684.0945" x2="401.4479" y1="772.9134" y2="772.9134"/>
    <line x1="399.0157" x2="684.0945" y1="757.7953" y2="757.7953"/>
    <line x1="684.0945" x2="109.6063" y1="750.2362" y2="750.2362"/>
    <line x1="109.6063" x2="171.5179" y1="742.6772" y2="742.6772"/>
    <line x1="176.8843" x2="109.6063" y1="757.7953" y2="757.7953"/>
    <line x1="109.6063" x2="684.0945" y1="735.1181" y2="735.1181"/>
    <line x1="684.0945" x2="406.5919" y1="727.5591" y2="727.5591"/>
    <line x1="408.4366" x2="684.0945" y1="712.4409" y2="712.4409"/>
    <line x1="684.0945" x2="109.6063" y1="720.0" y2="720.0"/>
    <line x1="109.6063" x2="140.7416" y1="712.4409" y2="712.4409"/>
    <line x1="161.1384" x2="109.6063" y1="727.5591" y2="727.5591"/>
    <line x1="109.6063" x2="684.0945" y1="704.8819" y2="704.8819"/>
    <line x1="684.0945" x2="407.8949" y1="697.3228" y2="697.3228"/>
    <line x1="403.9349" x2="684.0945" y1="682.2047" y2="682.2047"/>
    <line x1="684.0945" x2="109.6063" y1="674.6457" y2="674.6457"/>
    <line x1="109.6063" x2="684.0945" y1="659.5276" y2="659.5276"/>
    <line x1="684.0945" x2="601.5015" y1="658.8976" y2="658.8976"/>
    <line x1="600.6077" x2="684.0945" y1="657.0079" y2="657.0079"/>
    <line x1="684.0945" x2="599.7139" y1="655.1181" y2="655.1181"/>
    <line x1="598.9456" x2="684.0945" y1="653.2283" y2="653.2283"/>
    <line x1="684.0945" x2="602.6269" y1="660.7874" y2="660.7874"/>
    <line x1="603.7596" x2="684.0945" y1="662.6772" y2="662.6772"/>
    <line x1="684.0945" x2="605.0649" y1="664.5669" y2="664.5669"/>
    <line x1="606.4665" x2="684.0945" y1="666.4567" y2="666.4567"/>
    <line x1="684.0945" x2="109.6063" y1="689.7638" y2="689.7638"/>
    <line x1="109.6063" x2="684.0945" y1="795.5906" y2="795.5906"/>
    <line x1="684.0945" x2="406.7412" y1="803.1496" y2="803.1496"/>
    <line x1="403.0055" x2="277.6868" y1="802.5197" y2="802.5197"/>
    <line x1="277.0106" x2="403.6817" y1="800.6299" y2="800.6299"/>
    <line x1="404.1565" x2="276.5358" y1="798.7402" y2="798.7402"/>
    <line x1="276.0624" x2="404.6299" y1="796.8504" y2="796.8504"/>
    <line x1="405.1032" x2="275.5891" y1="794.9606" y2="794.9606"/>
    <line x1="275.2428" x2="405.4495" y1="793.0709" y2="793.0709"/>
    <line x1="405.7298" x2="274.9625" y1="791.1811" y2="791.1811"/>
    <line x1="274.6821" x2="406.0101" y1="789.2913" y2="789.2913"/>
    <line x1="402.3293" x2="278.363" y1="804.4094" y2="804.4094"/>
    <line x1="279.0391" x2="401.6532" y1="806.2992" y2="806.2992"/>
    <line x1="400.8092" x2="279.8831" y1="808.189" y2="808.189"/>
    <line x1="280.7769" x2="399.9154" y1="810.0787" y2="810.0787"/>
    <line x1="399.0216" x2="281.6707" y1="811.9685" y2="811.9685"/>
    <line x1="282.723" x2="397.9692" y1="813.8583" y2="813.8583"/>
    <line x1="396.8366" x2="283.8557" y1="815.748" y2="815.748"/>
    <line x1="284.9884" x2="395.7039" y1="817.6378" y2="817.6378"/>
    <line x1="394.3788" x2="286.3135" y1="819.5276" y2="819.5276"/>
    <line x1="287.715" x2="392.9773" y1="821.4173" y2="821.4173"/>
    <line x1="391.5757" x2="289.1165" y1="823.3071" y2="823.3071"/>
    <line x1="290.8152" x2="389.8771" y1="825.1969" y2="825.1969"/>
    <line x1="388.1643" x2="292.528" y1="827.0866" y2="827.0866"/>
    <line x1="294.3926" x2="386.2997" y1="828.9764" y2="828.9764"/>
    <line x1="384.2147" x2="296.4776" y1="830.8661" y2="830.8661"/>
    <line x1="298.6087" x2="382.0836" y1="832.7559" y2="832.7559"/>
    <line x1="379.5355" x2="301.1568" y1="834.6457" y2="834.6457"/>
    <line x1="303.7362" x2="376.9561" y1="836.5354" y2="836.5354"/>
    <line x1="373.8032" x2="306.8891" y1="838.4252" y2="838.4252"/>
    <line x1="310.282" x2="370.4103" y1="840.315" y2="840.315"/>
    <line x1="366.4148" x2="314.2775" y1="842.2047" y2="842.2047"/>
    <line x1="319.3214" x2="361.3709" y1="844.0945" y2="844.0945"/>
    <line x1="354.6023" x2="326.09" y1="845.9843" y2="845.9843"/>
    <line x1="302.1975" x2="256.2839" y1="878.7402" y2="878.7402"/>
    <line x1="250.2798" x2="308.2017" y1="893.8583" y2="893.8583"/>
    <line x1="305.5172" x2="252.9642" y1="908.9764" y2="908.9764"/>
    <line x1="237.5955" x2="161.9049" y1="908.9764" y2="908.9764"/>
    <line x1="157.3079" x2="242.1925" y1="924.0945" y2="924.0945"/>
    <line x1="241.1135" x2="158.3869" y1="939.2126" y2="939.2126"/>
    <line x1="165.6028" x2="233.8976" y1="954.3307" y2="954.3307"/>
    <line x1="212.6508" x2="186.8496" y1="969.4488" y2="969.4488"/>
    <line x1="175.1727" x2="224.3277" y1="893.8583" y2="893.8583"/>
    <line x1="269.9159" x2="288.5656" y1="924.0945" y2="924.0945"/>
    <line x1="384.4822" x2="684.0945" y1="908.9764" y2="908.9764"/>
    <line x1="684.0945" x2="109.6063" y1="901.4173" y2="901.4173"/>
    <line x1="109.6063" x2="684.0945" y1="886.2992" y2="886.2992"/>
    <line x1="684.0945" x2="384.9191" y1="893.8583" y2="893.8583"/>
    <line x1="388.709" x2="684.0945" y1="878.7402" y2="878.7402"/>
    <line x1="684.0945" x2="109.6063" y1="871.1811" y2="871.1811"/>
    <line x1="109.6063" x2="146.2342" y1="863.622" y2="863.622"/>
    <line x1="151.6144" x2="109.6063" y1="848.5039" y2="848.5039"/>
    <line x1="109.6063" x2="684.0945" y1="856.063" y2="856.063"/>
    <line x1="684.0945" x2="394.4195" y1="848.5039" y2="848.5039"/>
    <line x1="391.9643" x2="684.0945" y1="863.622" y2="863.622"/>
    <line x1="684.0945" x2="109.6063" y1="840.9449" y2="840.9449"/>
    <line x1="109.6063" x2="130.2193" y1="835.9055" y2="835.9055"/>
    <line x1="140.3025" x2="109.6063" y1="832.126" y2="832.126"/>
    <line x1="109.6063" x2="147.9365" y1="833.3858" y2="833.3858"/>
    <line x1="144.1965" x2="109.6063" y1="828.3465" y2="828.3465"/>
    <line x1="109.6063" x2="684.0945" y1="825.8268" y2="825.8268"/>
    <line x1="684.0945" x2="403.6614" y1="818.2677" y2="818.2677"/>
    <line x1="399.7004" x2="684.0945" y1="833.3858" y2="833.3858"/>
    <line x1="684.0945" x2="109.6063" y1="810.7087" y2="810.7087"/>
    <line x1="109.6063" x2="170.8239" y1="803.1496" y2="803.1496"/>
    <line x1="159.8083" x2="109.6063" y1="818.2677" y2="818.2677"/>
    <line x1="109.6063" x2="139.8447" y1="824.5669" y2="824.5669"/>
    <line x1="132.1199" x2="115.9746" y1="820.7874" y2="820.7874"/>
    <line x1="109.6063" x2="684.0945" y1="916.5354" y2="916.5354"/>
    <line x1="684.0945" x2="386.3287" y1="924.0945" y2="924.0945"/>
    <line x1="389.3117" x2="684.0945" y1="939.2126" y2="939.2126"/>
    <line x1="684.0945" x2="577.0696" y1="938.5827" y2="938.5827"/>
    <line x1="576.1703" x2="684.0945" y1="940.4724" y2="940.4724"/>
    <line x1="684.0945" x2="575.2765" y1="942.3622" y2="942.3622"/>
    <line x1="574.3946" x2="684.0945" y1="944.252" y2="944.252"/>
    <line x1="684.0945" x2="573.7184" y1="946.1417" y2="946.1417"/>
    <line x1="573.0422" x2="684.0945" y1="948.0315" y2="948.0315"/>
    <line x1="684.0945" x2="109.6063" y1="946.7717" y2="946.7717"/>
    <line x1="109.6063" x2="684.0945" y1="931.6535" y2="931.6535"/>
    <line x1="683.3646" x2="580.5349" y1="932.9134" y2="932.9134"/>
    <line x1="579.335" x2="684.0945" y1="934.8031" y2="934.8031"/>
    <line x1="684.0945" x2="578.2023" y1="936.6929" y2="936.6929"/>
    <line x1="581.9364" x2="681.963" y1="931.0236" y2="931.0236"/>
    <line x1="680.5615" x2="583.338" y1="929.1339" y2="929.1339"/>
    <line x1="584.9428" x2="678.9566" y1="927.2441" y2="927.2441"/>
    <line x1="677.2439" x2="586.6556" y1="925.3543" y2="925.3543"/>
    <line x1="588.4643" x2="675.4352" y1="923.4646" y2="923.4646"/>
    <line x1="673.3501" x2="590.5493" y1="921.5748" y2="921.5748"/>
    <line x1="592.6744" x2="671.225" y1="919.685" y2="919.685"/>
    <line x1="668.677" x2="595.2225" y1="917.7953" y2="917.7953"/>
    <line x1="597.8677" x2="666.0318" y1="915.9055" y2="915.9055"/>
    <line x1="662.8789" x2="601.0206" y1="914.0157" y2="914.0157"/>
    <line x1="604.5935" x2="659.3059" y1="912.126" y2="912.126"/>
    <line x1="655.1609" x2="608.7385" y1="910.2362" y2="910.2362"/>
    <line x1="614.0812" x2="649.8182" y1="908.3465" y2="908.3465"/>
    <line x1="641.0194" x2="622.8801" y1="906.4567" y2="906.4567"/>
    <line x1="567.3074" x2="473.7442" y1="898.8976" y2="898.8976"/>
    <line x1="473.5462" x2="567.5053" y1="897.0079" y2="897.0079"/>
    <line x1="567.5981" x2="473.4534" y1="895.1181" y2="895.1181"/>
    <line x1="473.3605" x2="567.691" y1="893.2283" y2="893.2283"/>
    <line x1="567.5994" x2="473.4521" y1="891.3386" y2="891.3386"/>
    <line x1="473.5449" x2="567.5066" y1="889.4488" y2="889.4488"/>
    <line x1="567.3113" x2="473.7403" y1="887.5591" y2="887.5591"/>
    <line x1="474.0206" x2="567.031" y1="885.6693" y2="885.6693"/>
    <line x1="566.7267" x2="474.3248" y1="883.7795" y2="883.7795"/>
    <line x1="474.7982" x2="566.2534" y1="881.8898" y2="881.8898"/>
    <line x1="565.78" x2="475.2715" y1="880.0" y2="880.0"/>
    <line x1="475.8966" x2="565.155" y1="878.1102" y2="878.1102"/>
    <line x1="564.4788" x2="476.5727" y1="876.2205" y2="876.2205"/>
    <line x1="477.3451" x2="563.7065" y1="874.3307" y2="874.3307"/>
    <line x1="562.8127" x2="478.2388" y1="872.4409" y2="872.4409"/>
    <line x1="479.187" x2="561.8645" y1="870.5512" y2="870.5512"/>
    <line x1="560.7318" x2="480.3197" y1="868.6614" y2="868.6614"/>
    <line x1="481.4865" x2="559.5651" y1="866.7717" y2="866.7717"/>
    <line x1="558.1635" x2="482.888" y1="864.8819" y2="864.8819"/>
    <line x1="484.3392" x2="556.7124" y1="862.9921" y2="862.9921"/>
    <line x1="554.9996" x2="486.052" y1="861.1024" y2="861.1024"/>
    <line x1="487.893" x2="553.1585" y1="859.2126" y2="859.2126"/>
    <line x1="551.0735" x2="489.9781" y1="857.3228" y2="857.3228"/>
    <line x1="492.3871" x2="548.6644" y1="855.4331" y2="855.4331"/>
    <line x1="545.9708" x2="495.0808" y1="853.5433" y2="853.5433"/>
    <line x1="498.2336" x2="542.8179" y1="851.6535" y2="851.6535"/>
    <line x1="538.8379" x2="502.2136" y1="849.7638" y2="849.7638"/>
    <line x1="507.6576" x2="533.3939" y1="847.874" y2="847.874"/>
    <line x1="542.3183" x2="590.8371" y1="832.126" y2="832.126"/>
    <line x1="595.3501" x2="537.8052" y1="828.3465" y2="828.3465"/>
    <line x1="534.3867" x2="598.7686" y1="824.5669" y2="824.5669"/>
    <line x1="601.4328" x2="531.7226" y1="820.7874" y2="820.7874"/>
    <line x1="529.6199" x2="603.5354" y1="817.0079" y2="817.0079"/>
    <line x1="605.1607" x2="527.9947" y1="813.2283" y2="813.2283"/>
    <line x1="526.7906" x2="606.3648" y1="809.4488" y2="809.4488"/>
    <line x1="620.3708" x2="525.9702" y1="805.6693" y2="805.6693"/>
    <line x1="525.5104" x2="632.6706" y1="801.8898" y2="801.8898"/>
    <line x1="640.2713" x2="525.3989" y1="798.1102" y2="798.1102"/>
    <line x1="525.6337" x2="646.2115" y1="794.3307" y2="794.3307"/>
    <line x1="651.099" x2="526.2223" y1="790.5512" y2="790.5512"/>
    <line x1="527.1829" x2="655.2608" y1="786.7717" y2="786.7717"/>
    <line x1="658.6864" x2="528.5469" y1="782.9921" y2="782.9921"/>
    <line x1="530.3628" x2="661.6939" y1="779.2126" y2="779.2126"/>
    <line x1="664.3789" x2="532.7042" y1="775.4331" y2="775.4331"/>
    <line x1="535.6827" x2="666.6443" y1="771.6535" y2="771.6535"/>
    <line x1="668.5901" x2="539.4722" y1="767.874" y2="767.874"/>
    <line x1="541.6147" x2="670.3626" y1="764.0945" y2="764.0945"/>
    <line x1="671.7149" x2="540.2624" y1="760.315" y2="760.315"/>
    <line x1="539.0449" x2="672.9324" y1="756.5354" y2="756.5354"/>
    <line x1="673.8792" x2="538.0981" y1="752.7559" y2="752.7559"/>
    <line x1="537.3748" x2="674.6025" y1="748.9764" y2="748.9764"/>
    <line x1="675.1631" x2="536.8142" y1="745.1969" y2="745.1969"/>
    <line x1="536.5499" x2="675.4274" y1="741.4173" y2="741.4173"/>
    <line x1="675.6131" x2="536.3642" y1="737.6378" y2="737.6378"/>
    <line x1="536.5442" x2="675.4331" y1="733.8583" y2="733.8583"/>
    <line x1="675.1803" x2="536.797" y1="730.0787" y2="730.0787"/>
    <line x1="537.3577" x2="674.6196" y1="726.2992" y2="726.2992"/>
    <line x1="673.9081" x2="538.0692" y1="722.5197" y2="722.5197"/>
    <line x1="539.0159" x2="672.9614" y1="718.7402" y2="718.7402"/>
    <line x1="671.7563" x2="540.221" y1="714.9606" y2="714.9606"/>
    <line x1="541.5733" x2="670.404" y1="711.1811" y2="711.1811"/>
    <line x1="668.6448" x2="543.3325" y1="707.4016" y2="707.4016"/>
    <line x1="545.2637" x2="666.7136" y1="703.622" y2="703.622"/>
    <line x1="664.4482" x2="547.5291" y1="699.8425" y2="699.8425"/>
    <line x1="550.1976" x2="661.7797" y1="696.063" y2="696.063"/>
    <line x1="658.7912" x2="553.1861" y1="692.2835" y2="692.2835"/>
    <line x1="571.5129" x2="640.4644" y1="677.1654" y2="677.1654"/>
    <line x1="632.9152" x2="579.0621" y1="673.3858" y2="673.3858"/>
    <line x1="591.1446" x2="620.8327" y1="669.6063" y2="669.6063"/>
    <line x1="684.0945" x2="400.9151" y1="742.6772" y2="742.6772"/>
    <line x1="386.7975" x2="339.1675" y1="742.6772" y2="742.6772"/>
    <line x1="336.1201" x2="389.845" y1="757.7953" y2="757.7953"/>
    <line x1="383.442" x2="342.5231" y1="772.9134" y2="772.9134"/>
    <line x1="357.2407" x2="323.4516" y1="717.4803" y2="717.4803"/>
    <line x1="317.4744" x2="363.2179" y1="719.3701" y2="719.3701"/>
    <line x1="367.812" x2="312.8802" y1="721.2598" y2="721.2598"/>
    <line x1="308.9394" x2="371.7529" y1="723.1496" y2="723.1496"/>
    <line x1="374.9058" x2="305.7865" y1="725.0394" y2="725.0394"/>
    <line x1="325.2139" x2="327.7535" y1="635.5906" y2="635.5906"/>
    <line x1="354.0615" x2="363.7059" y1="552.4409" y2="552.4409"/>
    <line x1="361.7417" x2="356.8055" y1="548.6614" y2="548.6614"/>
    <line x1="401.0039" x2="449.7593" y1="363.4646" y2="363.4646"/>
    <line x1="458.4621" x2="401.0633" y1="359.685" y2="359.685"/>
    <line x1="401.189" x2="464.905" y1="355.9055" y2="355.9055"/>
    <line x1="481.4552" x2="401.8198" y1="340.7874" y2="340.7874"/>
    <line x1="401.8738" x2="684.0945" y1="321.8898" y2="321.8898"/>
    <line x1="684.0945" x2="356.6106" y1="319.3701" y2="319.3701"/>
    <line x1="392.9257" x2="496.4532" y1="306.7717" y2="306.7717"/>
    <line x1="499.0028" x2="605.0405" y1="306.7717" y2="306.7717"/>
    <line x1="608.0757" x2="496.727" y1="310.5512" y2="310.5512"/>
    <line x1="495.7947" x2="394.2382" y1="310.5512" y2="310.5512"/>
    <line x1="396.2867" x2="684.0945" y1="314.3307" y2="314.3307"/>
    <line x1="684.0945" x2="399.3672" y1="318.1102" y2="318.1102"/>
    <line x1="392.2148" x2="497.0138" y1="302.9921" y2="302.9921"/>
    <line x1="499.4515" x2="601.5919" y1="302.9921" y2="302.9921"/>
    <line x1="597.4218" x2="500.1814" y1="299.2126" y2="299.2126"/>
    <line x1="497.2426" x2="392.1305" y1="299.2126" y2="299.2126"/>
    <line x1="392.5654" x2="497.4264" y1="295.4331" y2="295.4331"/>
    <line x1="501.209" x2="594.8013" y1="295.4331" y2="295.4331"/>
    <line x1="593.449" x2="502.5614" y1="291.6535" y2="291.6535"/>
    <line x1="504.3477" x2="591.6627" y1="287.874" y2="287.874"/>
    <line x1="589.4725" x2="506.5379" y1="284.0945" y2="284.0945"/>
    <line x1="509.2051" x2="595.0613" y1="280.315" y2="280.315"/>
    <line x1="599.5851" x2="512.4573" y1="276.5354" y2="276.5354"/>
    <line x1="516.4601" x2="602.8898" y1="272.7559" y2="272.7559"/>
    <line x1="605.4481" x2="521.6698" y1="268.9764" y2="268.9764"/>
    <line x1="528.8189" x2="607.4183" y1="265.1969" y2="265.1969"/>
    <line x1="608.8858" x2="537.4288" y1="261.4173" y2="261.4173"/>
    <line x1="536.4075" x2="609.9071" y1="257.6378" y2="257.6378"/>
    <line x1="610.5182" x2="535.7964" y1="253.8583" y2="253.8583"/>
    <line x1="535.5746" x2="610.74" y1="250.0787" y2="250.0787"/>
    <line x1="610.5808" x2="535.7338" y1="246.2992" y2="246.2992"/>
    <line x1="536.2771" x2="610.0375" y1="242.5197" y2="242.5197"/>
    <line x1="609.0787" x2="537.2359" y1="238.7402" y2="238.7402"/>
    <line x1="538.6414" x2="607.6733" y1="234.9606" y2="234.9606"/>
    <line x1="605.7712" x2="540.5434" y1="231.1811" y2="231.1811"/>
    <line x1="543.0251" x2="603.2895" y1="227.4016" y2="227.4016"/>
    <line x1="600.1016" x2="546.213" y1="223.622" y2="223.622"/>
    <line x1="545.1373" x2="492.8029" y1="218.5827" y2="218.5827"/>
    <line x1="489.9409" x2="547.9994" y1="216.6929" y2="216.6929"/>
    <line x1="550.5474" x2="487.3928" y1="214.8031" y2="214.8031"/>
    <line x1="485.2766" x2="552.6636" y1="212.9134" y2="212.9134"/>
    <line x1="554.6789" x2="483.2613" y1="211.0236" y2="211.0236"/>
    <line x1="481.5486" x2="556.3917" y1="209.1339" y2="209.1339"/>
    <line x1="558.023" x2="479.9172" y1="207.2441" y2="207.2441"/>
    <line x1="478.5157" x2="559.4246" y1="205.3543" y2="205.3543"/>
    <line x1="560.7792" x2="477.161" y1="203.4646" y2="203.4646"/>
    <line x1="476.0283" x2="561.9119" y1="201.5748" y2="201.5748"/>
    <line x1="563.0446" x2="474.8956" y1="199.685" y2="199.685"/>
    <line x1="473.9888" x2="563.9515" y1="197.7953" y2="197.7953"/>
    <line x1="564.8453" x2="473.095" y1="195.9055" y2="195.9055"/>
    <line x1="472.3308" x2="565.6094" y1="194.0157" y2="194.0157"/>
    <line x1="566.2856" x2="471.6547" y1="192.126" y2="192.126"/>
    <line x1="471.0087" x2="566.9316" y1="190.2362" y2="190.2362"/>
    <line x1="567.4049" x2="470.5353" y1="188.3465" y2="188.3465"/>
    <line x1="470.062" x2="567.8783" y1="186.4567" y2="186.4567"/>
    <line x1="568.2305" x2="469.7098" y1="184.5669" y2="184.5669"/>
    <line x1="469.4295" x2="568.5108" y1="182.6772" y2="182.6772"/>
    <line x1="568.7804" x2="469.1598" y1="180.7874" y2="180.7874"/>
    <line x1="469.067" x2="568.8732" y1="178.8976" y2="178.8976"/>
    <line x1="568.9661" x2="468.9742" y1="177.0079" y2="177.0079"/>
    <line x1="468.967" x2="568.9733" y1="175.1181" y2="175.1181"/>
    <line x1="568.8804" x2="469.0598" y1="173.2283" y2="173.2283"/>
    <line x1="469.1527" x2="568.7876" y1="171.3386" y2="171.3386"/>
    <line x1="568.5325" x2="469.4078" y1="169.4488" y2="169.4488"/>
    <line x1="469.6881" x2="568.2522" y1="167.5591" y2="167.5591"/>
    <line x1="567.9149" x2="470.0253" y1="165.6693" y2="165.6693"/>
    <line x1="470.4987" x2="567.4416" y1="163.7795" y2="163.7795"/>
    <line x1="566.9682" x2="470.9721" y1="161.8898" y2="161.8898"/>
    <line x1="471.6023" x2="566.3379" y1="160.0" y2="160.0"/>
    <line x1="565.6617" x2="472.2785" y1="158.1102" y2="158.1102"/>
    <line x1="473.0258" x2="564.9144" y1="156.2205" y2="156.2205"/>
    <line x1="564.0207" x2="473.9196" y1="154.3307" y2="154.3307"/>
    <line x1="474.8134" x2="563.1269" y1="152.4409" y2="152.4409"/>
    <line x1="561.9996" x2="475.9407" y1="150.5512" y2="150.5512"/>
    <line x1="477.0734" x2="560.8669" y1="148.6614" y2="148.6614"/>
    <line x1="559.533" x2="478.4073" y1="146.7717" y2="146.7717"/>
    <line x1="479.8088" x2="558.1315" y1="144.8819" y2="144.8819"/>
    <line x1="556.5242" x2="481.416" y1="142.9921" y2="142.9921"/>
    <line x1="483.1288" x2="554.8114" y1="141.1024" y2="141.1024"/>
    <line x1="552.825" x2="485.1153" y1="139.2126" y2="139.2126"/>
    <line x1="487.2003" x2="550.7399" y1="137.3228" y2="137.3228"/>
    <line x1="548.1965" x2="489.7437" y1="135.4331" y2="135.4331"/>
    <line x1="492.559" x2="545.3813" y1="133.5433" y2="133.5433"/>
    <line x1="542.1393" x2="495.8009" y1="131.6535" y2="131.6535"/>
    <line x1="499.7965" x2="538.1438" y1="129.7638" y2="129.7638"/>
    <line x1="532.6" x2="505.3403" y1="127.874" y2="127.874"/>
    <line x1="518.1491" x2="519.7911" y1="125.9843" y2="125.9843"/>
    <line x1="541.8302" x2="496.1101" y1="220.4724" y2="220.4724"/>
    <line x1="500.1981" x2="537.7422" y1="222.3622" y2="222.3622"/>
    <line x1="532.0163" x2="505.924" y1="224.252" y2="224.252"/>
    <line x1="511.728" x2="553.6269" y1="245.0394" y2="245.0394"/>
    <line x1="557.4953" x2="507.8596" y1="246.9291" y2="246.9291"/>
    <line x1="504.7067" x2="560.6482" y1="248.8189" y2="248.8189"/>
    <line x1="563.334" x2="502.0209" y1="250.7087" y2="250.7087"/>
    <line x1="499.5538" x2="565.8011" y1="252.5984" y2="252.5984"/>
    <line x1="567.8861" x2="497.4688" y1="254.4882" y2="254.4882"/>
    <line x1="495.523" x2="569.8319" y1="256.378" y2="256.378"/>
    <line x1="571.5447" x2="493.8102" y1="258.2677" y2="258.2677"/>
    <line x1="492.2179" x2="573.137" y1="260.1575" y2="260.1575"/>
    <line x1="574.5385" x2="490.8163" y1="262.0472" y2="262.0472"/>
    <line x1="492.3614" x2="410.7652" y1="268.9764" y2="268.9764"/>
    <line x1="410.2879" x2="493.7137" y1="272.7559" y2="272.7559"/>
    <line x1="494.8381" x2="409.193" y1="276.5354" y2="276.5354"/>
    <line x1="402.0733" x2="495.7849" y1="280.315" y2="280.315"/>
    <line x1="496.4473" x2="398.0636" y1="284.0945" y2="284.0945"/>
    <line x1="395.4246" x2="497.008" y1="287.874" y2="287.874"/>
    <line x1="497.2407" x2="393.6636" y1="291.6535" y2="291.6535"/>
    <line x1="415.7908" x2="434.0967" y1="223.622" y2="223.622"/>
    <line x1="516.6271" x2="548.7278" y1="243.1496" y2="243.1496"/>
    <line x1="540.8707" x2="524.4841" y1="241.2598" y2="241.2598"/>
    <line x1="550.5265" x2="595.7881" y1="219.8425" y2="219.8425"/>
    <line x1="589.6333" x2="556.6813" y1="216.063" y2="216.063"/>
    <line x1="571.7295" x2="574.5851" y1="212.2835" y2="212.2835"/>
    <line x1="568.5932" x2="655.2203" y1="331.9685" y2="331.9685"/>
    <line x1="684.0945" x2="483.7014" y1="340.7874" y2="340.7874"/>
    <line x1="502.2863" x2="563.0686" y1="333.8583" y2="333.8583"/>
    <line x1="560.3198" x2="505.035" y1="335.748" y2="335.748"/>
    <line x1="508.1879" x2="557.1669" y1="337.6378" y2="337.6378"/>
    <line x1="553.2107" x2="512.1441" y1="339.5276" y2="339.5276"/>
    <line x1="517.1771" x2="548.1777" y1="341.4173" y2="341.4173"/>
    <line x1="539.5439" x2="525.8109" y1="343.3071" y2="343.3071"/>
    <line x1="434.3619" x2="415.5257" y1="367.2441" y2="367.2441"/>
    <line x1="548.6089" x2="584.5464" y1="835.9055" y2="835.9055"/>
    <line x1="571.9527" x2="561.2026" y1="839.685" y2="839.685"/>
    <line x1="567.0271" x2="474.0245" y1="900.7874" y2="900.7874"/>
    <line x1="474.3314" x2="566.7201" y1="902.6772" y2="902.6772"/>
    <line x1="566.2468" x2="474.8048" y1="904.5669" y2="904.5669"/>
    <line x1="475.2781" x2="565.7734" y1="906.4567" y2="906.4567"/>
    <line x1="565.1455" x2="475.906" y1="908.3465" y2="908.3465"/>
    <line x1="476.5822" x2="564.4694" y1="910.2362" y2="910.2362"/>
    <line x1="563.694" x2="477.3575" y1="912.126" y2="912.126"/>
    <line x1="478.2513" x2="562.8002" y1="914.0157" y2="914.0157"/>
    <line x1="561.8487" x2="479.2028" y1="915.9055" y2="915.9055"/>
    <line x1="480.3355" x2="560.7161" y1="917.7953" y2="917.7953"/>
    <line x1="559.5455" x2="481.506" y1="919.685" y2="919.685"/>
    <line x1="482.9075" x2="558.144" y1="921.5748" y2="921.5748"/>
    <line x1="556.6885" x2="484.3631" y1="923.4646" y2="923.4646"/>
    <line x1="486.0758" x2="554.9757" y1="925.3543" y2="925.3543"/>
    <line x1="553.1294" x2="487.9221" y1="927.2441" y2="927.2441"/>
    <line x1="490.0071" x2="551.0444" y1="929.1339" y2="929.1339"/>
    <line x1="548.6289" x2="492.4226" y1="931.0236" y2="931.0236"/>
    <line x1="495.1247" x2="545.9268" y1="932.9134" y2="932.9134"/>
    <line x1="542.774" x2="498.2776" y1="934.8031" y2="934.8031"/>
    <line x1="502.2693" x2="538.7822" y1="936.6929" y2="936.6929"/>
    <line x1="533.2888" x2="507.7627" y1="938.5827" y2="938.5827"/>
    <line x1="571.4214" x2="684.0945" y1="953.7008" y2="953.7008"/>
    <line x1="684.0945" x2="390.5156" y1="954.3307" y2="954.3307"/>
    <line x1="389.2456" x2="684.0945" y1="969.4488" y2="969.4488"/>
    <line x1="684.0945" x2="569.7337" y1="968.8189" y2="968.8189"/>
    <line x1="569.7435" x2="684.0945" y1="966.9291" y2="966.9291"/>
    <line x1="684.0945" x2="569.8364" y1="965.0394" y2="965.0394"/>
    <line x1="569.9292" x2="684.0945" y1="963.1496" y2="963.1496"/>
    <line x1="684.0945" x2="109.6063" y1="961.8898" y2="961.8898"/>
    <line x1="109.6063" x2="684.0945" y1="977.0079" y2="977.0079"/>
    <line x1="684.0945" x2="570.3334" y1="976.378" y2="976.378"/>
    <line x1="570.053" x2="684.0945" y1="974.4882" y2="974.4882"/>
    <line x1="684.0945" x2="569.9194" y1="972.5984" y2="972.5984"/>
    <line x1="569.8265" x2="684.0945" y1="970.7087" y2="970.7087"/>
    <line x1="684.0945" x2="570.6137" y1="978.2677" y2="978.2677"/>
    <line x1="570.8978" x2="684.0945" y1="980.1575" y2="980.1575"/>
    <line x1="684.0945" x2="571.3712" y1="982.0472" y2="982.0472"/>
    <line x1="571.8445" x2="684.0945" y1="983.937" y2="983.937"/>
    <line x1="684.0945" x2="390.2703" y1="984.5669" y2="984.5669"/>
    <line x1="390.6643" x2="684.0945" y1="999.685" y2="999.685"/>
    <line x1="684.0945" x2="578.0821" y1="999.0551" y2="999.0551"/>
    <line x1="576.9693" x2="684.0945" y1="997.1654" y2="997.1654"/>
    <line x1="684.0945" x2="576.0755" y1="995.2756" y2="995.2756"/>
    <line x1="575.1817" x2="684.0945" y1="993.3858" y2="993.3858"/>
    <line x1="684.0945" x2="109.6063" y1="992.126" y2="992.126"/>
    <line x1="109.6063" x2="684.0945" y1="1007.2441" y2="1007.2441"/>
    <line x1="682.1117" x2="581.7877" y1="1004.7244" y2="1004.7244"/>
    <line x1="580.3862" x2="683.5133" y1="1002.8346" y2="1002.8346"/>
    <line x1="684.0945" x2="579.2148" y1="1000.9449" y2="1000.9449"/>
    <line x1="583.1893" x2="680.7102" y1="1006.6142" y2="1006.6142"/>
    <line x1="684.0945" x2="574.3228" y1="991.4961" y2="991.4961"/>
    <line x1="573.6466" x2="684.0945" y1="989.6063" y2="989.6063"/>
    <line x1="684.0945" x2="572.9705" y1="987.7165" y2="987.7165"/>
    <line x1="572.3179" x2="684.0945" y1="985.8268" y2="985.8268"/>
    <line x1="684.0945" x2="570.0828" y1="961.2598" y2="961.2598"/>
    <line x1="570.3631" x2="684.0945" y1="959.3701" y2="959.3701"/>
    <line x1="684.0945" x2="570.6434" y1="957.4803" y2="957.4803"/>
    <line x1="570.948" x2="684.0945" y1="955.5906" y2="955.5906"/>
    <line x1="684.0945" x2="571.8948" y1="951.811" y2="951.811"/>
    <line x1="572.3681" x2="684.0945" y1="949.9213" y2="949.9213"/>
  </g>
</svg>
