<?xml version="1.0" encoding="utf-8" ?>
<svg xmlns="http://www.w3.org/2000/svg" xmlns:cc="http://creativecommons.org/ns#" xmlns:dc="http://purl.org/dc/elements/1.1/" xmlns:ev="http://www.w3.org/2001/xml-events" xmlns:inkscape="http://www.inkscape.org/namespaces/inkscape" xmlns:rdf="http://www.w3.org/1999/02/22-rdf-syntax-ns#" xmlns:sodipodi="http://sodipodi.sourceforge.net/DTD/sodipodi-0.dtd" xmlns:xlink="http://www.w3.org/1999/xlink" baseProfile="tiny" height="29.7cm" version="1.2" viewBox="0 0 793.7007874015749 1122.5196850393702" width="21.0cm">
  <metadata>
    <rdf:RDF>
      <cc:Work>
        <dc:format>image/svg+xml</dc:format>
        <dc:source/>
        <dc:date>2021-07-13T22:24:00.296609</dc:date>
      </cc:Work>
    </rdf:RDF>
  </metadata>
  <defs/>
  <g fill="none" id="layer1" inkscape:groupmode="layer" inkscape:label="1" stroke="#00f" style="display:inline">
    <line x1="737.0079" x2="56.6929" y1="47.2441" y2="47.2441"/>
    <line x1="56.6929" x2="737.0079" y1="62.3622" y2="62.3622"/>
    <line x1="737.0079" x2="436.125" y1="69.9213" y2="69.9213"/>
    <line x1="430.4361" x2="737.0079" y1="54.8031" y2="54.8031"/>
    <line x1="737.0079" x2="56.6929" y1="77.4803" y2="77.4803"/>
    <line x1="56.6929" x2="119.1084" y1="76.8504" y2="76.8504"/>
    <line x1="121.6564" x2="56.6929" y1="78.7402" y2="78.7402"/>
    <line x1="56.6929" x2="124.1863" y1="80.6299" y2="80.6299"/>
    <line x1="126.2713" x2="56.6929" y1="82.5197" y2="82.5197"/>
    <line x1="56.6929" x2="128.3563" y1="84.4094" y2="84.4094"/>
    <line x1="130.3776" x2="56.6929" y1="86.2992" y2="86.2992"/>
    <line x1="56.6929" x2="132.0904" y1="88.189" y2="88.189"/>
    <line x1="133.8032" x2="56.6929" y1="90.0787" y2="90.0787"/>
    <line x1="56.6929" x2="135.5138" y1="91.9685" y2="91.9685"/>
    <line x1="136.9154" x2="56.6929" y1="93.8583" y2="93.8583"/>
    <line x1="56.6929" x2="737.0079" y1="92.5984" y2="92.5984"/>
    <line x1="737.0079" x2="446.7996" y1="100.1575" y2="100.1575"/>
    <line x1="451.362" x2="737.0079" y1="115.2756" y2="115.2756"/>
    <line x1="737.0079" x2="585.6599" y1="114.0157" y2="114.0157"/>
    <line x1="584.0067" x2="737.0079" y1="117.7953" y2="117.7953"/>
    <line x1="737.0079" x2="582.6544" y1="121.5748" y2="121.5748"/>
    <line x1="581.4003" x2="737.0079" y1="125.3543" y2="125.3543"/>
    <line x1="737.0079" x2="56.6929" y1="122.8346" y2="122.8346"/>
    <line x1="56.6929" x2="151.1189" y1="122.2047" y2="122.2047"/>
    <line x1="150.6455" x2="56.6929" y1="120.315" y2="120.315"/>
    <line x1="56.6929" x2="149.9758" y1="118.4252" y2="118.4252"/>
    <line x1="149.2997" x2="56.6929" y1="116.5354" y2="116.5354"/>
    <line x1="56.6929" x2="148.6235" y1="114.6457" y2="114.6457"/>
    <line x1="147.9473" x2="56.6929" y1="112.7559" y2="112.7559"/>
    <line x1="56.6929" x2="147.065" y1="110.8661" y2="110.8661"/>
    <line x1="146.1712" x2="56.6929" y1="108.9764" y2="108.9764"/>
    <line x1="56.6929" x2="737.0079" y1="107.7165" y2="107.7165"/>
    <line x1="735.476" x2="589.5728" y1="106.4567" y2="106.4567"/>
    <line x1="587.4475" x2="737.0079" y1="110.2362" y2="110.2362"/>
    <line x1="733.2106" x2="591.8382" y1="102.6772" y2="102.6772"/>
    <line x1="594.5468" x2="730.502" y1="98.8976" y2="98.8976"/>
    <line x1="727.6607" x2="597.388" y1="95.1181" y2="95.1181"/>
    <line x1="600.8136" x2="724.2352" y1="91.3386" y2="91.3386"/>
    <line x1="720.4858" x2="604.563" y1="87.5591" y2="87.5591"/>
    <line x1="608.733" x2="716.3157" y1="83.7795" y2="83.7795"/>
    <line x1="711.2558" x2="613.793" y1="80.0" y2="80.0"/>
    <line x1="619.6794" x2="705.3693" y1="76.2205" y2="76.2205"/>
    <line x1="698.1788" x2="626.87" y1="72.4409" y2="72.4409"/>
    <line x1="636.3695" x2="688.6792" y1="68.6614" y2="68.6614"/>
    <line x1="671.023" x2="654.0258" y1="64.8819" y2="64.8819"/>
    <line x1="737.0079" x2="441.8189" y1="85.0394" y2="85.0394"/>
    <line x1="452.1017" x2="490.568" y1="117.7953" y2="117.7953"/>
    <line x1="500.621" x2="453.2177" y1="121.5748" y2="121.5748"/>
    <line x1="454.3364" x2="508.106" y1="125.3543" y2="125.3543"/>
    <line x1="514.2031" x2="455.4555" y1="129.1339" y2="129.1339"/>
    <line x1="456.6235" x2="519.2992" y1="132.9134" y2="132.9134"/>
    <line x1="523.5937" x2="457.7915" y1="136.6929" y2="136.6929"/>
    <line x1="458.8089" x2="527.4716" y1="140.4724" y2="140.4724"/>
    <line x1="530.8972" x2="459.4801" y1="144.252" y2="144.252"/>
    <line x1="460.1513" x2="533.8454" y1="148.0315" y2="148.0315"/>
    <line x1="536.6458" x2="460.3571" y1="151.811" y2="151.811"/>
    <line x1="460.2473" x2="538.9112" y1="155.5906" y2="155.5906"/>
    <line x1="541.1177" x2="460.1375" y1="159.3701" y2="159.3701"/>
    <line x1="460.2539" x2="542.9052" y1="163.1496" y2="163.1496"/>
    <line x1="544.6319" x2="460.3986" y1="166.9291" y2="166.9291"/>
    <line x1="460.6108" x2="545.9842" y1="170.7087" y2="170.7087"/>
    <line x1="547.3063" x2="461.1264" y1="174.4882" y2="174.4882"/>
    <line x1="461.6421" x2="548.253" y1="178.2677" y2="178.2677"/>
    <line x1="549.1997" x2="462.107" y1="182.0472" y2="182.0472"/>
    <line x1="462.5159" x2="549.781" y1="185.8268" y2="185.8268"/>
    <line x1="550.3417" x2="462.9248" y1="189.6063" y2="189.6063"/>
    <line x1="463.2227" x2="550.6111" y1="193.3858" y2="193.3858"/>
    <line x1="550.7968" x2="463.487" y1="197.1654" y2="197.1654"/>
    <line x1="463.7305" x2="550.7651" y1="200.9449" y2="200.9449"/>
    <line x1="550.5794" x2="463.6505" y1="204.7244" y2="204.7244"/>
    <line x1="463.5706" x2="550.2459" y1="208.5039" y2="208.5039"/>
    <line x1="549.6853" x2="463.6415" y1="212.2835" y2="212.2835"/>
    <line x1="463.9881" x2="549.0381" y1="216.063" y2="216.063"/>
    <line x1="548.0913" x2="464.3348" y1="219.8425" y2="219.8425"/>
    <line x1="464.9603" x2="547.1056" y1="223.622" y2="223.622"/>
    <line x1="545.7532" x2="465.7382" y1="227.4016" y2="227.4016"/>
    <line x1="466.516" x2="544.3876" y1="231.1811" y2="231.1811"/>
    <line x1="542.6" x2="467.0404" y1="234.9606" y2="234.9606"/>
    <line x1="467.5483" x2="540.7897" y1="238.7402" y2="238.7402"/>
    <line x1="538.5243" x2="467.9215" y1="242.5197" y2="242.5197"/>
    <line x1="467.8492" x2="536.1697" y1="246.2992" y2="246.2992"/>
    <line x1="533.3667" x2="467.7768" y1="250.0787" y2="250.0787"/>
    <line x1="467.5236" x2="530.3122" y1="253.8583" y2="253.8583"/>
    <line x1="526.8866" x2="467.1069" y1="257.6378" y2="257.6378"/>
    <line x1="466.6902" x2="522.8816" y1="261.4173" y2="261.4173"/>
    <line x1="518.4289" x2="466.0307" y1="265.1969" y2="265.1969"/>
    <line x1="465.3174" x2="513.3328" y1="268.9764" y2="268.9764"/>
    <line x1="507.5367" x2="489.5439" y1="271.4961" y2="271.4961"/>
    <line x1="489.2345" x2="507.8462" y1="273.3858" y2="273.3858"/>
    <line x1="507.0291" x2="464.6842" y1="272.7559" y2="272.7559"/>
    <line x1="464.6918" x2="499.2563" y1="276.5354" y2="276.5354"/>
    <line x1="504.3637" x2="595.6231" y1="280.315" y2="280.315"/>
    <line x1="597.1035" x2="495.6193" y1="284.0945" y2="284.0945"/>
    <line x1="495.7103" x2="501.3704" y1="282.8346" y2="282.8346"/>
    <line x1="504.7" x2="492.3807" y1="280.9449" y2="280.9449"/>
    <line x1="490.734" x2="506.3467" y1="279.0551" y2="279.0551"/>
    <line x1="507.2895" x2="489.7912" y1="277.1654" y2="277.1654"/>
    <line x1="489.3133" x2="507.7673" y1="275.2756" y2="275.2756"/>
    <line x1="506.7999" x2="490.2808" y1="269.6063" y2="269.6063"/>
    <line x1="491.6054" x2="505.4753" y1="267.7165" y2="267.7165"/>
    <line x1="503.1265" x2="493.9542" y1="265.8268" y2="265.8268"/>
    <line x1="487.9912" x2="464.6995" y1="280.315" y2="280.315"/>
    <line x1="449.807" x2="737.0079" y1="281.5748" y2="281.5748"/>
    <line x1="737.0079" x2="56.6929" y1="289.1339" y2="289.1339"/>
    <line x1="56.6929" x2="209.1985" y1="296.6929" y2="296.6929"/>
    <line x1="210.9058" x2="56.6929" y1="281.5748" y2="281.5748"/>
    <line x1="56.6929" x2="737.0079" y1="274.0157" y2="274.0157"/>
    <line x1="737.0079" x2="416.0384" y1="266.4567" y2="266.4567"/>
    <line x1="400.3364" x2="737.0079" y1="251.3386" y2="251.3386"/>
    <line x1="737.0079" x2="56.6929" y1="258.8976" y2="258.8976"/>
    <line x1="56.6929" x2="208.6266" y1="266.4567" y2="266.4567"/>
    <line x1="199.8149" x2="127.363" y1="261.4173" y2="261.4173"/>
    <line x1="125.2002" x2="201.9777" y1="257.6378" y2="257.6378"/>
    <line x1="203.3017" x2="123.5011" y1="253.8583" y2="253.8583"/>
    <line x1="122.2095" x2="201.0243" y1="250.0787" y2="250.0787"/>
    <line x1="204.5784" x2="102.9441" y1="251.3386" y2="251.3386"/>
    <line x1="100.4474" x2="96.4794" y1="265.1969" y2="265.1969"/>
    <line x1="95.4779" x2="106.6291" y1="268.9764" y2="268.9764"/>
    <line x1="111.7252" x2="94.6814" y1="272.7559" y2="272.7559"/>
    <line x1="94.1207" x2="116.1038" y1="276.5354" y2="276.5354"/>
    <line x1="120.0667" x2="93.8916" y1="280.315" y2="280.315"/>
    <line x1="93.8413" x2="123.4923" y1="284.0945" y2="284.0945"/>
    <line x1="126.5277" x2="94.027" y1="287.874" y2="287.874"/>
    <line x1="94.5295" x2="129.3308" y1="291.6535" y2="291.6535"/>
    <line x1="131.684" x2="95.2215" y1="295.4331" y2="295.4331"/>
    <line x1="96.1682" x2="133.9494" y1="299.2126" y2="299.2126"/>
    <line x1="135.7728" x2="97.4655" y1="302.9921" y2="302.9921"/>
    <line x1="99.0058" x2="137.5604" y1="306.7717" y2="306.7717"/>
    <line x1="138.9518" x2="100.8204" y1="310.5512" y2="310.5512"/>
    <line x1="103.0858" x2="140.3041" y1="314.3307" y2="314.3307"/>
    <line x1="141.3272" x2="105.7553" y1="318.1102" y2="318.1102"/>
    <line x1="108.888" x2="142.2739" y1="321.8898" y2="321.8898"/>
    <line x1="142.9698" x2="112.6131" y1="325.6693" y2="325.6693"/>
    <line x1="117.1356" x2="143.5304" y1="329.4488" y2="329.4488"/>
    <line x1="143.9241" x2="122.8054" y1="333.2283" y2="333.2283"/>
    <line x1="130.3849" x2="144.1098" y1="337.0079" y2="337.0079"/>
    <line x1="144.1522" x2="56.6929" y1="342.0472" y2="342.0472"/>
    <line x1="56.6929" x2="737.0079" y1="349.6063" y2="349.6063"/>
    <line x1="737.0079" x2="439.6509" y1="357.1654" y2="357.1654"/>
    <line x1="439.2772" x2="660.2256" y1="359.685" y2="359.685"/>
    <line x1="663.6511" x2="438.7165" y1="363.4646" y2="363.4646"/>
    <line x1="438.2455" x2="666.6791" y1="367.2441" y2="367.2441"/>
    <line x1="669.4822" x2="438.0598" y1="371.0236" y2="371.0236"/>
    <line x1="437.8741" x2="671.9338" y1="374.8031" y2="374.8031"/>
    <line x1="674.1991" x2="437.901" y1="378.5827" y2="378.5827"/>
    <line x1="438.0867" x2="676.2095" y1="382.3622" y2="382.3622"/>
    <line x1="677.997" x2="438.2724" y1="386.1417" y2="386.1417"/>
    <line x1="438.7977" x2="679.6542" y1="389.9213" y2="389.9213"/>
    <line x1="681.0066" x2="439.3583" y1="393.7008" y2="393.7008"/>
    <line x1="439.6427" x2="580.2417" y1="394.3307" y2="394.3307"/>
    <line x1="581.6432" x2="438.2412" y1="396.2205" y2="396.2205"/>
    <line x1="440.0212" x2="682.3589" y1="397.4803" y2="397.4803"/>
    <line x1="683.3168" x2="440.9679" y1="401.2598" y2="401.2598"/>
    <line x1="436.8396" x2="583.0448" y1="398.1102" y2="398.1102"/>
    <line x1="584.4356" x2="435.4488" y1="400.0" y2="400.0"/>
    <line x1="434.3161" x2="585.5683" y1="401.8898" y2="401.8898"/>
    <line x1="586.701" x2="433.1834" y1="403.7795" y2="403.7795"/>
    <line x1="432.0508" x2="587.8337" y1="405.6693" y2="405.6693"/>
    <line x1="588.954" x2="430.9304" y1="407.5591" y2="407.5591"/>
    <line x1="430.0366" x2="589.8478" y1="409.4488" y2="409.4488"/>
    <line x1="590.7416" x2="429.1428" y1="411.3386" y2="411.3386"/>
    <line x1="428.249" x2="591.6354" y1="413.2283" y2="413.2283"/>
    <line x1="592.5292" x2="427.3552" y1="415.1181" y2="415.1181"/>
    <line x1="426.6461" x2="593.2384" y1="417.0079" y2="417.0079"/>
    <line x1="593.9145" x2="425.9699" y1="418.8976" y2="418.8976"/>
    <line x1="425.2937" x2="594.5907" y1="420.7874" y2="420.7874"/>
    <line x1="595.2669" x2="424.6175" y1="422.6772" y2="422.6772"/>
    <line x1="424.0368" x2="595.8476" y1="424.5669" y2="424.5669"/>
    <line x1="596.321" x2="423.5634" y1="426.4567" y2="426.4567"/>
    <line x1="423.0901" x2="596.7944" y1="428.3465" y2="428.3465"/>
    <line x1="597.2677" x2="422.6167" y1="430.2362" y2="430.2362"/>
    <line x1="422.1433" x2="597.7411" y1="432.126" y2="432.126"/>
    <line x1="598.0291" x2="421.8553" y1="434.0157" y2="434.0157"/>
    <line x1="421.5636" x2="685.928" y1="435.2756" y2="435.2756"/>
    <line x1="686.1861" x2="417.5657" y1="431.4961" y2="431.4961"/>
    <line x1="414.3757" x2="686.3718" y1="427.7165" y2="427.7165"/>
    <line x1="686.4319" x2="411.8167" y1="423.937" y2="423.937"/>
    <line x1="409.7743" x2="686.2462" y1="420.1575" y2="420.1575"/>
    <line x1="686.0606" x2="408.1722" y1="416.378" y2="416.378"/>
    <line x1="406.9588" x2="685.5488" y1="412.5984" y2="412.5984"/>
    <line x1="684.9882" x2="406.0994" y1="408.8189" y2="408.8189"/>
    <line x1="405.4478" x2="737.0079" y1="402.5197" y2="402.5197"/>
    <line x1="737.0079" x2="56.6929" y1="410.0787" y2="410.0787"/>
    <line x1="56.6929" x2="117.0562" y1="402.5197" y2="402.5197"/>
    <line x1="129.9361" x2="56.6929" y1="387.4016" y2="387.4016"/>
    <line x1="56.6929" x2="737.0079" y1="379.8425" y2="379.8425"/>
    <line x1="737.0079" x2="407.5536" y1="387.4016" y2="387.4016"/>
    <line x1="415.9986" x2="737.0079" y1="372.2835" y2="372.2835"/>
    <line x1="737.0079" x2="56.6929" y1="364.7244" y2="364.7244"/>
    <line x1="56.6929" x2="137.9083" y1="372.2835" y2="372.2835"/>
    <line x1="142.4902" x2="56.6929" y1="357.1654" y2="357.1654"/>
    <line x1="56.6929" x2="737.0079" y1="334.4882" y2="334.4882"/>
    <line x1="737.0079" x2="443.8409" y1="342.0472" y2="342.0472"/>
    <line x1="448.9639" x2="641.682" y1="344.5669" y2="344.5669"/>
    <line x1="636.9466" x2="451.2292" y1="340.7874" y2="340.7874"/>
    <line x1="453.7887" x2="635.5871" y1="337.0079" y2="337.0079"/>
    <line x1="633.7995" x2="456.5918" y1="333.2283" y2="333.2283"/>
    <line x1="460.0086" x2="632.0119" y1="329.4488" y2="329.4488"/>
    <line x1="629.9363" x2="462.2857" y1="325.6693" y2="325.6693"/>
    <line x1="463.3741" x2="627.6709" y1="321.8898" y2="321.8898"/>
    <line x1="625.2373" x2="463.8952" y1="318.1102" y2="318.1102"/>
    <line x1="464.4163" x2="622.4342" y1="314.3307" y2="314.3307"/>
    <line x1="619.5262" x2="464.6653" y1="310.5512" y2="310.5512"/>
    <line x1="465.1377" x2="616.1006" y1="306.7717" y2="306.7717"/>
    <line x1="612.5333" x2="468.705" y1="302.9921" y2="302.9921"/>
    <line x1="472.875" x2="608.3633" y1="299.2126" y2="299.2126"/>
    <line x1="603.8252" x2="477.4131" y1="295.4331" y2="295.4331"/>
    <line x1="482.5092" x2="598.7538" y1="291.6535" y2="291.6535"/>
    <line x1="598.1349" x2="488.5814" y1="287.874" y2="287.874"/>
    <line x1="465.0743" x2="737.0079" y1="296.6929" y2="296.6929"/>
    <line x1="737.0079" x2="56.6929" y1="304.252" y2="304.252"/>
    <line x1="56.6929" x2="203.16" y1="311.811" y2="311.811"/>
    <line x1="190.7325" x2="56.6929" y1="326.9291" y2="326.9291"/>
    <line x1="56.6929" x2="737.0079" y1="319.3701" y2="319.3701"/>
    <line x1="737.0079" x2="450.5469" y1="326.9291" y2="326.9291"/>
    <line x1="460.6729" x2="737.0079" y1="311.811" y2="311.811"/>
    <line x1="737.0079" x2="56.6929" y1="243.7795" y2="243.7795"/>
    <line x1="56.6929" x2="737.0079" y1="228.6614" y2="228.6614"/>
    <line x1="737.0079" x2="384.9929" y1="221.1024" y2="221.1024"/>
    <line x1="382.2511" x2="737.0079" y1="205.9843" y2="205.9843"/>
    <line x1="737.0079" x2="599.0976" y1="204.7244" y2="204.7244"/>
    <line x1="595.9457" x2="737.0079" y1="200.9449" y2="200.9449"/>
    <line x1="737.0079" x2="56.6929" y1="198.4252" y2="198.4252"/>
    <line x1="56.6929" x2="134.149" y1="197.7953" y2="197.7953"/>
    <line x1="135.7968" x2="56.6929" y1="195.9055" y2="195.9055"/>
    <line x1="56.6929" x2="137.1983" y1="194.0157" y2="194.0157"/>
    <line x1="138.5999" x2="56.6929" y1="192.126" y2="192.126"/>
    <line x1="56.6929" x2="140.0014" y1="190.2362" y2="190.2362"/>
    <line x1="141.1937" x2="56.6929" y1="188.3465" y2="188.3465"/>
    <line x1="56.6929" x2="142.3263" y1="186.4567" y2="186.4567"/>
    <line x1="143.459" x2="56.6929" y1="184.5669" y2="184.5669"/>
    <line x1="56.6929" x2="737.0079" y1="183.3071" y2="183.3071"/>
    <line x1="737.0079" x2="584.7644" y1="182.0472" y2="182.0472"/>
    <line x1="583.3292" x2="737.0079" y1="178.2677" y2="178.2677"/>
    <line x1="737.0079" x2="385.1468" y1="175.748" y2="175.748"/>
    <line x1="382.2813" x2="737.0079" y1="190.8661" y2="190.8661"/>
    <line x1="737.0079" x2="588.438" y1="189.6063" y2="189.6063"/>
    <line x1="586.552" x2="737.0079" y1="185.8268" y2="185.8268"/>
    <line x1="737.0079" x2="590.7033" y1="193.3858" y2="193.3858"/>
    <line x1="593.1426" x2="737.0079" y1="197.1654" y2="197.1654"/>
    <line x1="737.0079" x2="602.5231" y1="208.5039" y2="208.5039"/>
    <line x1="606.6441" x2="737.0079" y1="212.2835" y2="212.2835"/>
    <line x1="737.0079" x2="56.6929" y1="213.5433" y2="213.5433"/>
    <line x1="56.6929" x2="116.9449" y1="212.9134" y2="212.9134"/>
    <line x1="119.6229" x2="56.6929" y1="211.0236" y2="211.0236"/>
    <line x1="56.6929" x2="122.1709" y1="209.1339" y2="209.1339"/>
    <line x1="124.6073" x2="56.6929" y1="207.2441" y2="207.2441"/>
    <line x1="56.6929" x2="126.6923" y1="205.3543" y2="205.3543"/>
    <line x1="128.7773" x2="56.6929" y1="203.4646" y2="203.4646"/>
    <line x1="56.6929" x2="130.7234" y1="201.5748" y2="201.5748"/>
    <line x1="132.4362" x2="56.6929" y1="199.685" y2="199.685"/>
    <line x1="56.6929" x2="113.7921" y1="214.8031" y2="214.8031"/>
    <line x1="110.623" x2="56.6929" y1="216.6929" y2="216.6929"/>
    <line x1="56.6929" x2="106.6275" y1="218.5827" y2="218.5827"/>
    <line x1="102.3835" x2="56.6929" y1="220.4724" y2="220.4724"/>
    <line x1="56.6929" x2="97.1019" y1="222.3622" y2="222.3622"/>
    <line x1="90.1133" x2="56.6929" y1="224.252" y2="224.252"/>
    <line x1="67.3364" x2="76.5276" y1="226.1417" y2="226.1417"/>
    <line x1="116.8169" x2="206.5882" y1="236.2205" y2="236.2205"/>
    <line x1="198.2212" x2="121.2876" y1="246.2992" y2="246.2992"/>
    <line x1="120.727" x2="194.9199" y1="242.5197" y2="242.5197"/>
    <line x1="190.9932" x2="120.5254" y1="238.7402" y2="238.7402"/>
    <line x1="120.6516" x2="186.22" y1="234.9606" y2="234.9606"/>
    <line x1="180.2225" x2="124.513" y1="231.1811" y2="231.1811"/>
    <line x1="133.2453" x2="171.4902" y1="227.4016" y2="227.4016"/>
    <line x1="192.2074" x2="134.9705" y1="205.9843" y2="205.9843"/>
    <line x1="124.0322" x2="203.1457" y1="221.1024" y2="221.1024"/>
    <line x1="197.1056" x2="130.0722" y1="265.1969" y2="265.1969"/>
    <line x1="133.525" x2="193.6528" y1="268.9764" y2="268.9764"/>
    <line x1="189.1621" x2="138.0158" y1="272.7559" y2="272.7559"/>
    <line x1="144.1105" x2="183.0674" y1="276.5354" y2="276.5354"/>
    <line x1="172.338" x2="154.8399" y1="280.315" y2="280.315"/>
    <line x1="144.5641" x2="56.6929" y1="182.6772" y2="182.6772"/>
    <line x1="56.6929" x2="145.4579" y1="180.7874" y2="180.7874"/>
    <line x1="146.3517" x2="56.6929" y1="178.8976" y2="178.8976"/>
    <line x1="56.6929" x2="147.2455" y1="177.0079" y2="177.0079"/>
    <line x1="148.0838" x2="56.6929" y1="175.1181" y2="175.1181"/>
    <line x1="56.6929" x2="148.76" y1="173.2283" y2="173.2283"/>
    <line x1="149.4362" x2="56.6929" y1="171.3386" y2="171.3386"/>
    <line x1="56.6929" x2="150.1124" y1="169.4488" y2="169.4488"/>
    <line x1="150.7411" x2="56.6929" y1="167.5591" y2="167.5591"/>
    <line x1="56.6929" x2="737.0079" y1="168.189" y2="168.189"/>
    <line x1="737.0079" x2="579.9793" y1="166.9291" y2="166.9291"/>
    <line x1="579.2696" x2="737.0079" y1="163.1496" y2="163.1496"/>
    <line x1="737.0079" x2="391.0551" y1="160.6299" y2="160.6299"/>
    <line x1="400.792" x2="737.0079" y1="145.5118" y2="145.5118"/>
    <line x1="737.0079" x2="578.2217" y1="144.252" y2="144.252"/>
    <line x1="578.036" x2="737.0079" y1="148.0315" y2="148.0315"/>
    <line x1="737.0079" x2="578.1287" y1="151.811" y2="151.811"/>
    <line x1="578.3143" x2="737.0079" y1="155.5906" y2="155.5906"/>
    <line x1="737.0079" x2="56.6929" y1="153.0709" y2="153.0709"/>
    <line x1="56.6929" x2="153.7383" y1="152.4409" y2="152.4409"/>
    <line x1="153.8561" x2="56.6929" y1="150.5512" y2="150.5512"/>
    <line x1="56.6929" x2="153.949" y1="148.6614" y2="148.6614"/>
    <line x1="154.0418" x2="56.6929" y1="146.7717" y2="146.7717"/>
    <line x1="56.6929" x2="154.1347" y1="144.8819" y2="144.8819"/>
    <line x1="154.1159" x2="56.6929" y1="142.9921" y2="142.9921"/>
    <line x1="56.6929" x2="154.0231" y1="141.1024" y2="141.1024"/>
    <line x1="153.9302" x2="56.6929" y1="139.2126" y2="139.2126"/>
    <line x1="56.6929" x2="737.0079" y1="137.9528" y2="137.9528"/>
    <line x1="737.0079" x2="578.9898" y1="136.6929" y2="136.6929"/>
    <line x1="579.5504" x2="737.0079" y1="132.9134" y2="132.9134"/>
    <line x1="737.0079" x2="416.8668" y1="130.3937" y2="130.3937"/>
    <line x1="321.5874" x2="267.6367" y1="85.0394" y2="85.0394"/>
    <line x1="263.5122" x2="325.7119" y1="69.9213" y2="69.9213"/>
    <line x1="321.9807" x2="267.2434" y1="54.8031" y2="54.8031"/>
    <line x1="288.8535" x2="300.3706" y1="100.1575" y2="100.1575"/>
    <line x1="152.539" x2="56.6929" y1="127.874" y2="127.874"/>
    <line x1="56.6929" x2="152.8407" y1="129.7638" y2="129.7638"/>
    <line x1="153.121" x2="56.6929" y1="131.6535" y2="131.6535"/>
    <line x1="56.6929" x2="153.4014" y1="133.5433" y2="133.5433"/>
    <line x1="153.6817" x2="56.6929" y1="135.4331" y2="135.4331"/>
    <line x1="56.6929" x2="153.8374" y1="137.3228" y2="137.3228"/>
    <line x1="152.0656" x2="56.6929" y1="125.9843" y2="125.9843"/>
    <line x1="56.6929" x2="151.5923" y1="124.0945" y2="124.0945"/>
    <line x1="145.2774" x2="56.6929" y1="107.0866" y2="107.0866"/>
    <line x1="56.6929" x2="144.363" y1="105.1969" y2="105.1969"/>
    <line x1="143.2303" x2="56.6929" y1="103.3071" y2="103.3071"/>
    <line x1="56.6929" x2="142.0976" y1="101.4173" y2="101.4173"/>
    <line x1="140.965" x2="56.6929" y1="99.5276" y2="99.5276"/>
    <line x1="56.6929" x2="139.7184" y1="97.6378" y2="97.6378"/>
    <line x1="138.3169" x2="56.6929" y1="95.748" y2="95.748"/>
    <line x1="56.6929" x2="116.3083" y1="74.9606" y2="74.9606"/>
    <line x1="113.1554" x2="56.6929" y1="73.0709" y2="73.0709"/>
    <line x1="56.6929" x2="109.8163" y1="71.1811" y2="71.1811"/>
    <line x1="105.8207" x2="56.6929" y1="69.2913" y2="69.2913"/>
    <line x1="56.6929" x2="101.3171" y1="67.4016" y2="67.4016"/>
    <line x1="96.0355" x2="56.6929" y1="65.5118" y2="65.5118"/>
    <line x1="56.6929" x2="88.59" y1="63.622" y2="63.622"/>
    <line x1="56.6929" x2="153.458" y1="154.3307" y2="154.3307"/>
    <line x1="153.1776" x2="56.6929" y1="156.2205" y2="156.2205"/>
    <line x1="56.6929" x2="152.8973" y1="158.1102" y2="158.1102"/>
    <line x1="152.617" x2="56.6929" y1="160.0" y2="160.0"/>
    <line x1="56.6929" x2="152.1612" y1="161.8898" y2="161.8898"/>
    <line x1="151.6878" x2="56.6929" y1="163.7795" y2="163.7795"/>
    <line x1="56.6929" x2="151.2145" y1="165.6693" y2="165.6693"/>
    <line x1="303.2309" x2="340.825" y1="341.4173" y2="341.4173"/>
    <line x1="342.8629" x2="301.1929" y1="343.3071" y2="343.3071"/>
    <line x1="299.4816" x2="344.5743" y1="345.1969" y2="345.1969"/>
    <line x1="345.9758" x2="298.08" y1="347.0866" y2="347.0866"/>
    <line x1="296.8904" x2="347.1654" y1="348.9764" y2="348.9764"/>
    <line x1="348.1811" x2="295.8747" y1="350.8661" y2="350.8661"/>
    <line x1="295.0072" x2="349.0486" y1="352.7559" y2="352.7559"/>
    <line x1="349.7248" x2="294.331" y1="354.6457" y2="354.6457"/>
    <line x1="293.7958" x2="350.26" y1="356.5354" y2="356.5354"/>
    <line x1="350.6897" x2="293.3661" y1="358.4252" y2="358.4252"/>
    <line x1="293.0858" x2="350.97" y1="360.315" y2="360.315"/>
    <line x1="351.1138" x2="292.942" y1="362.2047" y2="362.2047"/>
    <line x1="292.8893" x2="351.1665" y1="364.0945" y2="364.0945"/>
    <line x1="351.0737" x2="292.9821" y1="365.9843" y2="365.9843"/>
    <line x1="293.2069" x2="350.8489" y1="367.874" y2="367.874"/>
    <line x1="350.5289" x2="293.5269" y1="369.7638" y2="369.7638"/>
    <line x1="294.0003" x2="350.0555" y1="371.6535" y2="371.6535"/>
    <line x1="349.4327" x2="294.6231" y1="373.5433" y2="373.5433"/>
    <line x1="294.9901" x2="348.6888" y1="375.4331" y2="375.4331"/>
    <line x1="347.795" x2="294.1094" y1="377.3228" y2="377.3228"/>
    <line x1="293.4332" x2="346.6761" y1="379.2126" y2="379.2126"/>
    <line x1="345.3703" x2="292.9194" y1="381.1024" y2="381.1024"/>
    <line x1="292.5433" x2="343.8358" y1="382.9921" y2="382.9921"/>
    <line x1="343.5902" x2="292.2968" y1="384.8819" y2="384.8819"/>
    <line x1="292.204" x2="343.683" y1="386.7717" y2="386.7717"/>
    <line x1="343.619" x2="292.268" y1="388.6614" y2="388.6614"/>
    <line x1="292.4563" x2="343.4307" y1="390.5512" y2="390.5512"/>
    <line x1="343.1145" x2="292.7725" y1="392.4409" y2="392.4409"/>
    <line x1="293.2459" x2="342.6411" y1="394.3307" y2="394.3307"/>
    <line x1="341.9875" x2="293.8995" y1="396.2205" y2="396.2205"/>
    <line x1="294.7126" x2="341.1743" y1="398.1102" y2="398.1102"/>
    <line x1="340.1801" x2="295.7069" y1="400.0" y2="400.0"/>
    <line x1="296.9131" x2="338.9739" y1="401.8898" y2="401.8898"/>
    <line x1="337.5103" x2="298.3766" y1="403.7795" y2="403.7795"/>
    <line x1="300.1669" x2="335.72" y1="405.6693" y2="405.6693"/>
    <line x1="333.4914" x2="302.3955" y1="407.5591" y2="407.5591"/>
    <line x1="305.2541" x2="330.6328" y1="409.4488" y2="409.4488"/>
    <line x1="326.4573" x2="309.4297" y1="411.3386" y2="411.3386"/>
    <line x1="319.2949" x2="298.8347" y1="387.4016" y2="387.4016"/>
    <line x1="273.8854" x2="344.2442" y1="402.5197" y2="402.5197"/>
    <line x1="352.776" x2="265.3536" y1="417.6378" y2="417.6378"/>
    <line x1="262.9012" x2="355.2284" y1="432.7559" y2="432.7559"/>
    <line x1="363.3739" x2="737.0079" y1="432.7559" y2="432.7559"/>
    <line x1="737.0079" x2="56.6929" y1="425.1969" y2="425.1969"/>
    <line x1="56.6929" x2="94.7001" y1="417.6378" y2="417.6378"/>
    <line x1="56.6929" x2="737.0079" y1="394.9606" y2="394.9606"/>
    <line x1="737.0079" x2="382.4297" y1="417.6378" y2="417.6378"/>
    <line x1="413.6605" x2="684.2635" y1="405.0394" y2="405.0394"/>
    <line x1="685.3673" x2="427.031" y1="439.0551" y2="439.0551"/>
    <line x1="421.2947" x2="598.5898" y1="437.7953" y2="437.7953"/>
    <line x1="598.8701" x2="421.0143" y1="439.685" y2="439.685"/>
    <line x1="420.2145" x2="599.0828" y1="441.5748" y2="441.5748"/>
    <line x1="599.1756" x2="418.2631" y1="443.4646" y2="443.4646"/>
    <line x1="416.6638" x2="599.2685" y1="445.3543" y2="445.3543"/>
    <line x1="599.3613" x2="415.3394" y1="447.2441" y2="447.2441"/>
    <line x1="414.2392" x2="599.4541" y1="449.1339" y2="449.1339"/>
    <line x1="599.4139" x2="413.3454" y1="451.0236" y2="451.0236"/>
    <line x1="412.6524" x2="599.3211" y1="452.9134" y2="452.9134"/>
    <line x1="599.2283" x2="412.11" y1="454.8031" y2="454.8031"/>
    <line x1="411.7057" x2="599.1354" y1="456.6929" y2="456.6929"/>
    <line x1="599.029" x2="411.431" y1="458.5827" y2="458.5827"/>
    <line x1="411.3382" x2="598.7487" y1="460.4724" y2="460.4724"/>
    <line x1="598.4684" x2="411.3735" y1="462.3622" y2="462.3622"/>
    <line x1="411.5319" x2="598.1881" y1="464.252" y2="464.252"/>
    <line x1="597.9077" x2="411.8166" y1="466.1417" y2="466.1417"/>
    <line x1="412.2899" x2="597.5361" y1="468.0315" y2="468.0315"/>
    <line x1="597.0627" x2="412.9094" y1="469.9213" y2="469.9213"/>
    <line x1="413.6851" x2="596.5894" y1="471.811" y2="471.811"/>
    <line x1="596.116" x2="414.6373" y1="473.7008" y2="473.7008"/>
    <line x1="415.795" x2="595.6427" y1="475.5906" y2="475.5906"/>
    <line x1="594.9741" x2="417.2014" y1="477.4803" y2="477.4803"/>
    <line x1="418.922" x2="594.2979" y1="479.3701" y2="479.3701"/>
    <line x1="593.6217" x2="421.0626" y1="481.2598" y2="481.2598"/>
    <line x1="423.8046" x2="592.9456" y1="483.1496" y2="483.1496"/>
    <line x1="592.1421" x2="427.5623" y1="485.0394" y2="485.0394"/>
    <line x1="428.6361" x2="591.2484" y1="486.9291" y2="486.9291"/>
    <line x1="590.3546" x2="429.5298" y1="488.8189" y2="488.8189"/>
    <line x1="430.4236" x2="589.4608" y1="490.7087" y2="490.7087"/>
    <line x1="588.4759" x2="431.4085" y1="492.5984" y2="492.5984"/>
    <line x1="432.5412" x2="587.3432" y1="494.4882" y2="494.4882"/>
    <line x1="586.2105" x2="433.6739" y1="496.378" y2="496.378"/>
    <line x1="434.8066" x2="585.0778" y1="498.2677" y2="498.2677"/>
    <line x1="583.8394" x2="436.045" y1="500.1575" y2="500.1575"/>
    <line x1="437.4465" x2="582.4379" y1="502.0472" y2="502.0472"/>
    <line x1="581.0363" x2="438.8481" y1="503.937" y2="503.937"/>
    <line x1="440.2496" x2="579.6348" y1="505.8268" y2="505.8268"/>
    <line x1="578.0283" x2="441.8561" y1="507.7165" y2="507.7165"/>
    <line x1="443.5689" x2="576.3155" y1="509.6063" y2="509.6063"/>
    <line x1="574.6027" x2="445.2817" y1="511.4961" y2="511.4961"/>
    <line x1="447.0739" x2="572.8105" y1="513.3858" y2="513.3858"/>
    <line x1="570.7255" x2="449.1589" y1="515.2756" y2="515.2756"/>
    <line x1="451.244" x2="568.6405" y1="517.1654" y2="517.1654"/>
    <line x1="566.5134" x2="453.371" y1="519.0551" y2="519.0551"/>
    <line x1="455.1479" x2="634.1517" y1="518.4252" y2="518.4252"/>
    <line x1="635.5776" x2="454.9148" y1="514.6457" y2="514.6457"/>
    <line x1="454.8249" x2="636.9299" y1="510.8661" y2="510.8661"/>
    <line x1="639.6408" x2="454.9811" y1="507.0866" y2="507.0866"/>
    <line x1="456.515" x2="645.6098" y1="503.3071" y2="503.3071"/>
    <line x1="650.7059" x2="458.0488" y1="499.5276" y2="499.5276"/>
    <line x1="459.4963" x2="655.0556" y1="495.748" y2="495.748"/>
    <line x1="659.1167" x2="460.8358" y1="491.9685" y2="491.9685"/>
    <line x1="462.1753" x2="662.5423" y1="488.189" y2="488.189"/>
    <line x1="665.7717" x2="462.266" y1="484.4094" y2="484.4094"/>
    <line x1="462.365" x2="668.5748" y1="480.6299" y2="480.6299"/>
    <line x1="671.2005" x2="462.5507" y1="476.8504" y2="476.8504"/>
    <line x1="462.3072" x2="673.4658" y1="473.0709" y2="473.0709"/>
    <line x1="675.6308" x2="461.9979" y1="469.2913" y2="469.2913"/>
    <line x1="461.8223" x2="677.4184" y1="465.5118" y2="465.5118"/>
    <line x1="679.206" x2="461.9268" y1="461.7323" y2="461.7323"/>
    <line x1="462.0313" x2="680.5688" y1="457.9528" y2="457.9528"/>
    <line x1="681.9212" x2="461.9017" y1="454.1732" y2="454.1732"/>
    <line x1="461.6264" x2="683.0103" y1="450.3937" y2="450.3937"/>
    <line x1="683.957" x2="461.351" y1="446.6142" y2="446.6142"/>
    <line x1="435.1299" x2="684.8067" y1="442.8346" y2="442.8346"/>
    <line x1="737.0079" x2="56.6929" y1="440.315" y2="440.315"/>
    <line x1="56.6929" x2="737.0079" y1="455.4331" y2="455.4331"/>
    <line x1="737.0079" x2="274.5487" y1="462.9921" y2="462.9921"/>
    <line x1="265.6154" x2="737.0079" y1="447.874" y2="447.874"/>
    <line x1="737.0079" x2="56.6929" y1="470.5512" y2="470.5512"/>
    <line x1="56.6929" x2="737.0079" y1="485.6693" y2="485.6693"/>
    <line x1="737.0079" x2="281.2556" y1="493.2283" y2="493.2283"/>
    <line x1="271.0638" x2="737.0079" y1="508.3465" y2="508.3465"/>
    <line x1="737.0079" x2="56.6929" y1="500.7874" y2="500.7874"/>
    <line x1="56.6929" x2="122.3096" y1="508.3465" y2="508.3465"/>
    <line x1="130.9616" x2="56.6929" y1="523.4646" y2="523.4646"/>
    <line x1="56.6929" x2="737.0079" y1="515.9055" y2="515.9055"/>
    <line x1="737.0079" x2="266.6335" y1="523.4646" y2="523.4646"/>
    <line x1="269.3313" x2="296.5389" y1="524.7244" y2="524.7244"/>
    <line x1="297.719" x2="268.1511" y1="526.6142" y2="526.6142"/>
    <line x1="267.3132" x2="298.557" y1="528.5039" y2="528.5039"/>
    <line x1="299.1441" x2="266.7261" y1="530.3937" y2="530.3937"/>
    <line x1="266.368" x2="299.5022" y1="532.2835" y2="532.2835"/>
    <line x1="299.6442" x2="266.226" y1="534.1732" y2="534.1732"/>
    <line x1="266.2954" x2="299.5747" y1="536.063" y2="536.063"/>
    <line x1="299.2665" x2="266.6036" y1="537.9528" y2="537.9528"/>
    <line x1="266.5446" x2="737.0079" y1="538.5827" y2="538.5827"/>
    <line x1="737.0079" x2="56.6929" y1="531.0236" y2="531.0236"/>
    <line x1="56.6929" x2="134.3318" y1="538.5827" y2="538.5827"/>
    <line x1="133.3911" x2="56.6929" y1="553.7008" y2="553.7008"/>
    <line x1="56.6929" x2="737.0079" y1="561.2598" y2="561.2598"/>
    <line x1="737.0079" x2="270.7805" y1="553.7008" y2="553.7008"/>
    <line x1="275.3212" x2="290.5489" y1="549.2913" y2="549.2913"/>
    <line x1="293.4642" x2="272.4059" y1="547.4016" y2="547.4016"/>
    <line x1="270.4503" x2="295.4198" y1="545.5118" y2="545.5118"/>
    <line x1="296.8893" x2="268.9808" y1="543.622" y2="543.622"/>
    <line x1="267.9199" x2="297.9503" y1="541.7323" y2="541.7323"/>
    <line x1="298.7319" x2="267.1383" y1="539.8425" y2="539.8425"/>
    <line x1="270.8934" x2="294.9767" y1="522.8346" y2="522.8346"/>
    <line x1="292.805" x2="273.0651" y1="520.9449" y2="520.9449"/>
    <line x1="276.3549" x2="289.5152" y1="519.0551" y2="519.0551"/>
    <line x1="304.2192" x2="391.7843" y1="537.3228" y2="537.3228"/>
    <line x1="395.1965" x2="300.807" y1="541.1024" y2="541.1024"/>
    <line x1="298.0039" x2="397.9996" y1="544.8819" y2="544.8819"/>
    <line x1="400.3996" x2="295.6039" y1="548.6614" y2="548.6614"/>
    <line x1="293.5257" x2="402.4778" y1="552.4409" y2="552.4409"/>
    <line x1="404.2654" x2="291.7381" y1="556.2205" y2="556.2205"/>
    <line x1="290.3685" x2="405.635" y1="560.0" y2="560.0"/>
    <line x1="406.7968" x2="289.2067" y1="563.7795" y2="563.7795"/>
    <line x1="288.26" x2="407.7435" y1="567.5591" y2="567.5591"/>
    <line x1="408.3296" x2="362.2023" y1="571.3386" y2="571.3386"/>
    <line x1="359.6461" x2="287.6739" y1="571.3386" y2="571.3386"/>
    <line x1="287.5708" x2="355.2379" y1="575.1181" y2="575.1181"/>
    <line x1="349.6576" x2="293.1511" y1="578.8976" y2="578.8976"/>
    <line x1="287.2338" x2="737.0079" y1="583.937" y2="583.937"/>
    <line x1="737.0079" x2="56.6929" y1="591.4961" y2="591.4961"/>
    <line x1="56.6929" x2="115.549" y1="583.937" y2="583.937"/>
    <line x1="113.8305" x2="97.1779" y1="598.4252" y2="598.4252"/>
    <line x1="83.5483" x2="127.4602" y1="600.315" y2="600.315"/>
    <line x1="135.0045" x2="76.0039" y1="602.2047" y2="602.2047"/>
    <line x1="70.1722" x2="140.8363" y1="604.0945" y2="604.0945"/>
    <line x1="146.1178" x2="64.8906" y1="605.9843" y2="605.9843"/>
    <line x1="60.7258" x2="150.2826" y1="607.874" y2="607.874"/>
    <line x1="154.2782" x2="56.7302" y1="609.7638" y2="609.7638"/>
    <line x1="56.6929" x2="157.8762" y1="611.6535" y2="611.6535"/>
    <line x1="161.0291" x2="56.6929" y1="613.5433" y2="613.5433"/>
    <line x1="56.6929" x2="164.182" y1="615.4331" y2="615.4331"/>
    <line x1="166.9781" x2="56.6929" y1="617.3228" y2="617.3228"/>
    <line x1="56.6929" x2="169.5262" y1="619.2126" y2="619.2126"/>
    <line x1="172.0742" x2="56.6929" y1="621.1024" y2="621.1024"/>
    <line x1="56.6929" x2="737.0079" y1="621.7323" y2="621.7323"/>
    <line x1="737.0079" x2="312.6251" y1="629.2913" y2="629.2913"/>
    <line x1="297.7415" x2="737.0079" y1="614.1732" y2="614.1732"/>
    <line x1="737.0079" x2="56.6929" y1="606.6142" y2="606.6142"/>
    <line x1="56.6929" x2="174.5062" y1="622.9921" y2="622.9921"/>
    <line x1="176.5913" x2="56.6929" y1="624.8819" y2="624.8819"/>
    <line x1="56.6929" x2="178.6763" y1="626.7717" y2="626.7717"/>
    <line x1="180.7613" x2="56.6929" y1="628.6614" y2="628.6614"/>
    <line x1="56.6929" x2="182.6654" y1="630.5512" y2="630.5512"/>
    <line x1="184.3782" x2="56.6929" y1="632.4409" y2="632.4409"/>
    <line x1="56.6929" x2="186.091" y1="634.3307" y2="634.3307"/>
    <line x1="187.8037" x2="56.6929" y1="636.2205" y2="636.2205"/>
    <line x1="56.6929" x2="737.0079" y1="636.8504" y2="636.8504"/>
    <line x1="737.0079" x2="369.541" y1="644.4094" y2="644.4094"/>
    <line x1="374.023" x2="379.5307" y1="631.811" y2="631.811"/>
    <line x1="375.9564" x2="385.0771" y1="628.0315" y2="628.0315"/>
    <line x1="389.5393" x2="378.2218" y1="624.252" y2="624.252"/>
    <line x1="380.9552" x2="393.2467" y1="620.4724" y2="620.4724"/>
    <line x1="396.3933" x2="384.0863" y1="616.6929" y2="616.6929"/>
    <line x1="387.7259" x2="399.1014" y1="612.9134" y2="612.9134"/>
    <line x1="401.3668" x2="392.0479" y1="609.1339" y2="609.1339"/>
    <line x1="397.3467" x2="403.241" y1="605.3543" y2="605.3543"/>
    <line x1="404.1709" x2="404.86" y1="601.5748" y2="601.5748"/>
    <line x1="405.7615" x2="290.242" y1="599.0551" y2="599.0551"/>
    <line x1="300.6884" x2="342.1203" y1="582.6772" y2="582.6772"/>
    <line x1="326.7831" x2="316.0256" y1="586.4567" y2="586.4567"/>
    <line x1="280.7127" x2="737.0079" y1="568.8189" y2="568.8189"/>
    <line x1="737.0079" x2="56.6929" y1="576.378" y2="576.378"/>
    <line x1="56.6929" x2="127.8267" y1="568.8189" y2="568.8189"/>
    <line x1="56.6929" x2="737.0079" y1="546.1417" y2="546.1417"/>
    <line x1="737.0079" x2="408.4997" y1="599.0551" y2="599.0551"/>
    <line x1="406.2123" x2="404.147" y1="597.7953" y2="597.7953"/>
    <line x1="407.201" x2="394.2914" y1="594.0157" y2="594.0157"/>
    <line x1="386.5787" x2="408.0083" y1="590.2362" y2="590.2362"/>
    <line x1="408.569" x2="380.273" y1="586.4567" y2="586.4567"/>
    <line x1="374.9721" x2="408.8316" y1="582.6772" y2="582.6772"/>
    <line x1="408.938" x2="370.1394" y1="578.8976" y2="578.8976"/>
    <line x1="365.9694" x2="408.7523" y1="575.1181" y2="575.1181"/>
    <line x1="413.8163" x2="450.3488" y1="597.7953" y2="597.7953"/>
    <line x1="454.0289" x2="465.3471" y1="597.7953" y2="597.7953"/>
    <line x1="459.9941" x2="452.6698" y1="601.5748" y2="601.5748"/>
    <line x1="448.6522" x2="420.8419" y1="601.5748" y2="601.5748"/>
    <line x1="449.3717" x2="472.1171" y1="609.1339" y2="609.1339"/>
    <line x1="476.4392" x2="448.2743" y1="612.9134" y2="612.9134"/>
    <line x1="447.3345" x2="480.0787" y1="616.6929" y2="616.6929"/>
    <line x1="483.2098" x2="446.4664" y1="620.4724" y2="620.4724"/>
    <line x1="446.5405" x2="485.9433" y1="624.252" y2="624.252"/>
    <line x1="488.2086" x2="446.6145" y1="628.0315" y2="628.0315"/>
    <line x1="446.6491" x2="490.1421" y1="631.811" y2="631.811"/>
    <line x1="491.8503" x2="446.6146" y1="635.5906" y2="635.5906"/>
    <line x1="446.5801" x2="493.2026" y1="639.3701" y2="639.3701"/>
    <line x1="494.3085" x2="446.294" y1="643.1496" y2="643.1496"/>
    <line x1="445.8761" x2="495.2552" y1="646.9291" y2="646.9291"/>
    <line x1="495.8217" x2="445.4583" y1="650.7087" y2="650.7087"/>
    <line x1="445.4065" x2="496.2586" y1="654.4882" y2="654.4882"/>
    <line x1="496.4443" x2="445.374" y1="658.2677" y2="658.2677"/>
    <line x1="445.466" x2="496.3851" y1="662.0472" y2="662.0472"/>
    <line x1="496.1994" x2="445.9466" y1="665.8268" y2="665.8268"/>
    <line x1="446.4272" x2="495.6431" y1="669.6063" y2="669.6063"/>
    <line x1="494.9535" x2="446.7808" y1="673.3858" y2="673.3858"/>
    <line x1="447.0242" x2="494.0068" y1="677.1654" y2="677.1654"/>
    <line x1="492.7716" x2="447.2676" y1="680.9449" y2="680.9449"/>
    <line x1="446.9715" x2="491.36" y1="684.7244" y2="684.7244"/>
    <line x1="489.5724" x2="446.5637" y1="688.5039" y2="688.5039"/>
    <line x1="446.153" x2="487.4867" y1="692.2835" y2="692.2835"/>
    <line x1="485.1195" x2="445.722" y1="696.063" y2="696.063"/>
    <line x1="445.291" x2="482.3164" y1="699.8425" y2="699.8425"/>
    <line x1="478.987" x2="444.9445" y1="703.622" y2="703.622"/>
    <line x1="444.7178" x2="475.1101" y1="707.4016" y2="707.4016"/>
    <line x1="470.493" x2="444.4911" y1="711.1811" y2="711.1811"/>
    <line x1="444.1158" x2="464.8086" y1="714.9606" y2="714.9606"/>
    <line x1="457.4473" x2="443.6789" y1="718.7402" y2="718.7402"/>
    <line x1="443.2421" x2="445.5399" y1="722.5197" y2="722.5197"/>
    <line x1="443.2513" x2="737.0079" y1="735.1181" y2="735.1181"/>
    <line x1="737.0079" x2="56.6929" y1="727.5591" y2="727.5591"/>
    <line x1="56.6929" x2="211.3883" y1="726.9291" y2="726.9291"/>
    <line x1="211.6687" x2="56.6929" y1="725.0394" y2="725.0394"/>
    <line x1="56.6929" x2="211.949" y1="723.1496" y2="723.1496"/>
    <line x1="212.2293" x2="56.6929" y1="721.2598" y2="721.2598"/>
    <line x1="56.6929" x2="212.5096" y1="719.3701" y2="719.3701"/>
    <line x1="212.7899" x2="56.6929" y1="717.4803" y2="717.4803"/>
    <line x1="56.6929" x2="212.9759" y1="715.5906" y2="715.5906"/>
    <line x1="213.0688" x2="56.6929" y1="713.7008" y2="713.7008"/>
    <line x1="56.6929" x2="737.0079" y1="712.4409" y2="712.4409"/>
    <line x1="737.0079" x2="386.3199" y1="704.8819" y2="704.8819"/>
    <line x1="375.1885" x2="737.0079" y1="689.7638" y2="689.7638"/>
    <line x1="737.0079" x2="56.6929" y1="682.2047" y2="682.2047"/>
    <line x1="56.6929" x2="210.5415" y1="681.5748" y2="681.5748"/>
    <line x1="210.0681" x2="56.6929" y1="679.685" y2="679.685"/>
    <line x1="56.6929" x2="209.5947" y1="677.7953" y2="677.7953"/>
    <line x1="209.1214" x2="56.6929" y1="675.9055" y2="675.9055"/>
    <line x1="56.6929" x2="208.5825" y1="674.0157" y2="674.0157"/>
    <line x1="207.9063" x2="56.6929" y1="672.126" y2="672.126"/>
    <line x1="56.6929" x2="207.2302" y1="670.2362" y2="670.2362"/>
    <line x1="206.554" x2="56.6929" y1="668.3465" y2="668.3465"/>
    <line x1="56.6929" x2="737.0079" y1="667.0866" y2="667.0866"/>
    <line x1="737.0079" x2="369.5271" y1="674.6457" y2="674.6457"/>
    <line x1="367.6589" x2="737.0079" y1="659.5276" y2="659.5276"/>
    <line x1="737.0079" x2="56.6929" y1="651.9685" y2="651.9685"/>
    <line x1="56.6929" x2="198.4628" y1="651.3386" y2="651.3386"/>
    <line x1="197.3301" x2="56.6929" y1="649.4488" y2="649.4488"/>
    <line x1="56.6929" x2="196.1975" y1="647.5591" y2="647.5591"/>
    <line x1="195.0191" x2="56.6929" y1="645.6693" y2="645.6693"/>
    <line x1="56.6929" x2="193.6176" y1="643.7795" y2="643.7795"/>
    <line x1="192.2161" x2="56.6929" y1="641.8898" y2="641.8898"/>
    <line x1="56.6929" x2="190.8145" y1="640.0" y2="640.0"/>
    <line x1="189.413" x2="56.6929" y1="638.1102" y2="638.1102"/>
    <line x1="56.6929" x2="199.5955" y1="653.2283" y2="653.2283"/>
    <line x1="200.7229" x2="56.6929" y1="655.1181" y2="655.1181"/>
    <line x1="56.6929" x2="201.6167" y1="657.0079" y2="657.0079"/>
    <line x1="202.5105" x2="56.6929" y1="658.8976" y2="658.8976"/>
    <line x1="56.6929" x2="203.4042" y1="660.7874" y2="660.7874"/>
    <line x1="204.298" x2="56.6929" y1="662.6772" y2="662.6772"/>
    <line x1="56.6929" x2="205.1918" y1="664.5669" y2="664.5669"/>
    <line x1="205.8778" x2="56.6929" y1="666.4567" y2="666.4567"/>
    <line x1="56.6929" x2="211.0148" y1="683.4646" y2="683.4646"/>
    <line x1="211.442" x2="56.6929" y1="685.3543" y2="685.3543"/>
    <line x1="56.6929" x2="211.7223" y1="687.2441" y2="687.2441"/>
    <line x1="212.0026" x2="56.6929" y1="689.1339" y2="689.1339"/>
    <line x1="56.6929" x2="212.2829" y1="691.0236" y2="691.0236"/>
    <line x1="212.5633" x2="56.6929" y1="692.9134" y2="692.9134"/>
    <line x1="56.6929" x2="212.8436" y1="694.8031" y2="694.8031"/>
    <line x1="212.9937" x2="56.6929" y1="696.6929" y2="696.6929"/>
    <line x1="56.6929" x2="737.0079" y1="697.3228" y2="697.3228"/>
    <line x1="737.0079" x2="410.0102" y1="720.0" y2="720.0"/>
    <line x1="404.954" x2="430.8841" y1="750.2362" y2="750.2362"/>
    <line x1="446.5714" x2="737.0079" y1="750.2362" y2="750.2362"/>
    <line x1="737.0079" x2="56.6929" y1="742.6772" y2="742.6772"/>
    <line x1="56.6929" x2="207.1008" y1="742.0472" y2="742.0472"/>
    <line x1="207.777" x2="56.6929" y1="740.1575" y2="740.1575"/>
    <line x1="56.6929" x2="208.4531" y1="738.2677" y2="738.2677"/>
    <line x1="209.0308" x2="56.6929" y1="736.378" y2="736.378"/>
    <line x1="56.6929" x2="209.5042" y1="734.4882" y2="734.4882"/>
    <line x1="209.9775" x2="56.6929" y1="732.5984" y2="732.5984"/>
    <line x1="56.6929" x2="210.4509" y1="730.7087" y2="730.7087"/>
    <line x1="210.9243" x2="56.6929" y1="728.8189" y2="728.8189"/>
    <line x1="56.6929" x2="206.4246" y1="743.937" y2="743.937"/>
    <line x1="205.7485" x2="56.6929" y1="745.8268" y2="745.8268"/>
    <line x1="56.6929" x2="205.0208" y1="747.7165" y2="747.7165"/>
    <line x1="204.127" x2="56.6929" y1="749.6063" y2="749.6063"/>
    <line x1="56.6929" x2="203.2332" y1="751.4961" y2="751.4961"/>
    <line x1="202.3394" x2="56.6929" y1="753.3858" y2="753.3858"/>
    <line x1="56.6929" x2="201.4457" y1="755.2756" y2="755.2756"/>
    <line x1="200.5115" x2="56.6929" y1="757.1654" y2="757.1654"/>
    <line x1="56.6929" x2="737.0079" y1="757.7953" y2="757.7953"/>
    <line x1="737.0079" x2="452.4348" y1="765.3543" y2="765.3543"/>
    <line x1="452.0707" x2="383.7674" y1="765.3543" y2="765.3543"/>
    <line x1="376.5714" x2="737.0079" y1="780.4724" y2="780.4724"/>
    <line x1="737.0079" x2="56.6929" y1="788.0315" y2="788.0315"/>
    <line x1="56.6929" x2="176.1923" y1="787.4016" y2="787.4016"/>
    <line x1="174.1073" x2="56.6929" y1="789.2913" y2="789.2913"/>
    <line x1="56.6929" x2="171.5867" y1="791.1811" y2="791.1811"/>
    <line x1="169.0387" x2="56.6929" y1="793.0709" y2="793.0709"/>
    <line x1="56.6929" x2="166.4906" y1="794.9606" y2="794.9606"/>
    <line x1="163.5788" x2="56.6929" y1="796.8504" y2="796.8504"/>
    <line x1="56.6929" x2="160.4259" y1="798.7402" y2="798.7402"/>
    <line x1="161.1707" x2="139.5255" y1="795.5906" y2="795.5906"/>
    <line x1="145.1073" x2="65.9011" y1="806.2992" y2="806.2992"/>
    <line x1="61.4903" x2="149.5181" y1="804.4094" y2="804.4094"/>
    <line x1="153.5137" x2="57.4947" y1="802.5197" y2="802.5197"/>
    <line x1="56.6929" x2="737.0079" y1="803.1496" y2="803.1496"/>
    <line x1="737.0079" x2="380.1299" y1="810.7087" y2="810.7087"/>
    <line x1="375.513" x2="737.0079" y1="795.5906" y2="795.5906"/>
    <line x1="737.0079" x2="56.6929" y1="772.9134" y2="772.9134"/>
    <line x1="56.6929" x2="190.5463" y1="772.2835" y2="772.2835"/>
    <line x1="189.1448" x2="56.6929" y1="774.1732" y2="774.1732"/>
    <line x1="56.6929" x2="187.476" y1="776.063" y2="776.063"/>
    <line x1="185.7632" x2="56.6929" y1="777.9528" y2="777.9528"/>
    <line x1="56.6929" x2="184.0505" y1="779.8425" y2="779.8425"/>
    <line x1="182.3377" x2="56.6929" y1="781.7323" y2="781.7323"/>
    <line x1="56.6929" x2="180.3624" y1="783.622" y2="783.622"/>
    <line x1="178.2774" x2="56.6929" y1="785.5118" y2="785.5118"/>
    <line x1="56.6929" x2="191.9479" y1="770.3937" y2="770.3937"/>
    <line x1="193.3494" x2="56.6929" y1="768.5039" y2="768.5039"/>
    <line x1="56.6929" x2="194.751" y1="766.6142" y2="766.6142"/>
    <line x1="195.9807" x2="56.6929" y1="764.7244" y2="764.7244"/>
    <line x1="56.6929" x2="197.1134" y1="762.8346" y2="762.8346"/>
    <line x1="198.2461" x2="56.6929" y1="760.9449" y2="760.9449"/>
    <line x1="56.6929" x2="199.3788" y1="759.0551" y2="759.0551"/>
    <line x1="213.1616" x2="56.6929" y1="711.811" y2="711.811"/>
    <line x1="56.6929" x2="213.2544" y1="709.9213" y2="709.9213"/>
    <line x1="213.3473" x2="56.6929" y1="708.0315" y2="708.0315"/>
    <line x1="56.6929" x2="213.4401" y1="706.1417" y2="706.1417"/>
    <line x1="213.365" x2="56.6929" y1="704.252" y2="704.252"/>
    <line x1="56.6929" x2="213.2722" y1="702.3622" y2="702.3622"/>
    <line x1="213.1794" x2="56.6929" y1="700.4724" y2="700.4724"/>
    <line x1="56.6929" x2="213.0865" y1="698.5827" y2="698.5827"/>
    <line x1="157.273" x2="56.6929" y1="800.6299" y2="800.6299"/>
    <line x1="71.1827" x2="139.8257" y1="808.189" y2="808.189"/>
    <line x1="133.561" x2="77.4474" y1="810.0787" y2="810.0787"/>
    <line x1="85.3681" x2="125.6403" y1="811.9685" y2="811.9685"/>
    <line x1="127.3763" x2="173.3199" y1="810.7087" y2="810.7087"/>
    <line x1="172.3227" x2="128.3735" y1="825.8268" y2="825.8268"/>
    <line x1="106.4705" x2="104.5379" y1="813.8583" y2="813.8583"/>
    <line x1="98.8899" x2="98.8899" y1="844.0945" y2="844.0945"/>
    <line x1="89.5567" x2="108.2231" y1="845.9843" y2="845.9843"/>
    <line x1="111.7973" x2="85.9825" y1="847.874" y2="847.874"/>
    <line x1="83.402" x2="114.3778" y1="849.7638" y2="849.7638"/>
    <line x1="116.3599" x2="81.4199" y1="851.6535" y2="851.6535"/>
    <line x1="79.8166" x2="117.9632" y1="853.5433" y2="853.5433"/>
    <line x1="119.2709" x2="78.5089" y1="855.4331" y2="855.4331"/>
    <line x1="77.4428" x2="120.337" y1="857.3228" y2="857.3228"/>
    <line x1="121.1981" x2="76.5817" y1="859.2126" y2="859.2126"/>
    <line x1="75.9055" x2="121.8743" y1="861.1024" y2="861.1024"/>
    <line x1="122.3527" x2="75.427" y1="862.9921" y2="862.9921"/>
    <line x1="75.1012" x2="122.6786" y1="864.8819" y2="864.8819"/>
    <line x1="122.8597" x2="74.9201" y1="866.7717" y2="866.7717"/>
    <line x1="74.8798" x2="122.9" y1="868.6614" y2="868.6614"/>
    <line x1="122.8004" x2="74.9794" y1="870.5512" y2="870.5512"/>
    <line x1="75.2597" x2="122.5201" y1="872.4409" y2="872.4409"/>
    <line x1="122.0851" x2="75.6947" y1="874.3307" y2="874.3307"/>
    <line x1="76.2878" x2="121.492" y1="876.2205" y2="876.2205"/>
    <line x1="120.7254" x2="77.0544" y1="878.1102" y2="878.1102"/>
    <line x1="78.0167" x2="119.7631" y1="880.0" y2="880.0"/>
    <line x1="118.5723" x2="79.2075" y1="881.8898" y2="881.8898"/>
    <line x1="80.6756" x2="117.1042" y1="883.7795" y2="883.7795"/>
    <line x1="115.2839" x2="82.4959" y1="885.6693" y2="885.6693"/>
    <line x1="84.7896" x2="112.9902" y1="887.5591" y2="887.5591"/>
    <line x1="109.9594" x2="87.8204" y1="889.4488" y2="889.4488"/>
    <line x1="92.7512" x2="105.0286" y1="891.3386" y2="891.3386"/>
    <line x1="126.8783" x2="56.6929" y1="886.2992" y2="886.2992"/>
    <line x1="56.6929" x2="737.0079" y1="878.7402" y2="878.7402"/>
    <line x1="737.0079" x2="457.5073" y1="886.2992" y2="886.2992"/>
    <line x1="460.5516" x2="490.6386" y1="885.0394" y2="885.0394"/>
    <line x1="498.0096" x2="458.0389" y1="881.2598" y2="881.2598"/>
    <line x1="458.4323" x2="502.934" y1="877.4803" y2="877.4803"/>
    <line x1="506.682" x2="458.4846" y1="873.7008" y2="873.7008"/>
    <line x1="458.3152" x2="509.6258" y1="869.9213" y2="869.9213"/>
    <line x1="511.9371" x2="458.1457" y1="866.1417" y2="866.1417"/>
    <line x1="457.8201" x2="513.7137" y1="862.3622" y2="862.3622"/>
    <line x1="515.0574" x2="457.477" y1="858.5827" y2="858.5827"/>
    <line x1="457.0645" x2="516.0041" y1="854.8031" y2="854.8031"/>
    <line x1="516.5712" x2="456.3598" y1="851.0236" y2="851.0236"/>
    <line x1="455.6552" x2="516.7851" y1="847.2441" y2="847.2441"/>
    <line x1="516.653" x2="454.9389" y1="843.4646" y2="843.4646"/>
    <line x1="454.2104" x2="516.1723" y1="839.685" y2="839.685"/>
    <line x1="515.3305" x2="453.4818" y1="835.9055" y2="835.9055"/>
    <line x1="453.2862" x2="514.1038" y1="832.126" y2="832.126"/>
    <line x1="512.4544" x2="453.2429" y1="828.3465" y2="828.3465"/>
    <line x1="453.2204" x2="510.3252" y1="824.5669" y2="824.5669"/>
    <line x1="507.6312" x2="453.4734" y1="820.7874" y2="820.7874"/>
    <line x1="453.7264" x2="504.1369" y1="817.0079" y2="817.0079"/>
    <line x1="499.5724" x2="451.6178" y1="813.2283" y2="813.2283"/>
    <line x1="451.6275" x2="447.0534" y1="817.0079" y2="817.0079"/>
    <line x1="448.3594" x2="443.559" y1="820.7874" y2="820.7874"/>
    <line x1="444.0767" x2="440.865" y1="824.5669" y2="824.5669"/>
    <line x1="434.8311" x2="737.0079" y1="840.9449" y2="840.9449"/>
    <line x1="737.0079" x2="56.6929" y1="833.3858" y2="833.3858"/>
    <line x1="56.6929" x2="737.0079" y1="818.2677" y2="818.2677"/>
    <line x1="737.0079" x2="393.4601" y1="825.8268" y2="825.8268"/>
    <line x1="435.5017" x2="737.0079" y1="856.063" y2="856.063"/>
    <line x1="737.0079" x2="56.6929" y1="848.5039" y2="848.5039"/>
    <line x1="56.6929" x2="737.0079" y1="863.622" y2="863.622"/>
    <line x1="737.0079" x2="442.4988" y1="871.1811" y2="871.1811"/>
    <line x1="455.5006" x2="737.0079" y1="901.4173" y2="901.4173"/>
    <line x1="737.0079" x2="56.6929" y1="893.8583" y2="893.8583"/>
    <line x1="56.6929" x2="145.824" y1="901.4173" y2="901.4173"/>
    <line x1="157.3917" x2="56.6929" y1="916.5354" y2="916.5354"/>
    <line x1="56.6929" x2="737.0079" y1="924.0945" y2="924.0945"/>
    <line x1="737.0079" x2="454.0124" y1="931.6535" y2="931.6535"/>
    <line x1="466.679" x2="527.4181" y1="930.3937" y2="930.3937"/>
    <line x1="527.3645" x2="466.7326" y1="934.1732" y2="934.1732"/>
    <line x1="467.2671" x2="526.8299" y1="937.9528" y2="937.9528"/>
    <line x1="525.7588" x2="468.3383" y1="941.7323" y2="941.7323"/>
    <line x1="467.077" x2="527.0201" y1="926.6142" y2="926.6142"/>
    <line x1="526.1492" x2="467.9479" y1="922.8346" y2="922.8346"/>
    <line x1="469.4195" x2="524.6776" y1="919.0551" y2="919.0551"/>
    <line x1="522.6226" x2="471.4745" y1="915.2756" y2="915.2756"/>
    <line x1="474.3678" x2="519.7293" y1="911.4961" y2="911.4961"/>
    <line x1="515.6901" x2="478.407" y1="907.7165" y2="907.7165"/>
    <line x1="484.7292" x2="509.3679" y1="903.937" y2="903.937"/>
    <line x1="524.1616" x2="447.7562" y1="945.5118" y2="945.5118"/>
    <line x1="445.7953" x2="521.877" y1="949.2913" y2="949.2913"/>
    <line x1="518.7405" x2="443.9469" y1="953.0709" y2="953.0709"/>
    <line x1="442.0985" x2="518.9839" y1="956.8504" y2="956.8504"/>
    <line x1="525.2897" x2="441.0164" y1="960.6299" y2="960.6299"/>
    <line x1="440.2073" x2="530.5138" y1="964.4094" y2="964.4094"/>
    <line x1="535.4241" x2="439.422" y1="968.189" y2="968.189"/>
    <line x1="439.3997" x2="539.5942" y1="971.9685" y2="971.9685"/>
    <line x1="543.5472" x2="439.3774" y1="975.748" y2="975.748"/>
    <line x1="439.5679" x2="546.9728" y1="979.5276" y2="979.5276"/>
    <line x1="550.2832" x2="440.2041" y1="983.3071" y2="983.3071"/>
    <line x1="440.8403" x2="553.0863" y1="987.0866" y2="987.0866"/>
    <line x1="555.8894" x2="441.8342" y1="990.8661" y2="990.8661"/>
    <line x1="443.051" x2="558.2077" y1="994.6457" y2="994.6457"/>
    <line x1="560.4731" x2="444.2677" y1="998.4252" y2="998.4252"/>
    <line x1="445.5245" x2="562.5172" y1="1002.2047" y2="1002.2047"/>
    <line x1="564.3048" x2="446.7853" y1="1005.9843" y2="1005.9843"/>
    <line x1="448.0528" x2="566.0924" y1="1009.7638" y2="1009.7638"/>
    <line x1="567.4912" x2="449.3467" y1="1013.5433" y2="1013.5433"/>
    <line x1="450.6407" x2="568.8436" y1="1017.3228" y2="1017.3228"/>
    <line x1="570.1082" x2="451.5055" y1="1021.1024" y2="1021.1024"/>
    <line x1="451.9325" x2="571.0549" y1="1024.8819" y2="1024.8819"/>
    <line x1="572.0016" x2="452.3595" y1="1028.6614" y2="1028.6614"/>
    <line x1="452.0728" x2="572.7713" y1="1032.4409" y2="1032.4409"/>
    <line x1="573.3319" x2="451.594" y1="1036.2205" y2="1036.2205"/>
    <line x1="451.0728" x2="573.8926" y1="1040.0" y2="1040.0"/>
    <line x1="574.2108" x2="450.0699" y1="1043.7795" y2="1043.7795"/>
    <line x1="449.0669" x2="574.3965" y1="1047.5591" y2="1047.5591"/>
    <line x1="574.5822" x2="447.8831" y1="1051.3386" y2="1051.3386"/>
    <line x1="446.3964" x2="574.4682" y1="1055.1181" y2="1055.1181"/>
    <line x1="574.2825" x2="444.9096" y1="1058.8976" y2="1058.8976"/>
    <line x1="394.3202" x2="355.7855" y1="1055.1181" y2="1055.1181"/>
    <line x1="355.6716" x2="394.1345" y1="1051.3386" y2="1051.3386"/>
    <line x1="393.7509" x2="355.8572" y1="1047.5591" y2="1047.5591"/>
    <line x1="356.0429" x2="393.1893" y1="1043.7795" y2="1043.7795"/>
    <line x1="392.2425" x2="356.3612" y1="1040.0" y2="1040.0"/>
    <line x1="356.9218" x2="391.0903" y1="1036.2205" y2="1036.2205"/>
    <line x1="389.7141" x2="357.4825" y1="1032.4409" y2="1032.4409"/>
    <line x1="358.2521" x2="387.9265" y1="1028.6614" y2="1028.6614"/>
    <line x1="385.8232" x2="359.1989" y1="1024.8819" y2="1024.8819"/>
    <line x1="360.1456" x2="383.376" y1="1021.1024" y2="1021.1024"/>
    <line x1="380.5109" x2="361.4102" y1="1017.3228" y2="1017.3228"/>
    <line x1="362.7625" x2="377.0853" y1="1013.5433" y2="1013.5433"/>
    <line x1="372.9473" x2="364.1614" y1="1009.7638" y2="1009.7638"/>
    <line x1="365.949" x2="367.9205" y1="1005.9843" y2="1005.9843"/>
    <line x1="373.5563" x2="737.0079" y1="992.126" y2="992.126"/>
    <line x1="737.0079" x2="56.6929" y1="999.685" y2="999.685"/>
    <line x1="56.6929" x2="165.7665" y1="992.126" y2="992.126"/>
    <line x1="169.4676" x2="56.6929" y1="977.0079" y2="977.0079"/>
    <line x1="56.6929" x2="737.0079" y1="969.4488" y2="969.4488"/>
    <line x1="737.0079" x2="385.5647" y1="977.0079" y2="977.0079"/>
    <line x1="403.1374" x2="737.0079" y1="961.8898" y2="961.8898"/>
    <line x1="737.0079" x2="56.6929" y1="954.3307" y2="954.3307"/>
    <line x1="56.6929" x2="170.5653" y1="961.8898" y2="961.8898"/>
    <line x1="169.0594" x2="56.6929" y1="946.7717" y2="946.7717"/>
    <line x1="56.6929" x2="737.0079" y1="939.2126" y2="939.2126"/>
    <line x1="737.0079" x2="435.4202" y1="946.7717" y2="946.7717"/>
    <line x1="456.1916" x2="737.0079" y1="916.5354" y2="916.5354"/>
    <line x1="737.0079" x2="56.6929" y1="908.9764" y2="908.9764"/>
    <line x1="56.6929" x2="164.7819" y1="931.6535" y2="931.6535"/>
    <line x1="193.2946" x2="256.2611" y1="946.7717" y2="946.7717"/>
    <line x1="253.8965" x2="195.6592" y1="961.8898" y2="961.8898"/>
    <line x1="209.0942" x2="240.4616" y1="977.0079" y2="977.0079"/>
    <line x1="250.7998" x2="198.7559" y1="931.6535" y2="931.6535"/>
    <line x1="159.0411" x2="56.6929" y1="1007.2441" y2="1007.2441"/>
    <line x1="56.6929" x2="737.0079" y1="1014.8031" y2="1014.8031"/>
    <line x1="737.0079" x2="285.5763" y1="1022.3622" y2="1022.3622"/>
    <line x1="278.3456" x2="737.0079" y1="1037.4803" y2="1037.4803"/>
    <line x1="737.0079" x2="56.6929" y1="1029.9213" y2="1029.9213"/>
    <line x1="56.6929" x2="148.318" y1="1022.3622" y2="1022.3622"/>
    <line x1="131.3268" x2="56.6929" y1="1037.4803" y2="1037.4803"/>
    <line x1="56.6929" x2="737.0079" y1="1045.0394" y2="1045.0394"/>
    <line x1="737.0079" x2="275.6902" y1="1052.5984" y2="1052.5984"/>
    <line x1="300.264" x2="737.0079" y1="1007.2441" y2="1007.2441"/>
    <line x1="737.0079" x2="56.6929" y1="984.5669" y2="984.5669"/>
    <line x1="84.5598" x2="103.0323" y1="949.2913" y2="949.2913"/>
    <line x1="105.7159" x2="81.8762" y1="945.5118" y2="945.5118"/>
    <line x1="80.7366" x2="106.8555" y1="941.7323" y2="941.7323"/>
    <line x1="106.8513" x2="80.7408" y1="937.9528" y2="937.9528"/>
    <line x1="81.8896" x2="105.7025" y1="934.1732" y2="934.1732"/>
    <line x1="103.0011" x2="84.5911" y1="930.3937" y2="930.3937"/>
    <line x1="89.8278" x2="71.8524" y1="1052.5984" y2="1052.5984"/>
    <line x1="56.6929" x2="737.0079" y1="1060.1575" y2="1060.1575"/>
    <line x1="737.0079" x2="56.6929" y1="1075.2756" y2="1075.2756"/>
    <line x1="355.9712" x2="394.1598" y1="1058.8976" y2="1058.8976"/>
    <line x1="454.9455" x2="456.304" y1="809.4488" y2="809.4488"/>
    <line x1="458.069" x2="493.1212" y1="809.4488" y2="809.4488"/>
    <line x1="479.403" x2="471.7872" y1="805.6693" y2="805.6693"/>
    <line x1="459.1169" x2="456.5463" y1="801.8898" y2="801.8898"/>
    <line x1="455.7215" x2="457.9132" y1="805.6693" y2="805.6693"/>
    <line x1="457.3967" x2="459.9513" y1="798.1102" y2="798.1102"/>
    <line x1="460.4389" x2="458.2471" y1="794.3307" y2="794.3307"/>
    <line x1="458.3775" x2="460.592" y1="790.5512" y2="790.5512"/>
    <line x1="460.4064" x2="458.4695" y1="786.7717" y2="786.7717"/>
    <line x1="458.3014" x2="459.853" y1="782.9921" y2="782.9921"/>
    <line x1="458.9511" x2="457.3201" y1="779.2126" y2="779.2126"/>
    <line x1="457.6763" x2="456.3389" y1="775.4331" y2="775.4331"/>
    <line x1="455.9908" x2="455.0446" y1="771.6535" y2="771.6535"/>
    <line x1="453.8386" x2="453.4787" y1="767.874" y2="767.874"/>
    <line x1="553.31" x2="650.5491" y1="732.5984" y2="732.5984"/>
    <line x1="651.2253" x2="552.6338" y1="730.7087" y2="730.7087"/>
    <line x1="551.975" x2="651.8841" y1="728.8189" y2="728.8189"/>
    <line x1="652.3575" x2="551.5016" y1="726.9291" y2="726.9291"/>
    <line x1="551.0283" x2="652.8308" y1="725.0394" y2="725.0394"/>
    <line x1="653.2158" x2="550.6433" y1="723.1496" y2="723.1496"/>
    <line x1="550.363" x2="653.4961" y1="721.2598" y2="721.2598"/>
    <line x1="653.7764" x2="550.0827" y1="719.3701" y2="719.3701"/>
    <line x1="549.9483" x2="653.9108" y1="717.4803" y2="717.4803"/>
    <line x1="654.0036" x2="549.8555" y1="715.5906" y2="715.5906"/>
    <line x1="549.7763" x2="654.0828" y1="713.7008" y2="713.7008"/>
    <line x1="653.99" x2="549.8691" y1="711.811" y2="711.811"/>
    <line x1="549.9619" x2="653.8972" y1="709.9213" y2="709.9213"/>
    <line x1="653.7354" x2="550.1237" y1="708.0315" y2="708.0315"/>
    <line x1="550.404" x2="653.455" y1="706.1417" y2="706.1417"/>
    <line x1="653.1747" x2="550.6844" y1="704.252" y2="704.252"/>
    <line x1="551.0976" x2="652.7615" y1="702.3622" y2="702.3622"/>
    <line x1="652.2881" x2="551.5709" y1="700.4724" y2="700.4724"/>
    <line x1="552.0567" x2="651.8024" y1="698.5827" y2="698.5827"/>
    <line x1="651.1262" x2="552.7328" y1="696.6929" y2="696.6929"/>
    <line x1="553.409" x2="650.4501" y1="694.8031" y2="694.8031"/>
    <line x1="649.6628" x2="554.1963" y1="692.9134" y2="692.9134"/>
    <line x1="555.0901" x2="648.769" y1="691.0236" y2="691.0236"/>
    <line x1="647.8604" x2="555.9987" y1="689.1339" y2="689.1339"/>
    <line x1="557.1314" x2="646.7277" y1="687.2441" y2="687.2441"/>
    <line x1="645.595" x2="558.2641" y1="685.3543" y2="685.3543"/>
    <line x1="559.5954" x2="644.2637" y1="683.4646" y2="683.4646"/>
    <line x1="642.8622" x2="560.9969" y1="681.5748" y2="681.5748"/>
    <line x1="562.5737" x2="641.2854" y1="679.685" y2="679.685"/>
    <line x1="639.5726" x2="564.2865" y1="677.7953" y2="677.7953"/>
    <line x1="566.2063" x2="637.6528" y1="675.9055" y2="675.9055"/>
    <line x1="635.5678" x2="568.2913" y1="674.0157" y2="674.0157"/>
    <line x1="570.7176" x2="633.1414" y1="672.126" y2="672.126"/>
    <line x1="630.5187" x2="573.3404" y1="670.2362" y2="670.2362"/>
    <line x1="576.4933" x2="627.3658" y1="668.3465" y2="668.3465"/>
    <line x1="623.5969" x2="580.2621" y1="666.4567" y2="666.4567"/>
    <line x1="584.9944" x2="618.8647" y1="664.5669" y2="664.5669"/>
    <line x1="612.0774" x2="591.7817" y1="662.6772" y2="662.6772"/>
    <line x1="554.0654" x2="649.7937" y1="734.4882" y2="734.4882"/>
    <line x1="648.8999" x2="554.9592" y1="736.378" y2="736.378"/>
    <line x1="555.853" x2="648.0061" y1="738.2677" y2="738.2677"/>
    <line x1="646.8936" x2="556.9655" y1="740.1575" y2="740.1575"/>
    <line x1="558.0982" x2="645.7609" y1="742.0472" y2="742.0472"/>
    <line x1="644.469" x2="559.3901" y1="743.937" y2="743.937"/>
    <line x1="560.7916" x2="643.0674" y1="745.8268" y2="745.8268"/>
    <line x1="641.5362" x2="562.3229" y1="747.7165" y2="747.7165"/>
    <line x1="564.0356" x2="639.8234" y1="749.6063" y2="749.6063"/>
    <line x1="637.9582" x2="565.9009" y1="751.4961" y2="751.4961"/>
    <line x1="567.9859" x2="635.8731" y1="753.3858" y2="753.3858"/>
    <line x1="633.5146" x2="570.3444" y1="755.2756" y2="755.2756"/>
    <line x1="572.8925" x2="630.9666" y1="757.1654" y2="757.1654"/>
    <line x1="627.8276" x2="576.0315" y1="759.0551" y2="759.0551"/>
    <line x1="579.677" x2="624.1821" y1="760.9449" y2="760.9449"/>
    <line x1="619.6382" x2="584.2209" y1="762.8346" y2="762.8346"/>
    <line x1="590.6653" x2="613.1938" y1="764.7244" y2="764.7244"/>
    <line x1="569.1524" x2="534.3387" y1="571.3386" y2="571.3386"/>
    <line x1="521.1855" x2="582.3056" y1="567.5591" y2="567.5591"/>
    <line x1="591.1974" x2="455.1075" y1="563.7795" y2="563.7795"/>
    <line x1="455.0873" x2="598.0829" y1="560.0" y2="560.0"/>
    <line x1="603.831" x2="455.7221" y1="556.2205" y2="556.2205"/>
    <line x1="456.6554" x2="608.8565" y1="552.4409" y2="552.4409"/>
    <line x1="613.0265" x2="457.5888" y1="548.6614" y2="548.6614"/>
    <line x1="458.2996" x2="616.813" y1="544.8819" y2="544.8819"/>
    <line x1="620.2385" x2="459.0059" y1="541.1024" y2="541.1024"/>
    <line x1="459.3642" x2="623.1705" y1="537.3228" y2="537.3228"/>
    <line x1="625.9736" x2="458.7946" y1="533.5433" y2="533.5433"/>
    <line x1="458.225" x2="628.2787" y1="529.7638" y2="529.7638"/>
    <line x1="630.5441" x2="457.3537" y1="525.9843" y2="525.9843"/>
    <line x1="458.4671" x2="561.4173" y1="522.8346" y2="522.8346"/>
    <line x1="563.9653" x2="455.9191" y1="520.9449" y2="520.9449"/>
    <line x1="456.2508" x2="632.3641" y1="522.2047" y2="522.2047"/>
    <line x1="558.6751" x2="461.2093" y1="524.7244" y2="524.7244"/>
    <line x1="464.3622" x2="555.5223" y1="526.6142" y2="526.6142"/>
    <line x1="552.3694" x2="467.515" y1="528.5039" y2="528.5039"/>
    <line x1="471.452" x2="548.4324" y1="530.3937" y2="530.3937"/>
    <line x1="544.4368" x2="475.4476" y1="532.2835" y2="532.2835"/>
    <line x1="480.6552" x2="539.2292" y1="534.1732" y2="534.1732"/>
    <line x1="533.0968" x2="486.7877" y1="536.063" y2="536.063"/>
    <line x1="495.6114" x2="524.273" y1="537.9528" y2="537.9528"/>
    <line x1="510.7174" x2="455.1277" y1="567.5591" y2="567.5591"/>
    <line x1="455.3997" x2="507.2918" y1="571.3386" y2="571.3386"/>
    <line x1="503.5247" x2="455.8355" y1="575.1181" y2="575.1181"/>
    <line x1="456.2712" x2="499.3546" y1="578.8976" y2="578.8976"/>
    <line x1="494.522" x2="456.3465" y1="582.6772" y2="582.6772"/>
    <line x1="456.3813" x2="489.2211" y1="586.4567" y2="586.4567"/>
    <line x1="482.9154" x2="456.201" y1="590.2362" y2="590.2362"/>
    <line x1="455.1149" x2="475.2027" y1="594.0157" y2="594.0157"/>
    <line x1="466.8183" x2="451.0207" y1="605.3543" y2="605.3543"/>
    <line x1="387.759" x2="308.2446" y1="533.5433" y2="533.5433"/>
    <line x1="313.102" x2="382.9015" y1="529.7638" y2="529.7638"/>
    <line x1="376.8386" x2="319.1649" y1="525.9843" y2="525.9843"/>
    <line x1="327.9242" x2="375.9883" y1="522.2047" y2="522.2047"/>
    <line x1="375.2141" x2="336.1368" y1="518.4252" y2="518.4252"/>
    <line x1="335.5761" x2="374.2034" y1="514.6457" y2="514.6457"/>
    <line x1="372.8511" x2="335.1768" y1="510.8661" y2="510.8661"/>
    <line x1="334.9912" x2="371.149" y1="507.0866" y2="507.0866"/>
    <line x1="369.121" x2="334.8055" y1="503.3071" y2="503.3071"/>
    <line x1="334.9309" x2="366.7108" y1="499.5276" y2="499.5276"/>
    <line x1="363.8367" x2="335.1166" y1="495.748" y2="495.748"/>
    <line x1="335.3941" x2="360.3752" y1="491.9685" y2="491.9685"/>
    <line x1="356.129" x2="335.9548" y1="488.189" y2="488.189"/>
    <line x1="336.5154" x2="350.7602" y1="484.4094" y2="484.4094"/>
    <line x1="343.6354" x2="337.3376" y1="480.6299" y2="480.6299"/>
    <line x1="337.9687" x2="737.0079" y1="478.1102" y2="478.1102"/>
    <line x1="598.3094" x2="421.575" y1="435.9055" y2="435.9055"/>
    <line x1="441.1145" x2="578.7699" y1="392.4409" y2="392.4409"/>
    <line x1="577.0572" x2="442.8272" y1="390.5512" y2="390.5512"/>
    <line x1="444.54" x2="575.3444" y1="388.6614" y2="388.6614"/>
    <line x1="573.6316" x2="446.2528" y1="386.7717" y2="386.7717"/>
    <line x1="448.2561" x2="571.6284" y1="384.8819" y2="384.8819"/>
    <line x1="569.5433" x2="450.3411" y1="382.9921" y2="382.9921"/>
    <line x1="452.4261" x2="567.4583" y1="381.1024" y2="381.1024"/>
    <line x1="565.0687" x2="454.8157" y1="379.2126" y2="379.2126"/>
    <line x1="457.3638" x2="562.5207" y1="377.3228" y2="377.3228"/>
    <line x1="559.9726" x2="459.9118" y1="375.4331" y2="375.4331"/>
    <line x1="462.9969" x2="556.8875" y1="373.5433" y2="373.5433"/>
    <line x1="553.7346" x2="466.1498" y1="371.6535" y2="371.6535"/>
    <line x1="469.7219" x2="550.1625" y1="369.7638" y2="369.7638"/>
    <line x1="546.167" x2="473.7174" y1="367.874" y2="367.874"/>
    <line x1="478.3682" x2="541.5162" y1="365.9843" y2="365.9843"/>
    <line x1="536.2347" x2="483.6497" y1="364.0945" y2="364.0945"/>
    <line x1="491.0651" x2="528.8193" y1="362.2047" y2="362.2047"/>
    <line x1="513.68" x2="506.2044" y1="360.315" y2="360.315"/>
    <line x1="447.0741" x2="647.2594" y1="348.3465" y2="348.3465"/>
    <line x1="652.2354" x2="445.2993" y1="352.126" y2="352.126"/>
    <line x1="443.947" x2="656.4054" y1="355.9055" y2="355.9055"/>
    <line x1="593.6367" x2="516.7074" y1="276.5354" y2="276.5354"/>
    <line x1="532.1214" x2="591.0578" y1="272.7559" y2="272.7559"/>
    <line x1="587.6928" x2="535.4863" y1="268.9764" y2="268.9764"/>
    <line x1="540.0556" x2="583.1236" y1="265.1969" y2="265.1969"/>
    <line x1="576.4012" x2="546.778" y1="261.4173" y2="261.4173"/>
    <line x1="611.2401" x2="734.1786" y1="216.063" y2="216.063"/>
    <line x1="737.0079" x2="390.7646" y1="236.2205" y2="236.2205"/>
    <line x1="335.0695" x2="308.9864" y1="337.6378" y2="337.6378"/>
    <line x1="305.7125" x2="338.3433" y1="339.5276" y2="339.5276"/>
    <line x1="330.3519" x2="313.704" y1="335.748" y2="335.748"/>
    <line x1="352.0227" x2="352.9649" y1="446.6142" y2="446.6142"/>
    <line x1="351.5745" x2="349.6808" y1="450.3937" y2="450.3937"/>
    <line x1="349.7852" x2="347.4154" y1="454.1732" y2="454.1732"/>
    <line x1="347.5199" x2="345.4516" y1="457.9528" y2="457.9528"/>
    <line x1="344.7228" x2="343.664" y1="461.7323" y2="461.7323"/>
    <line x1="336.6853" x2="302.9275" y1="478.1102" y2="478.1102"/>
    <line x1="311.536" x2="321.403" y1="476.8504" y2="476.8504"/>
    <line x1="102.649" x2="57.5816" y1="493.2283" y2="493.2283"/>
    <line x1="581.9769" x2="737.0079" y1="174.4882" y2="174.4882"/>
    <line x1="737.0079" x2="580.926" y1="170.7087" y2="170.7087"/>
    <line x1="578.709" x2="737.0079" y1="159.3701" y2="159.3701"/>
    <line x1="737.0079" x2="578.4292" y1="140.4724" y2="140.4724"/>
    <line x1="580.4535" x2="737.0079" y1="129.1339" y2="129.1339"/>
    <line x1="708.5282" x2="616.5206" y1="219.8425" y2="219.8425"/>
    <line x1="622.8668" x2="702.182" y1="223.622" y2="223.622"/>
    <line x1="693.9708" x2="631.078" y1="227.4016" y2="227.4016"/>
    <line x1="643.2074" x2="681.8414" y1="231.1811" y2="231.1811"/>
  </g>
</svg>
