<?xml version="1.0" encoding="utf-8" ?>
<svg xmlns="http://www.w3.org/2000/svg" xmlns:cc="http://creativecommons.org/ns#" xmlns:dc="http://purl.org/dc/elements/1.1/" xmlns:ev="http://www.w3.org/2001/xml-events" xmlns:inkscape="http://www.inkscape.org/namespaces/inkscape" xmlns:rdf="http://www.w3.org/1999/02/22-rdf-syntax-ns#" xmlns:sodipodi="http://sodipodi.sourceforge.net/DTD/sodipodi-0.dtd" xmlns:xlink="http://www.w3.org/1999/xlink" baseProfile="tiny" height="29.7cm" version="1.2" viewBox="0 0 793.7007874015749 1122.5196850393702" width="21.0cm">
  <metadata>
    <rdf:RDF>
      <cc:Work>
        <dc:format>image/svg+xml</dc:format>
        <dc:source/>
        <dc:date>2021-07-13T22:23:44.389918</dc:date>
      </cc:Work>
    </rdf:RDF>
  </metadata>
  <defs/>
  <g fill="none" id="layer1" inkscape:groupmode="layer" inkscape:label="1" stroke="#00f" style="display:inline">
    <line x1="737.0079" x2="56.6929" y1="56.6929" y2="56.6929"/>
    <line x1="56.6929" x2="737.0079" y1="68.0315" y2="68.0315"/>
    <line x1="737.0079" x2="319.2718" y1="73.7008" y2="73.7008"/>
    <line x1="314.3048" x2="408.6018" y1="66.1417" y2="66.1417"/>
    <line x1="410.6198" x2="312.2868" y1="67.5591" y2="67.5591"/>
    <line x1="310.3758" x2="412.5309" y1="68.9764" y2="68.9764"/>
    <line x1="414.4419" x2="308.4647" y1="70.3937" y2="70.3937"/>
    <line x1="306.6309" x2="416.2757" y1="71.811" y2="71.811"/>
    <line x1="417.8395" x2="305.0671" y1="73.2283" y2="73.2283"/>
    <line x1="303.5034" x2="419.4033" y1="74.6457" y2="74.6457"/>
    <line x1="420.967" x2="301.9396" y1="76.063" y2="76.063"/>
    <line x1="300.4399" x2="422.4667" y1="77.4803" y2="77.4803"/>
    <line x1="423.7513" x2="299.1553" y1="78.8976" y2="78.8976"/>
    <line x1="297.8707" x2="425.0359" y1="80.315" y2="80.315"/>
    <line x1="426.3205" x2="296.5861" y1="81.7323" y2="81.7323"/>
    <line x1="295.3015" x2="427.6051" y1="83.1496" y2="83.1496"/>
    <line x1="428.6973" x2="294.2093" y1="84.5669" y2="84.5669"/>
    <line x1="293.1582" x2="429.7484" y1="85.9843" y2="85.9843"/>
    <line x1="430.7996" x2="292.107" y1="87.4016" y2="87.4016"/>
    <line x1="291.0559" x2="431.8508" y1="88.8189" y2="88.8189"/>
    <line x1="432.8921" x2="290.0145" y1="90.2362" y2="90.2362"/>
    <line x1="289.165" x2="433.7416" y1="91.6535" y2="91.6535"/>
    <line x1="434.5911" x2="288.3155" y1="93.0709" y2="93.0709"/>
    <line x1="287.466" x2="435.4406" y1="94.4882" y2="94.4882"/>
    <line x1="436.2901" x2="286.6165" y1="95.9055" y2="95.9055"/>
    <line x1="285.767" x2="437.1397" y1="97.3228" y2="97.3228"/>
    <line x1="437.8191" x2="285.0875" y1="98.7402" y2="98.7402"/>
    <line x1="284.4171" x2="438.4895" y1="100.1575" y2="100.1575"/>
    <line x1="439.1598" x2="283.7468" y1="101.5748" y2="101.5748"/>
    <line x1="283.0765" x2="439.8302" y1="102.9921" y2="102.9921"/>
    <line x1="440.5005" x2="282.4061" y1="104.4094" y2="104.4094"/>
    <line x1="281.8295" x2="441.0771" y1="105.8268" y2="105.8268"/>
    <line x1="441.5843" x2="281.3224" y1="107.2441" y2="107.2441"/>
    <line x1="280.8152" x2="442.0914" y1="108.6614" y2="108.6614"/>
    <line x1="442.5985" x2="280.3081" y1="110.0787" y2="110.0787"/>
    <line x1="279.801" x2="443.1056" y1="111.4961" y2="111.4961"/>
    <line x1="443.6128" x2="279.2939" y1="112.9134" y2="112.9134"/>
    <line x1="278.9352" x2="443.9714" y1="114.3307" y2="114.3307"/>
    <line x1="444.3264" x2="278.5802" y1="115.748" y2="115.748"/>
    <line x1="278.2252" x2="444.6814" y1="117.1654" y2="117.1654"/>
    <line x1="445.0365" x2="277.8702" y1="118.5827" y2="118.5827"/>
    <line x1="277.5151" x2="445.3915" y1="120.0" y2="120.0"/>
    <line x1="445.7163" x2="277.1904" y1="121.4173" y2="121.4173"/>
    <line x1="276.9801" x2="445.9265" y1="122.8346" y2="122.8346"/>
    <line x1="446.1367" x2="276.7699" y1="124.252" y2="124.252"/>
    <line x1="276.5596" x2="446.347" y1="125.6693" y2="125.6693"/>
    <line x1="446.5572" x2="276.3494" y1="127.0866" y2="127.0866"/>
    <line x1="276.1392" x2="446.7675" y1="128.5039" y2="128.5039"/>
    <line x1="446.9316" x2="275.975" y1="129.9213" y2="129.9213"/>
    <line x1="275.9054" x2="447.0013" y1="131.3386" y2="131.3386"/>
    <line x1="447.0709" x2="275.8357" y1="132.7559" y2="132.7559"/>
    <line x1="275.7661" x2="447.1405" y1="134.1732" y2="134.1732"/>
    <line x1="447.2101" x2="275.6965" y1="135.5906" y2="135.5906"/>
    <line x1="275.6269" x2="447.2798" y1="137.0079" y2="137.0079"/>
    <line x1="447.2952" x2="275.6114" y1="138.4252" y2="138.4252"/>
    <line x1="275.6811" x2="447.2256" y1="139.8425" y2="139.8425"/>
    <line x1="447.1559" x2="275.7507" y1="141.2598" y2="141.2598"/>
    <line x1="276.3467" x2="737.0079" y1="141.7323" y2="141.7323"/>
    <line x1="737.0079" x2="56.6929" y1="136.063" y2="136.063"/>
    <line x1="56.6929" x2="737.0079" y1="124.7244" y2="124.7244"/>
    <line x1="737.0079" x2="282.6721" y1="119.0551" y2="119.0551"/>
    <line x1="278.8278" x2="737.0079" y1="130.3937" y2="130.3937"/>
    <line x1="737.0079" x2="56.6929" y1="147.4016" y2="147.4016"/>
    <line x1="56.6929" x2="737.0079" y1="158.7402" y2="158.7402"/>
    <line x1="734.342" x2="563.4331" y1="161.1024" y2="161.1024"/>
    <line x1="561.8724" x2="735.9027" y1="162.5197" y2="162.5197"/>
    <line x1="737.0079" x2="560.5878" y1="163.937" y2="163.937"/>
    <line x1="559.3032" x2="737.0079" y1="165.3543" y2="165.3543"/>
    <line x1="737.0079" x2="275.1882" y1="164.4094" y2="164.4094"/>
    <line x1="279.2116" x2="443.695" y1="162.5197" y2="162.5197"/>
    <line x1="444.05" x2="278.8566" y1="161.1024" y2="161.1024"/>
    <line x1="278.5016" x2="444.4051" y1="159.685" y2="159.685"/>
    <line x1="444.7601" x2="278.1465" y1="158.2677" y2="158.2677"/>
    <line x1="277.7915" x2="445.1151" y1="156.8504" y2="156.8504"/>
    <line x1="445.4701" x2="277.4365" y1="155.4331" y2="155.4331"/>
    <line x1="277.1438" x2="445.7628" y1="154.0157" y2="154.0157"/>
    <line x1="445.9731" x2="276.9336" y1="152.5984" y2="152.5984"/>
    <line x1="276.7233" x2="446.1833" y1="151.1811" y2="151.1811"/>
    <line x1="446.3936" x2="276.5131" y1="149.7638" y2="149.7638"/>
    <line x1="276.3028" x2="446.6038" y1="148.3465" y2="148.3465"/>
    <line x1="446.814" x2="276.0926" y1="146.9291" y2="146.9291"/>
    <line x1="275.9596" x2="446.9471" y1="145.5118" y2="145.5118"/>
    <line x1="447.0167" x2="275.8899" y1="144.0945" y2="144.0945"/>
    <line x1="275.8203" x2="447.0863" y1="142.6772" y2="142.6772"/>
    <line x1="443.218" x2="279.6887" y1="163.937" y2="163.937"/>
    <line x1="280.1958" x2="442.7108" y1="165.3543" y2="165.3543"/>
    <line x1="442.2037" x2="280.7029" y1="166.7717" y2="166.7717"/>
    <line x1="281.21" x2="441.6966" y1="168.189" y2="168.189"/>
    <line x1="441.1895" x2="281.7172" y1="169.6063" y2="169.6063"/>
    <line x1="282.2576" x2="440.649" y1="171.0236" y2="171.0236"/>
    <line x1="439.9787" x2="282.928" y1="172.4409" y2="172.4409"/>
    <line x1="283.5983" x2="439.3083" y1="173.8583" y2="173.8583"/>
    <line x1="438.638" x2="284.2687" y1="175.2756" y2="175.2756"/>
    <line x1="284.939" x2="437.9676" y1="176.6929" y2="176.6929"/>
    <line x1="437.2973" x2="285.6093" y1="178.1102" y2="178.1102"/>
    <line x1="286.4283" x2="436.4783" y1="179.5276" y2="179.5276"/>
    <line x1="435.6288" x2="287.2778" y1="180.9449" y2="180.9449"/>
    <line x1="288.1273" x2="434.7793" y1="182.3622" y2="182.3622"/>
    <line x1="433.9298" x2="288.9768" y1="183.7795" y2="183.7795"/>
    <line x1="289.8263" x2="433.0803" y1="185.1969" y2="185.1969"/>
    <line x1="432.0836" x2="290.823" y1="186.6142" y2="186.6142"/>
    <line x1="291.8742" x2="431.0324" y1="188.0315" y2="188.0315"/>
    <line x1="429.9813" x2="292.9253" y1="189.4488" y2="189.4488"/>
    <line x1="293.9765" x2="428.9301" y1="190.8661" y2="190.8661"/>
    <line x1="427.879" x2="295.0277" y1="192.2835" y2="192.2835"/>
    <line x1="296.3016" x2="426.605" y1="193.7008" y2="193.7008"/>
    <line x1="425.3205" x2="297.5862" y1="195.1181" y2="195.1181"/>
    <line x1="298.8708" x2="424.0359" y1="196.5354" y2="196.5354"/>
    <line x1="422.7513" x2="300.1553" y1="197.9528" y2="197.9528"/>
    <line x1="301.5932" x2="421.3134" y1="199.3701" y2="199.3701"/>
    <line x1="419.7497" x2="303.157" y1="200.7874" y2="200.7874"/>
    <line x1="304.7207" x2="418.1859" y1="202.2047" y2="202.2047"/>
    <line x1="416.6221" x2="306.2845" y1="203.622" y2="203.622"/>
    <line x1="308.0414" x2="414.8652" y1="205.0394" y2="205.0394"/>
    <line x1="412.9542" x2="309.9524" y1="206.4567" y2="206.4567"/>
    <line x1="311.8635" x2="411.0431" y1="207.874" y2="207.874"/>
    <line x1="409.1256" x2="313.781" y1="209.2913" y2="209.2913"/>
    <line x1="316.1457" x2="406.7609" y1="210.7087" y2="210.7087"/>
    <line x1="404.5604" x2="465.8796" y1="211.6535" y2="211.6535"/>
    <line x1="467.5787" x2="404.5197" y1="208.8189" y2="208.8189"/>
    <line x1="405.1082" x2="469.1654" y1="205.9843" y2="205.9843"/>
    <line x1="470.5061" x2="405.6966" y1="203.1496" y2="203.1496"/>
    <line x1="406.2851" x2="471.8468" y1="200.315" y2="200.315"/>
    <line x1="473.1582" x2="407.2432" y1="197.4803" y2="197.4803"/>
    <line x1="408.3778" x2="474.1725" y1="194.6457" y2="194.6457"/>
    <line x1="475.1868" x2="409.5124" y1="191.811" y2="191.811"/>
    <line x1="410.6363" x2="476.201" y1="188.9764" y2="188.9764"/>
    <line x1="476.9926" x2="411.6381" y1="186.1417" y2="186.1417"/>
    <line x1="412.6398" x2="477.7027" y1="183.3071" y2="183.3071"/>
    <line x1="478.4127" x2="413.6416" y1="180.4724" y2="180.4724"/>
    <line x1="414.4664" x2="479.0439" y1="177.6378" y2="177.6378"/>
    <line x1="479.4643" x2="415.1033" y1="174.8031" y2="174.8031"/>
    <line x1="415.7401" x2="479.8848" y1="171.9685" y2="171.9685"/>
    <line x1="480.3053" x2="416.3769" y1="169.1339" y2="169.1339"/>
    <line x1="416.9006" x2="480.5163" y1="166.2992" y2="166.2992"/>
    <line x1="484.104" x2="538.391" y1="166.2992" y2="166.2992"/>
    <line x1="547.9177" x2="417.4101" y1="163.4646" y2="163.4646"/>
    <line x1="417.9196" x2="555.4121" y1="160.6299" y2="160.6299"/>
    <line x1="561.4054" x2="418.3749" y1="157.7953" y2="157.7953"/>
    <line x1="418.6993" x2="566.6846" y1="154.9606" y2="154.9606"/>
    <line x1="568.1244" x2="729.6506" y1="156.8504" y2="156.8504"/>
    <line x1="728.0869" x2="569.6882" y1="155.4331" y2="155.4331"/>
    <line x1="571.345" x2="726.43" y1="154.0157" y2="154.0157"/>
    <line x1="724.519" x2="573.256" y1="152.5984" y2="152.5984"/>
    <line x1="571.4139" x2="419.0237" y1="152.126" y2="152.126"/>
    <line x1="419.3481" x2="575.6235" y1="149.2913" y2="149.2913"/>
    <line x1="577.0781" x2="720.6969" y1="149.7638" y2="149.7638"/>
    <line x1="718.7859" x2="578.9891" y1="148.3465" y2="148.3465"/>
    <line x1="579.4456" x2="419.351" y1="146.4567" y2="146.4567"/>
    <line x1="419.2143" x2="583.084" y1="143.622" y2="143.622"/>
    <line x1="583.3524" x2="714.4226" y1="145.5118" y2="145.5118"/>
    <line x1="716.7873" x2="580.9878" y1="146.9291" y2="146.9291"/>
    <line x1="585.7171" x2="712.058" y1="144.0945" y2="144.0945"/>
    <line x1="709.6933" x2="588.0817" y1="142.6772" y2="142.6772"/>
    <line x1="586.2116" x2="419.0775" y1="140.7874" y2="140.7874"/>
    <line x1="419.0275" x2="589.3391" y1="137.9528" y2="137.9528"/>
    <line x1="590.4464" x2="707.3286" y1="141.2598" y2="141.2598"/>
    <line x1="704.4499" x2="593.3251" y1="139.8425" y2="139.8425"/>
    <line x1="596.3218" x2="701.4532" y1="138.4252" y2="138.4252"/>
    <line x1="698.4566" x2="599.3185" y1="137.0079" y2="137.0079"/>
    <line x1="602.48" x2="695.295" y1="135.5906" y2="135.5906"/>
    <line x1="691.3339" x2="606.4412" y1="134.1732" y2="134.1732"/>
    <line x1="610.4023" x2="687.3727" y1="132.7559" y2="132.7559"/>
    <line x1="682.9009" x2="614.8742" y1="131.3386" y2="131.3386"/>
    <line x1="620.5324" x2="677.2426" y1="129.9213" y2="129.9213"/>
    <line x1="670.6844" x2="627.0906" y1="128.5039" y2="128.5039"/>
    <line x1="636.6454" x2="661.1296" y1="127.0866" y2="127.0866"/>
    <line x1="613.1202" x2="409.3749" y1="103.937" y2="103.937"/>
    <line x1="408.0342" x2="614.4609" y1="101.1024" y2="101.1024"/>
    <line x1="615.5237" x2="406.9714" y1="98.2677" y2="98.2677"/>
    <line x1="405.9572" x2="616.5379" y1="95.4331" y2="95.4331"/>
    <line x1="617.5522" x2="404.9429" y1="92.5984" y2="92.5984"/>
    <line x1="403.9903" x2="618.5047" y1="89.7638" y2="89.7638"/>
    <line x1="619.2148" x2="403.2803" y1="86.9291" y2="86.9291"/>
    <line x1="402.5703" x2="619.9248" y1="84.0945" y2="84.0945"/>
    <line x1="620.6348" x2="401.8602" y1="81.2598" y2="81.2598"/>
    <line x1="401.2787" x2="621.2164" y1="78.4252" y2="78.4252"/>
    <line x1="621.6369" x2="444.1403" y1="75.5906" y2="75.5906"/>
    <line x1="445.3942" x2="622.0573" y1="72.7559" y2="72.7559"/>
    <line x1="622.4778" x2="446.6481" y1="69.9213" y2="69.9213"/>
    <line x1="447.902" x2="622.7266" y1="67.0866" y2="67.0866"/>
    <line x1="622.8658" x2="448.5393" y1="64.252" y2="64.252"/>
    <line x1="449.1297" x2="623.0051" y1="61.4173" y2="61.4173"/>
    <line x1="623.1444" x2="449.72" y1="58.5827" y2="58.5827"/>
    <line x1="439.0735" x2="400.8582" y1="75.5906" y2="75.5906"/>
    <line x1="400.4377" x2="435.2515" y1="72.7559" y2="72.7559"/>
    <line x1="430.5515" x2="400.0172" y1="69.9213" y2="69.9213"/>
    <line x1="399.7685" x2="425.6524" y1="67.0866" y2="67.0866"/>
    <line x1="419.6591" x2="399.6292" y1="64.252" y2="64.252"/>
    <line x1="399.49" x2="412.4899" y1="61.4173" y2="61.4173"/>
    <line x1="406.2371" x2="316.6695" y1="64.7244" y2="64.7244"/>
    <line x1="319.0342" x2="403.8725" y1="63.3071" y2="63.3071"/>
    <line x1="401.3945" x2="321.5121" y1="61.8898" y2="61.8898"/>
    <line x1="324.5088" x2="398.3978" y1="60.4724" y2="60.4724"/>
    <line x1="399.3507" x2="403.1824" y1="58.5827" y2="58.5827"/>
    <line x1="395.4012" x2="327.5055" y1="59.0551" y2="59.0551"/>
    <line x1="331.1167" x2="391.7899" y1="57.6378" y2="57.6378"/>
    <line x1="340.6666" x2="737.0079" y1="62.3622" y2="62.3622"/>
    <line x1="737.0079" x2="56.6929" y1="79.3701" y2="79.3701"/>
    <line x1="56.6929" x2="737.0079" y1="90.7087" y2="90.7087"/>
    <line x1="737.0079" x2="305.5402" y1="85.0394" y2="85.0394"/>
    <line x1="295.7398" x2="737.0079" y1="96.378" y2="96.378"/>
    <line x1="737.0079" x2="56.6929" y1="102.0472" y2="102.0472"/>
    <line x1="56.6929" x2="737.0079" y1="113.3858" y2="113.3858"/>
    <line x1="737.0079" x2="288.274" y1="107.7165" y2="107.7165"/>
    <line x1="275.1463" x2="737.0079" y1="153.0709" y2="153.0709"/>
    <line x1="731.2144" x2="566.5606" y1="158.2677" y2="158.2677"/>
    <line x1="564.9969" x2="732.7782" y1="159.685" y2="159.685"/>
    <line x1="737.0079" x2="558.0186" y1="166.7717" y2="166.7717"/>
    <line x1="556.734" x2="737.0079" y1="168.189" y2="168.189"/>
    <line x1="737.0079" x2="555.4494" y1="169.6063" y2="169.6063"/>
    <line x1="554.1648" x2="737.0079" y1="171.0236" y2="171.0236"/>
    <line x1="737.0079" x2="56.6929" y1="170.0787" y2="170.0787"/>
    <line x1="56.6929" x2="737.0079" y1="181.4173" y2="181.4173"/>
    <line x1="737.0079" x2="546.7364" y1="180.9449" y2="180.9449"/>
    <line x1="545.8579" x2="737.0079" y1="182.3622" y2="182.3622"/>
    <line x1="737.0079" x2="545.0084" y1="183.7795" y2="183.7795"/>
    <line x1="544.1588" x2="737.0079" y1="185.1969" y2="185.1969"/>
    <line x1="737.0079" x2="543.3093" y1="186.6142" y2="186.6142"/>
    <line x1="542.4598" x2="737.0079" y1="188.0315" y2="188.0315"/>
    <line x1="737.0079" x2="279.0414" y1="187.0866" y2="187.0866"/>
    <line x1="276.4731" x2="737.0079" y1="175.748" y2="175.748"/>
    <line x1="737.0079" x2="550.941" y1="175.2756" y2="175.2756"/>
    <line x1="551.9922" x2="737.0079" y1="173.8583" y2="173.8583"/>
    <line x1="737.0079" x2="553.0434" y1="172.4409" y2="172.4409"/>
    <line x1="549.8899" x2="737.0079" y1="176.6929" y2="176.6929"/>
    <line x1="737.0079" x2="548.8387" y1="178.1102" y2="178.1102"/>
    <line x1="547.7876" x2="737.0079" y1="179.5276" y2="179.5276"/>
    <line x1="737.0079" x2="541.6103" y1="189.4488" y2="189.4488"/>
    <line x1="540.7608" x2="737.0079" y1="190.8661" y2="190.8661"/>
    <line x1="737.0079" x2="540.0096" y1="192.2835" y2="192.2835"/>
    <line x1="539.3393" x2="737.0079" y1="193.7008" y2="193.7008"/>
    <line x1="737.0079" x2="56.6929" y1="192.7559" y2="192.7559"/>
    <line x1="56.6929" x2="737.0079" y1="204.0945" y2="204.0945"/>
    <line x1="737.0079" x2="534.7853" y1="203.622" y2="203.622"/>
    <line x1="534.2781" x2="737.0079" y1="205.0394" y2="205.0394"/>
    <line x1="737.0079" x2="533.771" y1="206.4567" y2="206.4567"/>
    <line x1="533.2639" x2="737.0079" y1="207.874" y2="207.874"/>
    <line x1="737.0079" x2="532.7568" y1="209.2913" y2="209.2913"/>
    <line x1="532.2496" x2="737.0079" y1="210.7087" y2="210.7087"/>
    <line x1="737.0079" x2="288.785" y1="209.7638" y2="209.7638"/>
    <line x1="283.0568" x2="737.0079" y1="198.4252" y2="198.4252"/>
    <line x1="737.0079" x2="537.3283" y1="197.9528" y2="197.9528"/>
    <line x1="536.6579" x2="737.0079" y1="199.3701" y2="199.3701"/>
    <line x1="737.0079" x2="535.9876" y1="200.7874" y2="200.7874"/>
    <line x1="535.3172" x2="737.0079" y1="202.2047" y2="202.2047"/>
    <line x1="737.0079" x2="537.9986" y1="196.5354" y2="196.5354"/>
    <line x1="538.669" x2="737.0079" y1="195.1181" y2="195.1181"/>
    <line x1="737.0079" x2="531.7425" y1="212.126" y2="212.126"/>
    <line x1="531.2354" x2="737.0079" y1="213.5433" y2="213.5433"/>
    <line x1="737.0079" x2="530.854" y1="214.9606" y2="214.9606"/>
    <line x1="530.499" x2="737.0079" y1="216.378" y2="216.378"/>
    <line x1="737.0079" x2="56.6929" y1="215.4331" y2="215.4331"/>
    <line x1="56.6929" x2="737.0079" y1="226.7717" y2="226.7717"/>
    <line x1="737.0079" x2="528.0953" y1="226.2992" y2="226.2992"/>
    <line x1="527.885" x2="737.0079" y1="227.7165" y2="227.7165"/>
    <line x1="737.0079" x2="527.6748" y1="229.1339" y2="229.1339"/>
    <line x1="527.4646" x2="737.0079" y1="230.5512" y2="230.5512"/>
    <line x1="737.0079" x2="527.2543" y1="231.9685" y2="231.9685"/>
    <line x1="527.0441" x2="737.0079" y1="233.3858" y2="233.3858"/>
    <line x1="737.0079" x2="306.4807" y1="232.4409" y2="232.4409"/>
    <line x1="296.372" x2="737.0079" y1="221.1024" y2="221.1024"/>
    <line x1="737.0079" x2="529.4339" y1="220.6299" y2="220.6299"/>
    <line x1="529.0789" x2="737.0079" y1="222.0472" y2="222.0472"/>
    <line x1="737.0079" x2="528.7238" y1="223.4646" y2="223.4646"/>
    <line x1="528.3688" x2="737.0079" y1="224.8819" y2="224.8819"/>
    <line x1="737.0079" x2="529.7889" y1="219.2126" y2="219.2126"/>
    <line x1="530.1439" x2="737.0079" y1="217.7953" y2="217.7953"/>
    <line x1="737.0079" x2="526.8338" y1="234.8031" y2="234.8031"/>
    <line x1="526.6236" x2="737.0079" y1="236.2205" y2="236.2205"/>
    <line x1="737.0079" x2="526.4325" y1="237.6378" y2="237.6378"/>
    <line x1="526.3628" x2="737.0079" y1="239.0551" y2="239.0551"/>
    <line x1="737.0079" x2="56.6929" y1="238.1102" y2="238.1102"/>
    <line x1="56.6929" x2="737.0079" y1="249.4488" y2="249.4488"/>
    <line x1="737.0079" x2="525.8754" y1="248.9764" y2="248.9764"/>
    <line x1="525.8931" x2="737.0079" y1="250.3937" y2="250.3937"/>
    <line x1="737.0079" x2="525.9627" y1="251.811" y2="251.811"/>
    <line x1="526.0324" x2="737.0079" y1="253.2283" y2="253.2283"/>
    <line x1="737.0079" x2="526.102" y1="254.6457" y2="254.6457"/>
    <line x1="526.1716" x2="737.0079" y1="256.063" y2="256.063"/>
    <line x1="737.0079" x2="343.0492" y1="255.1181" y2="255.1181"/>
    <line x1="320.4213" x2="737.0079" y1="243.7795" y2="243.7795"/>
    <line x1="737.0079" x2="526.1539" y1="243.3071" y2="243.3071"/>
    <line x1="526.0843" x2="737.0079" y1="244.7244" y2="244.7244"/>
    <line x1="737.0079" x2="526.0147" y1="246.1417" y2="246.1417"/>
    <line x1="525.9451" x2="737.0079" y1="247.5591" y2="247.5591"/>
    <line x1="737.0079" x2="526.2236" y1="241.8898" y2="241.8898"/>
    <line x1="526.2932" x2="737.0079" y1="240.4724" y2="240.4724"/>
    <line x1="737.0079" x2="526.2412" y1="257.4803" y2="257.4803"/>
    <line x1="526.3109" x2="737.0079" y1="258.8976" y2="258.8976"/>
    <line x1="737.0079" x2="526.3805" y1="260.315" y2="260.315"/>
    <line x1="526.4667" x2="737.0079" y1="261.7323" y2="261.7323"/>
    <line x1="737.0079" x2="56.6929" y1="260.7874" y2="260.7874"/>
    <line x1="56.6929" x2="737.0079" y1="272.126" y2="272.126"/>
    <line x1="737.0079" x2="527.9384" y1="271.6535" y2="271.6535"/>
    <line x1="528.1486" x2="737.0079" y1="273.0709" y2="273.0709"/>
    <line x1="737.0079" x2="528.4589" y1="274.4882" y2="274.4882"/>
    <line x1="528.814" x2="737.0079" y1="275.9055" y2="275.9055"/>
    <line x1="737.0079" x2="529.169" y1="277.3228" y2="277.3228"/>
    <line x1="529.524" x2="737.0079" y1="278.7402" y2="278.7402"/>
    <line x1="737.0079" x2="413.2445" y1="277.7953" y2="277.7953"/>
    <line x1="412.7441" x2="737.0079" y1="289.1339" y2="289.1339"/>
    <line x1="737.0079" x2="532.3783" y1="288.6614" y2="288.6614"/>
    <line x1="532.8855" x2="737.0079" y1="290.0787" y2="290.0787"/>
    <line x1="737.0079" x2="533.3926" y1="291.4961" y2="291.4961"/>
    <line x1="533.8997" x2="737.0079" y1="292.9134" y2="292.9134"/>
    <line x1="737.0079" x2="534.4068" y1="294.3307" y2="294.3307"/>
    <line x1="534.914" x2="737.0079" y1="295.748" y2="295.748"/>
    <line x1="737.0079" x2="56.6929" y1="294.8031" y2="294.8031"/>
    <line x1="56.6929" x2="737.0079" y1="306.1417" y2="306.1417"/>
    <line x1="737.0079" x2="539.5094" y1="305.6693" y2="305.6693"/>
    <line x1="540.1798" x2="737.0079" y1="307.0866" y2="307.0866"/>
    <line x1="737.0079" x2="540.9764" y1="308.5039" y2="308.5039"/>
    <line x1="541.8259" x2="737.0079" y1="309.9213" y2="309.9213"/>
    <line x1="737.0079" x2="542.6754" y1="311.3386" y2="311.3386"/>
    <line x1="543.5249" x2="737.0079" y1="312.7559" y2="312.7559"/>
    <line x1="737.0079" x2="407.689" y1="311.811" y2="311.811"/>
    <line x1="411.6033" x2="737.0079" y1="300.4724" y2="300.4724"/>
    <line x1="737.0079" x2="536.8281" y1="300.0" y2="300.0"/>
    <line x1="537.4984" x2="737.0079" y1="301.4173" y2="301.4173"/>
    <line x1="737.0079" x2="538.1687" y1="302.8346" y2="302.8346"/>
    <line x1="538.8391" x2="737.0079" y1="304.252" y2="304.252"/>
    <line x1="733.4624" x2="497.0624" y1="305.1969" y2="305.1969"/>
    <line x1="498.7615" x2="733.5555" y1="302.3622" y2="302.3622"/>
    <line x1="733.4162" x2="500.8132" y1="299.5276" y2="299.5276"/>
    <line x1="502.9155" x2="733.277" y1="296.6929" y2="296.6929"/>
    <line x1="733.09" x2="505.0178" y1="293.8583" y2="293.8583"/>
    <line x1="507.509" x2="732.6695" y1="291.0236" y2="291.0236"/>
    <line x1="732.2491" x2="510.0781" y1="288.189" y2="288.189"/>
    <line x1="512.6624" x2="731.7699" y1="285.3543" y2="285.3543"/>
    <line x1="731.0599" x2="515.79" y1="282.5197" y2="282.5197"/>
    <line x1="518.9175" x2="730.3498" y1="279.685" y2="279.685"/>
    <line x1="729.5507" x2="522.3812" y1="276.8504" y2="276.8504"/>
    <line x1="526.2033" x2="728.5365" y1="274.0157" y2="274.0157"/>
    <line x1="727.5222" x2="530.2324" y1="271.1811" y2="271.1811"/>
    <line x1="527.7282" x2="737.0079" y1="270.2362" y2="270.2362"/>
    <line x1="737.0079" x2="527.5179" y1="268.8189" y2="268.8189"/>
    <line x1="527.3077" x2="737.0079" y1="267.4016" y2="267.4016"/>
    <line x1="737.0079" x2="412.1142" y1="266.4567" y2="266.4567"/>
    <line x1="410.5159" x2="415.3889" y1="254.1732" y2="254.1732"/>
    <line x1="410.3062" x2="421.8522" y1="251.3386" y2="251.3386"/>
    <line x1="427.5527" x2="410.1196" y1="248.5039" y2="248.5039"/>
    <line x1="409.9452" x2="432.2821" y1="245.6693" y2="245.6693"/>
    <line x1="436.6501" x2="409.7707" y1="242.8346" y2="242.8346"/>
    <line x1="409.5764" x2="440.4721" y1="240.0" y2="240.0"/>
    <line x1="444.104" x2="409.0733" y1="237.1654" y2="237.1654"/>
    <line x1="408.5702" x2="447.2316" y1="234.3307" y2="234.3307"/>
    <line x1="450.3591" x2="408.0671" y1="231.4961" y2="231.4961"/>
    <line x1="407.482" x2="452.9959" y1="228.6614" y2="228.6614"/>
    <line x1="455.565" x2="406.8023" y1="225.8268" y2="225.8268"/>
    <line x1="406.1226" x2="458.0238" y1="222.9921" y2="222.9921"/>
    <line x1="460.1261" x2="405.4429" y1="220.1575" y2="220.1575"/>
    <line x1="405.1135" x2="462.2284" y1="217.3228" y2="217.3228"/>
    <line x1="464.1806" x2="404.8369" y1="214.4882" y2="214.4882"/>
    <line x1="404.3963" x2="318.5104" y1="212.126" y2="212.126"/>
    <line x1="320.875" x2="402.0316" y1="213.5433" y2="213.5433"/>
    <line x1="399.0616" x2="323.845" y1="214.9606" y2="214.9606"/>
    <line x1="326.8417" x2="396.065" y1="216.378" y2="216.378"/>
    <line x1="392.6674" x2="330.2393" y1="217.7953" y2="217.7953"/>
    <line x1="334.2004" x2="388.7062" y1="219.2126" y2="219.2126"/>
    <line x1="384.0447" x2="338.862" y1="220.6299" y2="220.6299"/>
    <line x1="344.5202" x2="378.3864" y1="222.0472" y2="222.0472"/>
    <line x1="367.1108" x2="355.7958" y1="223.4646" y2="223.4646"/>
    <line x1="419.7502" x2="592.097" y1="135.1181" y2="135.1181"/>
    <line x1="594.6662" x2="420.4729" y1="132.2835" y2="132.2835"/>
    <line x1="421.1956" x2="597.2354" y1="129.4488" y2="129.4488"/>
    <line x1="599.4354" x2="422.1677" y1="126.6142" y2="126.6142"/>
    <line x1="420.9574" x2="601.5377" y1="123.7795" y2="123.7795"/>
    <line x1="603.64" x2="418.8551" y1="120.9449" y2="120.9449"/>
    <line x1="417.0263" x2="605.4688" y1="118.1102" y2="118.1102"/>
    <line x1="607.1678" x2="415.3273" y1="115.2756" y2="115.2756"/>
    <line x1="413.6282" x2="608.8668" y1="112.4409" y2="112.4409"/>
    <line x1="610.4388" x2="412.0562" y1="109.6063" y2="109.6063"/>
    <line x1="410.7155" x2="611.7795" y1="106.7717" y2="106.7717"/>
    <line x1="575.1671" x2="722.608" y1="151.1811" y2="151.1811"/>
    <line x1="686.5253" x2="607.3469" y1="225.8268" y2="225.8268"/>
    <line x1="602.3531" x2="691.519" y1="228.6614" y2="228.6614"/>
    <line x1="696.0227" x2="597.8494" y1="231.4961" y2="231.4961"/>
    <line x1="594.0274" x2="699.8448" y1="234.3307" y2="234.3307"/>
    <line x1="703.3461" x2="590.5261" y1="237.1654" y2="237.1654"/>
    <line x1="587.3985" x2="706.4736" y1="240.0" y2="240.0"/>
    <line x1="709.3513" x2="584.5208" y1="242.8346" y2="242.8346"/>
    <line x1="581.9517" x2="711.9205" y1="245.6693" y2="245.6693"/>
    <line x1="714.3846" x2="579.4875" y1="248.5039" y2="248.5039"/>
    <line x1="577.3852" x2="716.4869" y1="251.3386" y2="251.3386"/>
    <line x1="718.5892" x2="575.2829" y1="254.1732" y2="254.1732"/>
    <line x1="562.5453" x2="720.3626" y1="257.0079" y2="257.0079"/>
    <line x1="722.0616" x2="553.3109" y1="259.8425" y2="259.8425"/>
    <line x1="546.04" x2="723.6736" y1="262.6772" y2="262.6772"/>
    <line x1="725.0143" x2="540.0467" y1="265.5118" y2="265.5118"/>
    <line x1="534.9617" x2="726.355" y1="268.3465" y2="268.3465"/>
    <line x1="737.0079" x2="527.0974" y1="265.9843" y2="265.9843"/>
    <line x1="526.8872" x2="737.0079" y1="264.5669" y2="264.5669"/>
    <line x1="737.0079" x2="526.677" y1="263.1496" y2="263.1496"/>
    <line x1="529.879" x2="737.0079" y1="280.1575" y2="280.1575"/>
    <line x1="737.0079" x2="530.234" y1="281.5748" y2="281.5748"/>
    <line x1="530.5891" x2="737.0079" y1="282.9921" y2="282.9921"/>
    <line x1="737.0079" x2="56.6929" y1="283.4646" y2="283.4646"/>
    <line x1="56.6929" x2="737.0079" y1="317.4803" y2="317.4803"/>
    <line x1="737.0079" x2="546.0735" y1="317.0079" y2="317.0079"/>
    <line x1="545.224" x2="737.0079" y1="315.5906" y2="315.5906"/>
    <line x1="737.0079" x2="544.3744" y1="314.1732" y2="314.1732"/>
    <line x1="547.0032" x2="737.0079" y1="318.4252" y2="318.4252"/>
    <line x1="737.0079" x2="548.0543" y1="319.8425" y2="319.8425"/>
    <line x1="549.1055" x2="737.0079" y1="321.2598" y2="321.2598"/>
    <line x1="737.0079" x2="550.1567" y1="322.6772" y2="322.6772"/>
    <line x1="551.2078" x2="737.0079" y1="324.0945" y2="324.0945"/>
    <line x1="737.0079" x2="401.4635" y1="323.1496" y2="323.1496"/>
    <line x1="399.7857" x2="737.0079" y1="334.4882" y2="334.4882"/>
    <line x1="737.0079" x2="559.6292" y1="334.0157" y2="334.0157"/>
    <line x1="558.3446" x2="737.0079" y1="332.5984" y2="332.5984"/>
    <line x1="737.0079" x2="557.06" y1="331.1811" y2="331.1811"/>
    <line x1="555.7755" x2="737.0079" y1="329.7638" y2="329.7638"/>
    <line x1="737.0079" x2="56.6929" y1="328.8189" y2="328.8189"/>
    <line x1="56.6929" x2="737.0079" y1="340.1575" y2="340.1575"/>
    <line x1="733.9451" x2="563.83" y1="338.2677" y2="338.2677"/>
    <line x1="565.3937" x2="732.3813" y1="339.685" y2="339.685"/>
    <line x1="730.8175" x2="566.9575" y1="341.1024" y2="341.1024"/>
    <line x1="568.5213" x2="729.2538" y1="342.5197" y2="342.5197"/>
    <line x1="727.69" x2="570.0851" y1="343.937" y2="343.937"/>
    <line x1="571.83" x2="725.945" y1="345.3543" y2="345.3543"/>
    <line x1="724.034" x2="573.741" y1="346.7717" y2="346.7717"/>
    <line x1="575.6521" x2="722.123" y1="348.189" y2="348.189"/>
    <line x1="720.9253" x2="429.3667" y1="347.7165" y2="347.7165"/>
    <line x1="426.7975" x2="719.2263" y1="350.5512" y2="350.5512"/>
    <line x1="718.3009" x2="579.4742" y1="351.0236" y2="351.0236"/>
    <line x1="577.5631" x2="720.2119" y1="349.6063" y2="349.6063"/>
    <line x1="717.1832" x2="424.2284" y1="353.3858" y2="353.3858"/>
    <line x1="421.6592" x2="715.0809" y1="356.2205" y2="356.2205"/>
    <line x1="713.8225" x2="583.9526" y1="353.8583" y2="353.8583"/>
    <line x1="581.5879" x2="716.1871" y1="352.4409" y2="352.4409"/>
    <line x1="711.4578" x2="586.3172" y1="355.2756" y2="355.2756"/>
    <line x1="588.6819" x2="709.0932" y1="356.6929" y2="356.6929"/>
    <line x1="706.6861" x2="591.089" y1="358.1102" y2="358.1102"/>
    <line x1="594.0856" x2="703.6894" y1="359.5276" y2="359.5276"/>
    <line x1="700.6927" x2="597.0823" y1="360.9449" y2="360.9449"/>
    <line x1="600.079" x2="697.696" y1="362.3622" y2="362.3622"/>
    <line x1="694.2897" x2="603.4853" y1="363.7795" y2="363.7795"/>
    <line x1="607.4465" x2="690.3285" y1="365.1969" y2="365.1969"/>
    <line x1="686.3674" x2="611.4076" y1="366.6142" y2="366.6142"/>
    <line x1="616.3102" x2="681.4648" y1="368.0315" y2="368.0315"/>
    <line x1="675.8065" x2="621.9685" y1="369.4488" y2="369.4488"/>
    <line x1="629.5156" x2="668.2595" y1="370.8661" y2="370.8661"/>
    <line x1="654.1757" x2="643.5994" y1="372.2835" y2="372.2835"/>
    <line x1="697.557" x2="404.4432" y1="381.7323" y2="381.7323"/>
    <line x1="402.95" x2="697.0904" y1="384.5669" y2="384.5669"/>
    <line x1="696.3803" x2="403.0496" y1="387.4016" y2="387.4016"/>
    <line x1="404.8767" x2="695.6703" y1="390.2362" y2="390.2362"/>
    <line x1="694.9603" x2="406.7039" y1="393.0709" y2="393.0709"/>
    <line x1="407.8255" x2="695.0503" y1="395.9055" y2="395.9055"/>
    <line x1="696.2231" x2="408.947" y1="398.7402" y2="398.7402"/>
    <line x1="410.0686" x2="697.2374" y1="401.5748" y2="401.5748"/>
    <line x1="698.2516" x2="410.7792" y1="404.4094" y2="404.4094"/>
    <line x1="410.8835" x2="699.2659" y1="407.2441" y2="407.2441"/>
    <line x1="700.2801" x2="410.9878" y1="410.0787" y2="410.0787"/>
    <line x1="411.0922" x2="701.2203" y1="412.9134" y2="412.9134"/>
    <line x1="701.9303" x2="411.1465" y1="415.748" y2="415.748"/>
    <line x1="411.189" x2="702.6404" y1="418.5827" y2="418.5827"/>
    <line x1="703.3504" x2="411.2314" y1="421.4173" y2="421.4173"/>
    <line x1="411.4383" x2="704.0604" y1="424.252" y2="424.252"/>
    <line x1="704.7705" x2="412.2558" y1="427.0866" y2="427.0866"/>
    <line x1="413.0733" x2="705.2449" y1="429.9213" y2="429.9213"/>
    <line x1="705.6654" x2="413.8908" y1="432.7559" y2="432.7559"/>
    <line x1="414.834" x2="706.0859" y1="435.5906" y2="435.5906"/>
    <line x1="706.5064" x2="415.8556" y1="438.4252" y2="438.4252"/>
    <line x1="416.8772" x2="706.9269" y1="441.2598" y2="441.2598"/>
    <line x1="707.2696" x2="417.8808" y1="444.0945" y2="444.0945"/>
    <line x1="418.0114" x2="707.4088" y1="446.9291" y2="446.9291"/>
    <line x1="707.5481" x2="418.142" y1="449.7638" y2="449.7638"/>
    <line x1="418.2726" x2="707.6874" y1="452.5984" y2="452.5984"/>
    <line x1="707.8266" x2="418.3333" y1="455.4331" y2="455.4331"/>
    <line x1="418.2993" x2="707.9659" y1="458.2677" y2="458.2677"/>
    <line x1="707.9142" x2="418.2652" y1="461.1024" y2="461.1024"/>
    <line x1="418.2312" x2="707.775" y1="463.937" y2="463.937"/>
    <line x1="707.6357" x2="418.5558" y1="466.7717" y2="466.7717"/>
    <line x1="418.9547" x2="707.4964" y1="469.6063" y2="469.6063"/>
    <line x1="707.3572" x2="419.3537" y1="472.4409" y2="472.4409"/>
    <line x1="419.7466" x2="707.1913" y1="475.2756" y2="475.2756"/>
    <line x1="706.7709" x2="420.1194" y1="478.1102" y2="478.1102"/>
    <line x1="420.4923" x2="706.3504" y1="480.9449" y2="480.9449"/>
    <line x1="705.9299" x2="420.8651" y1="483.7795" y2="483.7795"/>
    <line x1="421.0708" x2="705.5094" y1="486.6142" y2="486.6142"/>
    <line x1="705.0889" x2="421.1809" y1="489.4488" y2="489.4488"/>
    <line x1="421.2911" x2="704.5071" y1="492.2835" y2="492.2835"/>
    <line x1="703.797" x2="421.4024" y1="495.1181" y2="495.1181"/>
    <line x1="421.5418" x2="703.087" y1="497.9528" y2="497.9528"/>
    <line x1="702.377" x2="421.6812" y1="500.7874" y2="500.7874"/>
    <line x1="421.8206" x2="701.6669" y1="503.622" y2="503.622"/>
    <line x1="700.9181" x2="421.9627" y1="506.4567" y2="506.4567"/>
    <line x1="422.108" x2="699.9039" y1="509.2913" y2="509.2913"/>
    <line x1="698.8896" x2="422.2534" y1="512.126" y2="512.126"/>
    <line x1="422.3988" x2="697.8754" y1="514.9606" y2="514.9606"/>
    <line x1="696.8611" x2="422.3551" y1="517.7953" y2="517.7953"/>
    <line x1="422.2777" x2="695.8469" y1="520.6299" y2="520.6299"/>
    <line x1="694.5529" x2="422.2002" y1="523.4646" y2="523.4646"/>
    <line x1="421.9992" x2="693.2122" y1="526.2992" y2="526.2992"/>
    <line x1="691.8715" x2="421.4325" y1="529.1339" y2="529.1339"/>
    <line x1="420.8658" x2="690.5308" y1="531.9685" y2="531.9685"/>
    <line x1="689.1902" x2="420.2991" y1="534.8031" y2="534.8031"/>
    <line x1="419.818" x2="687.564" y1="537.6378" y2="537.6378"/>
    <line x1="685.865" x2="419.3816" y1="540.4724" y2="540.4724"/>
    <line x1="418.9452" x2="684.166" y1="543.3071" y2="543.3071"/>
    <line x1="682.467" x2="418.5149" y1="546.1417" y2="546.1417"/>
    <line x1="418.1786" x2="680.7679" y1="548.9764" y2="548.9764"/>
    <line x1="678.6675" x2="417.8422" y1="551.811" y2="551.811"/>
    <line x1="417.5059" x2="676.5652" y1="554.6457" y2="554.6457"/>
    <line x1="674.4629" x2="418.1746" y1="557.4803" y2="557.4803"/>
    <line x1="420.277" x2="672.3606" y1="560.315" y2="560.315"/>
    <line x1="670.0253" x2="422.6123" y1="563.1496" y2="563.1496"/>
    <line x1="425.1815" x2="667.4561" y1="565.9843" y2="565.9843"/>
    <line x1="664.8869" x2="427.7506" y1="568.8189" y2="568.8189"/>
    <line x1="430.3198" x2="662.3178" y1="571.6535" y2="571.6535"/>
    <line x1="659.5524" x2="433.0852" y1="574.4882" y2="574.4882"/>
    <line x1="436.2128" x2="656.4248" y1="577.3228" y2="577.3228"/>
    <line x1="653.2973" x2="439.3403" y1="580.1575" y2="580.1575"/>
    <line x1="442.4679" x2="650.1697" y1="582.9921" y2="582.9921"/>
    <line x1="646.6308" x2="446.0067" y1="585.8268" y2="585.8268"/>
    <line x1="449.8288" x2="642.8088" y1="588.6614" y2="588.6614"/>
    <line x1="639.4997" x2="453.6509" y1="591.4961" y2="591.4961"/>
    <line x1="457.7067" x2="640.8527" y1="594.3307" y2="594.3307"/>
    <line x1="641.9594" x2="462.436" y1="597.1654" y2="597.1654"/>
    <line x1="467.1654" x2="642.847" y1="600.0" y2="600.0"/>
    <line x1="643.535" x2="472.3748" y1="602.8346" y2="602.8346"/>
    <line x1="478.3682" x2="643.9555" y1="605.6693" y2="605.6693"/>
    <line x1="644.1765" x2="484.3615" y1="608.5039" y2="608.5039"/>
    <line x1="492.2578" x2="644.2239" y1="611.3386" y2="611.3386"/>
    <line x1="644.0846" x2="500.5219" y1="614.1732" y2="614.1732"/>
    <line x1="511.8385" x2="643.6782" y1="617.0079" y2="617.0079"/>
    <line x1="643.0888" x2="565.6419" y1="619.8425" y2="619.8425"/>
    <line x1="563.7113" x2="528.9263" y1="619.8425" y2="619.8425"/>
    <line x1="566.426" x2="642.3048" y1="622.6772" y2="622.6772"/>
    <line x1="641.2905" x2="567.4402" y1="625.5118" y2="625.5118"/>
    <line x1="568.7622" x2="639.9686" y1="628.3465" y2="628.3465"/>
    <line x1="638.3794" x2="570.3514" y1="631.1811" y2="631.1811"/>
    <line x1="572.2556" x2="636.4752" y1="634.0157" y2="634.0157"/>
    <line x1="634.1865" x2="574.5443" y1="636.8504" y2="636.8504"/>
    <line x1="577.3231" x2="631.4077" y1="639.685" y2="639.685"/>
    <line x1="627.9692" x2="580.7616" y1="642.5197" y2="642.5197"/>
    <line x1="585.1505" x2="623.5802" y1="645.3543" y2="645.3543"/>
    <line x1="617.0701" x2="591.6607" y1="648.189" y2="648.189"/>
    <line x1="602.7606" x2="659.5709" y1="724.7244" y2="724.7244"/>
    <line x1="667.7644" x2="594.5671" y1="727.5591" y2="727.5591"/>
    <line x1="588.0771" x2="674.2544" y1="730.3937" y2="730.3937"/>
    <line x1="679.9342" x2="582.3972" y1="733.2283" y2="733.2283"/>
    <line x1="577.6679" x2="684.6636" y1="736.063" y2="736.063"/>
    <line x1="688.9837" x2="573.3477" y1="738.8976" y2="738.8976"/>
    <line x1="569.5257" x2="692.8058" y1="741.7323" y2="741.7323"/>
    <line x1="696.3718" x2="565.9597" y1="744.5669" y2="744.5669"/>
    <line x1="562.8321" x2="699.4993" y1="747.4016" y2="747.4016"/>
    <line x1="702.615" x2="559.7165" y1="750.2362" y2="750.2362"/>
    <line x1="557.1473" x2="705.1842" y1="753.0709" y2="753.0709"/>
    <line x1="707.7533" x2="554.5781" y1="755.9055" y2="755.9055"/>
    <line x1="550.9416" x2="312.515" y1="756.378" y2="756.378"/>
    <line x1="312.3047" x2="551.1518" y1="757.7953" y2="757.7953"/>
    <line x1="552.2103" x2="710.1211" y1="758.7402" y2="758.7402"/>
    <line x1="712.2235" x2="550.108" y1="761.5748" y2="761.5748"/>
    <line x1="551.3754" x2="312.0811" y1="762.0472" y2="762.0472"/>
    <line x1="312.1508" x2="551.3058" y1="760.6299" y2="760.6299"/>
    <line x1="551.2362" x2="312.2204" y1="759.2126" y2="759.2126"/>
    <line x1="312.0115" x2="551.445" y1="763.4646" y2="763.4646"/>
    <line x1="551.5147" x2="311.9419" y1="764.8819" y2="764.8819"/>
    <line x1="311.8722" x2="551.5843" y1="766.2992" y2="766.2992"/>
    <line x1="551.6539" x2="311.8026" y1="767.7165" y2="767.7165"/>
    <line x1="311.733" x2="551.7236" y1="769.1339" y2="769.1339"/>
    <line x1="551.7103" x2="311.7462" y1="770.5512" y2="770.5512"/>
    <line x1="311.8158" x2="551.6407" y1="771.9685" y2="771.9685"/>
    <line x1="551.5711" x2="311.8855" y1="773.3858" y2="773.3858"/>
    <line x1="311.9551" x2="551.5014" y1="774.8031" y2="774.8031"/>
    <line x1="551.4318" x2="312.0247" y1="776.2205" y2="776.2205"/>
    <line x1="312.0943" x2="551.3622" y1="777.6378" y2="777.6378"/>
    <line x1="551.2926" x2="312.164" y1="779.0551" y2="779.0551"/>
    <line x1="312.2336" x2="551.2229" y1="780.4724" y2="780.4724"/>
    <line x1="551.1119" x2="312.3447" y1="781.8898" y2="781.8898"/>
    <line x1="312.5549" x2="550.9016" y1="783.3071" y2="783.3071"/>
    <line x1="550.6914" x2="312.7651" y1="784.7244" y2="784.7244"/>
    <line x1="312.9754" x2="550.4812" y1="786.1417" y2="786.1417"/>
    <line x1="550.2709" x2="313.1856" y1="787.5591" y2="787.5591"/>
    <line x1="313.3959" x2="550.0607" y1="788.9764" y2="788.9764"/>
    <line x1="549.8504" x2="313.6061" y1="790.3937" y2="790.3937"/>
    <line x1="313.8163" x2="549.6402" y1="791.811" y2="791.811"/>
    <line x1="549.4192" x2="314.0373" y1="793.2283" y2="793.2283"/>
    <line x1="314.3923" x2="549.0642" y1="794.6457" y2="794.6457"/>
    <line x1="548.7092" x2="314.7473" y1="796.063" y2="796.063"/>
    <line x1="315.1024" x2="548.3542" y1="797.4803" y2="797.4803"/>
    <line x1="547.9992" x2="315.4574" y1="798.8976" y2="798.8976"/>
    <line x1="315.8124" x2="547.6441" y1="800.315" y2="800.315"/>
    <line x1="547.2891" x2="316.1674" y1="801.7323" y2="801.7323"/>
    <line x1="316.5224" x2="546.9341" y1="803.1496" y2="803.1496"/>
    <line x1="546.5771" x2="316.8794" y1="804.5669" y2="804.5669"/>
    <line x1="317.3865" x2="546.07" y1="805.9843" y2="805.9843"/>
    <line x1="545.5629" x2="317.8936" y1="807.4016" y2="807.4016"/>
    <line x1="318.4008" x2="545.0558" y1="808.8189" y2="808.8189"/>
    <line x1="544.5486" x2="318.9079" y1="810.2362" y2="810.2362"/>
    <line x1="319.415" x2="544.0415" y1="811.6535" y2="811.6535"/>
    <line x1="543.5344" x2="319.9221" y1="813.0709" y2="813.0709"/>
    <line x1="320.4293" x2="543.0273" y1="814.4882" y2="814.4882"/>
    <line x1="542.4894" x2="320.9671" y1="815.9055" y2="815.9055"/>
    <line x1="321.5358" x2="132.6964" y1="815.4331" y2="815.4331"/>
    <line x1="137.4258" x2="316.8065" y1="812.5984" y2="812.5984"/>
    <line x1="311.4243" x2="142.808" y1="809.7638" y2="809.7638"/>
    <line x1="148.8013" x2="305.4309" y1="806.9291" y2="806.9291"/>
    <line x1="299.4376" x2="154.7947" y1="804.0945" y2="804.0945"/>
    <line x1="162.2772" x2="291.9551" y1="801.2598" y2="801.2598"/>
    <line x1="284.0328" x2="170.1995" y1="798.4252" y2="798.4252"/>
    <line x1="180.1905" x2="274.0417" y1="795.5906" y2="795.5906"/>
    <line x1="262.3371" x2="191.8951" y1="792.7559" y2="792.7559"/>
    <line x1="215.1696" x2="239.0626" y1="789.9213" y2="789.9213"/>
    <line x1="312.7252" x2="550.7313" y1="754.9606" y2="754.9606"/>
    <line x1="550.5211" x2="312.9354" y1="753.5433" y2="753.5433"/>
    <line x1="313.1457" x2="550.3108" y1="752.126" y2="752.126"/>
    <line x1="550.1006" x2="313.3559" y1="750.7087" y2="750.7087"/>
    <line x1="313.5662" x2="549.8904" y1="749.2913" y2="749.2913"/>
    <line x1="549.6801" x2="313.7764" y1="747.874" y2="747.874"/>
    <line x1="313.9866" x2="549.4699" y1="746.4567" y2="746.4567"/>
    <line x1="549.1316" x2="314.3249" y1="745.0394" y2="745.0394"/>
    <line x1="314.6799" x2="548.7766" y1="743.622" y2="743.622"/>
    <line x1="548.4216" x2="315.0349" y1="742.2047" y2="742.2047"/>
    <line x1="315.39" x2="548.0666" y1="740.7874" y2="740.7874"/>
    <line x1="547.7116" x2="315.745" y1="739.3701" y2="739.3701"/>
    <line x1="316.1" x2="547.3565" y1="737.9528" y2="737.9528"/>
    <line x1="547.0015" x2="316.455" y1="736.5354" y2="736.5354"/>
    <line x1="316.81" x2="546.6465" y1="735.1181" y2="735.1181"/>
    <line x1="546.1663" x2="317.2902" y1="733.7008" y2="733.7008"/>
    <line x1="317.7973" x2="545.6592" y1="732.2835" y2="732.2835"/>
    <line x1="545.1521" x2="318.3045" y1="730.8661" y2="730.8661"/>
    <line x1="318.8116" x2="544.6449" y1="729.4488" y2="729.4488"/>
    <line x1="544.1378" x2="319.3187" y1="728.0315" y2="728.0315"/>
    <line x1="319.8259" x2="543.6307" y1="726.6142" y2="726.6142"/>
    <line x1="543.1236" x2="320.333" y1="725.1969" y2="725.1969"/>
    <line x1="320.8401" x2="542.6164" y1="723.7795" y2="723.7795"/>
    <line x1="541.9464" x2="321.5102" y1="722.3622" y2="722.3622"/>
    <line x1="322.1805" x2="541.276" y1="720.9449" y2="720.9449"/>
    <line x1="540.6057" x2="322.8508" y1="719.5276" y2="719.5276"/>
    <line x1="323.5212" x2="539.9354" y1="718.1102" y2="718.1102"/>
    <line x1="539.265" x2="324.1915" y1="716.6929" y2="716.6929"/>
    <line x1="324.8619" x2="538.5947" y1="715.2756" y2="715.2756"/>
    <line x1="537.9243" x2="325.5322" y1="713.8583" y2="713.8583"/>
    <line x1="326.2896" x2="537.167" y1="712.4409" y2="712.4409"/>
    <line x1="536.3175" x2="327.1391" y1="711.0236" y2="711.0236"/>
    <line x1="327.9886" x2="535.4679" y1="709.6063" y2="709.6063"/>
    <line x1="534.6184" x2="328.8381" y1="708.189" y2="708.189"/>
    <line x1="329.6876" x2="533.7689" y1="706.7717" y2="706.7717"/>
    <line x1="532.9194" x2="330.5371" y1="705.3543" y2="705.3543"/>
    <line x1="331.3866" x2="532.0699" y1="703.937" y2="703.937"/>
    <line x1="531.1483" x2="332.3082" y1="702.5197" y2="702.5197"/>
    <line x1="333.3594" x2="530.0971" y1="701.1024" y2="701.1024"/>
    <line x1="529.046" x2="334.4106" y1="699.685" y2="699.685"/>
    <line x1="335.4617" x2="527.9948" y1="698.2677" y2="698.2677"/>
    <line x1="526.9437" x2="336.5129" y1="696.8504" y2="696.8504"/>
    <line x1="337.564" x2="525.8925" y1="695.4331" y2="695.4331"/>
    <line x1="524.8413" x2="338.6152" y1="694.0157" y2="694.0157"/>
    <line x1="339.8257" x2="523.6308" y1="692.5984" y2="692.5984"/>
    <line x1="522.3463" x2="341.1103" y1="691.1811" y2="691.1811"/>
    <line x1="342.3949" x2="521.0617" y1="689.7638" y2="689.7638"/>
    <line x1="519.7771" x2="343.6795" y1="688.3465" y2="688.3465"/>
    <line x1="344.964" x2="518.4925" y1="686.9291" y2="686.9291"/>
    <line x1="517.2079" x2="346.2486" y1="685.5118" y2="685.5118"/>
    <line x1="347.6798" x2="515.7768" y1="684.0945" y2="684.0945"/>
    <line x1="514.213" x2="349.2435" y1="682.6772" y2="682.6772"/>
    <line x1="350.8073" x2="512.6492" y1="681.2598" y2="681.2598"/>
    <line x1="511.0854" x2="352.3711" y1="679.8425" y2="679.8425"/>
    <line x1="353.9349" x2="509.5217" y1="678.4252" y2="678.4252"/>
    <line x1="507.9579" x2="355.4986" y1="677.0079" y2="677.0079"/>
    <line x1="357.3903" x2="506.0663" y1="675.5906" y2="675.5906"/>
    <line x1="504.1552" x2="359.3013" y1="674.1732" y2="674.1732"/>
    <line x1="361.2123" x2="502.2442" y1="672.7559" y2="672.7559"/>
    <line x1="500.3332" x2="363.1234" y1="671.3386" y2="671.3386"/>
    <line x1="365.0344" x2="498.4221" y1="669.9213" y2="669.9213"/>
    <line x1="496.0604" x2="367.3961" y1="668.5039" y2="668.5039"/>
    <line x1="369.7608" x2="493.6958" y1="667.0866" y2="667.0866"/>
    <line x1="491.3311" x2="372.1254" y1="665.6693" y2="665.6693"/>
    <line x1="374.4901" x2="488.9664" y1="664.252" y2="664.252"/>
    <line x1="486.146" x2="377.3105" y1="662.8346" y2="662.8346"/>
    <line x1="380.3072" x2="483.1493" y1="661.4173" y2="661.4173"/>
    <line x1="480.1527" x2="383.3039" y1="660.0" y2="660.0"/>
    <line x1="386.4625" x2="476.994" y1="658.5827" y2="658.5827"/>
    <line x1="473.0329" x2="390.4237" y1="657.1654" y2="657.1654"/>
    <line x1="394.3848" x2="469.0717" y1="655.748" y2="655.748"/>
    <line x1="464.4856" x2="398.971" y1="654.3307" y2="654.3307"/>
    <line x1="404.6292" x2="458.8273" y1="652.9134" y2="652.9134"/>
    <line x1="451.8092" x2="411.6473" y1="651.4961" y2="651.4961"/>
    <line x1="412.3054" x2="737.0079" y1="651.9685" y2="651.9685"/>
    <line x1="737.0079" x2="56.6929" y1="646.2992" y2="646.2992"/>
    <line x1="56.6929" x2="737.0079" y1="657.6378" y2="657.6378"/>
    <line x1="737.0079" x2="409.3237" y1="663.3071" y2="663.3071"/>
    <line x1="407.6268" x2="737.0079" y1="674.6457" y2="674.6457"/>
    <line x1="737.0079" x2="56.6929" y1="680.315" y2="680.315"/>
    <line x1="56.6929" x2="737.0079" y1="691.6535" y2="691.6535"/>
    <line x1="737.0079" x2="414.1126" y1="697.3228" y2="697.3228"/>
    <line x1="409.9127" x2="737.0079" y1="685.9843" y2="685.9843"/>
    <line x1="737.0079" x2="56.6929" y1="668.9764" y2="668.9764"/>
    <line x1="56.6929" x2="737.0079" y1="702.9921" y2="702.9921"/>
    <line x1="737.0079" x2="420.4242" y1="708.6614" y2="708.6614"/>
    <line x1="428.6419" x2="737.0079" y1="720.0" y2="720.0"/>
    <line x1="737.0079" x2="56.6929" y1="714.3307" y2="714.3307"/>
    <line x1="56.6929" x2="737.0079" y1="725.6693" y2="725.6693"/>
    <line x1="737.0079" x2="435.6163" y1="731.3386" y2="731.3386"/>
    <line x1="440.5827" x2="737.0079" y1="742.6772" y2="742.6772"/>
    <line x1="737.0079" x2="56.6929" y1="737.0079" y2="737.0079"/>
    <line x1="56.6929" x2="737.0079" y1="748.3465" y2="748.3465"/>
    <line x1="737.0079" x2="443.7382" y1="754.0157" y2="754.0157"/>
    <line x1="444.8638" x2="737.0079" y1="765.3543" y2="765.3543"/>
    <line x1="737.0079" x2="56.6929" y1="771.0236" y2="771.0236"/>
    <line x1="56.6929" x2="737.0079" y1="759.685" y2="759.685"/>
    <line x1="737.0079" x2="445.3329" y1="776.6929" y2="776.6929"/>
    <line x1="446.4287" x2="737.0079" y1="788.0315" y2="788.0315"/>
    <line x1="737.0079" x2="56.6929" y1="782.3622" y2="782.3622"/>
    <line x1="56.6929" x2="737.0079" y1="793.7008" y2="793.7008"/>
    <line x1="737.0079" x2="433.4165" y1="799.3701" y2="799.3701"/>
    <line x1="448.2199" x2="506.976" y1="798.4252" y2="798.4252"/>
    <line x1="518.7048" x2="448.7862" y1="801.2598" y2="801.2598"/>
    <line x1="449.5165" x2="528.637" y1="804.0945" y2="804.0945"/>
    <line x1="531.8091" x2="730.5224" y1="804.0945" y2="804.0945"/>
    <line x1="730.9428" x2="450.2468" y1="806.9291" y2="806.9291"/>
    <line x1="450.9771" x2="731.3633" y1="809.7638" y2="809.7638"/>
    <line x1="731.6921" x2="451.9118" y1="812.5984" y2="812.5984"/>
    <line x1="453.0035" x2="731.8313" y1="815.4331" y2="815.4331"/>
    <line x1="731.9706" x2="454.0951" y1="818.2677" y2="818.2677"/>
    <line x1="455.1868" x2="732.1099" y1="821.1024" y2="821.1024"/>
    <line x1="732.0166" x2="455.8084" y1="823.937" y2="823.937"/>
    <line x1="456.4152" x2="731.8773" y1="826.7717" y2="826.7717"/>
    <line x1="731.7381" x2="457.022" y1="829.6063" y2="829.6063"/>
    <line x1="457.4534" x2="731.5022" y1="832.4409" y2="832.4409"/>
    <line x1="731.0817" x2="457.5909" y1="835.2756" y2="835.2756"/>
    <line x1="457.7283" x2="730.6612" y1="838.1102" y2="838.1102"/>
    <line x1="730.2407" x2="457.8657" y1="840.9449" y2="840.9449"/>
    <line x1="458.2627" x2="729.5637" y1="843.7795" y2="843.7795"/>
    <line x1="728.8537" x2="458.7339" y1="846.6142" y2="846.6142"/>
    <line x1="459.205" x2="728.1436" y1="849.4488" y2="849.4488"/>
    <line x1="727.2829" x2="459.7034" y1="852.2835" y2="852.2835"/>
    <line x1="460.3247" x2="726.2687" y1="855.1181" y2="855.1181"/>
    <line x1="725.2544" x2="460.9162" y1="857.9528" y2="857.9528"/>
    <line x1="437.4419" x2="724.1735" y1="860.7874" y2="860.7874"/>
    <line x1="722.8328" x2="423.667" y1="863.622" y2="863.622"/>
    <line x1="420.0654" x2="125.631" y1="863.622" y2="863.622"/>
    <line x1="126.6452" x2="721.4922" y1="866.4567" y2="866.4567"/>
    <line x1="720.1356" x2="127.6595" y1="869.2913" y2="869.2913"/>
    <line x1="128.9867" x2="718.4366" y1="872.126" y2="872.126"/>
    <line x1="716.7376" x2="130.3274" y1="874.9606" y2="874.9606"/>
    <line x1="131.668" x2="715.02" y1="877.7953" y2="877.7953"/>
    <line x1="712.9177" x2="133.0087" y1="880.6299" y2="880.6299"/>
    <line x1="134.6608" x2="710.8153" y1="883.4646" y2="883.4646"/>
    <line x1="708.6017" x2="136.3598" y1="886.2992" y2="886.2992"/>
    <line x1="138.0588" x2="706.0325" y1="889.1339" y2="889.1339"/>
    <line x1="703.4633" x2="139.7579" y1="891.9685" y2="891.9685"/>
    <line x1="141.8556" x2="700.5321" y1="894.8031" y2="894.8031"/>
    <line x1="697.4045" x2="143.9579" y1="897.6378" y2="897.6378"/>
    <line x1="146.0602" x2="694.0679" y1="900.4724" y2="900.4724"/>
    <line x1="690.2458" x2="148.3282" y1="903.3071" y2="903.3071"/>
    <line x1="150.8973" x2="686.2252" y1="906.1417" y2="906.1417"/>
    <line x1="682.5779" x2="153.4665" y1="908.9764" y2="908.9764"/>
    <line x1="156.0372" x2="683.7056" y1="911.811" y2="911.811"/>
    <line x1="684.7199" x2="159.1648" y1="914.6457" y2="914.6457"/>
    <line x1="162.2923" x2="685.7341" y1="917.4803" y2="917.4803"/>
    <line x1="686.7484" x2="165.4199" y1="920.315" y2="920.315"/>
    <line x1="169.2173" x2="687.7408" y1="923.1496" y2="923.1496"/>
    <line x1="688.4509" x2="173.0394" y1="925.9843" y2="925.9843"/>
    <line x1="177.1061" x2="689.1609" y1="928.8189" y2="928.8189"/>
    <line x1="689.871" x2="181.8354" y1="931.6535" y2="931.6535"/>
    <line x1="186.5647" x2="690.581" y1="934.4882" y2="934.4882"/>
    <line x1="691.1891" x2="192.487" y1="937.3228" y2="937.3228"/>
    <line x1="198.4987" x2="691.6095" y1="940.1575" y2="940.1575"/>
    <line x1="692.03" x2="292.7243" y1="942.9921" y2="942.9921"/>
    <line x1="290.4418" x2="206.421" y1="942.9921" y2="942.9921"/>
    <line x1="215.9909" x2="280.8719" y1="945.8268" y2="945.8268"/>
    <line x1="291.8834" x2="692.871" y1="948.6614" y2="948.6614"/>
    <line x1="693.1397" x2="291.4629" y1="951.4961" y2="951.4961"/>
    <line x1="291.0424" x2="693.279" y1="954.3307" y2="954.3307"/>
    <line x1="693.4182" x2="290.6219" y1="957.1654" y2="957.1654"/>
    <line x1="290.2014" x2="693.5575" y1="960.0" y2="960.0"/>
    <line x1="693.6967" x2="290.0515" y1="962.8346" y2="962.8346"/>
    <line x1="289.9122" x2="693.6465" y1="965.6693" y2="965.6693"/>
    <line x1="693.5073" x2="289.773" y1="968.5039" y2="968.5039"/>
    <line x1="289.6337" x2="693.368" y1="971.3386" y2="971.3386"/>
    <line x1="693.2288" x2="289.4945" y1="974.1732" y2="974.1732"/>
    <line x1="289.3552" x2="693.0895" y1="977.0079" y2="977.0079"/>
    <line x1="692.7194" x2="289.3927" y1="979.8425" y2="979.8425"/>
    <line x1="289.532" x2="692.2989" y1="982.6772" y2="982.6772"/>
    <line x1="691.8784" x2="289.6712" y1="985.5118" y2="985.5118"/>
    <line x1="289.8105" x2="691.458" y1="988.3465" y2="988.3465"/>
    <line x1="691.0351" x2="289.9498" y1="991.1811" y2="991.1811"/>
    <line x1="290.089" x2="690.3251" y1="994.0157" y2="994.0157"/>
    <line x1="689.615" x2="290.3147" y1="996.8504" y2="996.8504"/>
    <line x1="290.7352" x2="688.905" y1="999.685" y2="999.685"/>
    <line x1="688.1949" x2="291.1557" y1="1002.5197" y2="1002.5197"/>
    <line x1="291.5762" x2="687.397" y1="1005.3543" y2="1005.3543"/>
    <line x1="686.3828" x2="291.9967" y1="1008.189" y2="1008.189"/>
    <line x1="292.4171" x2="685.3685" y1="1011.0236" y2="1011.0236"/>
    <line x1="684.3543" x2="292.8495" y1="1013.8583" y2="1013.8583"/>
    <line x1="293.5596" x2="683.34" y1="1016.6929" y2="1016.6929"/>
    <line x1="682.0946" x2="294.2696" y1="1019.5276" y2="1019.5276"/>
    <line x1="294.9797" x2="680.754" y1="1022.3622" y2="1022.3622"/>
    <line x1="679.4133" x2="295.6897" y1="1025.1969" y2="1025.1969"/>
    <line x1="296.3997" x2="678.0726" y1="1028.0315" y2="1028.0315"/>
    <line x1="676.6209" x2="297.1098" y1="1030.8661" y2="1030.8661"/>
    <line x1="298.0924" x2="674.9218" y1="1033.7008" y2="1033.7008"/>
    <line x1="673.2228" x2="299.1067" y1="1036.5354" y2="1036.5354"/>
    <line x1="300.1209" x2="671.5238" y1="1039.3701" y2="1039.3701"/>
    <line x1="669.7696" x2="301.1352" y1="1042.2047" y2="1042.2047"/>
    <line x1="302.1494" x2="667.6673" y1="1045.0394" y2="1045.0394"/>
    <line x1="665.565" x2="303.1637" y1="1047.874" y2="1047.874"/>
    <line x1="304.482" x2="663.4627" y1="1050.7087" y2="1050.7087"/>
    <line x1="661.2534" x2="305.8227" y1="1053.5433" y2="1053.5433"/>
    <line x1="307.1634" x2="658.6843" y1="1056.378" y2="1056.378"/>
    <line x1="656.1151" x2="308.5041" y1="1059.2126" y2="1059.2126"/>
    <line x1="309.8447" x2="653.5459" y1="1062.0472" y2="1062.0472"/>
    <line x1="650.6283" x2="311.2588" y1="1064.8819" y2="1064.8819"/>
    <line x1="374.075" x2="63.9788" y1="1065.3543" y2="1065.3543"/>
    <line x1="63.6282" x2="374.4256" y1="1063.937" y2="1063.937"/>
    <line x1="374.6358" x2="63.418" y1="1062.5197" y2="1062.5197"/>
    <line x1="63.2077" x2="374.8461" y1="1061.1024" y2="1061.1024"/>
    <line x1="375.0563" x2="62.9975" y1="1059.685" y2="1059.685"/>
    <line x1="62.6518" x2="737.0079" y1="1060.1575" y2="1060.1575"/>
    <line x1="737.0079" x2="56.6929" y1="1054.4882" y2="1054.4882"/>
    <line x1="62.1565" x2="375.8973" y1="1054.0157" y2="1054.0157"/>
    <line x1="375.687" x2="62.3668" y1="1055.4331" y2="1055.4331"/>
    <line x1="62.577" x2="375.4768" y1="1056.8504" y2="1056.8504"/>
    <line x1="375.2665" x2="62.7873" y1="1058.2677" y2="1058.2677"/>
    <line x1="61.9463" x2="376.1075" y1="1052.5984" y2="1052.5984"/>
    <line x1="376.3177" x2="61.7361" y1="1051.1811" y2="1051.1811"/>
    <line x1="61.5258" x2="376.528" y1="1049.7638" y2="1049.7638"/>
    <line x1="376.7131" x2="61.3407" y1="1048.3465" y2="1048.3465"/>
    <line x1="61.2711" x2="376.7827" y1="1046.9291" y2="1046.9291"/>
    <line x1="379.0457" x2="425.4594" y1="1046.9291" y2="1046.9291"/>
    <line x1="428.3158" x2="61.2015" y1="1045.5118" y2="1045.5118"/>
    <line x1="61.1318" x2="430.6804" y1="1044.0945" y2="1044.0945"/>
    <line x1="432.912" x2="61.0622" y1="1042.6772" y2="1042.6772"/>
    <line x1="60.9926" x2="434.823" y1="1041.2598" y2="1041.2598"/>
    <line x1="436.7136" x2="60.923" y1="1039.8425" y2="1039.8425"/>
    <line x1="60.8533" x2="438.2774" y1="1038.4252" y2="1038.4252"/>
    <line x1="439.8412" x2="60.7837" y1="1037.0079" y2="1037.0079"/>
    <line x1="60.7141" x2="441.2543" y1="1035.5906" y2="1035.5906"/>
    <line x1="442.5389" x2="60.6444" y1="1034.1732" y2="1034.1732"/>
    <line x1="60.6057" x2="443.8235" y1="1032.7559" y2="1032.7559"/>
    <line x1="444.9306" x2="60.6754" y1="1031.3386" y2="1031.3386"/>
    <line x1="60.745" x2="445.9817" y1="1029.9213" y2="1029.9213"/>
    <line x1="447.0329" x2="60.8146" y1="1028.5039" y2="1028.5039"/>
    <line x1="60.8842" x2="447.9333" y1="1027.0866" y2="1027.0866"/>
    <line x1="448.7828" x2="60.9539" y1="1025.6693" y2="1025.6693"/>
    <line x1="61.0235" x2="449.6324" y1="1024.252" y2="1024.252"/>
    <line x1="450.3869" x2="61.0931" y1="1022.8346" y2="1022.8346"/>
    <line x1="61.1628" x2="451.0573" y1="1021.4173" y2="1021.4173"/>
    <line x1="451.7276" x2="61.2324" y1="1020.0" y2="1020.0"/>
    <line x1="61.302" x2="452.3753" y1="1018.5827" y2="1018.5827"/>
    <line x1="452.8824" x2="61.4089" y1="1017.1654" y2="1017.1654"/>
    <line x1="61.6192" x2="453.3896" y1="1015.748" y2="1015.748"/>
    <line x1="453.8967" x2="61.8294" y1="1014.3307" y2="1014.3307"/>
    <line x1="62.0396" x2="454.3115" y1="1012.9134" y2="1012.9134"/>
    <line x1="454.6665" x2="62.2499" y1="1011.4961" y2="1011.4961"/>
    <line x1="62.4601" x2="455.0215" y1="1010.0787" y2="1010.0787"/>
    <line x1="455.3765" x2="62.6704" y1="1008.6614" y2="1008.6614"/>
    <line x1="62.8806" x2="455.5914" y1="1007.2441" y2="1007.2441"/>
    <line x1="455.8016" x2="63.0908" y1="1005.8268" y2="1005.8268"/>
    <line x1="63.3011" x2="456.0119" y1="1004.4094" y2="1004.4094"/>
    <line x1="456.1859" x2="63.5113" y1="1002.9921" y2="1002.9921"/>
    <line x1="63.7814" x2="456.2555" y1="1001.5748" y2="1001.5748"/>
    <line x1="456.3251" x2="64.1365" y1="1000.1575" y2="1000.1575"/>
    <line x1="64.4915" x2="456.3948" y1="998.7402" y2="998.7402"/>
    <line x1="456.3932" x2="64.8465" y1="997.3228" y2="997.3228"/>
    <line x1="65.2015" x2="456.3236" y1="995.9055" y2="995.9055"/>
    <line x1="456.254" x2="65.5565" y1="994.4882" y2="994.4882"/>
    <line x1="65.9116" x2="456.1843" y1="993.0709" y2="993.0709"/>
    <line x1="456.0072" x2="66.2666" y1="991.6535" y2="991.6535"/>
    <line x1="66.6216" x2="455.797" y1="990.2362" y2="990.2362"/>
    <line x1="455.5868" x2="66.9766" y1="988.8189" y2="988.8189"/>
    <line x1="67.3317" x2="455.3687" y1="987.4016" y2="987.4016"/>
    <line x1="455.0137" x2="67.8041" y1="985.9843" y2="985.9843"/>
    <line x1="68.3113" x2="454.6587" y1="984.5669" y2="984.5669"/>
    <line x1="454.3037" x2="68.8184" y1="983.1496" y2="983.1496"/>
    <line x1="69.3255" x2="453.8855" y1="981.7323" y2="981.7323"/>
    <line x1="453.3784" x2="69.8326" y1="980.315" y2="980.315"/>
    <line x1="70.3398" x2="452.8713" y1="978.8976" y2="978.8976"/>
    <line x1="452.3641" x2="70.8469" y1="977.4803" y2="977.4803"/>
    <line x1="71.354" x2="451.7129" y1="976.063" y2="976.063"/>
    <line x1="451.0425" x2="71.8612" y1="974.6457" y2="974.6457"/>
    <line x1="72.3683" x2="450.3722" y1="973.2283" y2="973.2283"/>
    <line x1="449.6136" x2="72.9478" y1="971.811" y2="971.811"/>
    <line x1="73.6181" x2="448.7641" y1="970.3937" y2="970.3937"/>
    <line x1="447.9146" x2="74.2885" y1="968.9764" y2="968.9764"/>
    <line x1="74.9588" x2="447.0097" y1="967.5591" y2="967.5591"/>
    <line x1="445.9586" x2="75.6291" y1="966.1417" y2="966.1417"/>
    <line x1="76.2995" x2="444.9074" y1="964.7244" y2="964.7244"/>
    <line x1="443.7951" x2="76.9698" y1="963.3071" y2="963.3071"/>
    <line x1="77.6402" x2="360.4136" y1="961.8898" y2="961.8898"/>
    <line x1="359.7433" x2="78.3105" y1="960.4724" y2="960.4724"/>
    <line x1="78.9809" x2="359.0729" y1="959.0551" y2="959.0551"/>
    <line x1="358.3083" x2="79.7455" y1="957.6378" y2="957.6378"/>
    <line x1="80.5951" x2="357.4587" y1="956.2205" y2="956.2205"/>
    <line x1="356.6092" x2="81.4446" y1="954.8031" y2="954.8031"/>
    <line x1="82.2941" x2="355.7597" y1="953.3858" y2="953.3858"/>
    <line x1="354.9102" x2="83.1436" y1="951.9685" y2="951.9685"/>
    <line x1="83.9931" x2="354.0607" y1="950.5512" y2="950.5512"/>
    <line x1="353.2112" x2="84.8426" y1="949.1339" y2="949.1339"/>
    <line x1="85.6921" x2="352.3617" y1="947.7165" y2="947.7165"/>
    <line x1="351.5122" x2="86.5416" y1="946.2992" y2="946.2992"/>
    <line x1="87.4148" x2="350.639" y1="944.8819" y2="944.8819"/>
    <line x1="349.5879" x2="88.4659" y1="943.4646" y2="943.4646"/>
    <line x1="89.5171" x2="348.5367" y1="942.0472" y2="942.0472"/>
    <line x1="347.4856" x2="90.5682" y1="940.6299" y2="940.6299"/>
    <line x1="91.6194" x2="346.4344" y1="939.2126" y2="939.2126"/>
    <line x1="345.3833" x2="92.6705" y1="937.7953" y2="937.7953"/>
    <line x1="93.7217" x2="344.3321" y1="936.378" y2="936.378"/>
    <line x1="343.2809" x2="94.7729" y1="934.9606" y2="934.9606"/>
    <line x1="95.824" x2="342.2298" y1="933.5433" y2="933.5433"/>
    <line x1="341.1072" x2="96.9466" y1="932.126" y2="932.126"/>
    <line x1="98.2311" x2="339.8226" y1="930.7087" y2="930.7087"/>
    <line x1="338.5381" x2="99.5157" y1="929.2913" y2="929.2913"/>
    <line x1="100.8003" x2="337.2535" y1="927.874" y2="927.874"/>
    <line x1="335.9689" x2="102.0849" y1="926.4567" y2="926.4567"/>
    <line x1="103.3695" x2="334.6843" y1="925.0394" y2="925.0394"/>
    <line x1="333.3997" x2="104.6541" y1="923.622" y2="923.622"/>
    <line x1="105.9387" x2="332.1151" y1="922.2047" y2="922.2047"/>
    <line x1="330.781" x2="107.2728" y1="920.7874" y2="920.7874"/>
    <line x1="108.8366" x2="329.2172" y1="919.3701" y2="919.3701"/>
    <line x1="327.6534" x2="110.4004" y1="917.9528" y2="917.9528"/>
    <line x1="111.9641" x2="326.0897" y1="916.5354" y2="916.5354"/>
    <line x1="324.5259" x2="113.5279" y1="915.1181" y2="915.1181"/>
    <line x1="115.0917" x2="322.9621" y1="913.7008" y2="913.7008"/>
    <line x1="321.3983" x2="116.6554" y1="912.2835" y2="912.2835"/>
    <line x1="118.2192" x2="319.8346" y1="910.8661" y2="910.8661"/>
    <line x1="317.9894" x2="120.0644" y1="909.4488" y2="909.4488"/>
    <line x1="121.9754" x2="316.0783" y1="908.0315" y2="908.0315"/>
    <line x1="314.1673" x2="123.8865" y1="906.6142" y2="906.6142"/>
    <line x1="125.7975" x2="312.2563" y1="905.1969" y2="905.1969"/>
    <line x1="310.3452" x2="127.7086" y1="903.7795" y2="903.7795"/>
    <line x1="129.6196" x2="308.4342" y1="902.3622" y2="902.3622"/>
    <line x1="306.3982" x2="131.6556" y1="900.9449" y2="900.9449"/>
    <line x1="134.0203" x2="304.0335" y1="899.5276" y2="899.5276"/>
    <line x1="301.6689" x2="136.3849" y1="898.1102" y2="898.1102"/>
    <line x1="138.7496" x2="299.3042" y1="896.6929" y2="896.6929"/>
    <line x1="296.9396" x2="141.1142" y1="895.2756" y2="895.2756"/>
    <line x1="143.4789" x2="294.5749" y1="893.8583" y2="893.8583"/>
    <line x1="291.8085" x2="146.2453" y1="892.4409" y2="892.4409"/>
    <line x1="149.242" x2="288.8118" y1="891.0236" y2="891.0236"/>
    <line x1="285.8151" x2="152.2387" y1="889.6063" y2="889.6063"/>
    <line x1="155.2354" x2="282.8184" y1="888.189" y2="888.189"/>
    <line x1="279.8218" x2="158.232" y1="886.7717" y2="886.7717"/>
    <line x1="162.1405" x2="275.9133" y1="885.3543" y2="885.3543"/>
    <line x1="271.9522" x2="166.1016" y1="883.937" y2="883.937"/>
    <line x1="170.0628" x2="267.991" y1="882.5197" y2="882.5197"/>
    <line x1="263.6063" x2="174.4475" y1="881.1024" y2="881.1024"/>
    <line x1="180.1058" x2="257.948" y1="879.685" y2="879.685"/>
    <line x1="252.2897" x2="185.7641" y1="878.2677" y2="878.2677"/>
    <line x1="193.6983" x2="244.3555" y1="876.8504" y2="876.8504"/>
    <line x1="234.8007" x2="203.2531" y1="875.4331" y2="875.4331"/>
    <line x1="230.3167" x2="266.5461" y1="948.6614" y2="948.6614"/>
    <line x1="292.3038" x2="692.4505" y1="945.8268" y2="945.8268"/>
    <line x1="737.0079" x2="56.6929" y1="946.7717" y2="946.7717"/>
    <line x1="56.6929" x2="737.0079" y1="941.1024" y2="941.1024"/>
    <line x1="737.0079" x2="56.6929" y1="935.4331" y2="935.4331"/>
    <line x1="56.6929" x2="737.0079" y1="929.7638" y2="929.7638"/>
    <line x1="737.0079" x2="56.6929" y1="924.0945" y2="924.0945"/>
    <line x1="56.6929" x2="737.0079" y1="918.4252" y2="918.4252"/>
    <line x1="737.0079" x2="56.6929" y1="912.7559" y2="912.7559"/>
    <line x1="56.6929" x2="737.0079" y1="907.0866" y2="907.0866"/>
    <line x1="737.0079" x2="56.9396" y1="901.4173" y2="901.4173"/>
    <line x1="56.6929" x2="737.0079" y1="895.748" y2="895.748"/>
    <line x1="737.0079" x2="62.3023" y1="890.0787" y2="890.0787"/>
    <line x1="56.6929" x2="737.0079" y1="884.4094" y2="884.4094"/>
    <line x1="737.0079" x2="68.7528" y1="878.7402" y2="878.7402"/>
    <line x1="56.6929" x2="737.0079" y1="873.0709" y2="873.0709"/>
    <line x1="737.0079" x2="76.1659" y1="867.4016" y2="867.4016"/>
    <line x1="84.7497" x2="737.0079" y1="856.063" y2="856.063"/>
    <line x1="737.0079" x2="56.6929" y1="850.3937" y2="850.3937"/>
    <line x1="56.6929" x2="737.0079" y1="861.7323" y2="861.7323"/>
    <line x1="737.0079" x2="95.0264" y1="844.7244" y2="844.7244"/>
    <line x1="107.3232" x2="737.0079" y1="833.3858" y2="833.3858"/>
    <line x1="737.0079" x2="56.6929" y1="839.0551" y2="839.0551"/>
    <line x1="56.6929" x2="737.0079" y1="827.7165" y2="827.7165"/>
    <line x1="737.0079" x2="117.8842" y1="822.0472" y2="822.0472"/>
    <line x1="119.5822" x2="334.6501" y1="823.937" y2="823.937"/>
    <line x1="330.828" x2="123.4043" y1="821.1024" y2="821.1024"/>
    <line x1="127.9671" x2="326.2651" y1="818.2677" y2="818.2677"/>
    <line x1="322.9781" x2="540.4784" y1="820.1575" y2="820.1575"/>
    <line x1="539.8081" x2="323.6485" y1="821.5748" y2="821.5748"/>
    <line x1="324.3188" x2="539.1377" y1="822.9921" y2="822.9921"/>
    <line x1="538.4674" x2="324.9892" y1="824.4094" y2="824.4094"/>
    <line x1="325.6595" x2="537.797" y1="825.8268" y2="825.8268"/>
    <line x1="537.0057" x2="326.4509" y1="827.2441" y2="827.2441"/>
    <line x1="327.3004" x2="536.1561" y1="828.6614" y2="828.6614"/>
    <line x1="535.3066" x2="328.1499" y1="830.0787" y2="830.0787"/>
    <line x1="328.9994" x2="534.4571" y1="831.4961" y2="831.4961"/>
    <line x1="533.6076" x2="329.8489" y1="832.9134" y2="832.9134"/>
    <line x1="330.6984" x2="532.7581" y1="834.3307" y2="834.3307"/>
    <line x1="531.9086" x2="331.5479" y1="835.748" y2="835.748"/>
    <line x1="332.5078" x2="530.9487" y1="837.1654" y2="837.1654"/>
    <line x1="529.8975" x2="333.559" y1="838.5827" y2="838.5827"/>
    <line x1="334.6102" x2="528.8464" y1="840.0" y2="840.0"/>
    <line x1="527.7952" x2="335.6613" y1="841.4173" y2="841.4173"/>
    <line x1="336.7125" x2="526.7441" y1="842.8346" y2="842.8346"/>
    <line x1="525.6929" x2="337.7636" y1="844.252" y2="844.252"/>
    <line x1="338.8148" x2="524.6417" y1="845.6693" y2="845.6693"/>
    <line x1="523.3869" x2="340.0696" y1="847.0866" y2="847.0866"/>
    <line x1="341.3542" x2="522.1023" y1="848.5039" y2="848.5039"/>
    <line x1="520.8177" x2="342.6388" y1="849.9213" y2="849.9213"/>
    <line x1="343.9234" x2="519.5332" y1="851.3386" y2="851.3386"/>
    <line x1="518.2486" x2="345.208" y1="852.7559" y2="852.7559"/>
    <line x1="346.4925" x2="516.964" y1="854.1732" y2="854.1732"/>
    <line x1="515.4798" x2="347.9767" y1="855.5906" y2="855.5906"/>
    <line x1="349.5405" x2="513.916" y1="857.0079" y2="857.0079"/>
    <line x1="512.3523" x2="351.1043" y1="858.4252" y2="858.4252"/>
    <line x1="352.668" x2="510.7885" y1="859.8425" y2="859.8425"/>
    <line x1="509.2247" x2="354.2318" y1="861.2598" y2="861.2598"/>
    <line x1="355.8421" x2="507.6144" y1="862.6772" y2="862.6772"/>
    <line x1="505.7034" x2="357.7531" y1="864.0945" y2="864.0945"/>
    <line x1="359.6642" x2="503.7924" y1="865.5118" y2="865.5118"/>
    <line x1="501.8813" x2="361.5752" y1="866.9291" y2="866.9291"/>
    <line x1="363.4862" x2="499.9703" y1="868.3465" y2="868.3465"/>
    <line x1="497.9761" x2="365.4805" y1="869.7638" y2="869.7638"/>
    <line x1="367.8451" x2="495.6114" y1="871.1811" y2="871.1811"/>
    <line x1="493.2467" x2="370.2098" y1="872.5984" y2="872.5984"/>
    <line x1="372.5745" x2="490.8821" y1="874.0157" y2="874.0157"/>
    <line x1="488.5174" x2="374.9391" y1="875.4331" y2="875.4331"/>
    <line x1="377.8795" x2="485.577" y1="876.8504" y2="876.8504"/>
    <line x1="482.5803" x2="380.8762" y1="878.2677" y2="878.2677"/>
    <line x1="383.8729" x2="479.5836" y1="879.685" y2="879.685"/>
    <line x1="476.2418" x2="387.2147" y1="881.1024" y2="881.1024"/>
    <line x1="391.1758" x2="472.2807" y1="882.5197" y2="882.5197"/>
    <line x1="468.3195" x2="395.137" y1="883.937" y2="883.937"/>
    <line x1="400.0454" x2="463.4112" y1="885.3543" y2="885.3543"/>
    <line x1="457.7529" x2="405.7036" y1="886.7717" y2="886.7717"/>
    <line x1="413.4616" x2="449.9949" y1="888.189" y2="888.189"/>
    <line x1="434.2756" x2="429.1809" y1="889.6063" y2="889.6063"/>
    <line x1="414.7655" x2="124.6167" y1="860.7874" y2="860.7874"/>
    <line x1="123.6025" x2="408.1688" y1="857.9528" y2="857.9528"/>
    <line x1="398.8358" x2="122.826" y1="855.1181" y2="855.1181"/>
    <line x1="122.116" x2="374.7468" y1="852.2835" y2="852.2835"/>
    <line x1="375.4569" x2="121.4059" y1="849.4488" y2="849.4488"/>
    <line x1="120.6959" x2="376.1669" y1="846.6142" y2="846.6142"/>
    <line x1="376.7631" x2="120.0997" y1="843.7795" y2="843.7795"/>
    <line x1="119.6793" x2="377.1836" y1="840.9449" y2="840.9449"/>
    <line x1="377.604" x2="354.5324" y1="838.1102" y2="838.1102"/>
    <line x1="352.1216" x2="119.2588" y1="838.1102" y2="838.1102"/>
    <line x1="118.8383" x2="348.9941" y1="835.2756" y2="835.2756"/>
    <line x1="345.8665" x2="118.4178" y1="832.4409" y2="832.4409"/>
    <line x1="118.2556" x2="342.2942" y1="829.6063" y2="829.6063"/>
    <line x1="338.4722" x2="118.1163" y1="826.7717" y2="826.7717"/>
    <line x1="118.1812" x2="378.6816" y1="810.7087" y2="810.7087"/>
    <line x1="378.6282" x2="379.025" y1="821.1024" y2="821.1024"/>
    <line x1="378.8858" x2="373.8989" y1="823.937" y2="823.937"/>
    <line x1="369.4493" x2="378.7465" y1="826.7717" y2="826.7717"/>
    <line x1="378.6073" x2="365.6273" y1="829.6063" y2="829.6063"/>
    <line x1="361.8052" x2="378.445" y1="832.4409" y2="832.4409"/>
    <line x1="378.0245" x2="357.9831" y1="835.2756" y2="835.2756"/>
    <line x1="322.3078" x2="541.1488" y1="818.7402" y2="818.7402"/>
    <line x1="541.8191" x2="321.6374" y1="817.3228" y2="817.3228"/>
    <line x1="377.4081" x2="119.4547" y1="799.3701" y2="799.3701"/>
    <line x1="121.7368" x2="375.1261" y1="788.0315" y2="788.0315"/>
    <line x1="371.7735" x2="125.0893" y1="776.6929" y2="776.6929"/>
    <line x1="129.6113" x2="367.2515" y1="765.3543" y2="765.3543"/>
    <line x1="361.4104" x2="135.4524" y1="754.0157" y2="754.0157"/>
    <line x1="142.8351" x2="354.0277" y1="742.6772" y2="742.6772"/>
    <line x1="344.7684" x2="152.0944" y1="731.3386" y2="731.3386"/>
    <line x1="163.7495" x2="333.1133" y1="720.0" y2="720.0"/>
    <line x1="317.5532" x2="179.3096" y1="708.6614" y2="708.6614"/>
    <line x1="202.1899" x2="294.6729" y1="697.3228" y2="697.3228"/>
    <line x1="271.5117" x2="194.164" y1="663.3071" y2="663.3071"/>
    <line x1="174.4522" x2="291.2235" y1="651.9685" y2="651.9685"/>
    <line x1="304.1497" x2="161.526" y1="640.6299" y2="640.6299"/>
    <line x1="152.2225" x2="313.4532" y1="629.2913" y2="629.2913"/>
    <line x1="320.3663" x2="145.3094" y1="617.9528" y2="617.9528"/>
    <line x1="140.38" x2="325.2957" y1="606.6142" y2="606.6142"/>
    <line x1="328.7099" x2="136.9658" y1="595.2756" y2="595.2756"/>
    <line x1="134.9367" x2="330.739" y1="583.937" y2="583.937"/>
    <line x1="331.4542" x2="134.2215" y1="572.5984" y2="572.5984"/>
    <line x1="134.9483" x2="330.7274" y1="561.2598" y2="561.2598"/>
    <line x1="328.6903" x2="136.9854" y1="549.9213" y2="549.9213"/>
    <line x1="140.408" x2="325.2677" y1="538.5827" y2="538.5827"/>
    <line x1="320.3293" x2="145.3464" y1="527.2441" y2="527.2441"/>
    <line x1="152.2805" x2="313.3952" y1="515.9055" y2="515.9055"/>
    <line x1="304.0788" x2="161.5969" y1="504.5669" y2="504.5669"/>
    <line x1="174.5577" x2="291.118" y1="493.2283" y2="493.2283"/>
    <line x1="271.3463" x2="194.3294" y1="481.8898" y2="481.8898"/>
    <line x1="56.6929" x2="737.0079" y1="476.2205" y2="476.2205"/>
    <line x1="737.0079" x2="385.1875" y1="470.5512" y2="470.5512"/>
    <line x1="384.6305" x2="737.0079" y1="459.2126" y2="459.2126"/>
    <line x1="737.0079" x2="56.6929" y1="464.8819" y2="464.8819"/>
    <line x1="56.6929" x2="737.0079" y1="453.5433" y2="453.5433"/>
    <line x1="737.0079" x2="385.1823" y1="447.874" y2="447.874"/>
    <line x1="386.4115" x2="737.0079" y1="436.5354" y2="436.5354"/>
    <line x1="737.0079" x2="56.6929" y1="430.8661" y2="430.8661"/>
    <line x1="56.6929" x2="737.0079" y1="419.5276" y2="419.5276"/>
    <line x1="737.0079" x2="391.1806" y1="413.8583" y2="413.8583"/>
    <line x1="388.3404" x2="737.0079" y1="425.1969" y2="425.1969"/>
    <line x1="737.0079" x2="56.6929" y1="408.189" y2="408.189"/>
    <line x1="56.6929" x2="737.0079" y1="396.8504" y2="396.8504"/>
    <line x1="737.0079" x2="399.8218" y1="391.1811" y2="391.1811"/>
    <line x1="399.0457" x2="737.0079" y1="379.8425" y2="379.8425"/>
    <line x1="737.0079" x2="56.6929" y1="374.1732" y2="374.1732"/>
    <line x1="56.6929" x2="737.0079" y1="362.8346" y2="362.8346"/>
    <line x1="737.0079" x2="399.8472" y1="357.1654" y2="357.1654"/>
    <line x1="401.0974" x2="737.0079" y1="345.8268" y2="345.8268"/>
    <line x1="737.0079" x2="56.6929" y1="351.4961" y2="351.4961"/>
    <line x1="56.6929" x2="737.0079" y1="385.5118" y2="385.5118"/>
    <line x1="737.0079" x2="395.0621" y1="402.5197" y2="402.5197"/>
    <line x1="406.1423" x2="697.9775" y1="378.8976" y2="378.8976"/>
    <line x1="698.3979" x2="407.8413" y1="376.063" y2="376.063"/>
    <line x1="409.5403" x2="698.7917" y1="373.2283" y2="373.2283"/>
    <line x1="701.1107" x2="411.2393" y1="370.3937" y2="370.3937"/>
    <line x1="413.1901" x2="704.3819" y1="367.5591" y2="367.5591"/>
    <line x1="707.5095" x2="415.2924" y1="364.7244" y2="364.7244"/>
    <line x1="417.3947" x2="710.2022" y1="361.8898" y2="361.8898"/>
    <line x1="712.7714" x2="419.4971" y1="359.0551" y2="359.0551"/>
    <line x1="431.9359" x2="722.6243" y1="344.8819" y2="344.8819"/>
    <line x1="724.1176" x2="435.0525" y1="342.0472" y2="342.0472"/>
    <line x1="438.1801" x2="725.4583" y1="339.2126" y2="339.2126"/>
    <line x1="726.799" x2="441.3076" y1="336.378" y2="336.378"/>
    <line x1="444.5888" x2="727.8581" y1="333.5433" y2="333.5433"/>
    <line x1="728.8724" x2="448.4109" y1="330.7087" y2="330.7087"/>
    <line x1="452.233" x2="729.875" y1="327.874" y2="327.874"/>
    <line x1="730.585" x2="456.0551" y1="325.0394" y2="325.0394"/>
    <line x1="460.6816" x2="731.2951" y1="322.2047" y2="322.2047"/>
    <line x1="731.9679" x2="465.4109" y1="319.3701" y2="319.3701"/>
    <line x1="470.1515" x2="732.3883" y1="316.5354" y2="316.5354"/>
    <line x1="732.8088" x2="476.1448" y1="313.7008" y2="313.7008"/>
    <line x1="482.1382" x2="733.1839" y1="310.8661" y2="310.8661"/>
    <line x1="733.3231" x2="489.3189" y1="308.0315" y2="308.0315"/>
    <line x1="531.8712" x2="737.0079" y1="287.2441" y2="287.2441"/>
    <line x1="737.0079" x2="531.3641" y1="285.8268" y2="285.8268"/>
    <line x1="530.9441" x2="737.0079" y1="284.4094" y2="284.4094"/>
    <line x1="737.0079" x2="535.4874" y1="297.1654" y2="297.1654"/>
    <line x1="536.1577" x2="737.0079" y1="298.5827" y2="298.5827"/>
    <line x1="737.0079" x2="552.259" y1="325.5118" y2="325.5118"/>
    <line x1="553.3101" x2="737.0079" y1="326.9291" y2="326.9291"/>
    <line x1="737.0079" x2="554.4909" y1="328.3465" y2="328.3465"/>
    <line x1="560.9138" x2="736.8612" y1="335.4331" y2="335.4331"/>
    <line x1="735.5089" x2="562.2662" y1="336.8504" y2="336.8504"/>
    <line x1="613.3402" x2="680.5319" y1="222.9921" y2="222.9921"/>
    <line x1="672.751" x2="621.1212" y1="220.1575" y2="220.1575"/>
    <line x1="633.6134" x2="660.2587" y1="217.3228" y2="217.3228"/>
    <line x1="522.9357" x2="499.5594" y1="169.1339" y2="169.1339"/>
    <line x1="397.2166" x2="737.0079" y1="368.5039" y2="368.5039"/>
    <line x1="737.0079" x2="56.6929" y1="442.2047" y2="442.2047"/>
    <line x1="56.6929" x2="737.0079" y1="487.5591" y2="487.5591"/>
    <line x1="737.0079" x2="386.4273" y1="481.8898" y2="481.8898"/>
    <line x1="388.3672" x2="737.0079" y1="493.2283" y2="493.2283"/>
    <line x1="737.0079" x2="56.6929" y1="498.8976" y2="498.8976"/>
    <line x1="56.6929" x2="737.0079" y1="510.2362" y2="510.2362"/>
    <line x1="737.0079" x2="395.1003" y1="515.9055" y2="515.9055"/>
    <line x1="391.2073" x2="737.0079" y1="504.5669" y2="504.5669"/>
    <line x1="737.0079" x2="56.6929" y1="521.5748" y2="521.5748"/>
    <line x1="56.6929" x2="737.0079" y1="532.9134" y2="532.9134"/>
    <line x1="737.0079" x2="399.8722" y1="527.2441" y2="527.2441"/>
    <line x1="405.6399" x2="737.0079" y1="538.5827" y2="538.5827"/>
    <line x1="737.0079" x2="56.6929" y1="544.252" y2="544.252"/>
    <line x1="56.6929" x2="737.0079" y1="555.5906" y2="555.5906"/>
    <line x1="737.0079" x2="415.502" y1="561.2598" y2="561.2598"/>
    <line x1="412.5685" x2="737.0079" y1="549.9213" y2="549.9213"/>
    <line x1="737.0079" x2="56.6929" y1="566.9291" y2="566.9291"/>
    <line x1="56.6929" x2="737.0079" y1="578.2677" y2="578.2677"/>
    <line x1="737.0079" x2="407.2489" y1="583.937" y2="583.937"/>
    <line x1="405.4717" x2="737.0079" y1="595.2756" y2="595.2756"/>
    <line x1="737.0079" x2="56.6929" y1="589.6063" y2="589.6063"/>
    <line x1="56.6929" x2="737.0079" y1="600.9449" y2="600.9449"/>
    <line x1="737.0079" x2="405.2033" y1="606.6142" y2="606.6142"/>
    <line x1="407.6142" x2="737.0079" y1="617.9528" y2="617.9528"/>
    <line x1="737.0079" x2="56.6929" y1="612.2835" y2="612.2835"/>
    <line x1="56.6929" x2="737.0079" y1="623.622" y2="623.622"/>
    <line x1="737.0079" x2="410.9658" y1="629.2913" y2="629.2913"/>
    <line x1="412.962" x2="737.0079" y1="640.6299" y2="640.6299"/>
    <line x1="737.0079" x2="56.6929" y1="634.9606" y2="634.9606"/>
    <line x1="56.6929" x2="737.0079" y1="805.0394" y2="805.0394"/>
    <line x1="737.0079" x2="398.6254" y1="810.7087" y2="810.7087"/>
    <line x1="461.4718" x2="483.1051" y1="795.5906" y2="795.5906"/>
    <line x1="532.2922" x2="730.0393" y1="801.2598" y2="801.2598"/>
    <line x1="729.3292" x2="533.0022" y1="798.4252" y2="798.4252"/>
    <line x1="533.7123" x2="728.6192" y1="795.5906" y2="795.5906"/>
    <line x1="727.9092" x2="534.4223" y1="792.7559" y2="792.7559"/>
    <line x1="535.3835" x2="726.948" y1="789.9213" y2="789.9213"/>
    <line x1="725.9338" x2="536.3977" y1="787.0866" y2="787.0866"/>
    <line x1="537.412" x2="724.9195" y1="784.252" y2="784.252"/>
    <line x1="723.7308" x2="538.6006" y1="781.4173" y2="781.4173"/>
    <line x1="539.9413" x2="722.3901" y1="778.5827" y2="778.5827"/>
    <line x1="721.0495" x2="541.282" y1="775.748" y2="775.748"/>
    <line x1="542.7569" x2="719.5746" y1="772.9134" y2="772.9134"/>
    <line x1="717.8756" x2="544.4559" y1="770.0787" y2="770.0787"/>
    <line x1="546.1549" x2="716.1765" y1="767.2441" y2="767.2441"/>
    <line x1="714.3258" x2="548.0057" y1="764.4094" y2="764.4094"/>
    <line x1="615.8738" x2="646.4576" y1="721.8898" y2="721.8898"/>
    <line x1="737.0079" x2="56.6929" y1="816.378" y2="816.378"/>
    <line x1="56.6929" x2="737.0079" y1="952.4409" y2="952.4409"/>
    <line x1="737.0079" x2="56.6929" y1="958.1102" y2="958.1102"/>
    <line x1="56.6929" x2="737.0079" y1="963.7795" y2="963.7795"/>
    <line x1="737.0079" x2="56.6929" y1="969.4488" y2="969.4488"/>
    <line x1="56.6929" x2="737.0079" y1="975.1181" y2="975.1181"/>
    <line x1="737.0079" x2="56.6929" y1="980.7874" y2="980.7874"/>
    <line x1="56.6929" x2="737.0079" y1="986.4567" y2="986.4567"/>
    <line x1="737.0079" x2="56.6929" y1="992.126" y2="992.126"/>
    <line x1="56.6929" x2="737.0079" y1="997.7953" y2="997.7953"/>
    <line x1="737.0079" x2="56.6929" y1="1003.4646" y2="1003.4646"/>
    <line x1="56.6929" x2="737.0079" y1="1009.1339" y2="1009.1339"/>
    <line x1="737.0079" x2="56.6929" y1="1014.8031" y2="1014.8031"/>
    <line x1="56.6929" x2="737.0079" y1="1020.4724" y2="1020.4724"/>
    <line x1="737.0079" x2="56.6929" y1="1026.1417" y2="1026.1417"/>
    <line x1="56.6929" x2="737.0079" y1="1031.811" y2="1031.811"/>
    <line x1="737.0079" x2="56.6929" y1="1037.4803" y2="1037.4803"/>
    <line x1="56.6929" x2="737.0079" y1="1043.1496" y2="1043.1496"/>
    <line x1="737.0079" x2="57.2891" y1="1048.8189" y2="1048.8189"/>
    <line x1="56.6929" x2="737.0079" y1="1065.8268" y2="1065.8268"/>
    <line x1="442.5106" x2="361.9945" y1="961.8898" y2="961.8898"/>
    <line x1="363.2791" x2="441.226" y1="960.4724" y2="960.4724"/>
    <line x1="439.8067" x2="364.6983" y1="959.0551" y2="959.0551"/>
    <line x1="366.2621" x2="438.243" y1="957.6378" y2="957.6378"/>
    <line x1="436.6792" x2="367.8259" y1="956.2205" y2="956.2205"/>
    <line x1="369.7241" x2="434.7809" y1="954.8031" y2="954.8031"/>
    <line x1="432.8699" x2="371.6352" y1="953.3858" y2="953.3858"/>
    <line x1="373.8767" x2="430.6283" y1="951.9685" y2="951.9685"/>
    <line x1="428.2637" x2="376.2414" y1="950.5512" y2="950.5512"/>
    <line x1="379.1117" x2="425.3933" y1="949.1339" y2="949.1339"/>
    <line x1="422.2073" x2="382.2977" y1="947.7165" y2="947.7165"/>
    <line x1="386.2589" x2="418.2462" y1="946.2992" y2="946.2992"/>
    <line x1="412.6201" x2="391.885" y1="944.8819" y2="944.8819"/>
    <line x1="382.2105" x2="422.2946" y1="1048.3465" y2="1048.3465"/>
    <line x1="418.3334" x2="386.1716" y1="1049.7638" y2="1049.7638"/>
    <line x1="391.6781" x2="412.827" y1="1051.1811" y2="1051.1811"/>
    <line x1="423.7027" x2="439.7539" y1="650.0787" y2="650.0787"/>
    <line x1="410.7346" x2="737.0079" y1="572.5984" y2="572.5984"/>
  </g>
</svg>
